<?xml version="1.0" encoding="utf-8" standalone="no"?>
<!DOCTYPE svg PUBLIC "-//W3C//DTD SVG 1.1//EN"
  "http://www.w3.org/Graphics/SVG/1.1/DTD/svg11.dtd">
<svg xmlns:xlink="http://www.w3.org/1999/xlink" width="460.8pt" height="345.6pt" viewBox="0 0 460.8 345.6" xmlns="http://www.w3.org/2000/svg" version="1.1">
 <metadata>
  <rdf:RDF xmlns:dc="http://purl.org/dc/elements/1.1/" xmlns:cc="http://creativecommons.org/ns#" xmlns:rdf="http://www.w3.org/1999/02/22-rdf-syntax-ns#">
   <cc:Work>
    <dc:type rdf:resource="http://purl.org/dc/dcmitype/StillImage"/>
    <dc:date>2023-06-27T13:48:48.738433</dc:date>
    <dc:format>image/svg+xml</dc:format>
    <dc:creator>
     <cc:Agent>
      <dc:title>Matplotlib v3.6.3, https://matplotlib.org/</dc:title>
     </cc:Agent>
    </dc:creator>
   </cc:Work>
  </rdf:RDF>
 </metadata>
 <defs>
  <style type="text/css">*{stroke-linejoin: round; stroke-linecap: butt}</style>
 </defs>
 <g id="figure_1">
  <g id="patch_1">
   <path d="M 0 345.6 
L 460.8 345.6 
L 460.8 0 
L 0 0 
z
" style="fill: #ffffff"/>
  </g>
  <g id="axes_1">
   <g id="patch_2">
    <path d="M 103.104 307.584 
L 369.216 307.584 
L 369.216 41.472 
L 103.104 41.472 
z
" style="fill: #ffffff"/>
   </g>
   <g id="patch_3">
    <path d="M 236.16 263.232 
C 259.684576 263.232 282.248813 253.885587 298.8832 237.2512 
C 315.517587 220.616813 324.864 198.052576 324.864 174.528 
C 324.864 151.003424 315.517587 128.439187 298.8832 111.8048 
C 282.248813 95.170413 259.684576 85.824 236.16 85.824 
C 212.635424 85.824 190.071187 95.170413 173.4368 111.8048 
C 156.802413 128.439187 147.456 151.003424 147.456 174.528 
C 147.456 198.052576 156.802413 220.616813 173.4368 237.2512 
C 190.071187 253.885587 212.635424 263.232 236.16 263.232 
z
" clip-path="url(#p863b8a84e3)" style="fill: #1f77b4; opacity: 0.1"/>
   </g>
   <g id="patch_4">
    <path d="M 236.16 174.927529 
C 236.265956 174.927529 236.367587 174.885433 236.44251 174.81051 
C 236.517433 174.735587 236.559529 174.633956 236.559529 174.528 
C 236.559529 174.422044 236.517433 174.320413 236.44251 174.24549 
C 236.367587 174.170567 236.265956 174.128471 236.16 174.128471 
C 236.054044 174.128471 235.952413 174.170567 235.87749 174.24549 
C 235.802567 174.320413 235.760471 174.422044 235.760471 174.528 
C 235.760471 174.633956 235.802567 174.735587 235.87749 174.81051 
C 235.952413 174.885433 236.054044 174.927529 236.16 174.927529 
z
" clip-path="url(#p863b8a84e3)" style="fill: #0000ff; stroke: #0000ff; stroke-linejoin: miter"/>
   </g>
   <g id="matplotlib.axis_1">
    <g id="xtick_1">
     <g id="line2d_1">
      <defs>
       <path id="mfed4d7e068" d="M 0 0 
L 0 3.5 
" style="stroke: #000000; stroke-width: 0.8"/>
      </defs>
      <g>
       <use xlink:href="#mfed4d7e068" x="103.104" y="307.584" style="stroke: #000000; stroke-width: 0.8"/>
      </g>
     </g>
     <g id="text_1">
      <!-- −0.015 -->
      <g transform="translate(84.600094 322.182437) scale(0.1 -0.1)">
       <defs>
        <path id="DejaVuSans-2212" d="M 678 2272 
L 4684 2272 
L 4684 1741 
L 678 1741 
L 678 2272 
z
" transform="scale(0.015625)"/>
        <path id="DejaVuSans-30" d="M 2034 4250 
Q 1547 4250 1301 3770 
Q 1056 3291 1056 2328 
Q 1056 1369 1301 889 
Q 1547 409 2034 409 
Q 2525 409 2770 889 
Q 3016 1369 3016 2328 
Q 3016 3291 2770 3770 
Q 2525 4250 2034 4250 
z
M 2034 4750 
Q 2819 4750 3233 4129 
Q 3647 3509 3647 2328 
Q 3647 1150 3233 529 
Q 2819 -91 2034 -91 
Q 1250 -91 836 529 
Q 422 1150 422 2328 
Q 422 3509 836 4129 
Q 1250 4750 2034 4750 
z
" transform="scale(0.015625)"/>
        <path id="DejaVuSans-2e" d="M 684 794 
L 1344 794 
L 1344 0 
L 684 0 
L 684 794 
z
" transform="scale(0.015625)"/>
        <path id="DejaVuSans-31" d="M 794 531 
L 1825 531 
L 1825 4091 
L 703 3866 
L 703 4441 
L 1819 4666 
L 2450 4666 
L 2450 531 
L 3481 531 
L 3481 0 
L 794 0 
L 794 531 
z
" transform="scale(0.015625)"/>
        <path id="DejaVuSans-35" d="M 691 4666 
L 3169 4666 
L 3169 4134 
L 1269 4134 
L 1269 2991 
Q 1406 3038 1543 3061 
Q 1681 3084 1819 3084 
Q 2600 3084 3056 2656 
Q 3513 2228 3513 1497 
Q 3513 744 3044 326 
Q 2575 -91 1722 -91 
Q 1428 -91 1123 -41 
Q 819 9 494 109 
L 494 744 
Q 775 591 1075 516 
Q 1375 441 1709 441 
Q 2250 441 2565 725 
Q 2881 1009 2881 1497 
Q 2881 1984 2565 2268 
Q 2250 2553 1709 2553 
Q 1456 2553 1204 2497 
Q 953 2441 691 2322 
L 691 4666 
z
" transform="scale(0.015625)"/>
       </defs>
       <use xlink:href="#DejaVuSans-2212"/>
       <use xlink:href="#DejaVuSans-30" x="83.789062"/>
       <use xlink:href="#DejaVuSans-2e" x="147.412109"/>
       <use xlink:href="#DejaVuSans-30" x="179.199219"/>
       <use xlink:href="#DejaVuSans-31" x="242.822266"/>
       <use xlink:href="#DejaVuSans-35" x="306.445312"/>
      </g>
     </g>
    </g>
    <g id="xtick_2">
     <g id="line2d_2">
      <g>
       <use xlink:href="#mfed4d7e068" x="147.456" y="307.584" style="stroke: #000000; stroke-width: 0.8"/>
      </g>
     </g>
     <g id="text_2">
      <!-- −0.010 -->
      <g transform="translate(128.952094 322.182437) scale(0.1 -0.1)">
       <use xlink:href="#DejaVuSans-2212"/>
       <use xlink:href="#DejaVuSans-30" x="83.789062"/>
       <use xlink:href="#DejaVuSans-2e" x="147.412109"/>
       <use xlink:href="#DejaVuSans-30" x="179.199219"/>
       <use xlink:href="#DejaVuSans-31" x="242.822266"/>
       <use xlink:href="#DejaVuSans-30" x="306.445312"/>
      </g>
     </g>
    </g>
    <g id="xtick_3">
     <g id="line2d_3">
      <g>
       <use xlink:href="#mfed4d7e068" x="191.808" y="307.584" style="stroke: #000000; stroke-width: 0.8"/>
      </g>
     </g>
     <g id="text_3">
      <!-- −0.005 -->
      <g transform="translate(173.304094 322.182437) scale(0.1 -0.1)">
       <use xlink:href="#DejaVuSans-2212"/>
       <use xlink:href="#DejaVuSans-30" x="83.789062"/>
       <use xlink:href="#DejaVuSans-2e" x="147.412109"/>
       <use xlink:href="#DejaVuSans-30" x="179.199219"/>
       <use xlink:href="#DejaVuSans-30" x="242.822266"/>
       <use xlink:href="#DejaVuSans-35" x="306.445312"/>
      </g>
     </g>
    </g>
    <g id="xtick_4">
     <g id="line2d_4">
      <g>
       <use xlink:href="#mfed4d7e068" x="236.16" y="307.584" style="stroke: #000000; stroke-width: 0.8"/>
      </g>
     </g>
     <g id="text_4">
      <!-- 0.000 -->
      <g transform="translate(221.845938 322.182437) scale(0.1 -0.1)">
       <use xlink:href="#DejaVuSans-30"/>
       <use xlink:href="#DejaVuSans-2e" x="63.623047"/>
       <use xlink:href="#DejaVuSans-30" x="95.410156"/>
       <use xlink:href="#DejaVuSans-30" x="159.033203"/>
       <use xlink:href="#DejaVuSans-30" x="222.65625"/>
      </g>
     </g>
    </g>
    <g id="xtick_5">
     <g id="line2d_5">
      <g>
       <use xlink:href="#mfed4d7e068" x="280.512" y="307.584" style="stroke: #000000; stroke-width: 0.8"/>
      </g>
     </g>
     <g id="text_5">
      <!-- 0.005 -->
      <g transform="translate(266.197938 322.182437) scale(0.1 -0.1)">
       <use xlink:href="#DejaVuSans-30"/>
       <use xlink:href="#DejaVuSans-2e" x="63.623047"/>
       <use xlink:href="#DejaVuSans-30" x="95.410156"/>
       <use xlink:href="#DejaVuSans-30" x="159.033203"/>
       <use xlink:href="#DejaVuSans-35" x="222.65625"/>
      </g>
     </g>
    </g>
    <g id="xtick_6">
     <g id="line2d_6">
      <g>
       <use xlink:href="#mfed4d7e068" x="324.864" y="307.584" style="stroke: #000000; stroke-width: 0.8"/>
      </g>
     </g>
     <g id="text_6">
      <!-- 0.010 -->
      <g transform="translate(310.549938 322.182437) scale(0.1 -0.1)">
       <use xlink:href="#DejaVuSans-30"/>
       <use xlink:href="#DejaVuSans-2e" x="63.623047"/>
       <use xlink:href="#DejaVuSans-30" x="95.410156"/>
       <use xlink:href="#DejaVuSans-31" x="159.033203"/>
       <use xlink:href="#DejaVuSans-30" x="222.65625"/>
      </g>
     </g>
    </g>
    <g id="xtick_7">
     <g id="line2d_7">
      <g>
       <use xlink:href="#mfed4d7e068" x="369.216" y="307.584" style="stroke: #000000; stroke-width: 0.8"/>
      </g>
     </g>
     <g id="text_7">
      <!-- 0.015 -->
      <g transform="translate(354.901938 322.182437) scale(0.1 -0.1)">
       <use xlink:href="#DejaVuSans-30"/>
       <use xlink:href="#DejaVuSans-2e" x="63.623047"/>
       <use xlink:href="#DejaVuSans-30" x="95.410156"/>
       <use xlink:href="#DejaVuSans-31" x="159.033203"/>
       <use xlink:href="#DejaVuSans-35" x="222.65625"/>
      </g>
     </g>
    </g>
    <g id="text_8">
     <!-- Synodic x (AU) -->
     <g transform="translate(199.367031 335.860562) scale(0.1 -0.1)">
      <defs>
       <path id="DejaVuSans-53" d="M 3425 4513 
L 3425 3897 
Q 3066 4069 2747 4153 
Q 2428 4238 2131 4238 
Q 1616 4238 1336 4038 
Q 1056 3838 1056 3469 
Q 1056 3159 1242 3001 
Q 1428 2844 1947 2747 
L 2328 2669 
Q 3034 2534 3370 2195 
Q 3706 1856 3706 1288 
Q 3706 609 3251 259 
Q 2797 -91 1919 -91 
Q 1588 -91 1214 -16 
Q 841 59 441 206 
L 441 856 
Q 825 641 1194 531 
Q 1563 422 1919 422 
Q 2459 422 2753 634 
Q 3047 847 3047 1241 
Q 3047 1584 2836 1778 
Q 2625 1972 2144 2069 
L 1759 2144 
Q 1053 2284 737 2584 
Q 422 2884 422 3419 
Q 422 4038 858 4394 
Q 1294 4750 2059 4750 
Q 2388 4750 2728 4690 
Q 3069 4631 3425 4513 
z
" transform="scale(0.015625)"/>
       <path id="DejaVuSans-79" d="M 2059 -325 
Q 1816 -950 1584 -1140 
Q 1353 -1331 966 -1331 
L 506 -1331 
L 506 -850 
L 844 -850 
Q 1081 -850 1212 -737 
Q 1344 -625 1503 -206 
L 1606 56 
L 191 3500 
L 800 3500 
L 1894 763 
L 2988 3500 
L 3597 3500 
L 2059 -325 
z
" transform="scale(0.015625)"/>
       <path id="DejaVuSans-6e" d="M 3513 2113 
L 3513 0 
L 2938 0 
L 2938 2094 
Q 2938 2591 2744 2837 
Q 2550 3084 2163 3084 
Q 1697 3084 1428 2787 
Q 1159 2491 1159 1978 
L 1159 0 
L 581 0 
L 581 3500 
L 1159 3500 
L 1159 2956 
Q 1366 3272 1645 3428 
Q 1925 3584 2291 3584 
Q 2894 3584 3203 3211 
Q 3513 2838 3513 2113 
z
" transform="scale(0.015625)"/>
       <path id="DejaVuSans-6f" d="M 1959 3097 
Q 1497 3097 1228 2736 
Q 959 2375 959 1747 
Q 959 1119 1226 758 
Q 1494 397 1959 397 
Q 2419 397 2687 759 
Q 2956 1122 2956 1747 
Q 2956 2369 2687 2733 
Q 2419 3097 1959 3097 
z
M 1959 3584 
Q 2709 3584 3137 3096 
Q 3566 2609 3566 1747 
Q 3566 888 3137 398 
Q 2709 -91 1959 -91 
Q 1206 -91 779 398 
Q 353 888 353 1747 
Q 353 2609 779 3096 
Q 1206 3584 1959 3584 
z
" transform="scale(0.015625)"/>
       <path id="DejaVuSans-64" d="M 2906 2969 
L 2906 4863 
L 3481 4863 
L 3481 0 
L 2906 0 
L 2906 525 
Q 2725 213 2448 61 
Q 2172 -91 1784 -91 
Q 1150 -91 751 415 
Q 353 922 353 1747 
Q 353 2572 751 3078 
Q 1150 3584 1784 3584 
Q 2172 3584 2448 3432 
Q 2725 3281 2906 2969 
z
M 947 1747 
Q 947 1113 1208 752 
Q 1469 391 1925 391 
Q 2381 391 2643 752 
Q 2906 1113 2906 1747 
Q 2906 2381 2643 2742 
Q 2381 3103 1925 3103 
Q 1469 3103 1208 2742 
Q 947 2381 947 1747 
z
" transform="scale(0.015625)"/>
       <path id="DejaVuSans-69" d="M 603 3500 
L 1178 3500 
L 1178 0 
L 603 0 
L 603 3500 
z
M 603 4863 
L 1178 4863 
L 1178 4134 
L 603 4134 
L 603 4863 
z
" transform="scale(0.015625)"/>
       <path id="DejaVuSans-63" d="M 3122 3366 
L 3122 2828 
Q 2878 2963 2633 3030 
Q 2388 3097 2138 3097 
Q 1578 3097 1268 2742 
Q 959 2388 959 1747 
Q 959 1106 1268 751 
Q 1578 397 2138 397 
Q 2388 397 2633 464 
Q 2878 531 3122 666 
L 3122 134 
Q 2881 22 2623 -34 
Q 2366 -91 2075 -91 
Q 1284 -91 818 406 
Q 353 903 353 1747 
Q 353 2603 823 3093 
Q 1294 3584 2113 3584 
Q 2378 3584 2631 3529 
Q 2884 3475 3122 3366 
z
" transform="scale(0.015625)"/>
       <path id="DejaVuSans-20" transform="scale(0.015625)"/>
       <path id="DejaVuSans-78" d="M 3513 3500 
L 2247 1797 
L 3578 0 
L 2900 0 
L 1881 1375 
L 863 0 
L 184 0 
L 1544 1831 
L 300 3500 
L 978 3500 
L 1906 2253 
L 2834 3500 
L 3513 3500 
z
" transform="scale(0.015625)"/>
       <path id="DejaVuSans-28" d="M 1984 4856 
Q 1566 4138 1362 3434 
Q 1159 2731 1159 2009 
Q 1159 1288 1364 580 
Q 1569 -128 1984 -844 
L 1484 -844 
Q 1016 -109 783 600 
Q 550 1309 550 2009 
Q 550 2706 781 3412 
Q 1013 4119 1484 4856 
L 1984 4856 
z
" transform="scale(0.015625)"/>
       <path id="DejaVuSans-41" d="M 2188 4044 
L 1331 1722 
L 3047 1722 
L 2188 4044 
z
M 1831 4666 
L 2547 4666 
L 4325 0 
L 3669 0 
L 3244 1197 
L 1141 1197 
L 716 0 
L 50 0 
L 1831 4666 
z
" transform="scale(0.015625)"/>
       <path id="DejaVuSans-55" d="M 556 4666 
L 1191 4666 
L 1191 1831 
Q 1191 1081 1462 751 
Q 1734 422 2344 422 
Q 2950 422 3222 751 
Q 3494 1081 3494 1831 
L 3494 4666 
L 4128 4666 
L 4128 1753 
Q 4128 841 3676 375 
Q 3225 -91 2344 -91 
Q 1459 -91 1007 375 
Q 556 841 556 1753 
L 556 4666 
z
" transform="scale(0.015625)"/>
       <path id="DejaVuSans-29" d="M 513 4856 
L 1013 4856 
Q 1481 4119 1714 3412 
Q 1947 2706 1947 2009 
Q 1947 1309 1714 600 
Q 1481 -109 1013 -844 
L 513 -844 
Q 928 -128 1133 580 
Q 1338 1288 1338 2009 
Q 1338 2731 1133 3434 
Q 928 4138 513 4856 
z
" transform="scale(0.015625)"/>
      </defs>
      <use xlink:href="#DejaVuSans-53"/>
      <use xlink:href="#DejaVuSans-79" x="63.476562"/>
      <use xlink:href="#DejaVuSans-6e" x="122.65625"/>
      <use xlink:href="#DejaVuSans-6f" x="186.035156"/>
      <use xlink:href="#DejaVuSans-64" x="247.216797"/>
      <use xlink:href="#DejaVuSans-69" x="310.693359"/>
      <use xlink:href="#DejaVuSans-63" x="338.476562"/>
      <use xlink:href="#DejaVuSans-20" x="393.457031"/>
      <use xlink:href="#DejaVuSans-78" x="425.244141"/>
      <use xlink:href="#DejaVuSans-20" x="484.423828"/>
      <use xlink:href="#DejaVuSans-28" x="516.210938"/>
      <use xlink:href="#DejaVuSans-41" x="555.224609"/>
      <use xlink:href="#DejaVuSans-55" x="623.632812"/>
      <use xlink:href="#DejaVuSans-29" x="696.826172"/>
     </g>
    </g>
   </g>
   <g id="matplotlib.axis_2">
    <g id="ytick_1">
     <g id="line2d_8">
      <defs>
       <path id="m2f6fc13b98" d="M 0 0 
L -3.5 0 
" style="stroke: #000000; stroke-width: 0.8"/>
      </defs>
      <g>
       <use xlink:href="#m2f6fc13b98" x="103.104" y="307.584" style="stroke: #000000; stroke-width: 0.8"/>
      </g>
     </g>
     <g id="text_9">
      <!-- −0.015 -->
      <g transform="translate(59.096188 311.383219) scale(0.1 -0.1)">
       <use xlink:href="#DejaVuSans-2212"/>
       <use xlink:href="#DejaVuSans-30" x="83.789062"/>
       <use xlink:href="#DejaVuSans-2e" x="147.412109"/>
       <use xlink:href="#DejaVuSans-30" x="179.199219"/>
       <use xlink:href="#DejaVuSans-31" x="242.822266"/>
       <use xlink:href="#DejaVuSans-35" x="306.445312"/>
      </g>
     </g>
    </g>
    <g id="ytick_2">
     <g id="line2d_9">
      <g>
       <use xlink:href="#m2f6fc13b98" x="103.104" y="263.232" style="stroke: #000000; stroke-width: 0.8"/>
      </g>
     </g>
     <g id="text_10">
      <!-- −0.010 -->
      <g transform="translate(59.096188 267.031219) scale(0.1 -0.1)">
       <use xlink:href="#DejaVuSans-2212"/>
       <use xlink:href="#DejaVuSans-30" x="83.789062"/>
       <use xlink:href="#DejaVuSans-2e" x="147.412109"/>
       <use xlink:href="#DejaVuSans-30" x="179.199219"/>
       <use xlink:href="#DejaVuSans-31" x="242.822266"/>
       <use xlink:href="#DejaVuSans-30" x="306.445312"/>
      </g>
     </g>
    </g>
    <g id="ytick_3">
     <g id="line2d_10">
      <g>
       <use xlink:href="#m2f6fc13b98" x="103.104" y="218.88" style="stroke: #000000; stroke-width: 0.8"/>
      </g>
     </g>
     <g id="text_11">
      <!-- −0.005 -->
      <g transform="translate(59.096188 222.679219) scale(0.1 -0.1)">
       <use xlink:href="#DejaVuSans-2212"/>
       <use xlink:href="#DejaVuSans-30" x="83.789062"/>
       <use xlink:href="#DejaVuSans-2e" x="147.412109"/>
       <use xlink:href="#DejaVuSans-30" x="179.199219"/>
       <use xlink:href="#DejaVuSans-30" x="242.822266"/>
       <use xlink:href="#DejaVuSans-35" x="306.445312"/>
      </g>
     </g>
    </g>
    <g id="ytick_4">
     <g id="line2d_11">
      <g>
       <use xlink:href="#m2f6fc13b98" x="103.104" y="174.528" style="stroke: #000000; stroke-width: 0.8"/>
      </g>
     </g>
     <g id="text_12">
      <!-- 0.000 -->
      <g transform="translate(67.475875 178.327219) scale(0.1 -0.1)">
       <use xlink:href="#DejaVuSans-30"/>
       <use xlink:href="#DejaVuSans-2e" x="63.623047"/>
       <use xlink:href="#DejaVuSans-30" x="95.410156"/>
       <use xlink:href="#DejaVuSans-30" x="159.033203"/>
       <use xlink:href="#DejaVuSans-30" x="222.65625"/>
      </g>
     </g>
    </g>
    <g id="ytick_5">
     <g id="line2d_12">
      <g>
       <use xlink:href="#m2f6fc13b98" x="103.104" y="130.176" style="stroke: #000000; stroke-width: 0.8"/>
      </g>
     </g>
     <g id="text_13">
      <!-- 0.005 -->
      <g transform="translate(67.475875 133.975219) scale(0.1 -0.1)">
       <use xlink:href="#DejaVuSans-30"/>
       <use xlink:href="#DejaVuSans-2e" x="63.623047"/>
       <use xlink:href="#DejaVuSans-30" x="95.410156"/>
       <use xlink:href="#DejaVuSans-30" x="159.033203"/>
       <use xlink:href="#DejaVuSans-35" x="222.65625"/>
      </g>
     </g>
    </g>
    <g id="ytick_6">
     <g id="line2d_13">
      <g>
       <use xlink:href="#m2f6fc13b98" x="103.104" y="85.824" style="stroke: #000000; stroke-width: 0.8"/>
      </g>
     </g>
     <g id="text_14">
      <!-- 0.010 -->
      <g transform="translate(67.475875 89.623219) scale(0.1 -0.1)">
       <use xlink:href="#DejaVuSans-30"/>
       <use xlink:href="#DejaVuSans-2e" x="63.623047"/>
       <use xlink:href="#DejaVuSans-30" x="95.410156"/>
       <use xlink:href="#DejaVuSans-31" x="159.033203"/>
       <use xlink:href="#DejaVuSans-30" x="222.65625"/>
      </g>
     </g>
    </g>
    <g id="ytick_7">
     <g id="line2d_14">
      <g>
       <use xlink:href="#m2f6fc13b98" x="103.104" y="41.472" style="stroke: #000000; stroke-width: 0.8"/>
      </g>
     </g>
     <g id="text_15">
      <!-- 0.015 -->
      <g transform="translate(67.475875 45.271219) scale(0.1 -0.1)">
       <use xlink:href="#DejaVuSans-30"/>
       <use xlink:href="#DejaVuSans-2e" x="63.623047"/>
       <use xlink:href="#DejaVuSans-30" x="95.410156"/>
       <use xlink:href="#DejaVuSans-31" x="159.033203"/>
       <use xlink:href="#DejaVuSans-35" x="222.65625"/>
      </g>
     </g>
    </g>
    <g id="text_16">
     <!-- Synodic y (AU) -->
     <g transform="translate(53.0165 211.320969) rotate(-90) scale(0.1 -0.1)">
      <use xlink:href="#DejaVuSans-53"/>
      <use xlink:href="#DejaVuSans-79" x="63.476562"/>
      <use xlink:href="#DejaVuSans-6e" x="122.65625"/>
      <use xlink:href="#DejaVuSans-6f" x="186.035156"/>
      <use xlink:href="#DejaVuSans-64" x="247.216797"/>
      <use xlink:href="#DejaVuSans-69" x="310.693359"/>
      <use xlink:href="#DejaVuSans-63" x="338.476562"/>
      <use xlink:href="#DejaVuSans-20" x="393.457031"/>
      <use xlink:href="#DejaVuSans-79" x="425.244141"/>
      <use xlink:href="#DejaVuSans-20" x="484.423828"/>
      <use xlink:href="#DejaVuSans-28" x="516.210938"/>
      <use xlink:href="#DejaVuSans-41" x="555.224609"/>
      <use xlink:href="#DejaVuSans-55" x="623.632812"/>
      <use xlink:href="#DejaVuSans-29" x="696.826172"/>
     </g>
    </g>
   </g>
   <g id="line2d_15">
    <path d="M 426.969273 -1 
L 421.284167 8.977405 
L 415.141532 19.317172 
L 408.666687 29.780209 
L 402.109271 39.957607 
L 395.710164 49.488796 
L 389.688267 58.070075 
L 384.131763 65.607597 
L 379.012362 72.182719 
L 374.198045 78.01078 
L 369.454711 83.402219 
L 364.767283 88.392478 
L 360.017168 93.126387 
L 355.08656 97.725526 
L 349.970616 102.191787 
L 344.667169 106.524082 
L 339.292049 110.630652 
L 333.846619 114.517162 
L 328.329536 118.185246 
L 322.857832 121.559686 
L 317.425436 124.648059 
L 312.145694 127.392756 
L 307.005642 129.814809 
L 301.855312 131.993103 
L 296.664999 133.945636 
L 291.257666 135.743745 
L 285.271117 137.497382 
L 278.083585 139.359601 
L 264.690139 142.534008 
L 256.596662 144.583598 
L 251.121731 146.183229 
L 246.494165 147.762464 
L 242.644938 149.30356 
L 239.195865 150.916843 
L 235.955981 152.682761 
L 233.21282 154.413714 
L 230.745952 156.204939 
L 228.342627 158.227942 
L 226.275377 160.259852 
L 224.344319 162.492322 
L 222.779254 164.633559 
L 221.386674 166.900704 
L 220.187249 169.264094 
L 219.190737 171.689234 
L 218.309716 174.448219 
L 217.666439 177.197988 
L 217.198284 180.201997 
L 216.934942 183.409464 
L 216.886896 186.768578 
L 217.068109 190.491567 
L 217.496248 194.494034 
L 218.203713 198.925992 
L 219.226432 203.883411 
L 220.680752 209.788427 
L 222.878415 217.697702 
L 228.045068 235.998047 
L 229.382458 241.724839 
L 230.279882 246.534123 
L 230.83367 250.684396 
L 231.11859 254.455423 
L 231.164068 257.975671 
L 230.986648 261.265409 
L 230.593677 264.412286 
L 229.993162 267.412122 
L 229.197967 270.256869 
L 228.202855 272.98969 
L 227.047846 275.520361 
L 225.784527 277.76896 
L 224.492808 279.63387 
L 223.189385 281.131745 
L 221.914509 282.263756 
L 220.644317 283.101649 
L 219.349989 283.695952 
L 217.998437 284.075522 
L 216.552587 284.247868 
L 215.012341 284.203329 
L 213.381085 283.933636 
L 211.624131 283.416422 
L 209.752344 282.628259 
L 207.827832 281.571875 
L 205.920393 280.270797 
L 204.061364 278.729908 
L 202.361817 277.032717 
L 200.839532 275.202779 
L 199.469098 273.205795 
L 198.256432 271.042743 
L 197.173158 268.653305 
L 196.199849 265.958672 
L 195.349582 262.937478 
L 194.638112 259.57346 
L 194.096872 255.944221 
L 193.739472 252.05935 
L 193.585075 247.929579 
L 193.650114 243.778726 
L 193.940264 239.535495 
L 194.452675 235.336651 
L 195.181796 231.212381 
L 196.119648 227.187799 
L 197.25516 223.283521 
L 198.623972 219.384337 
L 200.177036 215.627595 
L 201.965087 211.883163 
L 203.998972 208.144859 
L 206.292132 204.401744 
L 208.8633 200.636475 
L 211.74189 196.821058 
L 214.980893 192.903195 
L 218.536392 188.954594 
L 221.140291 186.397547 
L 224.975274 182.954916 
L 229.567709 179.132182 
L 234.06277 175.68221 
L 234.88138 175.102922 
L 236.2138 174.31993 
L 235.397611 175.396709 
L 232.634197 177.993784 
L 228.214492 181.811232 
L 223.37617 185.68854 
L 218.776015 189.094905 
L 214.427521 192.04959 
L 210.201699 194.66075 
L 206.028743 196.979438 
L 201.865127 199.031538 
L 197.852587 200.7613 
L 193.788198 202.267043 
L 189.82109 203.50115 
L 185.770008 204.526393 
L 181.784996 205.309529 
L 177.696943 205.888042 
L 173.50122 206.253356 
L 169.347457 206.395597 
L 165.07777 206.322779 
L 160.691852 206.02486 
L 156.190993 205.491013 
L 151.726428 204.73778 
L 147.152044 203.736497 
L 142.618896 202.512959 
L 138.12821 201.068414 
L 133.679733 199.401727 
L 129.271041 197.510566 
L 124.897528 195.392601 
L 120.552992 193.046366 
L 116.091317 190.384771 
L 111.506589 187.386134 
L 106.791906 184.029559 
L 101.939643 180.294994 
L 96.941623 176.163342 
L 91.789313 171.616697 
L 86.333976 166.503566 
L 80.565323 160.784779 
L 74.474689 154.42327 
L 68.200842 147.544276 
L 61.74905 140.137308 
L 55.276063 132.364872 
L 48.944426 124.414465 
L 42.771583 116.304103 
L 36.769047 108.0451 
L 30.940449 99.646213 
L 25.141306 90.900301 
L 19.224909 81.569263 
L 13.183462 71.618057 
L 7.007121 61.014536 
L 0.544312 49.47379 
L -1 46.651501 
L -1 46.651501 
" clip-path="url(#p863b8a84e3)" style="fill: none; stroke: #808080; stroke-width: 1.5; stroke-linecap: square"/>
   </g>
   <g id="line2d_16">
    <path d="M 259.281072 174.940163 
L 259.076089 172.808303 
L 258.666246 170.690921 
L 258.051513 168.607346 
L 257.233684 166.577362 
L 256.216522 164.621055 
L 255.00589 162.758615 
L 253.609875 161.010107 
L 252.038879 159.395198 
L 250.305671 157.932845 
L 248.42539 156.640956 
L 246.415496 155.536022 
L 244.295636 154.632747 
L 242.087446 153.943676 
L 239.814272 153.478859 
L 237.50082 153.245548 
L 235.172741 153.247965 
L 232.856173 153.487151 
L 230.577251 153.960894 
L 228.361614 154.663766 
L 226.233932 155.587241 
L 224.217468 156.719906 
L 222.333696 158.047738 
L 220.601993 159.554436 
L 219.0394 161.221794 
L 217.660457 163.030082 
L 216.477124 164.958434 
L 215.498746 166.985216 
L 214.732096 169.088372 
L 214.181446 171.24574 
L 213.848681 173.435324 
L 213.733433 175.635538 
L 213.833235 177.825407 
L 214.143675 179.984738 
L 214.658564 182.094259 
L 215.370092 184.135733 
L 216.268984 186.092051 
L 217.344655 187.947302 
L 218.718011 189.853896 
L 220.273948 191.602817 
L 221.994091 193.178344 
L 223.858972 194.566761 
L 225.848222 195.756378 
L 227.940755 196.737549 
L 230.114954 197.502678 
L 232.348842 198.046211 
L 234.62025 198.364621 
L 236.906981 198.456384 
L 239.18697 198.321943 
L 241.438427 197.963662 
L 243.639986 197.385777 
L 245.770838 196.594338 
L 247.810856 195.597139 
L 249.740713 194.403652 
L 251.541994 193.024956 
L 253.197302 191.473661 
L 254.690349 189.763837 
L 256.006056 187.91094 
L 257.130644 185.931743 
L 258.051722 183.844267 
L 258.758391 181.667711 
L 259.24134 179.422389 
L 259.492958 177.12965 
L 259.507455 174.811806 
L 259.280999 172.492043 
L 258.86454 170.401644 
L 258.247805 168.347905 
L 257.432764 166.34962 
L 256.423144 164.425807 
L 255.224545 162.595556 
L 253.844539 160.877858 
L 252.292768 159.291398 
L 250.581012 157.854315 
L 248.723239 156.583928 
L 246.735607 155.496428 
L 244.636419 154.606547 
L 242.446015 153.927208 
L 240.186596 153.469176 
L 237.881973 153.240718 
L 235.557238 153.247294 
L 233.238366 153.491306 
L 230.951755 153.971916 
L 228.723729 154.684951 
L 226.580008 155.622912 
L 224.545195 156.775083 
L 222.642288 158.127748 
L 220.892249 159.66449 
L 219.313643 161.366571 
L 217.922369 163.213358 
L 216.731482 165.182781 
L 215.751111 167.251793 
L 214.988456 169.396812 
L 214.447866 171.594133 
L 214.13097 173.820293 
L 214.036854 176.052388 
L 214.162274 178.268327 
L 214.501869 180.447046 
L 215.048395 182.568661 
L 215.792944 184.614586 
L 216.72516 186.567615 
L 217.833431 188.411964 
L 219.105077 190.133305 
L 220.676346 191.869393 
L 222.409709 193.426013 
L 224.285134 194.790193 
L 226.281884 195.951046 
L 228.378685 196.899744 
L 230.553883 197.629481 
L 232.785586 198.135438 
L 235.051802 198.414757 
L 237.330567 198.466505 
L 239.600075 198.29164 
L 241.838803 197.892983 
L 244.025634 197.275177 
L 246.139984 196.444651 
L 248.161929 195.409568 
L 250.072325 194.17978 
L 251.852935 192.766767 
L 253.486548 191.18357 
L 254.957099 189.44472 
L 256.249787 187.566157 
L 257.351185 185.565145 
L 258.249349 183.460176 
L 258.933928 181.270875 
L 259.396263 179.017894 
L 259.629495 176.722801 
L 259.628659 174.407963 
L 259.390795 172.096422 
L 258.915042 169.811755 
L 258.202752 167.577932 
L 257.352993 165.61166 
L 256.315235 163.72561 
L 255.095683 161.937888 
L 253.70232 160.266346 
L 252.144963 158.728417 
L 250.435302 157.340924 
L 248.586926 156.119869 
L 246.615326 155.080197 
L 244.537863 154.235539 
L 242.3737 153.597939 
L 240.143688 153.177563 
L 237.87019 152.982413 
L 235.576854 153.018042 
L 233.288318 153.287298 
L 231.029853 153.790106 
L 228.826952 154.523305 
L 226.704875 155.480561 
L 224.68816 156.65236 
L 222.800139 158.026109 
L 221.062457 159.586317 
L 219.494643 161.314886 
L 218.113735 163.191469 
L 216.933994 165.1939 
L 215.966703 167.298662 
L 215.220067 169.48137 
L 214.699209 171.717251 
L 214.406246 173.981595 
L 214.340442 176.250155 
L 214.498417 178.499501 
L 214.874392 180.707306 
L 215.460456 182.852569 
L 216.246842 184.915784 
L 217.2222 186.879041 
L 218.37385 188.726101 
L 219.688025 190.442412 
L 221.150081 192.015109 
L 222.91083 193.565881 
L 224.81083 194.916707 
L 226.828422 196.057229 
L 228.941598 196.979294 
L 231.128172 197.676867 
L 233.365908 198.145954 
L 235.632647 198.384524 
L 237.906406 198.392449 
L 240.165485 198.171446 
L 242.388555 197.72503 
L 244.554758 197.058474 
L 246.643804 196.178775 
L 248.636071 195.094613 
L 250.51272 193.816323 
L 252.255801 192.35585 
L 253.848384 190.726705 
L 255.274678 188.94391 
L 256.520166 187.023933 
L 257.571735 184.984604 
L 258.417815 182.84503 
L 259.048503 180.625478 
L 259.455698 178.347258 
L 259.633216 176.03258 
L 259.576908 173.704399 
L 259.284764 171.386252 
L 258.757003 169.102069 
L 257.996158 166.875981 
L 257.007142 164.73211 
L 255.916172 162.874593 
L 254.649968 161.122398 
L 253.217525 159.492672 
L 251.629548 158.001929 
L 249.898436 156.665874 
L 248.038263 155.499219 
L 246.06473 154.515498 
L 243.995105 153.726864 
L 241.848133 153.143886 
L 239.643918 152.775335 
L 237.40377 152.62798 
L 235.150019 152.706381 
L 232.905781 153.012695 
L 230.694689 153.546512 
L 228.540581 154.304717 
L 226.46715 155.281393 
L 224.497562 156.467789 
L 222.654055 157.852341 
L 220.957536 159.420771 
L 219.427176 161.156261 
L 218.080046 163.0397 
L 216.930786 165.050004 
L 215.991347 167.164492 
L 215.270794 169.359307 
L 214.775203 171.609859 
L 214.507637 173.891282 
L 214.468202 176.178863 
L 214.654182 178.448452 
L 215.060232 180.676818 
L 215.678617 182.841955 
L 216.499486 184.923322 
L 217.511163 186.902026 
L 218.700431 188.760944 
L 220.052819 190.484792 
L 221.552864 192.060153 
L 223.184354 193.475462 
L 224.930539 194.720971 
L 226.9634 195.88542 
L 229.091324 196.826478 
L 231.291221 197.538187 
L 233.540097 198.016802 
L 235.815201 198.260662 
L 238.094131 198.270086 
L 240.354928 198.047267 
L 242.576156 197.59619 
L 244.736971 196.922566 
L 246.817194 196.033771 
L 248.797379 194.938804 
L 250.658893 193.648248 
L 252.384004 192.174239 
L 253.955976 190.530438 
L 255.359179 188.731992 
L 256.579217 186.795499 
L 257.603053 184.738951 
L 258.419161 182.581669 
L 259.017671 180.344216 
L 259.39053 178.048285 
L 259.531651 175.716566 
L 259.437063 173.372582 
L 259.105053 171.040505 
L 258.536285 168.744937 
L 257.733906 166.510672 
L 256.806499 164.553527 
L 255.696857 162.685814 
L 254.412921 160.925446 
L 252.964406 159.289722 
L 251.362777 157.795144 
L 249.621189 156.457219 
L 247.754418 155.290271 
L 245.778764 154.307257 
L 243.711929 153.519585 
L 241.572888 152.936942 
L 239.381718 152.567137 
L 237.159427 152.415949 
L 234.927748 152.486998 
L 232.708918 152.781628 
L 230.525437 153.298814 
L 228.399808 154.035095 
L 226.354256 154.984536 
L 224.410442 156.138725 
L 222.589156 157.486805 
L 220.910014 159.015556 
L 219.391155 160.709516 
L 218.048947 162.551154 
L 216.897719 164.521092 
L 215.949519 166.598368 
L 215.213916 168.76075 
L 214.697851 170.985068 
L 214.405544 173.247583 
L 214.338462 175.524359 
L 214.495351 177.791636 
L 214.872325 180.026187 
L 215.463017 182.205647 
L 216.258769 184.308809 
L 217.248862 186.315871 
L 218.420773 188.208633 
L 219.760444 189.970646 
L 221.252556 191.587312 
L 222.880792 193.045933 
L 224.628094 194.335723 
L 226.476888 195.447787 
L 228.606443 196.457416 
L 230.81321 197.236573 
L 233.073291 197.780794 
L 235.363057 198.087926 
L 237.659305 198.157984 
L 239.939387 197.993007 
L 242.181314 197.596928 
L 244.363827 196.975459 
L 246.466469 196.135989 
L 248.469632 195.087507 
L 250.354615 193.84053 
L 252.103677 192.407055 
L 253.7001 190.800515 
L 255.12826 189.035751 
L 256.373716 187.12898 
L 257.423312 185.097768 
L 258.265297 182.960992 
L 258.889464 180.738791 
L 259.287296 178.4525 
L 259.452142 176.124564 
L 259.379383 173.77841 
L 259.066609 171.438298 
L 258.5138 169.129127 
L 257.805019 167.078018 
L 256.903722 165.092506 
L 255.815619 163.191606 
L 254.548358 161.39402 
L 253.111541 159.717909 
L 251.516708 158.180658 
L 249.777284 156.79863 
L 247.908494 155.586928 
L 245.927235 154.559159 
L 243.85192 153.727213 
L 241.702287 153.101071 
L 239.499179 152.688624 
L 237.2643 152.495537 
L 235.019958 152.525133 
L 232.788786 152.778324 
L 230.593464 153.253573 
L 228.456436 153.946887 
L 226.399631 154.851854 
L 224.444184 155.959709 
L 222.610183 157.259434 
L 220.916413 158.737883 
L 219.380128 160.379945 
L 218.016842 162.168725 
L 216.840135 164.08575 
L 215.861495 166.111204 
L 215.09018 168.224172 
L 214.533117 170.402909 
L 214.194829 172.625116 
L 214.077406 174.868227 
L 214.180502 177.109695 
L 214.501385 179.327277 
L 215.03501 181.499312 
L 215.774141 183.604975 
L 216.709494 185.624522 
L 217.829923 187.539496 
L 219.122613 189.332907 
L 220.573302 190.98938 
L 222.166509 192.495262 
L 223.885767 193.838697 
L 225.713847 195.009661 
L 227.829211 196.088811 
L 230.030645 196.941069 
L 232.293863 197.560683 
L 234.594662 197.944386 
L 236.909146 198.091273 
L 239.213924 198.002655 
L 241.486264 197.681917 
L 243.704223 197.134371 
L 245.846739 196.367119 
L 247.893712 195.388932 
L 249.826064 194.210134 
L 251.625787 192.842511 
L 253.275989 191.299231 
L 254.760944 189.594782 
L 256.066135 187.744916 
L 257.178323 185.766613 
L 258.085614 183.678043 
L 258.777557 181.498535 
L 259.245249 179.248537 
L 259.481465 176.949567 
L 259.480808 174.624152 
L 259.239875 172.295734 
L 258.757435 169.98855 
L 258.110184 167.930451 
L 257.266913 165.929445 
L 256.23214 164.004661 
L 255.012332 162.17517 
L 253.615975 160.459771 
L 252.053625 158.876741 
L 250.337924 157.443566 
L 248.483562 156.176657 
L 246.507202 155.091048 
L 244.42735 154.20011 
L 242.264164 153.515264 
L 240.039219 153.045729 
L 237.775223 152.798303 
L 235.495696 152.777187 
L 233.224612 152.983873 
L 230.986036 153.417083 
L 228.80375 154.072775 
L 226.700893 154.944207 
L 224.699611 156.022055 
L 222.820752 157.294584 
L 221.083584 158.747855 
L 219.505563 160.365967 
L 218.10214 162.13132 
L 216.886611 164.024887 
L 215.870016 166.026503 
L 215.061069 168.115139 
L 214.466125 170.269184 
L 214.089186 172.466711 
L 213.93193 174.68573 
L 213.993761 176.904433 
L 214.271893 179.101421 
L 214.761446 181.255915 
L 215.455557 183.34795 
L 216.345516 185.358555 
L 217.420905 187.26991 
L 218.669761 189.065491 
L 220.078736 190.730188 
L 221.633278 192.250408 
L 223.317804 193.614152 
L 225.301292 194.921246 
L 227.399399 196.015121 
L 229.588672 196.88687 
L 231.845259 197.530073 
L 234.145173 197.940757 
L 236.464535 198.117316 
L 238.779798 198.060425 
L 241.067944 197.772923 
L 243.306651 197.259692 
L 245.474444 196.527522 
L 247.55081 195.584978 
L 249.5163 194.442273 
L 251.352608 193.11114 
L 253.042635 191.60472 
L 254.570543 189.937457 
L 255.921802 188.125006 
L 257.083236 186.184157 
L 258.043069 184.132764 
L 258.790982 181.989685 
L 259.318173 179.774735 
L 259.617439 177.508629 
L 259.683271 175.212935 
L 259.511961 172.910007 
L 259.101741 170.622916 
L 258.452922 168.375345 
L 257.65815 166.386724 
L 256.671931 164.46913 
L 255.499681 162.641044 
L 254.148681 160.920874 
L 252.628171 159.32676 
L 250.949424 157.876347 
L 249.125787 156.586527 
L 247.172694 155.473148 
L 245.107617 154.550702 
L 242.94997 153.832 
L 240.720944 153.327846 
L 238.443278 153.046722 
L 236.140955 152.994506 
L 233.838848 153.174242 
L 231.562307 153.585967 
L 229.336708 154.22662 
L 227.186997 155.090033 
L 225.137218 156.167013 
L 223.210087 157.44551 
L 221.426591 158.910854 
L 219.80565 160.546061 
L 218.363855 162.332189 
L 217.115267 164.24871 
L 216.071297 166.273905 
L 215.240652 168.385248 
L 214.629347 170.559775 
L 214.240763 172.774423 
L 214.075754 175.006337 
L 214.132778 177.233142 
L 214.408055 179.433174 
L 214.89574 181.585675 
L 215.588098 183.67096 
L 216.475684 185.670547 
L 217.547524 187.567268 
L 218.791288 189.345348 
L 220.193459 190.990476 
L 221.7395 192.489852 
L 223.587907 193.957438 
L 225.570259 195.222299 
L 227.664266 196.27397 
L 229.847059 197.104307 
L 232.095415 197.707469 
L 234.385963 198.079893 
L 236.695388 198.22024 
L 239.000621 198.129342 
L 241.279023 197.810126 
L 243.508548 197.267524 
L 245.667905 196.508381 
L 247.73669 195.541343 
L 249.695516 194.376752 
L 251.526125 193.02652 
L 253.211477 191.504021 
L 254.735841 189.823966 
L 256.08486 188.002294 
L 257.245613 186.056062 
L 258.206673 184.003339 
L 258.958155 181.863115 
L 259.491768 179.655207 
L 259.800866 177.400177 
L 259.88051 175.119247 
L 259.727528 172.834222 
L 259.3406 170.567407 
L 258.720341 168.341512 
L 257.869409 166.179548 
L 256.792613 164.104706 
L 255.623631 162.313626 
L 254.280864 160.631073 
L 252.773082 159.074136 
L 251.110858 157.659492 
L 249.306618 156.403211 
L 247.374692 155.32053 
L 245.331324 154.425597 
L 243.194642 153.73119 
L 240.984591 153.24841 
L 238.722792 152.986368 
L 236.432346 152.95187 
L 234.137564 153.149114 
L 231.863623 153.579433 
L 229.636161 154.241081 
L 227.480813 155.129102 
L 225.422713 156.235283 
L 223.485977 157.548211 
L 221.693201 159.053431 
L 220.064993 160.733707 
L 218.619566 162.569372 
L 217.372416 164.538748 
L 216.336086 166.618608 
L 215.520033 168.784671 
L 214.930596 171.012082 
L 214.571044 173.275877 
L 214.441706 175.551404 
L 214.540153 177.814687 
L 214.861433 180.04274 
L 215.398316 182.213805 
L 216.141567 184.307551 
L 217.080203 186.305203 
L 218.201754 188.189632 
L 219.492499 189.945412 
L 220.937689 191.558836 
L 222.521746 193.017915 
L 224.228444 194.31236 
L 226.227501 195.535861 
L 228.332002 196.540563 
L 230.518928 197.319593 
L 232.765141 197.868321 
L 235.047555 198.184296 
L 237.343286 198.267167 
L 239.629789 198.118615 
L 241.885002 197.74228 
L 244.087467 197.143686 
L 246.216458 196.330165 
L 248.252099 195.310777 
L 250.175481 194.09623 
L 251.968774 192.698781 
L 253.61533 191.132153 
L 255.099788 189.411422 
L 256.408162 187.552921 
L 257.52793 185.574125 
L 258.448113 183.493539 
L 259.159344 181.330581 
L 259.653936 179.105465 
L 259.925942 176.839085 
L 259.971207 174.552893 
L 259.787424 172.268782 
L 259.374184 170.008965 
L 258.733028 167.79585 
L 257.867503 165.651914 
L 256.783218 163.599565 
L 255.487902 161.660993 
L 253.991467 159.858007 
L 252.466731 158.354474 
L 250.796582 156.995969 
L 248.993399 155.797221 
L 247.071184 154.772109 
L 245.04556 153.933472 
L 242.933756 153.292903 
L 240.754561 152.860513 
L 238.528238 152.644684 
L 236.276399 152.651815 
L 234.021824 152.886057 
L 231.788221 153.349064 
L 229.599932 154.039762 
L 227.481569 154.954165 
L 225.457605 156.085236 
L 223.551911 157.422835 
L 221.787274 158.953747 
L 220.184904 160.661807 
L 218.763966 162.528136 
L 217.541148 164.53146 
L 216.530304 166.648526 
L 215.74219 168.854576 
L 215.184291 171.123864 
L 214.860767 173.430188 
L 214.772494 175.747405 
L 214.917207 178.049912 
L 215.289716 180.313072 
L 215.882181 182.513567 
L 216.684426 184.629684 
L 217.68427 186.641514 
L 218.867862 188.531095 
L 220.220001 190.282486 
L 221.724435 191.881787 
L 223.364133 193.317121 
L 225.12152 194.578587 
L 226.978688 195.658187 
L 228.91757 196.549742 
L 231.123145 197.307998 
L 233.381821 197.829727 
L 235.670027 198.113543 
L 237.964649 198.160175 
L 240.24315 197.97235 
L 242.483662 197.55468 
L 244.665072 196.913562 
L 246.767108 196.057088 
L 248.770415 194.994968 
L 250.656636 193.738451 
L 252.408496 192.300251 
L 254.009886 190.694478 
L 255.445952 188.936557 
L 256.703188 187.04315 
L 257.769528 185.032067 
L 258.634441 182.922166 
L 259.28902 180.733252 
L 259.726075 178.485955 
L 259.940211 176.201605 
L 259.92791 173.902093 
L 259.687596 171.609728 
L 259.219699 169.347077 
L 258.5267 167.136805 
L 257.613178 165.001501 
L 256.485833 162.963506 
L 255.153513 161.04472 
L 253.627218 159.26642 
L 251.920099 157.64905 
L 250.224085 156.334718 
L 248.404244 155.183124 
L 246.474993 154.206949 
L 244.452121 153.417713 
L 242.352742 152.825618 
L 240.195216 152.439375 
L 237.999062 152.266032 
L 235.784833 152.310791 
L 233.573971 152.576826 
L 231.388617 153.065103 
L 229.25139 153.774219 
L 227.185122 154.700245 
L 225.212553 155.83662 
L 223.355987 157.174066 
L 221.636916 158.700573 
L 220.075625 160.401438 
L 218.69078 162.259384 
L 217.499033 164.254753 
L 216.514653 166.365784 
L 215.749197 168.568962 
L 215.211255 170.839433 
L 214.906274 173.151471 
L 214.836473 175.478961 
L 215.000852 177.795902 
L 215.395298 180.076879 
L 216.012769 182.297502 
L 216.843557 184.434787 
L 217.875592 186.46747 
L 219.094785 188.376241 
L 220.485384 190.143916 
L 222.030326 191.755524 
L 223.711577 193.19834 
L 225.510434 194.461869 
L 227.407809 195.537777 
L 229.384465 196.419804 
L 231.421217 197.103652 
L 233.499104 197.586859 
L 235.810095 197.885798 
L 238.12424 197.942299 
L 240.418232 197.759706 
L 242.669669 197.343325 
L 244.85713 196.70027 
L 246.960231 195.839325 
L 248.959674 194.770829 
L 250.837291 193.506579 
L 252.576087 192.05974 
L 254.160291 190.444777 
L 255.575411 188.677378 
L 256.808297 186.774399 
L 257.847218 184.753789 
L 258.681939 182.634523 
L 259.303815 180.436524 
L 259.705885 178.180564 
L 259.882972 175.888166 
L 259.831782 173.581474 
L 259.551 171.283112 
L 259.041381 169.016024 
L 258.305828 166.803294 
L 257.349452 164.667946 
L 256.179621 162.632727 
L 254.805984 160.719881 
L 253.240464 158.95091 
L 251.497237 157.346318 
L 249.772011 156.046477 
L 247.927241 154.911827 
L 245.978117 153.954586 
L 243.941118 153.18564 
L 241.833905 152.614383 
L 239.675203 152.248578 
L 237.484666 152.094217 
L 235.282718 152.155389 
L 233.090381 152.43416 
L 230.929084 152.930468 
L 228.820448 153.642027 
L 226.786058 154.564258 
L 224.847208 155.690237 
L 223.024637 157.010671 
L 221.33824 158.513914 
L 219.806775 160.186013 
L 218.44756 162.010805 
L 217.276174 163.970058 
L 216.306166 166.043665 
L 215.548791 168.209891 
L 215.012774 170.445669 
L 214.704123 172.726937 
L 214.625993 175.029018 
L 214.778622 177.327017 
L 215.159328 179.596237 
L 215.762584 181.81258 
L 216.580158 183.952934 
L 217.601315 185.995526 
L 218.813076 187.92022 
L 220.200511 189.708766 
L 221.747059 191.344983 
L 223.434861 192.814887 
L 225.245085 194.106746 
L 227.158246 195.211092 
L 229.15449 196.120683 
L 231.21386 196.830423 
L 233.316521 197.33726 
L 235.442952 197.64006 
L 237.786763 197.738304 
L 240.111788 197.593636 
L 242.394544 197.211394 
L 244.612692 196.598897 
L 246.745108 195.765246 
L 248.771945 194.721162 
L 250.674659 193.478835 
L 252.436044 192.051796 
L 254.040246 190.454814 
L 255.472788 188.703802 
L 256.720602 186.815747 
L 257.772063 184.808638 
L 258.617041 182.701407 
L 259.24696 180.513868 
L 259.654878 178.26665 
L 259.835569 175.981121 
L 259.785623 173.679301 
L 259.503555 171.383749 
L 258.989906 169.117435 
L 258.247357 166.903579 
L 257.280829 164.765468 
L 256.097564 162.726242 
L 254.707198 160.808647 
L 253.121793 159.03477 
L 251.523416 157.564676 
L 249.788406 156.245826 
L 247.930953 155.092154 
L 245.966755 154.116342 
L 243.912908 153.329625 
L 241.787776 152.741615 
L 239.610824 152.360125 
L 237.402439 152.191019 
L 235.183718 152.238082 
L 232.976242 152.502915 
L 230.801836 152.984859 
L 228.682314 153.680947 
L 226.639223 154.585887 
L 224.693577 155.692074 
L 222.865599 156.989643 
L 221.174459 158.466538 
L 219.638027 160.108627 
L 218.272632 161.899839 
L 217.092842 163.822332 
L 216.111252 165.856694 
L 215.338304 167.982166 
L 214.782131 170.176896 
L 214.448431 172.418208 
L 214.340375 174.682904 
L 214.458556 176.947562 
L 214.800984 179.188858 
L 215.363114 181.383883 
L 216.137938 183.51045 
L 217.1161 185.547396 
L 218.286074 187.474851 
L 219.634362 189.274485 
L 221.145733 190.929714 
L 222.803482 192.425867 
L 224.589707 193.750303 
L 226.485583 194.892495 
L 228.471648 195.844055 
L 230.52806 196.59873 
L 232.634854 197.152355 
L 234.772165 197.502779 
L 236.920432 197.649763 
L 239.273416 197.578385 
L 241.592042 197.267163 
L 243.852872 196.722724 
L 246.033703 195.953704 
L 248.113671 194.97055 
L 250.073325 193.785323 
L 251.894671 192.411525 
L 253.561202 190.863945 
L 255.057917 189.158526 
L 256.371328 187.312252 
L 257.489481 185.343049 
L 258.401965 183.269704 
L 259.099941 181.111797 
L 259.576182 178.889632 
L 259.825122 176.624177 
L 259.842921 174.337 
L 259.627548 172.050189 
L 259.178874 169.786267 
L 258.498776 167.56808 
L 257.591247 165.418661 
L 256.462513 163.361063 
L 255.121134 161.41816 
L 253.726372 159.770321 
L 252.174968 158.252219 
L 250.478696 156.879573 
L 248.651051 155.667221 
L 246.707219 154.628906 
L 244.664006 153.777035 
L 242.539729 153.122449 
L 240.354067 152.674197 
L 238.127868 152.439317 
L 235.882926 152.422652 
L 233.641708 152.626689 
L 231.427066 153.051444 
L 229.261917 153.694388 
L 227.168922 154.550424 
L 225.170148 155.611914 
L 223.286754 156.86876 
L 221.538679 158.308527 
L 219.944359 159.916612 
L 218.520479 161.676451 
L 217.281754 163.569753 
L 216.240748 165.576762 
L 215.407736 167.67653 
L 214.790602 169.847202 
L 214.394778 172.066308 
L 214.223217 174.31105 
L 214.276403 176.558585 
L 214.552392 178.786302 
L 215.046886 180.97208 
L 215.753329 183.094541 
L 216.663036 185.133279 
L 217.76534 187.069071 
L 219.047764 188.884068 
L 220.496201 190.561959 
L 222.095127 192.088115 
L 223.827804 193.449698 
L 225.676507 194.63575 
L 227.622748 195.637244 
L 229.647498 196.447117 
L 231.731406 197.060265 
L 233.85501 197.473521 
L 236.213707 197.695749 
L 238.571599 197.675411 
L 240.903944 197.415835 
L 243.186883 196.922697 
L 245.397639 196.203831 
L 247.514672 195.269045 
L 249.517803 194.129925 
L 251.38831 192.79965 
L 253.108992 191.292812 
L 254.664222 189.625247 
L 256.039969 187.81389 
L 257.223819 185.876636 
L 258.204987 183.83222 
L 258.974329 181.700117 
L 259.524351 179.50045 
L 259.849231 177.253907 
L 259.944848 174.981671 
L 259.808823 172.705346 
L 259.440572 170.446885 
L 258.841381 168.228505 
L 258.014478 166.072597 
L 256.965137 164.001603 
L 255.70077 162.037885 
L 254.231039 160.203541 
L 252.726767 158.666439 
L 251.073425 157.269893 
L 249.28347 156.028977 
L 247.371073 154.957893 
L 245.35211 154.069739 
L 243.244113 153.376267 
L 241.066183 152.88763 
L 238.838852 152.612117 
L 236.5839 152.555908 
L 234.324107 152.722834 
L 232.082969 153.114183 
L 229.884358 153.728537 
L 227.752145 154.561678 
L 225.709809 155.60655 
L 223.780026 156.853299 
L 221.98427 158.28938 
L 220.342435 159.899742 
L 218.872497 161.667069 
L 217.590228 163.572078 
L 216.508959 165.59386 
L 215.639422 167.710235 
L 214.989644 169.898135 
L 214.564914 172.133969 
L 214.367793 174.393984 
L 214.398194 176.6546 
L 214.653482 178.892715 
L 215.128625 181.085982 
L 215.816358 183.213045 
L 216.707368 185.253742 
L 217.790495 187.18928 
L 219.052932 189.002374 
L 220.48043 190.677355 
L 222.057504 192.200261 
L 223.767633 193.558893 
L 225.593457 194.742863 
L 227.51697 195.743611 
L 229.519707 196.554413 
L 231.582917 197.170367 
L 233.899783 197.619217 
L 236.241975 197.826903 
L 238.584786 197.794234 
L 240.904053 197.524398 
L 243.176368 197.022842 
L 245.379259 196.297131 
L 247.49136 195.3568 
L 249.492552 194.213194 
L 251.364082 192.879306 
L 253.088659 191.369611 
L 254.650538 189.699905 
L 256.035572 187.887144 
L 257.231264 185.949294 
L 258.226788 183.905192 
L 259.013018 181.77441 
L 259.58254 179.577138 
L 259.929665 177.334071 
L 260.050441 175.066308 
L 259.942669 172.79526 
L 259.605929 170.542557 
L 259.041607 168.329962 
L 258.252941 166.179279 
L 257.245071 164.112254 
L 256.0251 162.150466 
L 254.602166 160.315191 
L 252.987517 158.627254 
L 251.36455 157.237623 
L 249.605922 156.001012 
L 247.724915 154.931236 
L 245.7364 154.041186 
L 243.656835 153.342618 
L 241.504238 152.845931 
L 239.298108 152.559919 
L 237.059316 152.491517 
L 234.80994 152.64554 
L 232.573039 153.024434 
L 230.372371 153.628054 
L 228.232059 154.453471 
L 226.176197 155.494838 
L 224.228423 156.743332 
L 222.411466 158.187163 
L 220.746686 159.811681 
L 219.253632 161.599577 
L 217.949641 163.531154 
L 216.849494 165.584692 
L 215.965144 167.736859 
L 215.305536 169.963166 
L 214.876514 172.238433 
L 214.680816 174.537258 
L 214.718148 176.834458 
L 214.985334 179.105468 
L 215.476514 181.326693 
L 216.183386 183.475804 
L 217.09547 185.531974 
L 218.200387 187.476056 
L 219.484135 189.290718 
L 220.931363 190.960518 
L 222.525621 192.471955 
L 224.249603 193.813477 
L 226.085368 194.975468 
L 228.014533 195.950224 
L 230.018457 196.731897 
L 232.078405 197.316447 
L 234.386754 197.729086 
L 236.715674 197.899744 
L 239.041012 197.830044 
L 241.339249 197.523829 
L 243.587656 196.987046 
L 245.764436 196.22762 
L 247.84886 195.255328 
L 249.821383 194.081667 
L 251.663755 192.719725 
L 253.359115 191.184043 
L 254.892082 189.490478 
L 256.248825 187.656063 
L 257.417127 185.698871 
L 258.386441 183.63787 
L 259.147929 181.492793 
L 259.694497 179.283997 
L 260.020821 177.032336 
L 260.123366 174.759035 
L 260.000399 172.485567 
L 259.652005 170.233535 
L 259.080101 168.024559 
L 258.288443 165.88016 
L 257.282648 163.821649 
L 256.070214 161.870008 
L 254.660544 160.045762 
L 253.064974 158.36885 
L 251.296803 156.858466 
L 249.371326 155.532894 
L 247.498913 154.502679 
L 245.525236 153.651364 
L 243.466138 152.989839 
L 241.338821 152.527747 
L 239.161804 152.273296 
L 236.954851 152.233045 
L 234.738859 152.411687 
L 232.535706 152.811823 
L 230.368045 153.433735 
L 228.259054 154.275183 
L 226.23212 155.331223 
L 224.310473 156.594075 
L 222.516782 158.053047 
L 220.872705 159.694536 
L 219.398431 161.502114 
L 218.11222 163.456711 
L 217.029978 165.536888 
L 216.164878 167.719208 
L 215.527055 169.978669 
L 215.123403 172.289202 
L 214.957461 174.624201 
L 215.029412 176.957043 
L 215.336186 179.261602 
L 215.871646 181.512712 
L 216.626846 183.686562 
L 217.59035 185.761032 
L 218.74857 187.715939 
L 220.086129 189.533214 
L 221.586215 191.197007 
L 223.230914 192.693733 
L 225.001521 194.012057 
L 226.878827 195.142856 
L 228.843354 196.079136 
L 230.875572 196.815935 
L 232.956079 197.35022 
L 235.065748 197.680767 
L 237.397731 197.809669 
L 239.718139 197.695501 
L 242.003635 197.343259 
L 244.231873 196.759933 
L 246.381591 195.954358 
L 248.4327 194.937078 
L 250.366359 193.720215 
L 252.165044 192.317353 
L 253.812616 190.743415 
L 255.294386 189.014555 
L 256.59718 187.148038 
L 257.709397 185.162132 
L 258.621068 183.075987 
L 259.323912 180.909513 
L 259.811384 178.683256 
L 260.07872 176.418274 
L 260.122975 174.135996 
L 259.943058 171.858092 
L 259.539748 169.606333 
L 258.91572 167.402448 
L 258.075548 165.267984 
L 257.025712 163.224158 
L 255.774596 161.291715 
L 254.332478 159.490772 
L 252.711514 157.840674 
L 250.925729 156.359827 
L 248.990982 155.065539 
L 246.924941 153.973841 
L 244.949109 153.16948 
L 242.896639 152.554369 
L 240.784486 152.136997 
L 238.630666 151.92444 
L 236.454189 151.922207 
L 234.274952 152.134081 
L 232.113621 152.561951 
L 229.991471 153.20565 
L 227.930195 154.062788 
L 225.951671 155.128607 
L 224.077689 156.395854 
L 222.329635 157.854685 
L 220.728141 159.492619 
L 219.292699 161.294552 
L 218.041256 163.242833 
L 216.989814 165.317429 
L 216.152033 167.496164 
L 215.538876 169.75505 
L 215.158318 172.068686 
L 215.015117 174.410726 
L 215.110692 176.754384 
L 215.443099 179.072962 
L 216.007103 181.340371 
L 216.79436 183.531618 
L 217.793677 185.623238 
L 218.991338 187.593659 
L 220.371483 189.423483 
L 221.916501 191.095681 
L 223.607437 192.595711 
L 225.424377 193.91155 
L 227.346806 195.033677 
L 229.353933 195.954989 
L 231.42497 196.670692 
L 233.539368 197.178157 
L 235.677011 197.476765 
L 237.818365 197.567747 
L 239.944606 197.454025 
L 242.244519 197.097864 
L 244.481553 196.507314 
L 246.63425 195.692092 
L 248.682544 194.663565 
L 250.60779 193.434586 
L 252.392798 192.019359 
L 254.021859 190.433303 
L 255.480763 188.69295 
L 256.756838 186.815836 
L 257.838974 184.820407 
L 258.717669 182.725926 
L 259.385072 180.552376 
L 259.835029 178.320361 
L 260.063138 176.051003 
L 260.0668 173.765821 
L 259.845269 171.486608 
L 259.399698 169.235299 
L 258.733181 167.033815 
L 257.850782 164.90391 
L 256.75955 162.867001 
L 255.468529 160.94399 
L 253.988746 159.155081 
L 252.333181 157.519587 
L 250.516728 156.055743 
L 248.556126 154.780502 
L 246.469887 153.709349 
L 244.27819 152.856099 
L 242.212482 152.279604 
L 240.094906 151.900613 
L 237.943677 151.725124 
L 235.777767 151.757499 
L 233.616779 152.000357 
L 231.48081 152.454461 
L 229.39029 153.11862 
L 227.365807 153.989593 
L 225.427908 155.062009 
L 223.596876 156.328296 
L 221.892492 157.778639 
L 220.333764 159.400961 
L 218.938647 161.180939 
L 217.723738 163.102061 
L 216.703965 165.145737 
L 215.892283 167.291454 
L 215.299369 169.517003 
L 214.933353 171.798753 
L 214.799581 174.111992 
L 214.90044 176.431318 
L 215.235241 178.731059 
L 215.800188 180.985733 
L 216.58843 183.170504 
L 217.590188 185.261622 
L 218.792977 187.236842 
L 220.181884 189.075777 
L 221.739907 190.760199 
L 223.44833 192.274254 
L 225.287118 193.604612 
L 227.235305 194.740531 
L 229.271377 195.673856 
L 231.373618 196.398956 
L 233.520418 196.912616 
L 235.690542 197.213885 
L 237.86335 197.303911 
L 240.018974 197.185752 
L 242.138452 196.864193 
L 244.203826 196.345562 
L 246.393127 195.556671 
L 248.475635 194.550589 
L 250.432096 193.340786 
L 252.244935 191.942074 
L 253.898245 190.370441 
L 255.377783 188.642893 
L 256.670956 186.777344 
L 257.766815 184.792499 
L 258.656052 182.707772 
L 259.331016 180.543196 
L 259.785728 178.319349 
L 260.015914 176.057272 
L 260.019052 173.778385 
L 259.794414 171.504393 
L 259.343128 169.257178 
L 258.668233 167.058679 
L 257.774735 164.930746 
L 256.66966 162.894986 
L 255.362087 160.972574 
L 253.863175 159.184063 
L 252.186163 157.549162 
L 250.346345 156.086506 
L 248.361014 154.813418 
L 246.249379 153.745664 
L 244.032441 152.897206 
L 241.944682 152.326252 
L 239.806636 151.953755 
L 237.637199 151.785377 
L 235.455962 151.824987 
L 233.283031 152.074562 
L 231.138848 152.534101 
L 229.043986 153.201558 
L 227.018945 154.072805 
L 225.08393 155.141601 
L 223.258631 156.399597 
L 221.561993 157.836358 
L 220.011985 159.43941 
L 218.625369 161.194316 
L 217.417469 163.084777 
L 216.401949 165.092762 
L 215.59059 167.198672 
L 214.993093 169.381535 
L 214.616885 171.619226 
L 214.466965 173.888733 
L 214.545768 176.16644 
L 214.853071 178.428441 
L 215.385948 180.650883 
L 216.13877 182.810307 
L 217.103259 184.884006 
L 218.268604 186.850371 
L 219.621628 188.689218 
L 221.147009 190.38209 
L 222.827549 191.912508 
L 224.644473 193.266187 
L 226.577763 194.43118 
L 228.606491 195.397979 
L 230.709169 196.159544 
L 232.86407 196.711282 
L 235.049539 197.05098 
L 237.244269 197.17869 
L 239.427541 197.096583 
L 241.579425 196.808784 
L 243.680943 196.321188 
L 245.714197 195.641275 
L 247.851997 194.681881 
L 249.866423 193.514072 
L 251.738772 192.15289 
L 253.452206 190.614669 
L 254.991749 188.916822 
L 256.344263 187.077663 
L 257.498412 185.116257 
L 258.444637 183.052291 
L 259.175121 180.90597 
L 259.683769 178.69793 
L 259.966202 176.449155 
L 260.01976 174.180913 
L 259.843518 171.914682 
L 259.43832 169.672073 
L 258.806823 167.474753 
L 257.953551 165.34434 
L 256.884956 163.302288 
L 255.609479 161.369747 
L 254.137609 159.567393 
L 252.481932 157.91524 
L 250.657157 156.432411 
L 248.680118 155.136894 
L 246.766572 154.135676 
L 244.758484 153.314232 
L 242.672836 152.682466 
L 240.527811 152.248752 
L 238.342654 152.019756 
L 236.137508 152.000265 
L 233.933213 152.193042 
L 231.75108 152.598703 
L 229.61264 153.215617 
L 227.53938 154.039855 
L 225.552459 155.065168 
L 223.672431 156.283005 
L 221.918957 157.68258 
L 220.310544 159.250966 
L 218.864278 160.973235 
L 217.595601 162.832629 
L 216.518091 164.810758 
L 215.64329 166.88782 
L 214.980546 169.042847 
L 214.536899 171.253961 
L 214.31699 173.498641 
L 214.323009 175.754001 
L 214.554671 177.997063 
L 215.009227 180.205042 
L 215.681505 182.355614 
L 216.563986 184.427191 
L 217.646908 186.399176 
L 218.918401 188.252207 
L 220.364652 189.968384 
L 221.970103 191.531476 
L 223.71766 192.927093 
L 225.588935 194.142839 
L 227.564503 195.16842 
L 229.624159 195.995727 
L 231.747195 196.61887 
L 233.912662 197.034183 
L 236.099629 197.240188 
L 238.28743 197.237525 
L 240.455885 197.028855 
L 242.585501 196.618737 
L 244.657646 196.013482 
L 246.849625 195.131799 
L 248.928874 194.036116 
L 250.87529 192.740777 
L 252.67064 191.261691 
L 254.298623 189.616083 
L 255.744888 187.822266 
L 256.99703 185.899425 
L 258.044566 183.86744 
L 258.878903 181.746723 
L 259.493294 179.558084 
L 259.882806 177.322616 
L 260.044279 175.061598 
L 259.976306 172.796411 
L 259.679217 170.548463 
L 259.155083 168.33912 
L 258.407729 166.189635 
L 257.442763 164.121065 
L 256.267617 162.154184 
L 254.891596 160.309374 
L 253.325939 158.606489 
L 251.583867 157.064703 
L 249.68064 155.702312 
L 247.825126 154.633945 
L 245.865226 153.740029 
L 243.816846 153.031417 
L 241.697252 152.517668 
L 239.524993 152.206836 
L 237.319789 152.105259 
L 235.102377 152.217358 
L 232.894318 152.54543 
L 230.717753 153.089479 
L 228.595125 153.847072 
L 226.54886 154.813236 
L 224.60103 155.980407 
L 222.772989 157.338443 
L 221.085012 158.874694 
L 219.555942 160.574134 
L 218.202865 162.419561 
L 217.040813 164.391842 
L 216.082525 166.470211 
L 215.338248 168.632595 
L 214.815609 170.855963 
L 214.519538 173.116685 
L 214.452248 175.390886 
L 214.613272 177.654789 
L 214.999541 179.885035 
L 215.605502 182.05898 
L 216.423271 184.15496 
L 217.442805 186.152519 
L 218.652096 188.032619 
L 220.037378 189.7778 
L 221.583339 191.372325 
L 223.27334 192.802287 
L 225.089635 194.055697 
L 227.013593 195.12254 
L 229.025911 195.994812 
L 231.106832 196.666538 
L 233.236352 197.133758 
L 235.394421 197.394506 
L 237.561138 197.448761 
L 239.716933 197.298382 
L 241.842738 196.947029 
L 244.124541 196.334866 
L 246.324436 195.495409 
L 248.420434 194.440157 
L 250.392096 193.182537 
L 252.220672 191.737691 
L 253.889204 190.122247 
L 255.38261 188.354103 
L 256.687728 186.452209 
L 257.793339 184.436365 
L 258.690171 182.327026 
L 259.370883 180.145133 
L 259.83004 177.911951 
L 260.064076 175.648932 
L 260.071258 173.377587 
L 259.851649 171.119384 
L 259.407077 168.895645 
L 258.741109 166.727464 
L 257.859035 164.635623 
L 256.767866 162.64051 
L 255.476341 160.762036 
L 253.994944 159.01954 
L 252.335929 157.431683 
L 250.513358 156.016316 
L 248.543126 154.790333 
L 246.442998 153.76949 
L 244.437567 153.031613 
L 242.357102 152.48488 
L 240.218965 152.137714 
L 238.041726 151.997084 
L 235.845078 152.068304 
L 233.649721 152.354819 
L 231.477192 152.857997 
L 229.349655 153.576922 
L 227.289636 154.508213 
L 225.319707 155.645881 
L 223.46213 156.981224 
L 221.738461 158.502798 
L 220.169136 160.196446 
L 218.773049 162.045421 
L 217.567143 164.030582 
L 216.566045 166.130678 
L 215.781739 168.322699 
L 215.223326 170.582283 
L 214.896852 172.884169 
L 214.805235 175.202664 
L 214.948269 177.512104 
L 215.322718 179.787299 
L 215.922475 182.003938 
L 216.738783 184.138939 
L 217.760495 186.170751 
L 218.974362 188.079588 
L 220.365335 189.847602 
L 221.916868 191.459012 
L 223.611213 192.90017 
L 225.429697 194.159595 
L 227.352986 195.22797 
L 229.361322 196.098105 
L 231.434742 196.764891 
L 233.553269 197.225229 
L 235.69709 197.477948 
L 237.846714 197.523724 
L 239.98311 197.364979 
L 242.295874 196.959053 
L 244.546765 196.318216 
L 246.713405 195.45217 
L 248.774746 194.37256 
L 250.7112 193.092804 
L 252.504748 191.627916 
L 254.139032 189.994336 
L 255.599439 188.209746 
L 256.873159 186.2929 
L 257.949233 184.263442 
L 258.818586 182.141734 
L 259.474042 179.94869 
L 259.910325 177.705608 
L 260.124054 175.434019 
L 260.113724 173.155538 
L 259.879676 170.891728 
L 259.424071 168.663973 
L 258.750851 166.493355 
L 257.86571 164.400551 
L 256.776058 162.405723 
L 255.490996 160.528418 
L 254.021289 158.787471 
L 252.379353 157.200899 
L 250.579239 155.785796 
L 248.636626 154.558211 
L 246.568814 153.533015 
L 244.394712 152.723747 
L 242.343245 152.185584 
L 240.237392 151.843665 
L 238.094713 151.704512 
L 235.933755 151.773185 
L 233.773973 152.053117 
L 231.635626 152.545935 
L 229.539637 153.251275 
L 227.507409 154.166601 
L 225.560598 155.287034 
L 223.720837 156.605201 
L 222.009408 158.111123 
L 220.446876 159.792156 
L 219.052684 161.632986 
L 217.844729 163.615711 
L 216.838934 165.720009 
L 216.048836 167.923389 
L 215.485221 170.201538 
L 215.155815 172.528744 
L 215.06507 174.87838 
L 215.214041 177.223432 
L 215.600375 179.537037 
L 216.2184 181.793012 
L 217.059322 183.966342 
L 218.111495 186.033608 
L 219.36076 187.973343 
L 220.790824 189.766305 
L 222.383656 191.395664 
L 224.119888 192.847109 
L 225.979198 194.108885 
L 227.940661 195.171769 
L 229.983067 196.028995 
L 232.085203 196.676148 
L 234.226088 197.111032 
L 236.385169 197.33352 
L 238.542489 197.345407 
L 240.678811 197.150252 
L 242.77573 196.753232 
L 245.015978 196.091334 
L 247.165481 195.203975 
L 249.203836 194.103643 
L 251.112213 192.804401 
L 252.873416 191.321726 
L 254.471922 189.67234 
L 255.89392 187.874065 
L 257.127347 185.945673 
L 258.161913 183.906747 
L 258.989131 181.777541 
L 259.602335 179.578845 
L 259.996697 177.331843 
L 260.169236 175.057976 
L 260.118823 172.778807 
L 259.846177 170.515879 
L 259.353856 168.290579 
L 258.646234 166.124001 
L 257.729481 164.036815 
L 256.611528 162.049133 
L 255.302032 160.180378 
L 253.812335 158.449164 
L 252.155416 156.873163 
L 250.345844 155.468985 
L 248.399729 154.252054 
L 246.334665 153.236473 
L 244.169672 152.434897 
L 241.925139 151.858388 
L 239.622743 151.516263 
L 237.498683 151.414906 
L 235.3637 151.51748 
L 233.236472 151.826522 
L 231.136259 152.342903 
L 229.082796 153.065697 
L 227.096149 153.992053 
L 225.196542 155.117063 
L 223.404155 156.433643 
L 221.738881 157.932435 
L 220.220048 159.601721 
L 218.866105 161.427392 
L 217.694276 163.392958 
L 216.720191 165.479615 
L 215.957509 167.666392 
L 215.417544 169.93037 
L 215.108921 172.246989 
L 215.037275 174.59042 
L 215.205018 176.934027 
L 215.611199 179.250857 
L 216.251453 181.514184 
L 217.118071 183.698042 
L 218.200164 185.777741 
L 219.483932 187.73034 
L 220.953009 189.535038 
L 222.588874 191.173498 
L 224.371289 192.630057 
L 226.278754 193.891857 
L 228.28895 194.948883 
L 230.379153 195.793921 
L 232.526611 196.422453 
L 234.708859 196.832508 
L 236.903997 197.024476 
L 239.090905 197.000904 
L 241.249411 196.766282 
L 243.360417 196.326841 
L 245.405988 195.690347 
L 247.369407 194.865916 
L 249.415866 193.754295 
L 251.325432 192.442882 
L 253.08116 190.948095 
L 254.667964 189.287446 
L 256.072594 187.47938 
L 257.283626 185.543124 
L 258.291445 183.49856 
L 259.088234 181.366103 
L 259.667968 179.16659 
L 260.026414 176.921171 
L 260.161132 174.651204 
L 260.071479 172.378137 
L 259.758619 170.123403 
L 259.225521 167.908289 
L 258.476968 165.753819 
L 257.519546 163.680613 
L 256.361634 161.708754 
L 255.013383 159.857638 
L 253.486686 158.145829 
L 251.79513 156.590904 
L 249.95394 155.209303 
L 247.979913 154.016173 
L 245.891336 153.025214 
L 243.707885 152.248531 
L 241.450521 151.696479 
L 239.141369 151.377521 
L 236.803578 151.298082 
L 234.673662 151.437326 
L 232.558484 151.779585 
L 230.476974 152.324719 
L 228.448296 153.070842 
L 226.491713 154.014239 
L 224.626422 155.149298 
L 222.871381 156.468449 
L 221.245107 157.96211 
L 219.765463 159.618656 
L 218.449417 161.424414 
L 217.312783 163.363674 
L 216.369946 165.418755 
L 215.633572 167.570096 
L 215.114322 169.796417 
L 214.820562 172.074919 
L 214.758099 174.381555 
L 214.92995 176.691355 
L 215.336152 178.978804 
L 215.973651 181.218271 
L 216.836251 183.384468 
L 217.914658 185.452918 
L 219.196614 187.400426 
L 220.667114 189.205514 
L 222.308708 190.848809 
L 224.101864 192.313367 
L 226.025387 193.584917 
L 228.05685 194.652012 
L 230.173047 195.506101 
L 232.350418 196.141513 
L 234.565453 196.555372 
L 236.795043 196.747445 
L 239.016785 196.719958 
L 241.209232 196.477371 
L 243.352085 196.02614 
L 245.426334 195.374479 
L 247.414357 194.532125 
L 249.299973 193.510113 
L 251.068473 192.320579 
L 252.862797 190.834198 
L 254.483832 189.179328 
L 255.918072 187.375256 
L 257.154038 185.44196 
L 258.182222 183.399947 
L 258.995029 181.27012 
L 259.586723 179.073665 
L 259.953394 176.831947 
L 260.092924 174.566422 
L 260.004966 172.298551 
L 259.690936 170.049708 
L 259.154013 167.841094 
L 258.399137 165.693635 
L 257.43302 163.627872 
L 256.264148 161.663843 
L 254.902783 159.82095 
L 253.360957 158.11781 
L 251.652449 156.572096 
L 249.792753 155.200371 
L 247.799022 154.017908 
L 245.689997 153.038506 
L 243.4859 152.274302 
L 241.20832 151.735593 
L 238.880053 151.430651 
L 236.524935 151.365558 
L 234.381365 151.517704 
L 232.254967 151.872216 
L 230.164988 152.42835 
L 228.130781 153.183533 
L 226.171623 154.13331 
L 224.306542 155.271321 
L 222.554116 156.589281 
L 220.932282 158.076987 
L 219.458124 159.722342 
L 218.147672 161.511402 
L 217.015678 163.428439 
L 216.075408 165.456044 
L 215.338425 167.575242 
L 214.814382 169.765651 
L 214.510817 172.005665 
L 214.432971 174.272676 
L 214.583622 176.543328 
L 214.96295 178.793808 
L 215.568439 181.000163 
L 216.394824 183.13865 
L 217.434092 185.186097 
L 218.675541 187.120278 
L 220.105901 188.920278 
L 221.709518 190.566849 
L 223.4686 192.042728 
L 225.363517 193.332912 
L 227.373139 194.42488 
L 229.475211 195.308751 
L 231.646743 195.977368 
L 233.864394 196.426321 
L 236.104851 196.653897 
L 238.345174 196.660975 
L 240.563109 196.450869 
L 242.737348 196.029135 
L 244.847752 195.40335 
L 246.875519 194.582881 
L 248.803302 193.578641 
L 250.615293 192.402857 
L 252.297263 191.068852 
L 253.982221 189.435683 
L 255.479979 187.64816 
L 256.778182 185.726942 
L 257.866667 183.693232 
L 258.737378 181.568599 
L 259.384291 179.374816 
L 259.80333 177.133739 
L 259.992295 174.867197 
L 259.950808 172.596905 
L 259.680263 170.344386 
L 259.183796 168.130893 
L 258.466263 165.977339 
L 257.534233 163.904215 
L 256.395988 161.931503 
L 255.06153 160.078572 
L 253.542584 158.364065 
L 251.852609 156.80576 
L 250.006788 155.420418 
L 248.022008 154.223614 
L 245.916829 153.229542 
L 243.711412 152.450816 
L 241.427429 151.898254 
L 239.087932 151.580661 
L 236.933339 151.501417 
L 234.771863 151.625025 
L 232.622992 151.952904 
L 230.506574 152.484591 
L 228.442616 153.217657 
L 226.451076 154.147649 
L 224.551637 155.268057 
L 222.763472 156.57031 
L 221.105002 158.043801 
L 219.593657 159.675952 
L 218.245645 161.452297 
L 217.075721 163.356607 
L 216.09698 165.37104 
L 215.320659 167.476317 
L 214.755966 169.651925 
L 214.409928 171.876341 
L 214.287267 174.127273 
L 214.390305 176.38192 
L 214.718898 178.617247 
L 215.270401 180.810263 
L 216.039672 182.938313 
L 217.019104 184.979367 
L 218.198704 186.912311 
L 219.5662 188.717228 
L 221.107193 190.375668 
L 222.805344 191.870897 
L 224.642594 193.18812 
L 226.599419 194.314677 
L 228.655111 195.240195 
L 230.788073 195.956702 
L 232.976137 196.458693 
L 235.196871 196.74315 
L 237.427898 196.809513 
L 239.647184 196.659606 
L 241.83332 196.297526 
L 243.96576 195.729489 
L 246.025043 194.963656 
L 247.99296 194.009938 
L 249.852702 192.879781 
L 251.588956 191.585956 
L 253.339849 189.990309 
L 254.908664 188.233171 
L 256.281701 186.335298 
L 257.447589 184.318187 
L 258.397232 182.203833 
L 259.123737 180.014516 
L 259.622321 177.772616 
L 259.890232 175.500467 
L 259.926651 173.220231 
L 259.73262 170.95379 
L 259.310966 168.722666 
L 258.666247 166.547942 
L 257.804711 164.450192 
L 256.734261 162.449415 
L 255.464443 160.564957 
L 254.006436 158.815434 
L 252.373056 157.218635 
L 250.578756 155.791404 
L 248.639633 154.549511 
L 246.573418 153.507498 
L 244.399458 152.678494 
L 242.138673 152.074019 
L 239.813487 151.703762 
L 237.663809 151.576866 
L 235.499358 151.653939 
L 233.339638 151.937327 
L 231.20472 152.427501 
L 229.115049 153.122929 
L 227.091228 154.019958 
L 225.153771 155.11274 
L 223.32283 156.393176 
L 221.617911 157.850917 
L 220.057573 159.473393 
L 218.659131 161.245907 
L 217.438367 163.15177 
L 216.40926 165.172481 
L 215.583742 167.287952 
L 214.971497 169.476777 
L 214.579788 171.716517 
L 214.413346 173.984016 
L 214.474298 176.255725 
L 214.762141 178.508028 
L 215.273768 180.717564 
L 216.003533 182.861538 
L 216.943359 184.918011 
L 218.082871 186.866172 
L 219.409568 188.686578 
L 220.909016 190.361376 
L 222.565056 191.874485 
L 224.360035 193.211757 
L 226.275046 194.3611 
L 228.290174 195.31258 
L 230.38475 196.05848 
L 232.537604 196.593341 
L 234.727321 196.913965 
L 236.932483 197.019392 
L 239.131913 196.910847 
L 241.304898 196.591663 
L 243.431402 196.067176 
L 245.492257 195.344601 
L 247.469336 194.432888 
L 249.345699 193.34256 
L 251.105718 192.085546 
L 252.890433 190.526042 
L 254.500346 188.799752 
L 255.920846 186.92688 
L 257.139606 184.928603 
L 258.146576 182.8268 
L 258.933962 180.643812 
L 259.496165 178.402226 
L 259.829723 176.124676 
L 259.933219 173.833673 
L 259.807205 171.551466 
L 259.454112 169.29991 
L 258.878168 167.100369 
L 258.085325 164.973622 
L 257.083196 162.939785 
L 255.880998 161.018242 
L 254.489516 159.227569 
L 252.921072 157.585469 
L 251.189503 156.108683 
L 249.310151 154.812904 
L 247.299855 153.71266 
L 245.176941 152.821195 
L 242.961202 152.150307 
L 240.673877 151.710182 
L 238.551381 151.517393 
L 236.406341 151.527088 
L 234.257512 151.742556 
L 232.124361 152.165392 
L 230.026937 152.795334 
L 227.985695 153.630116 
L 226.021293 154.665326 
L 224.154344 155.894288 
L 222.405129 157.307983 
L 220.793293 158.895002 
L 219.337497 160.641561 
L 218.055075 162.53157 
L 216.961685 164.546767 
L 216.070968 166.666926 
L 215.394253 168.870119 
L 214.940292 171.133039 
L 214.715067 173.431374 
L 214.72165 175.740205 
L 214.960152 178.034428 
L 215.427732 180.289171 
L 216.118681 182.480198 
L 217.024573 184.584282 
L 218.134465 186.57954 
L 219.435139 188.445718 
L 220.911372 190.164423 
L 222.546229 191.719312 
L 224.321358 193.096213 
L 226.217289 194.283219 
L 228.213718 195.270724 
L 230.289784 196.051432 
L 232.424325 196.620328 
L 234.596122 196.974634 
L 236.784112 197.113728 
L 238.967598 197.039062 
L 241.126424 196.754058 
L 243.241144 196.263993 
L 245.293166 195.575875 
L 247.264887 194.698319 
L 249.139802 193.641405 
L 251.07217 192.285293 
L 252.850339 190.742819 
L 254.457721 189.03231 
L 255.879796 187.17336 
L 257.104169 185.186594 
L 258.120599 183.093437 
L 258.92101 180.915894 
L 259.499476 178.676339 
L 259.85219 176.397315 
L 259.977416 174.101346 
L 259.875426 171.810774 
L 259.548433 169.547601 
L 259.000512 167.333354 
L 258.237523 165.188966 
L 257.267028 163.134663 
L 256.098225 161.189876 
L 254.741868 159.373152 
L 253.210211 157.70207 
L 251.51695 156.193172 
L 249.677176 154.861875 
L 247.707335 153.722393 
L 245.625194 152.787643 
L 243.449804 152.069136 
L 241.201468 151.576855 
L 238.901697 151.319118 
L 236.573157 151.30241 
L 234.451294 151.500181 
L 232.343801 151.902645 
L 230.269787 152.509928 
L 228.24882 153.32036 
L 226.300779 154.330337 
L 224.445665 155.53418 
L 222.703384 156.924012 
L 221.093479 158.489663 
L 219.63483 160.218599 
L 218.345319 162.095915 
L 217.241468 164.104368 
L 216.338064 166.224495 
L 215.647791 168.434799 
L 215.180877 170.712013 
L 214.944785 173.031444 
L 214.943967 175.367377 
L 215.179689 177.693541 
L 215.649954 179.983597 
L 216.349518 182.211642 
L 217.269996 184.352701 
L 218.400068 186.383177 
L 219.725752 188.281251 
L 221.230739 190.02721 
L 222.89677 191.6037 
L 224.704026 192.995901 
L 226.631525 194.19162 
L 228.657501 195.181323 
L 230.759767 195.9581 
L 232.916027 196.51759 
L 235.10417 196.857863 
L 237.302511 196.979281 
L 239.490001 196.884337 
L 241.646395 196.577492 
L 243.752398 196.065007 
L 245.789771 195.354774 
L 247.74143 194.456158 
L 249.591504 193.379839 
L 251.49188 192.004814 
L 253.234128 190.446325 
L 254.802644 188.722861 
L 256.183833 186.853998 
L 257.366138 184.860206 
L 258.340048 182.762659 
L 259.098101 180.583059 
L 259.634876 178.34346 
L 259.946979 176.066098 
L 260.033011 173.773232 
L 259.893539 171.486982 
L 259.531043 169.229181 
L 258.949873 167.02123 
L 258.156177 164.883964 
L 257.157844 162.837521 
L 255.964428 160.901227 
L 254.587071 159.093478 
L 253.038431 157.431643 
L 251.332601 155.931964 
L 249.485035 154.609459 
L 247.512472 153.477841 
L 245.432862 152.549422 
L 243.265298 151.835026 
L 241.029944 151.343889 
L 238.747956 151.083561 
L 236.441414 151.059789 
L 234.133228 151.276392 
L 231.847039 151.735127 
L 229.808171 152.361929 
L 227.826075 153.186441 
L 225.919509 154.204887 
L 224.107297 155.411653 
L 222.40816 156.799187 
L 220.840524 158.357899 
L 219.422285 160.07609 
L 218.170546 161.9399 
L 217.10132 163.933289 
L 216.229204 166.038082 
L 215.567036 168.234054 
L 215.125539 170.499096 
L 214.912985 172.809456 
L 214.934875 175.140049 
L 215.193676 177.464852 
L 215.688622 179.757354 
L 216.415603 181.991066 
L 217.36716 184.140047 
L 218.532577 186.179435 
L 219.898089 188.085957 
L 221.447176 189.838376 
L 223.160946 191.417873 
L 225.018566 192.808338 
L 226.997734 193.996558 
L 229.075151 194.972318 
L 231.22698 195.728399 
L 233.429278 196.260509 
L 235.658369 196.567139 
L 237.891173 196.64938 
L 240.105477 196.510704 
L 242.280142 196.15673 
L 244.395266 195.594982 
L 246.4323 194.834658 
L 248.37412 193.886404 
L 250.205073 192.762109 
L 251.910999 191.474713 
L 253.628036 189.886719 
L 255.163704 188.13753 
L 256.505353 186.247414 
L 257.642435 184.237305 
L 258.566466 182.128631 
L 259.270981 179.943162 
L 259.751497 177.702873 
L 260.005477 175.429806 
L 260.032295 173.14595 
L 259.833198 170.873114 
L 259.411281 168.632805 
L 258.771441 166.446107 
L 257.920342 164.333553 
L 256.866372 162.315008 
L 255.619585 160.409536 
L 254.19165 158.635283 
L 252.59578 157.00935 
L 250.846659 155.547672 
L 248.960358 154.264904 
L 246.954247 153.174301 
L 244.846896 152.287617 
L 242.657971 151.614992 
L 240.614615 151.196393 
L 240.614615 151.196393 
" clip-path="url(#p863b8a84e3)" style="fill: none; stroke: #ff0000; stroke-width: 1.5; stroke-linecap: square"/>
   </g>
   <g id="patch_5">
    <path d="M 103.104 307.584 
L 103.104 41.472 
" style="fill: none; stroke: #000000; stroke-width: 0.8; stroke-linejoin: miter; stroke-linecap: square"/>
   </g>
   <g id="patch_6">
    <path d="M 369.216 307.584 
L 369.216 41.472 
" style="fill: none; stroke: #000000; stroke-width: 0.8; stroke-linejoin: miter; stroke-linecap: square"/>
   </g>
   <g id="patch_7">
    <path d="M 103.104 307.584 
L 369.216 307.584 
" style="fill: none; stroke: #000000; stroke-width: 0.8; stroke-linejoin: miter; stroke-linecap: square"/>
   </g>
   <g id="patch_8">
    <path d="M 103.104 41.472 
L 369.216 41.472 
" style="fill: none; stroke: #000000; stroke-width: 0.8; stroke-linejoin: miter; stroke-linecap: square"/>
   </g>
   <g id="legend_1">
    <g id="patch_9">
     <path d="M 110.104 108.1845 
L 226.357125 108.1845 
Q 228.357125 108.1845 228.357125 106.1845 
L 228.357125 48.472 
Q 228.357125 46.472 226.357125 46.472 
L 110.104 46.472 
Q 108.104 46.472 108.104 48.472 
L 108.104 106.1845 
Q 108.104 108.1845 110.104 108.1845 
z
" style="fill: #ffffff; opacity: 0.8; stroke: #cccccc; stroke-linejoin: miter"/>
    </g>
    <g id="line2d_17">
     <path d="M 112.104 54.570438 
L 122.104 54.570438 
L 132.104 54.570438 
" style="fill: none; stroke: #808080; stroke-width: 1.5; stroke-linecap: square"/>
    </g>
    <g id="text_17">
     <!-- TCF Trajectory -->
     <g transform="translate(140.104 58.070438) scale(0.1 -0.1)">
      <defs>
       <path id="DejaVuSans-54" d="M -19 4666 
L 3928 4666 
L 3928 4134 
L 2272 4134 
L 2272 0 
L 1638 0 
L 1638 4134 
L -19 4134 
L -19 4666 
z
" transform="scale(0.015625)"/>
       <path id="DejaVuSans-43" d="M 4122 4306 
L 4122 3641 
Q 3803 3938 3442 4084 
Q 3081 4231 2675 4231 
Q 1875 4231 1450 3742 
Q 1025 3253 1025 2328 
Q 1025 1406 1450 917 
Q 1875 428 2675 428 
Q 3081 428 3442 575 
Q 3803 722 4122 1019 
L 4122 359 
Q 3791 134 3420 21 
Q 3050 -91 2638 -91 
Q 1578 -91 968 557 
Q 359 1206 359 2328 
Q 359 3453 968 4101 
Q 1578 4750 2638 4750 
Q 3056 4750 3426 4639 
Q 3797 4528 4122 4306 
z
" transform="scale(0.015625)"/>
       <path id="DejaVuSans-46" d="M 628 4666 
L 3309 4666 
L 3309 4134 
L 1259 4134 
L 1259 2759 
L 3109 2759 
L 3109 2228 
L 1259 2228 
L 1259 0 
L 628 0 
L 628 4666 
z
" transform="scale(0.015625)"/>
       <path id="DejaVuSans-72" d="M 2631 2963 
Q 2534 3019 2420 3045 
Q 2306 3072 2169 3072 
Q 1681 3072 1420 2755 
Q 1159 2438 1159 1844 
L 1159 0 
L 581 0 
L 581 3500 
L 1159 3500 
L 1159 2956 
Q 1341 3275 1631 3429 
Q 1922 3584 2338 3584 
Q 2397 3584 2469 3576 
Q 2541 3569 2628 3553 
L 2631 2963 
z
" transform="scale(0.015625)"/>
       <path id="DejaVuSans-61" d="M 2194 1759 
Q 1497 1759 1228 1600 
Q 959 1441 959 1056 
Q 959 750 1161 570 
Q 1363 391 1709 391 
Q 2188 391 2477 730 
Q 2766 1069 2766 1631 
L 2766 1759 
L 2194 1759 
z
M 3341 1997 
L 3341 0 
L 2766 0 
L 2766 531 
Q 2569 213 2275 61 
Q 1981 -91 1556 -91 
Q 1019 -91 701 211 
Q 384 513 384 1019 
Q 384 1609 779 1909 
Q 1175 2209 1959 2209 
L 2766 2209 
L 2766 2266 
Q 2766 2663 2505 2880 
Q 2244 3097 1772 3097 
Q 1472 3097 1187 3025 
Q 903 2953 641 2809 
L 641 3341 
Q 956 3463 1253 3523 
Q 1550 3584 1831 3584 
Q 2591 3584 2966 3190 
Q 3341 2797 3341 1997 
z
" transform="scale(0.015625)"/>
       <path id="DejaVuSans-6a" d="M 603 3500 
L 1178 3500 
L 1178 -63 
Q 1178 -731 923 -1031 
Q 669 -1331 103 -1331 
L -116 -1331 
L -116 -844 
L 38 -844 
Q 366 -844 484 -692 
Q 603 -541 603 -63 
L 603 3500 
z
M 603 4863 
L 1178 4863 
L 1178 4134 
L 603 4134 
L 603 4863 
z
" transform="scale(0.015625)"/>
       <path id="DejaVuSans-65" d="M 3597 1894 
L 3597 1613 
L 953 1613 
Q 991 1019 1311 708 
Q 1631 397 2203 397 
Q 2534 397 2845 478 
Q 3156 559 3463 722 
L 3463 178 
Q 3153 47 2828 -22 
Q 2503 -91 2169 -91 
Q 1331 -91 842 396 
Q 353 884 353 1716 
Q 353 2575 817 3079 
Q 1281 3584 2069 3584 
Q 2775 3584 3186 3129 
Q 3597 2675 3597 1894 
z
M 3022 2063 
Q 3016 2534 2758 2815 
Q 2500 3097 2075 3097 
Q 1594 3097 1305 2825 
Q 1016 2553 972 2059 
L 3022 2063 
z
" transform="scale(0.015625)"/>
       <path id="DejaVuSans-74" d="M 1172 4494 
L 1172 3500 
L 2356 3500 
L 2356 3053 
L 1172 3053 
L 1172 1153 
Q 1172 725 1289 603 
Q 1406 481 1766 481 
L 2356 481 
L 2356 0 
L 1766 0 
Q 1100 0 847 248 
Q 594 497 594 1153 
L 594 3053 
L 172 3053 
L 172 3500 
L 594 3500 
L 594 4494 
L 1172 4494 
z
" transform="scale(0.015625)"/>
      </defs>
      <use xlink:href="#DejaVuSans-54"/>
      <use xlink:href="#DejaVuSans-43" x="55.208984"/>
      <use xlink:href="#DejaVuSans-46" x="125.033203"/>
      <use xlink:href="#DejaVuSans-20" x="182.552734"/>
      <use xlink:href="#DejaVuSans-54" x="214.339844"/>
      <use xlink:href="#DejaVuSans-72" x="260.673828"/>
      <use xlink:href="#DejaVuSans-61" x="301.787109"/>
      <use xlink:href="#DejaVuSans-6a" x="363.066406"/>
      <use xlink:href="#DejaVuSans-65" x="390.849609"/>
      <use xlink:href="#DejaVuSans-63" x="452.373047"/>
      <use xlink:href="#DejaVuSans-74" x="507.353516"/>
      <use xlink:href="#DejaVuSans-6f" x="546.5625"/>
      <use xlink:href="#DejaVuSans-72" x="607.744141"/>
      <use xlink:href="#DejaVuSans-79" x="648.857422"/>
     </g>
    </g>
    <g id="line2d_18">
     <path d="M 112.104 69.248563 
L 122.104 69.248563 
L 132.104 69.248563 
" style="fill: none; stroke: #ff0000; stroke-width: 1.5; stroke-linecap: square"/>
    </g>
    <g id="text_18">
     <!-- Moon Orbit -->
     <g transform="translate(140.104 72.748563) scale(0.1 -0.1)">
      <defs>
       <path id="DejaVuSans-4d" d="M 628 4666 
L 1569 4666 
L 2759 1491 
L 3956 4666 
L 4897 4666 
L 4897 0 
L 4281 0 
L 4281 4097 
L 3078 897 
L 2444 897 
L 1241 4097 
L 1241 0 
L 628 0 
L 628 4666 
z
" transform="scale(0.015625)"/>
       <path id="DejaVuSans-4f" d="M 2522 4238 
Q 1834 4238 1429 3725 
Q 1025 3213 1025 2328 
Q 1025 1447 1429 934 
Q 1834 422 2522 422 
Q 3209 422 3611 934 
Q 4013 1447 4013 2328 
Q 4013 3213 3611 3725 
Q 3209 4238 2522 4238 
z
M 2522 4750 
Q 3503 4750 4090 4092 
Q 4678 3434 4678 2328 
Q 4678 1225 4090 567 
Q 3503 -91 2522 -91 
Q 1538 -91 948 565 
Q 359 1222 359 2328 
Q 359 3434 948 4092 
Q 1538 4750 2522 4750 
z
" transform="scale(0.015625)"/>
       <path id="DejaVuSans-62" d="M 3116 1747 
Q 3116 2381 2855 2742 
Q 2594 3103 2138 3103 
Q 1681 3103 1420 2742 
Q 1159 2381 1159 1747 
Q 1159 1113 1420 752 
Q 1681 391 2138 391 
Q 2594 391 2855 752 
Q 3116 1113 3116 1747 
z
M 1159 2969 
Q 1341 3281 1617 3432 
Q 1894 3584 2278 3584 
Q 2916 3584 3314 3078 
Q 3713 2572 3713 1747 
Q 3713 922 3314 415 
Q 2916 -91 2278 -91 
Q 1894 -91 1617 61 
Q 1341 213 1159 525 
L 1159 0 
L 581 0 
L 581 4863 
L 1159 4863 
L 1159 2969 
z
" transform="scale(0.015625)"/>
      </defs>
      <use xlink:href="#DejaVuSans-4d"/>
      <use xlink:href="#DejaVuSans-6f" x="86.279297"/>
      <use xlink:href="#DejaVuSans-6f" x="147.460938"/>
      <use xlink:href="#DejaVuSans-6e" x="208.642578"/>
      <use xlink:href="#DejaVuSans-20" x="272.021484"/>
      <use xlink:href="#DejaVuSans-4f" x="303.808594"/>
      <use xlink:href="#DejaVuSans-72" x="382.519531"/>
      <use xlink:href="#DejaVuSans-62" x="423.632812"/>
      <use xlink:href="#DejaVuSans-69" x="487.109375"/>
      <use xlink:href="#DejaVuSans-74" x="514.892578"/>
     </g>
    </g>
    <g id="patch_10">
     <path d="M 112.104 87.426688 
L 132.104 87.426688 
L 132.104 80.426688 
L 112.104 80.426688 
z
" style="fill: #1f77b4; opacity: 0.1"/>
    </g>
    <g id="text_19">
     <!-- Earth Hill Sphere -->
     <g transform="translate(140.104 87.426688) scale(0.1 -0.1)">
      <defs>
       <path id="DejaVuSans-45" d="M 628 4666 
L 3578 4666 
L 3578 4134 
L 1259 4134 
L 1259 2753 
L 3481 2753 
L 3481 2222 
L 1259 2222 
L 1259 531 
L 3634 531 
L 3634 0 
L 628 0 
L 628 4666 
z
" transform="scale(0.015625)"/>
       <path id="DejaVuSans-68" d="M 3513 2113 
L 3513 0 
L 2938 0 
L 2938 2094 
Q 2938 2591 2744 2837 
Q 2550 3084 2163 3084 
Q 1697 3084 1428 2787 
Q 1159 2491 1159 1978 
L 1159 0 
L 581 0 
L 581 4863 
L 1159 4863 
L 1159 2956 
Q 1366 3272 1645 3428 
Q 1925 3584 2291 3584 
Q 2894 3584 3203 3211 
Q 3513 2838 3513 2113 
z
" transform="scale(0.015625)"/>
       <path id="DejaVuSans-48" d="M 628 4666 
L 1259 4666 
L 1259 2753 
L 3553 2753 
L 3553 4666 
L 4184 4666 
L 4184 0 
L 3553 0 
L 3553 2222 
L 1259 2222 
L 1259 0 
L 628 0 
L 628 4666 
z
" transform="scale(0.015625)"/>
       <path id="DejaVuSans-6c" d="M 603 4863 
L 1178 4863 
L 1178 0 
L 603 0 
L 603 4863 
z
" transform="scale(0.015625)"/>
       <path id="DejaVuSans-70" d="M 1159 525 
L 1159 -1331 
L 581 -1331 
L 581 3500 
L 1159 3500 
L 1159 2969 
Q 1341 3281 1617 3432 
Q 1894 3584 2278 3584 
Q 2916 3584 3314 3078 
Q 3713 2572 3713 1747 
Q 3713 922 3314 415 
Q 2916 -91 2278 -91 
Q 1894 -91 1617 61 
Q 1341 213 1159 525 
z
M 3116 1747 
Q 3116 2381 2855 2742 
Q 2594 3103 2138 3103 
Q 1681 3103 1420 2742 
Q 1159 2381 1159 1747 
Q 1159 1113 1420 752 
Q 1681 391 2138 391 
Q 2594 391 2855 752 
Q 3116 1113 3116 1747 
z
" transform="scale(0.015625)"/>
      </defs>
      <use xlink:href="#DejaVuSans-45"/>
      <use xlink:href="#DejaVuSans-61" x="63.183594"/>
      <use xlink:href="#DejaVuSans-72" x="124.462891"/>
      <use xlink:href="#DejaVuSans-74" x="165.576172"/>
      <use xlink:href="#DejaVuSans-68" x="204.785156"/>
      <use xlink:href="#DejaVuSans-20" x="268.164062"/>
      <use xlink:href="#DejaVuSans-48" x="299.951172"/>
      <use xlink:href="#DejaVuSans-69" x="375.146484"/>
      <use xlink:href="#DejaVuSans-6c" x="402.929688"/>
      <use xlink:href="#DejaVuSans-6c" x="430.712891"/>
      <use xlink:href="#DejaVuSans-20" x="458.496094"/>
      <use xlink:href="#DejaVuSans-53" x="490.283203"/>
      <use xlink:href="#DejaVuSans-70" x="553.759766"/>
      <use xlink:href="#DejaVuSans-68" x="617.236328"/>
      <use xlink:href="#DejaVuSans-65" x="680.615234"/>
      <use xlink:href="#DejaVuSans-72" x="742.138672"/>
      <use xlink:href="#DejaVuSans-65" x="781.001953"/>
     </g>
    </g>
    <g id="patch_11">
     <path d="M 112.104 102.104813 
L 132.104 102.104813 
L 132.104 95.104813 
L 112.104 95.104813 
z
" style="fill: #0000ff; stroke: #0000ff; stroke-linejoin: miter"/>
    </g>
    <g id="text_20">
     <!-- Earth -->
     <g transform="translate(140.104 102.104813) scale(0.1 -0.1)">
      <use xlink:href="#DejaVuSans-45"/>
      <use xlink:href="#DejaVuSans-61" x="63.183594"/>
      <use xlink:href="#DejaVuSans-72" x="124.462891"/>
      <use xlink:href="#DejaVuSans-74" x="165.576172"/>
      <use xlink:href="#DejaVuSans-68" x="204.785156"/>
     </g>
    </g>
   </g>
  </g>
 </g>
 <defs>
  <clipPath id="p863b8a84e3">
   <rect x="103.104" y="41.472" width="266.112" height="266.112"/>
  </clipPath>
 </defs>
</svg>
