<?xml version="1.0" encoding="utf-8" standalone="no"?>
<!DOCTYPE svg PUBLIC "-//W3C//DTD SVG 1.1//EN"
  "http://www.w3.org/Graphics/SVG/1.1/DTD/svg11.dtd">
<svg xmlns:xlink="http://www.w3.org/1999/xlink" width="460.8pt" height="345.6pt" viewBox="0 0 460.8 345.6" xmlns="http://www.w3.org/2000/svg" version="1.1">
 <metadata>
  <rdf:RDF xmlns:dc="http://purl.org/dc/elements/1.1/" xmlns:cc="http://creativecommons.org/ns#" xmlns:rdf="http://www.w3.org/1999/02/22-rdf-syntax-ns#">
   <cc:Work>
    <dc:type rdf:resource="http://purl.org/dc/dcmitype/StillImage"/>
    <dc:date>2023-06-27T14:50:44.620272</dc:date>
    <dc:format>image/svg+xml</dc:format>
    <dc:creator>
     <cc:Agent>
      <dc:title>Matplotlib v3.6.3, https://matplotlib.org/</dc:title>
     </cc:Agent>
    </dc:creator>
   </cc:Work>
  </rdf:RDF>
 </metadata>
 <defs>
  <style type="text/css">*{stroke-linejoin: round; stroke-linecap: butt}</style>
 </defs>
 <g id="figure_1">
  <g id="patch_1">
   <path d="M 0 345.6 
L 460.8 345.6 
L 460.8 0 
L 0 0 
z
" style="fill: #ffffff"/>
  </g>
  <g id="axes_1">
   <g id="patch_2">
    <path d="M 57.6 234.048 
L 414.72 234.048 
L 414.72 115.008 
L 57.6 115.008 
z
" style="fill: #ffffff"/>
   </g>
   <g id="patch_3">
    <path d="M 236.16 234.048 
C 251.944889 234.048 267.085394 227.776597 278.246996 216.614996 
C 289.408597 205.453394 295.68 190.312889 295.68 174.528 
C 295.68 158.743111 289.408597 143.602606 278.246996 132.441004 
C 267.085394 121.279403 251.944889 115.008 236.16 115.008 
C 220.375111 115.008 205.234606 121.279403 194.073004 132.441004 
C 182.911403 143.602606 176.64 158.743111 176.64 174.528 
C 176.64 190.312889 182.911403 205.453394 194.073004 216.614996 
C 205.234606 227.776597 220.375111 234.048 236.16 234.048 
z
" clip-path="url(#p1588478a86)" style="fill: #1f77b4; opacity: 0.1"/>
   </g>
   <g id="matplotlib.axis_1">
    <g id="xtick_1">
     <g id="line2d_1">
      <defs>
       <path id="mfc5b43ef6b" d="M 0 0 
L 0 3.5 
" style="stroke: #000000; stroke-width: 0.8"/>
      </defs>
      <g>
       <use xlink:href="#mfc5b43ef6b" x="57.6" y="234.048" style="stroke: #000000; stroke-width: 0.8"/>
      </g>
     </g>
     <g id="text_1">
      <!-- −0.03 -->
      <g transform="translate(42.277344 248.646437) scale(0.1 -0.1)">
       <defs>
        <path id="DejaVuSans-2212" d="M 678 2272 
L 4684 2272 
L 4684 1741 
L 678 1741 
L 678 2272 
z
" transform="scale(0.015625)"/>
        <path id="DejaVuSans-30" d="M 2034 4250 
Q 1547 4250 1301 3770 
Q 1056 3291 1056 2328 
Q 1056 1369 1301 889 
Q 1547 409 2034 409 
Q 2525 409 2770 889 
Q 3016 1369 3016 2328 
Q 3016 3291 2770 3770 
Q 2525 4250 2034 4250 
z
M 2034 4750 
Q 2819 4750 3233 4129 
Q 3647 3509 3647 2328 
Q 3647 1150 3233 529 
Q 2819 -91 2034 -91 
Q 1250 -91 836 529 
Q 422 1150 422 2328 
Q 422 3509 836 4129 
Q 1250 4750 2034 4750 
z
" transform="scale(0.015625)"/>
        <path id="DejaVuSans-2e" d="M 684 794 
L 1344 794 
L 1344 0 
L 684 0 
L 684 794 
z
" transform="scale(0.015625)"/>
        <path id="DejaVuSans-33" d="M 2597 2516 
Q 3050 2419 3304 2112 
Q 3559 1806 3559 1356 
Q 3559 666 3084 287 
Q 2609 -91 1734 -91 
Q 1441 -91 1130 -33 
Q 819 25 488 141 
L 488 750 
Q 750 597 1062 519 
Q 1375 441 1716 441 
Q 2309 441 2620 675 
Q 2931 909 2931 1356 
Q 2931 1769 2642 2001 
Q 2353 2234 1838 2234 
L 1294 2234 
L 1294 2753 
L 1863 2753 
Q 2328 2753 2575 2939 
Q 2822 3125 2822 3475 
Q 2822 3834 2567 4026 
Q 2313 4219 1838 4219 
Q 1578 4219 1281 4162 
Q 984 4106 628 3988 
L 628 4550 
Q 988 4650 1302 4700 
Q 1616 4750 1894 4750 
Q 2613 4750 3031 4423 
Q 3450 4097 3450 3541 
Q 3450 3153 3228 2886 
Q 3006 2619 2597 2516 
z
" transform="scale(0.015625)"/>
       </defs>
       <use xlink:href="#DejaVuSans-2212"/>
       <use xlink:href="#DejaVuSans-30" x="83.789062"/>
       <use xlink:href="#DejaVuSans-2e" x="147.412109"/>
       <use xlink:href="#DejaVuSans-30" x="179.199219"/>
       <use xlink:href="#DejaVuSans-33" x="242.822266"/>
      </g>
     </g>
    </g>
    <g id="xtick_2">
     <g id="line2d_2">
      <g>
       <use xlink:href="#mfc5b43ef6b" x="117.12" y="234.048" style="stroke: #000000; stroke-width: 0.8"/>
      </g>
     </g>
     <g id="text_2">
      <!-- −0.02 -->
      <g transform="translate(101.797344 248.646437) scale(0.1 -0.1)">
       <defs>
        <path id="DejaVuSans-32" d="M 1228 531 
L 3431 531 
L 3431 0 
L 469 0 
L 469 531 
Q 828 903 1448 1529 
Q 2069 2156 2228 2338 
Q 2531 2678 2651 2914 
Q 2772 3150 2772 3378 
Q 2772 3750 2511 3984 
Q 2250 4219 1831 4219 
Q 1534 4219 1204 4116 
Q 875 4013 500 3803 
L 500 4441 
Q 881 4594 1212 4672 
Q 1544 4750 1819 4750 
Q 2544 4750 2975 4387 
Q 3406 4025 3406 3419 
Q 3406 3131 3298 2873 
Q 3191 2616 2906 2266 
Q 2828 2175 2409 1742 
Q 1991 1309 1228 531 
z
" transform="scale(0.015625)"/>
       </defs>
       <use xlink:href="#DejaVuSans-2212"/>
       <use xlink:href="#DejaVuSans-30" x="83.789062"/>
       <use xlink:href="#DejaVuSans-2e" x="147.412109"/>
       <use xlink:href="#DejaVuSans-30" x="179.199219"/>
       <use xlink:href="#DejaVuSans-32" x="242.822266"/>
      </g>
     </g>
    </g>
    <g id="xtick_3">
     <g id="line2d_3">
      <g>
       <use xlink:href="#mfc5b43ef6b" x="176.64" y="234.048" style="stroke: #000000; stroke-width: 0.8"/>
      </g>
     </g>
     <g id="text_3">
      <!-- −0.01 -->
      <g transform="translate(161.317344 248.646437) scale(0.1 -0.1)">
       <defs>
        <path id="DejaVuSans-31" d="M 794 531 
L 1825 531 
L 1825 4091 
L 703 3866 
L 703 4441 
L 1819 4666 
L 2450 4666 
L 2450 531 
L 3481 531 
L 3481 0 
L 794 0 
L 794 531 
z
" transform="scale(0.015625)"/>
       </defs>
       <use xlink:href="#DejaVuSans-2212"/>
       <use xlink:href="#DejaVuSans-30" x="83.789062"/>
       <use xlink:href="#DejaVuSans-2e" x="147.412109"/>
       <use xlink:href="#DejaVuSans-30" x="179.199219"/>
       <use xlink:href="#DejaVuSans-31" x="242.822266"/>
      </g>
     </g>
    </g>
    <g id="xtick_4">
     <g id="line2d_4">
      <g>
       <use xlink:href="#mfc5b43ef6b" x="236.16" y="234.048" style="stroke: #000000; stroke-width: 0.8"/>
      </g>
     </g>
     <g id="text_4">
      <!-- 0.00 -->
      <g transform="translate(225.027187 248.646437) scale(0.1 -0.1)">
       <use xlink:href="#DejaVuSans-30"/>
       <use xlink:href="#DejaVuSans-2e" x="63.623047"/>
       <use xlink:href="#DejaVuSans-30" x="95.410156"/>
       <use xlink:href="#DejaVuSans-30" x="159.033203"/>
      </g>
     </g>
    </g>
    <g id="xtick_5">
     <g id="line2d_5">
      <g>
       <use xlink:href="#mfc5b43ef6b" x="295.68" y="234.048" style="stroke: #000000; stroke-width: 0.8"/>
      </g>
     </g>
     <g id="text_5">
      <!-- 0.01 -->
      <g transform="translate(284.547188 248.646437) scale(0.1 -0.1)">
       <use xlink:href="#DejaVuSans-30"/>
       <use xlink:href="#DejaVuSans-2e" x="63.623047"/>
       <use xlink:href="#DejaVuSans-30" x="95.410156"/>
       <use xlink:href="#DejaVuSans-31" x="159.033203"/>
      </g>
     </g>
    </g>
    <g id="xtick_6">
     <g id="line2d_6">
      <g>
       <use xlink:href="#mfc5b43ef6b" x="355.2" y="234.048" style="stroke: #000000; stroke-width: 0.8"/>
      </g>
     </g>
     <g id="text_6">
      <!-- 0.02 -->
      <g transform="translate(344.067188 248.646437) scale(0.1 -0.1)">
       <use xlink:href="#DejaVuSans-30"/>
       <use xlink:href="#DejaVuSans-2e" x="63.623047"/>
       <use xlink:href="#DejaVuSans-30" x="95.410156"/>
       <use xlink:href="#DejaVuSans-32" x="159.033203"/>
      </g>
     </g>
    </g>
    <g id="xtick_7">
     <g id="line2d_7">
      <g>
       <use xlink:href="#mfc5b43ef6b" x="414.72" y="234.048" style="stroke: #000000; stroke-width: 0.8"/>
      </g>
     </g>
     <g id="text_7">
      <!-- 0.03 -->
      <g transform="translate(403.587188 248.646437) scale(0.1 -0.1)">
       <use xlink:href="#DejaVuSans-30"/>
       <use xlink:href="#DejaVuSans-2e" x="63.623047"/>
       <use xlink:href="#DejaVuSans-30" x="95.410156"/>
       <use xlink:href="#DejaVuSans-33" x="159.033203"/>
      </g>
     </g>
    </g>
    <g id="text_8">
     <!-- Synodic x (AU) -->
     <g transform="translate(199.367031 262.324563) scale(0.1 -0.1)">
      <defs>
       <path id="DejaVuSans-53" d="M 3425 4513 
L 3425 3897 
Q 3066 4069 2747 4153 
Q 2428 4238 2131 4238 
Q 1616 4238 1336 4038 
Q 1056 3838 1056 3469 
Q 1056 3159 1242 3001 
Q 1428 2844 1947 2747 
L 2328 2669 
Q 3034 2534 3370 2195 
Q 3706 1856 3706 1288 
Q 3706 609 3251 259 
Q 2797 -91 1919 -91 
Q 1588 -91 1214 -16 
Q 841 59 441 206 
L 441 856 
Q 825 641 1194 531 
Q 1563 422 1919 422 
Q 2459 422 2753 634 
Q 3047 847 3047 1241 
Q 3047 1584 2836 1778 
Q 2625 1972 2144 2069 
L 1759 2144 
Q 1053 2284 737 2584 
Q 422 2884 422 3419 
Q 422 4038 858 4394 
Q 1294 4750 2059 4750 
Q 2388 4750 2728 4690 
Q 3069 4631 3425 4513 
z
" transform="scale(0.015625)"/>
       <path id="DejaVuSans-79" d="M 2059 -325 
Q 1816 -950 1584 -1140 
Q 1353 -1331 966 -1331 
L 506 -1331 
L 506 -850 
L 844 -850 
Q 1081 -850 1212 -737 
Q 1344 -625 1503 -206 
L 1606 56 
L 191 3500 
L 800 3500 
L 1894 763 
L 2988 3500 
L 3597 3500 
L 2059 -325 
z
" transform="scale(0.015625)"/>
       <path id="DejaVuSans-6e" d="M 3513 2113 
L 3513 0 
L 2938 0 
L 2938 2094 
Q 2938 2591 2744 2837 
Q 2550 3084 2163 3084 
Q 1697 3084 1428 2787 
Q 1159 2491 1159 1978 
L 1159 0 
L 581 0 
L 581 3500 
L 1159 3500 
L 1159 2956 
Q 1366 3272 1645 3428 
Q 1925 3584 2291 3584 
Q 2894 3584 3203 3211 
Q 3513 2838 3513 2113 
z
" transform="scale(0.015625)"/>
       <path id="DejaVuSans-6f" d="M 1959 3097 
Q 1497 3097 1228 2736 
Q 959 2375 959 1747 
Q 959 1119 1226 758 
Q 1494 397 1959 397 
Q 2419 397 2687 759 
Q 2956 1122 2956 1747 
Q 2956 2369 2687 2733 
Q 2419 3097 1959 3097 
z
M 1959 3584 
Q 2709 3584 3137 3096 
Q 3566 2609 3566 1747 
Q 3566 888 3137 398 
Q 2709 -91 1959 -91 
Q 1206 -91 779 398 
Q 353 888 353 1747 
Q 353 2609 779 3096 
Q 1206 3584 1959 3584 
z
" transform="scale(0.015625)"/>
       <path id="DejaVuSans-64" d="M 2906 2969 
L 2906 4863 
L 3481 4863 
L 3481 0 
L 2906 0 
L 2906 525 
Q 2725 213 2448 61 
Q 2172 -91 1784 -91 
Q 1150 -91 751 415 
Q 353 922 353 1747 
Q 353 2572 751 3078 
Q 1150 3584 1784 3584 
Q 2172 3584 2448 3432 
Q 2725 3281 2906 2969 
z
M 947 1747 
Q 947 1113 1208 752 
Q 1469 391 1925 391 
Q 2381 391 2643 752 
Q 2906 1113 2906 1747 
Q 2906 2381 2643 2742 
Q 2381 3103 1925 3103 
Q 1469 3103 1208 2742 
Q 947 2381 947 1747 
z
" transform="scale(0.015625)"/>
       <path id="DejaVuSans-69" d="M 603 3500 
L 1178 3500 
L 1178 0 
L 603 0 
L 603 3500 
z
M 603 4863 
L 1178 4863 
L 1178 4134 
L 603 4134 
L 603 4863 
z
" transform="scale(0.015625)"/>
       <path id="DejaVuSans-63" d="M 3122 3366 
L 3122 2828 
Q 2878 2963 2633 3030 
Q 2388 3097 2138 3097 
Q 1578 3097 1268 2742 
Q 959 2388 959 1747 
Q 959 1106 1268 751 
Q 1578 397 2138 397 
Q 2388 397 2633 464 
Q 2878 531 3122 666 
L 3122 134 
Q 2881 22 2623 -34 
Q 2366 -91 2075 -91 
Q 1284 -91 818 406 
Q 353 903 353 1747 
Q 353 2603 823 3093 
Q 1294 3584 2113 3584 
Q 2378 3584 2631 3529 
Q 2884 3475 3122 3366 
z
" transform="scale(0.015625)"/>
       <path id="DejaVuSans-20" transform="scale(0.015625)"/>
       <path id="DejaVuSans-78" d="M 3513 3500 
L 2247 1797 
L 3578 0 
L 2900 0 
L 1881 1375 
L 863 0 
L 184 0 
L 1544 1831 
L 300 3500 
L 978 3500 
L 1906 2253 
L 2834 3500 
L 3513 3500 
z
" transform="scale(0.015625)"/>
       <path id="DejaVuSans-28" d="M 1984 4856 
Q 1566 4138 1362 3434 
Q 1159 2731 1159 2009 
Q 1159 1288 1364 580 
Q 1569 -128 1984 -844 
L 1484 -844 
Q 1016 -109 783 600 
Q 550 1309 550 2009 
Q 550 2706 781 3412 
Q 1013 4119 1484 4856 
L 1984 4856 
z
" transform="scale(0.015625)"/>
       <path id="DejaVuSans-41" d="M 2188 4044 
L 1331 1722 
L 3047 1722 
L 2188 4044 
z
M 1831 4666 
L 2547 4666 
L 4325 0 
L 3669 0 
L 3244 1197 
L 1141 1197 
L 716 0 
L 50 0 
L 1831 4666 
z
" transform="scale(0.015625)"/>
       <path id="DejaVuSans-55" d="M 556 4666 
L 1191 4666 
L 1191 1831 
Q 1191 1081 1462 751 
Q 1734 422 2344 422 
Q 2950 422 3222 751 
Q 3494 1081 3494 1831 
L 3494 4666 
L 4128 4666 
L 4128 1753 
Q 4128 841 3676 375 
Q 3225 -91 2344 -91 
Q 1459 -91 1007 375 
Q 556 841 556 1753 
L 556 4666 
z
" transform="scale(0.015625)"/>
       <path id="DejaVuSans-29" d="M 513 4856 
L 1013 4856 
Q 1481 4119 1714 3412 
Q 1947 2706 1947 2009 
Q 1947 1309 1714 600 
Q 1481 -109 1013 -844 
L 513 -844 
Q 928 -128 1133 580 
Q 1338 1288 1338 2009 
Q 1338 2731 1133 3434 
Q 928 4138 513 4856 
z
" transform="scale(0.015625)"/>
      </defs>
      <use xlink:href="#DejaVuSans-53"/>
      <use xlink:href="#DejaVuSans-79" x="63.476562"/>
      <use xlink:href="#DejaVuSans-6e" x="122.65625"/>
      <use xlink:href="#DejaVuSans-6f" x="186.035156"/>
      <use xlink:href="#DejaVuSans-64" x="247.216797"/>
      <use xlink:href="#DejaVuSans-69" x="310.693359"/>
      <use xlink:href="#DejaVuSans-63" x="338.476562"/>
      <use xlink:href="#DejaVuSans-20" x="393.457031"/>
      <use xlink:href="#DejaVuSans-78" x="425.244141"/>
      <use xlink:href="#DejaVuSans-20" x="484.423828"/>
      <use xlink:href="#DejaVuSans-28" x="516.210938"/>
      <use xlink:href="#DejaVuSans-41" x="555.224609"/>
      <use xlink:href="#DejaVuSans-55" x="623.632812"/>
      <use xlink:href="#DejaVuSans-29" x="696.826172"/>
     </g>
    </g>
   </g>
   <g id="matplotlib.axis_2">
    <g id="ytick_1">
     <g id="line2d_8">
      <defs>
       <path id="m96312eb1a6" d="M 0 0 
L -3.5 0 
" style="stroke: #000000; stroke-width: 0.8"/>
      </defs>
      <g>
       <use xlink:href="#m96312eb1a6" x="57.6" y="234.048" style="stroke: #000000; stroke-width: 0.8"/>
      </g>
     </g>
     <g id="text_9">
      <!-- −0.010 -->
      <g transform="translate(13.592188 237.847219) scale(0.1 -0.1)">
       <use xlink:href="#DejaVuSans-2212"/>
       <use xlink:href="#DejaVuSans-30" x="83.789062"/>
       <use xlink:href="#DejaVuSans-2e" x="147.412109"/>
       <use xlink:href="#DejaVuSans-30" x="179.199219"/>
       <use xlink:href="#DejaVuSans-31" x="242.822266"/>
       <use xlink:href="#DejaVuSans-30" x="306.445312"/>
      </g>
     </g>
    </g>
    <g id="ytick_2">
     <g id="line2d_9">
      <g>
       <use xlink:href="#m96312eb1a6" x="57.6" y="204.288" style="stroke: #000000; stroke-width: 0.8"/>
      </g>
     </g>
     <g id="text_10">
      <!-- −0.005 -->
      <g transform="translate(13.592188 208.087219) scale(0.1 -0.1)">
       <defs>
        <path id="DejaVuSans-35" d="M 691 4666 
L 3169 4666 
L 3169 4134 
L 1269 4134 
L 1269 2991 
Q 1406 3038 1543 3061 
Q 1681 3084 1819 3084 
Q 2600 3084 3056 2656 
Q 3513 2228 3513 1497 
Q 3513 744 3044 326 
Q 2575 -91 1722 -91 
Q 1428 -91 1123 -41 
Q 819 9 494 109 
L 494 744 
Q 775 591 1075 516 
Q 1375 441 1709 441 
Q 2250 441 2565 725 
Q 2881 1009 2881 1497 
Q 2881 1984 2565 2268 
Q 2250 2553 1709 2553 
Q 1456 2553 1204 2497 
Q 953 2441 691 2322 
L 691 4666 
z
" transform="scale(0.015625)"/>
       </defs>
       <use xlink:href="#DejaVuSans-2212"/>
       <use xlink:href="#DejaVuSans-30" x="83.789062"/>
       <use xlink:href="#DejaVuSans-2e" x="147.412109"/>
       <use xlink:href="#DejaVuSans-30" x="179.199219"/>
       <use xlink:href="#DejaVuSans-30" x="242.822266"/>
       <use xlink:href="#DejaVuSans-35" x="306.445312"/>
      </g>
     </g>
    </g>
    <g id="ytick_3">
     <g id="line2d_10">
      <g>
       <use xlink:href="#m96312eb1a6" x="57.6" y="174.528" style="stroke: #000000; stroke-width: 0.8"/>
      </g>
     </g>
     <g id="text_11">
      <!-- 0.000 -->
      <g transform="translate(21.971875 178.327219) scale(0.1 -0.1)">
       <use xlink:href="#DejaVuSans-30"/>
       <use xlink:href="#DejaVuSans-2e" x="63.623047"/>
       <use xlink:href="#DejaVuSans-30" x="95.410156"/>
       <use xlink:href="#DejaVuSans-30" x="159.033203"/>
       <use xlink:href="#DejaVuSans-30" x="222.65625"/>
      </g>
     </g>
    </g>
    <g id="ytick_4">
     <g id="line2d_11">
      <g>
       <use xlink:href="#m96312eb1a6" x="57.6" y="144.768" style="stroke: #000000; stroke-width: 0.8"/>
      </g>
     </g>
     <g id="text_12">
      <!-- 0.005 -->
      <g transform="translate(21.971875 148.567219) scale(0.1 -0.1)">
       <use xlink:href="#DejaVuSans-30"/>
       <use xlink:href="#DejaVuSans-2e" x="63.623047"/>
       <use xlink:href="#DejaVuSans-30" x="95.410156"/>
       <use xlink:href="#DejaVuSans-30" x="159.033203"/>
       <use xlink:href="#DejaVuSans-35" x="222.65625"/>
      </g>
     </g>
    </g>
    <g id="ytick_5">
     <g id="line2d_12">
      <g>
       <use xlink:href="#m96312eb1a6" x="57.6" y="115.008" style="stroke: #000000; stroke-width: 0.8"/>
      </g>
     </g>
     <g id="text_13">
      <!-- 0.010 -->
      <g transform="translate(21.971875 118.807219) scale(0.1 -0.1)">
       <use xlink:href="#DejaVuSans-30"/>
       <use xlink:href="#DejaVuSans-2e" x="63.623047"/>
       <use xlink:href="#DejaVuSans-30" x="95.410156"/>
       <use xlink:href="#DejaVuSans-31" x="159.033203"/>
       <use xlink:href="#DejaVuSans-30" x="222.65625"/>
      </g>
     </g>
    </g>
    <g id="text_14">
     <!-- Synodic y (AU) -->
     <g transform="translate(7.5125 211.320969) rotate(-90) scale(0.1 -0.1)">
      <use xlink:href="#DejaVuSans-53"/>
      <use xlink:href="#DejaVuSans-79" x="63.476562"/>
      <use xlink:href="#DejaVuSans-6e" x="122.65625"/>
      <use xlink:href="#DejaVuSans-6f" x="186.035156"/>
      <use xlink:href="#DejaVuSans-64" x="247.216797"/>
      <use xlink:href="#DejaVuSans-69" x="310.693359"/>
      <use xlink:href="#DejaVuSans-63" x="338.476562"/>
      <use xlink:href="#DejaVuSans-20" x="393.457031"/>
      <use xlink:href="#DejaVuSans-79" x="425.244141"/>
      <use xlink:href="#DejaVuSans-20" x="484.423828"/>
      <use xlink:href="#DejaVuSans-28" x="516.210938"/>
      <use xlink:href="#DejaVuSans-41" x="555.224609"/>
      <use xlink:href="#DejaVuSans-55" x="623.632812"/>
      <use xlink:href="#DejaVuSans-29" x="696.826172"/>
     </g>
    </g>
   </g>
   <g id="line2d_13">
    <path d="M 339.911537 200.518802 
L 335.372818 205.400836 
L 331.020948 209.76078 
L 326.941484 213.536889 
L 323.037532 216.847312 
L 319.301485 219.725515 
L 315.639405 222.268208 
L 312.049199 224.496247 
L 308.441501 226.477995 
L 304.818921 228.217364 
L 301.186689 229.718175 
L 297.552231 230.983558 
L 293.924742 232.015592 
L 290.314881 232.815114 
L 286.734639 233.381521 
L 283.285058 233.707015 
L 279.889361 233.80405 
L 276.645118 233.671679 
L 273.640128 233.330644 
L 270.788997 232.788074 
L 268.08891 232.052552 
L 265.458115 231.103669 
L 262.970413 229.972812 
L 260.546749 228.631025 
L 258.18704 227.075237 
L 255.823764 225.245797 
L 253.531887 223.183734 
L 251.315288 220.885623 
L 249.179247 218.346521 
L 247.130506 215.558894 
L 245.233389 212.604764 
L 243.435603 209.390085 
L 241.797682 206.002233 
L 240.321643 202.43674 
L 239.010147 198.680856 
L 237.90424 194.853223 
L 236.963011 190.797958 
L 236.22239 186.630575 
L 235.682483 182.319641 
L 235.373247 178.04852 
L 235.323151 174.453309 
L 235.497974 172.103786 
L 235.714231 171.316426 
L 235.956217 171.143683 
L 236.157932 171.307328 
L 236.488297 171.966333 
L 236.945687 173.455189 
L 237.546011 176.268034 
L 238.113116 180.063442 
L 238.507212 184.194316 
L 238.690207 188.402835 
L 238.650824 192.521837 
L 238.387207 196.555475 
L 237.91001 200.383965 
L 237.249172 203.917744 
L 236.393663 207.288173 
L 235.37548 210.407031 
L 234.168569 213.37869 
L 232.812574 216.122174 
L 231.318058 218.651379 
L 229.645786 221.043136 
L 227.849002 223.230123 
L 225.88322 225.27481 
L 223.752187 227.167455 
L 221.523766 228.854113 
L 219.150035 230.375375 
L 216.70688 231.68305 
L 214.210161 232.773586 
L 211.672868 233.640136 
L 209.171722 234.260753 
L 206.713321 234.646798 
L 204.232104 234.814054 
L 201.728831 234.761239 
L 199.204273 234.489344 
L 196.588705 233.984455 
L 193.88254 233.232584 
L 191.087383 232.221324 
L 188.206414 230.94011 
L 185.244925 229.380471 
L 182.138874 227.489259 
L 178.973016 225.297616 
L 175.764656 222.802997 
L 172.605805 220.066176 
L 169.518387 217.097559 
L 166.589686 213.975803 
L 163.83032 210.715452 
L 161.182725 207.244996 
L 158.650001 203.562439 
L 156.119979 199.483495 
L 153.655148 195.083526 
L 151.206278 190.257405 
L 148.733096 184.886947 
L 146.248781 178.955965 
L 143.723637 172.344122 
L 141.180856 165.051338 
L 138.728679 157.338488 
L 136.503041 149.613223 
L 134.886778 143.409264 
L 134.886778 143.409264 
" clip-path="url(#p1588478a86)" style="fill: none; stroke: #5599ff; stroke-width: 5; stroke-linecap: square"/>
   </g>
   <g id="line2d_14">
    <path d="M 432.036844 -1 
L 428.671875 12.085026 
L 425.3044 24.292857 
L 421.849439 35.97672 
L 418.248428 47.376273 
L 414.374803 58.907618 
L 410.163478 70.745561 
L 405.622144 82.845193 
L 400.766053 95.14804 
L 395.690937 107.398408 
L 390.716836 118.833709 
L 386.075602 128.961989 
L 381.759514 137.861276 
L 377.604733 145.92412 
L 373.52631 153.356648 
L 369.442648 160.343293 
L 365.189504 167.1757 
L 360.853702 173.721375 
L 356.359033 180.106288 
L 351.716227 186.314743 
L 347.028726 192.216774 
L 342.3159 197.801535 
L 337.685755 202.954044 
L 333.240128 207.57844 
L 329.069579 211.606169 
L 325.078996 215.154237 
L 321.260065 218.252402 
L 317.606534 220.936587 
L 313.936291 223.357467 
L 310.337629 225.468054 
L 306.722367 227.334173 
L 303.094405 228.959781 
L 299.460072 230.348432 
L 295.827683 231.502788 
L 292.207155 232.424357 
L 288.609789 233.113324 
L 285.048184 233.568285 
L 281.623183 233.783217 
L 278.343968 233.769818 
L 275.217292 233.537399 
L 272.246351 233.093714 
L 269.430292 232.446528 
L 266.764871 231.605207 
L 264.243922 230.581487 
L 261.787332 229.3488 
L 259.394629 227.903593 
L 257.066206 226.243119 
L 254.736135 224.304577 
L 252.479115 222.131929 
L 250.299681 219.721157 
L 248.203789 217.066245 
L 246.198911 214.157998 
L 244.348691 211.079889 
L 242.654199 207.836846 
L 241.069065 204.314077 
L 239.694396 200.724381 
L 238.48151 196.946265 
L 237.434447 192.950815 
L 236.590118 188.85458 
L 235.944579 184.635997 
L 235.503989 180.255913 
L 235.317266 176.168723 
L 235.377275 173.227603 
L 235.571763 171.729639 
L 235.829212 171.171342 
L 236.022625 171.172774 
L 236.292892 171.526165 
L 236.671166 172.490554 
L 237.18552 174.461046 
L 237.775946 177.635475 
L 238.291285 181.662209 
L 238.610704 185.958391 
L 238.700633 190.152326 
L 238.565971 194.255772 
L 238.216877 198.148936 
L 237.662581 201.853004 
L 236.906927 205.379886 
L 235.980859 208.640752 
L 234.897271 211.659309 
L 233.627662 214.535136 
L 232.213371 217.188864 
L 230.66482 219.633266 
L 228.941372 221.941994 
L 227.0437 224.106863 
L 225.031996 226.067244 
L 222.859646 227.875815 
L 220.533842 229.520608 
L 218.128841 230.952125 
L 215.661323 232.169023 
L 213.146164 233.166223 
L 210.662208 233.918704 
L 208.150233 234.448003 
L 205.682201 234.743208 
L 203.191717 234.818781 
L 200.679461 234.674452 
L 198.075714 234.298836 
L 195.451572 233.696384 
L 192.737768 232.846663 
L 189.936411 231.737986 
L 186.979094 230.323073 
L 183.944109 228.619861 
L 180.841407 226.623193 
L 177.685062 224.329667 
L 174.493978 221.736651 
L 171.361007 218.906123 
L 168.308403 215.846572 
L 165.421487 212.636359 
L 162.708094 209.288447 
L 160.108574 205.729271 
L 157.567022 201.868 
L 155.087416 197.693737 
L 152.619965 193.100853 
L 150.172372 188.075005 
L 147.704862 182.499203 
L 145.186433 176.247892 
L 142.637759 169.310945 
L 140.124274 161.817058 
L 137.750546 154.041468 
L 135.645001 146.39459 
L 133.813016 138.905735 
L 132.248011 131.581307 
L 130.838035 123.903793 
L 129.544307 115.591507 
L 128.336238 106.356494 
L 127.14691 95.506412 
L 125.880465 81.807063 
L 124.595461 65.48511 
L 123.776821 52.413785 
L 123.31956 41.608007 
L 123.100478 31.126569 
L 123.090847 19.730968 
L 123.313589 5.671771 
L 123.472347 -1 
L 123.472347 -1 
" clip-path="url(#p1588478a86)" style="fill: none; stroke: #808080; stroke-width: 2; stroke-linecap: square"/>
   </g>
   <g id="line2d_15">
    <path d="M 247.51738 185.97516 
L 248.698371 184.617007 
L 249.711701 183.126505 
L 250.542417 181.522513 
L 251.177422 179.825496 
L 251.605632 178.057424 
L 251.818137 176.241657 
L 251.808386 174.402831 
L 251.572393 172.56672 
L 251.108967 170.760069 
L 250.419964 169.01038 
L 249.510555 167.345636 
L 248.482985 165.908663 
L 247.284825 164.589916 
L 245.928793 163.410684 
L 244.430634 162.391222 
L 242.809137 161.550249 
L 241.086056 160.90439 
L 239.285904 160.467601 
L 237.435606 160.250582 
L 235.563998 160.260248 
L 233.701187 160.499289 
L 231.877781 160.965873 
L 230.124045 161.653525 
L 228.469033 162.551218 
L 226.93975 163.643659 
L 225.56042 164.911771 
L 224.351886 166.333321 
L 223.331199 167.883648 
L 222.511388 169.53642 
L 221.901402 171.264398 
L 221.506217 173.040119 
L 221.32706 174.836515 
L 221.361712 176.627408 
L 221.604865 178.387913 
L 222.048503 180.094728 
L 222.743294 181.858291 
L 223.645413 183.508839 
L 224.736832 185.024332 
L 225.997697 186.385528 
L 227.406707 187.575975 
L 228.941434 188.581985 
L 230.578616 189.392587 
L 232.294402 189.999476 
L 234.064585 190.396963 
L 235.864814 190.581922 
L 237.670793 190.553747 
L 239.458481 190.314293 
L 241.204284 189.867832 
L 242.885251 189.220986 
L 244.479263 188.382662 
L 245.965229 187.363973 
L 247.323277 186.178144 
L 248.534939 184.840411 
L 249.583332 183.367899 
L 250.453338 181.779492 
L 251.13177 180.095697 
L 251.607539 178.338482 
L 251.871812 176.53112 
L 251.918173 174.698009 
L 251.742778 172.864487 
L 251.344513 171.056626 
L 250.72516 169.300999 
L 249.889559 167.624425 
L 248.845771 166.053669 
L 247.605234 164.615087 
L 246.298363 163.426587 
L 244.851032 162.391605 
L 243.280372 161.52795 
L 241.606128 160.851703 
L 239.85056 160.376763 
L 238.038241 160.11437 
L 236.195751 160.072623 
L 234.351248 160.256024 
L 232.53391 160.665092 
L 230.773267 161.296074 
L 229.098439 162.1408 
L 227.537323 163.186721 
L 226.115788 164.417125 
L 224.856922 165.811557 
L 223.780392 167.346399 
L 222.901968 168.995584 
L 222.233228 170.731381 
L 221.781458 172.525203 
L 221.549729 174.348375 
L 221.537128 176.172824 
L 221.739106 177.971658 
L 222.147898 179.719627 
L 222.752969 181.393447 
L 223.61502 183.098669 
L 224.673536 184.668392 
L 225.90773 186.082095 
L 227.295328 187.322461 
L 228.812996 188.375293 
L 230.436704 189.229388 
L 232.142009 189.876411 
L 233.904301 190.310759 
L 235.699001 190.529441 
L 237.501729 190.531976 
L 239.288461 190.320305 
L 241.035676 189.898719 
L 242.720508 189.273792 
L 244.320894 188.454333 
L 245.815743 187.451328 
L 247.18511 186.277881 
L 248.410383 184.949143 
L 249.474478 183.482227 
L 250.362045 181.896097 
L 251.059673 180.211435 
L 251.556096 178.450486 
L 251.842387 176.636866 
L 251.912152 174.795345 
L 251.761698 172.95161 
L 251.39019 171.131992 
L 250.799782 169.363171 
L 249.995733 167.671861 
L 248.986486 166.084464 
L 247.783728 164.626707 
L 246.402415 163.323246 
L 244.860757 162.197244 
L 243.313827 161.333756 
L 241.667635 160.654452 
L 239.943448 160.172108 
L 238.164449 159.897052 
L 236.355493 159.836816 
L 234.542781 159.995798 
L 232.753453 160.374958 
L 231.015099 160.971559 
L 229.355195 161.778992 
L 227.800469 162.786708 
L 226.376233 163.980275 
L 225.105708 165.341581 
L 224.009381 166.849189 
L 223.104439 168.47884 
L 222.404327 170.204068 
L 221.91844 171.996908 
L 221.651997 173.828645 
L 221.606065 175.670553 
L 221.777754 177.494588 
L 222.160525 179.27399 
L 222.744601 180.983778 
L 223.517429 182.601123 
L 224.550399 184.225293 
L 225.766183 185.694438 
L 227.141684 186.989523 
L 228.652534 188.095035 
L 230.273599 188.998856 
L 231.979372 189.692088 
L 233.744301 190.168859 
L 235.543036 190.426129 
L 237.350624 190.463505 
L 239.142666 190.283084 
L 240.895434 189.889317 
L 242.58599 189.288903 
L 244.19229 188.490707 
L 245.6933 187.505691 
L 247.069123 186.346865 
L 248.301149 185.029239 
L 249.372219 183.56977 
L 250.266821 181.987297 
L 250.971298 180.302455 
L 251.474081 178.537553 
L 251.765921 176.716417 
L 251.84013 174.864192 
L 251.692815 173.007083 
L 251.323081 171.172063 
L 250.733212 169.38652 
L 249.928808 167.67787 
L 248.918866 166.073129 
L 247.715805 164.59846 
L 246.335427 163.278702 
L 244.796805 162.136893 
L 243.255209 161.258861 
L 241.617233 160.564452 
L 239.904332 160.065665 
L 238.139564 159.771943 
L 236.347294 159.689924 
L 234.552861 159.823219 
L 232.782196 160.172233 
L 231.061408 160.734022 
L 229.416332 161.502215 
L 227.872043 162.466993 
L 226.452355 163.615156 
L 225.179311 164.930263 
L 224.072686 166.392878 
L 223.149518 167.980909 
L 222.423701 169.670034 
L 221.905656 171.434218 
L 221.602101 173.246289 
L 221.515942 175.078553 
L 221.646282 176.903416 
L 221.98856 178.693986 
L 222.534793 180.424622 
L 223.273912 182.071406 
L 224.192167 183.612521 
L 225.370503 185.140339 
L 226.717609 186.500065 
L 228.209013 187.674032 
L 229.81905 188.648216 
L 231.521396 189.412133 
L 233.28952 189.958671 
L 235.097055 190.283883 
L 236.918084 190.386753 
L 238.727365 190.268982 
L 240.500491 189.934777 
L 242.214017 189.390672 
L 243.845557 188.645374 
L 245.373867 187.709649 
L 246.778929 186.596224 
L 248.042043 185.319724 
L 249.145936 183.896615 
L 250.074896 182.345163 
L 250.814942 180.685383 
L 251.354013 178.938981 
L 251.682199 177.129256 
L 251.791989 175.280977 
L 251.67854 173.420195 
L 251.339952 171.574001 
L 250.777524 169.770207 
L 249.995989 168.036953 
L 249.00369 166.402253 
L 247.81269 164.893464 
L 246.438781 163.536716 
L 245.02496 162.440336 
L 243.489701 161.511538 
L 241.853175 160.765469 
L 240.137549 160.214773 
L 238.366649 159.86928 
L 236.565557 159.735754 
L 234.760184 159.817707 
L 232.976808 160.11528 
L 231.241606 160.625201 
L 229.580184 161.34081 
L 228.017115 162.252159 
L 226.575502 163.346168 
L 225.276568 164.606849 
L 224.13928 166.015584 
L 223.180016 167.551449 
L 222.412279 169.191595 
L 221.846472 170.911652 
L 221.48973 172.686184 
L 221.345824 174.489149 
L 221.415135 176.294383 
L 221.69471 178.076075 
L 222.17839 179.80923 
L 222.857005 181.470091 
L 223.79828 183.162156 
L 224.935985 184.717901 
L 226.248982 186.114853 
L 227.713897 187.333871 
L 229.305692 188.359292 
L 230.998219 189.178984 
L 232.764735 189.784287 
L 234.578357 190.169899 
L 236.412453 190.333692 
L 238.240967 190.276509 
L 240.038674 190.001933 
L 241.781376 189.516068 
L 243.446057 188.827331 
L 245.010986 187.946261 
L 246.45581 186.885364 
L 247.76162 185.658979 
L 248.911026 184.283178 
L 249.888235 182.775686 
L 250.67915 181.155816 
L 251.271493 179.444424 
L 251.654966 177.663846 
L 251.821441 175.837832 
L 251.765184 173.991445 
L 251.483123 172.150915 
L 250.975119 170.343433 
L 250.244266 168.596868 
L 249.297161 166.939395 
L 248.144146 165.399024 
L 246.909329 164.104697 
L 245.525395 162.953856 
L 244.009429 161.965477 
L 242.381232 161.156573 
L 240.663087 160.541712 
L 238.87941 160.132565 
L 237.056304 159.937515 
L 235.221031 159.961357 
L 233.401428 160.205104 
L 231.625288 160.66592 
L 229.919745 161.337159 
L 228.310691 162.208539 
L 226.822241 163.266407 
L 225.476275 164.494084 
L 224.292065 165.872279 
L 223.285978 167.379536 
L 222.471281 168.992699 
L 221.858013 170.687387 
L 221.452935 172.438451 
L 221.259543 174.220416 
L 221.278138 176.0079 
L 221.505938 177.776002 
L 221.937236 179.500661 
L 222.624269 181.293493 
L 223.526144 182.981317 
L 224.625743 184.53934 
L 225.903274 185.945457 
L 227.33671 187.180503 
L 228.902237 188.228428 
L 230.574713 189.07641 
L 232.328113 189.714893 
L 234.135959 190.137565 
L 235.971722 190.341277 
L 237.809181 190.325918 
L 239.622742 190.09425 
L 241.387711 189.651716 
L 243.080513 189.00624 
L 244.678875 188.168018 
L 246.161966 187.149327 
L 247.510509 185.964332 
L 248.706865 184.628928 
L 249.735107 183.160596 
L 250.581094 181.578279 
L 251.232546 179.902286 
L 251.679132 178.154204 
L 251.912589 176.356816 
L 251.92686 174.534025 
L 251.718267 172.710755 
L 251.285727 170.912826 
L 250.630983 169.166786 
L 249.758865 167.49968 
L 248.677567 165.93873 
L 247.398895 164.510937 
L 246.056853 163.33389 
L 244.575204 162.312336 
L 242.972135 161.464458 
L 241.268639 160.806452 
L 239.488319 160.35198 
L 237.657055 160.11164 
L 235.802538 160.092476 
L 233.953674 160.297588 
L 232.139894 160.725862 
L 230.390398 161.371864 
L 228.733381 162.2259 
L 227.195289 163.27426 
L 225.800161 164.499605 
L 224.569078 165.881488 
L 223.519756 167.396951 
L 222.666281 169.021175 
L 222.018995 170.728121 
L 221.584494 172.491151 
L 221.365746 174.283583 
L 221.362277 176.079188 
L 221.570415 177.852606 
L 221.983572 179.579691 
L 222.592535 181.237792 
L 223.45978 182.931973 
L 224.525922 184.496508 
L 225.771267 185.910028 
L 227.174165 187.154057 
L 228.711406 188.213099 
L 230.358591 189.074685 
L 232.090493 189.729378 
L 233.881393 190.170761 
L 235.705414 190.395388 
L 237.536823 190.402705 
L 239.350324 190.194954 
L 241.121327 189.777043 
L 242.826193 189.156401 
L 244.44245 188.342816 
L 245.948987 187.348257 
L 247.326214 186.186698 
L 248.556207 184.873933 
L 249.622815 183.427398 
L 250.511767 181.866004 
L 251.21075 180.209973 
L 251.70949 178.480696 
L 251.999831 176.700597 
L 252.075822 174.892999 
L 251.933817 173.082008 
L 251.572591 171.292376 
L 250.993483 169.549361 
L 250.200559 167.878556 
L 249.200796 166.305678 
L 248.00428 164.856294 
L 246.624403 163.555492 
L 245.202456 162.507555 
L 243.654613 161.624779 
L 241.999536 160.923659 
L 240.258505 160.418772 
L 238.455282 160.122266 
L 236.615852 160.043331 
L 234.768031 160.18769 
L 232.940924 160.557139 
L 231.164256 161.149196 
L 229.467597 161.956896 
L 227.879512 162.968767 
L 226.426716 164.169015 
L 225.133273 165.537916 
L 224.019912 167.052379 
L 223.103507 168.686657 
L 222.396738 170.413142 
L 221.907956 172.203174 
L 221.641231 174.027826 
L 221.59655 175.858613 
L 221.770139 177.668088 
L 222.154854 179.430325 
L 222.740616 181.121285 
L 223.514854 182.719059 
L 224.549285 184.322129 
L 225.766907 185.771056 
L 227.145148 187.047339 
L 228.660131 188.135737 
L 230.287074 189.024203 
L 232.00064 189.703776 
L 233.775236 190.168483 
L 235.585281 190.415221 
L 237.405439 190.443644 
L 239.210848 190.256058 
L 240.977319 189.8573 
L 242.681534 189.254629 
L 244.301235 188.457603 
L 245.815408 187.477947 
L 247.20445 186.329423 
L 248.450336 185.027673 
L 249.536766 183.590067 
L 250.449311 182.035533 
L 251.175533 180.384385 
L 251.705101 178.658143 
L 252.029887 176.879353 
L 252.144065 175.071401 
L 252.044185 173.258336 
L 251.729264 171.464674 
L 251.200858 169.715218 
L 250.463149 168.034854 
L 249.523035 166.448338 
L 248.39022 164.980062 
L 247.077313 163.653782 
L 245.599911 162.492306 
L 243.976681 161.517126 
L 242.367657 160.799426 
L 240.672357 160.271167 
L 238.912423 159.9442 
L 237.111544 159.827961 
L 235.295227 159.929044 
L 233.49047 160.25077 
L 231.72531 160.792782 
L 230.028252 161.550714 
L 228.427584 162.515966 
L 226.950609 163.675623 
L 225.622834 165.012562 
L 224.467159 166.505751 
L 223.503149 168.130748 
L 222.746427 169.860377 
L 222.208244 171.665528 
L 221.895264 173.516031 
L 221.809557 175.381527 
L 221.948781 177.232292 
L 222.306542 179.039949 
L 222.872854 180.778046 
L 223.634676 182.422486 
L 224.576468 183.951813 
L 225.680733 185.34736 
L 227.038355 186.689947 
L 228.53898 187.840582 
L 230.15636 188.786557 
L 231.863884 189.518682 
L 233.634943 190.031055 
L 235.443227 190.320841 
L 237.262955 190.388055 
L 239.069059 190.235361 
L 240.837339 189.867905 
L 242.544598 189.293154 
L 244.168768 188.520765 
L 245.689031 187.562465 
L 247.085946 186.43193 
L 248.341583 185.144676 
L 249.439657 183.717942 
L 250.365671 182.17056 
L 251.107062 180.522817 
L 251.653341 178.796295 
L 251.996236 177.0137 
L 252.129819 175.198661 
L 252.050627 173.375526 
L 251.757764 171.569123 
L 251.252988 169.804522 
L 250.540784 168.106774 
L 249.628408 166.500636 
L 248.525925 165.010289 
L 247.246218 163.659039 
L 245.804982 162.469003 
L 244.220688 161.460773 
L 242.514529 160.653066 
L 240.710316 160.062338 
L 238.980551 159.721612 
L 237.212006 159.586067 
L 235.428526 159.661672 
L 233.655163 159.951544 
L 231.917841 160.455653 
L 230.242961 161.17056 
L 228.656915 162.089199 
L 227.185523 163.20074 
L 225.853409 164.49056 
L 224.68333 165.940335 
L 223.695503 167.528298 
L 222.906969 169.229643 
L 222.331039 171.017092 
L 221.976864 172.861583 
L 221.84918 174.733059 
L 221.948232 176.601286 
L 222.269888 178.436666 
L 222.805928 180.210976 
L 223.544471 181.898001 
L 224.470506 183.474027 
L 225.566471 184.918192 
L 226.812844 186.212679 
L 228.188711 187.342793 
L 229.800076 188.368201 
L 231.509577 189.176293 
L 233.288914 189.760074 
L 235.110182 190.116089 
L 236.946202 190.244108 
L 238.77076 190.146828 
L 240.558791 189.829584 
L 242.286491 189.300114 
L 243.93142 188.568337 
L 245.472568 187.646184 
L 246.890425 186.547449 
L 248.167056 185.287662 
L 249.286181 183.883984 
L 250.233271 182.355103 
L 250.995665 180.721135 
L 251.562697 179.003504 
L 251.92584 177.224818 
L 252.078857 175.408709 
L 252.017956 173.579653 
L 251.741935 171.762748 
L 251.252325 169.983463 
L 250.553499 168.26735 
L 249.652758 166.639725 
L 248.560379 165.125319 
L 247.289621 163.747912 
L 245.856679 162.529944 
L 244.28059 161.492129 
L 242.583089 160.653058 
L 240.788403 160.028813 
L 238.922999 159.632591 
L 237.16285 159.477903 
L 235.39015 159.531161 
L 233.629275 159.7947 
L 231.905128 160.267876 
L 230.24278 160.946921 
L 228.667067 161.824833 
L 227.202155 162.891326 
L 225.871067 164.132838 
L 224.695191 165.532614 
L 223.693779 167.070887 
L 222.883448 168.725147 
L 222.277726 170.470524 
L 221.886647 172.28026 
L 221.716444 174.126285 
L 221.769347 175.979847 
L 222.043523 177.812193 
L 222.533146 179.595251 
L 223.228614 181.302278 
L 224.116891 182.908439 
L 225.181948 184.391295 
L 226.405272 185.731171 
L 227.766415 186.911395 
L 229.243543 187.918426 
L 230.948312 188.801944 
L 232.733202 189.460872 
L 234.568931 189.890025 
L 236.426783 190.087914 
L 238.279003 190.056404 
L 240.099075 189.800375 
L 241.861934 189.32739 
L 243.54409 188.647387 
L 245.123721 187.772423 
L 246.580723 186.716442 
L 247.896748 185.495088 
L 249.055238 184.125559 
L 250.041466 182.626478 
L 250.842593 181.017789 
L 251.447746 179.320659 
L 251.848116 177.557388 
L 252.037082 175.751292 
L 252.010356 173.926584 
L 251.766143 172.108204 
L 251.30531 170.321625 
L 250.631547 168.592598 
L 249.75152 166.946857 
L 248.674988 165.409763 
L 247.414878 164.005901 
L 245.987293 162.758638 
L 244.411459 161.689647 
L 242.70957 160.818423 
L 240.906562 160.161793 
L 239.176112 159.758052 
L 237.40582 159.556992 
L 235.619852 159.563918 
L 233.843137 159.781138 
L 232.100965 160.207826 
L 230.418572 160.839939 
L 228.8207 161.670207 
L 227.331161 162.688173 
L 225.972405 163.88031 
L 224.765099 165.230186 
L 223.727729 166.718703 
L 222.876234 168.324389 
L 222.223676 170.023745 
L 221.779963 171.791652 
L 221.551629 173.601822 
L 221.541687 175.427287 
L 221.749557 177.240912 
L 222.171083 179.015931 
L 222.798642 180.726464 
L 223.62134 182.34802 
L 224.625294 183.857951 
L 225.793984 185.235843 
L 227.108668 186.46384 
L 228.548827 187.526864 
L 230.225257 188.478289 
L 231.994464 189.210388 
L 233.827082 189.71571 
L 235.693818 189.9907 
L 237.565959 190.035463 
L 239.415789 189.853465 
L 241.216924 189.451216 
L 242.944548 188.837925 
L 244.57559 188.025192 
L 246.088831 187.026703 
L 247.464973 185.857972 
L 248.686676 184.536113 
L 249.738579 183.079651 
L 250.607322 181.508364 
L 251.281568 179.843161 
L 251.752049 178.105965 
L 252.011631 176.319621 
L 252.055398 174.507792 
L 251.880778 172.694851 
L 251.487677 170.905748 
L 250.878645 169.165832 
L 250.059047 167.500637 
L 249.037234 165.935602 
L 247.824695 164.495725 
L 246.436174 163.205158 
L 244.889718 162.08672 
L 243.206653 161.161374 
L 241.552913 160.494664 
L 239.82502 160.020619 
L 238.046243 159.748988 
L 236.241348 159.686617 
L 234.436183 159.837154 
L 232.657203 160.200839 
L 230.930943 160.774371 
L 229.283477 161.550887 
L 227.739865 162.520031 
L 226.323634 163.668129 
L 225.056292 164.978449 
L 223.956901 166.431538 
L 223.041729 168.005625 
L 222.323965 169.677055 
L 221.813525 171.420767 
L 221.516925 173.210767 
L 221.437238 175.020617 
L 221.574114 176.823898 
L 221.923862 178.594672 
L 222.479604 180.3079 
L 223.231462 181.939837 
L 224.166812 183.468393 
L 225.270563 184.873436 
L 226.525483 186.137065 
L 228.033464 187.328537 
L 229.670438 188.319711 
L 231.408926 189.098069 
L 233.220594 189.654855 
L 235.076782 189.985033 
L 236.949 190.08717 
L 238.809377 189.963254 
L 240.631047 189.618457 
L 242.388472 189.060862 
L 244.057699 188.301175 
L 245.616561 187.352426 
L 247.044811 186.22968 
L 248.324225 184.949768 
L 249.438653 183.531038 
L 250.374058 181.993142 
L 251.118533 180.356842 
L 251.662319 178.643858 
L 251.997826 176.876723 
L 252.119669 175.078666 
L 252.024725 173.273502 
L 251.712211 171.485515 
L 251.183788 169.739336 
L 250.443691 168.059788 
L 249.498879 166.471697 
L 248.359191 164.999654 
L 247.037502 163.667705 
L 245.54986 162.498978 
L 243.915572 161.515226 
L 242.296313 160.788532 
L 240.591485 160.250132 
L 238.823441 159.911531 
L 237.016466 159.781565 
L 235.196442 159.865995 
L 233.390399 160.167141 
L 231.625972 160.683601 
L 229.930784 161.410078 
L 228.331784 162.337338 
L 226.854566 163.452315 
L 225.522725 164.73835 
L 224.35727 166.175576 
L 223.376137 167.741405 
L 222.593822 169.411093 
L 222.021133 171.158355 
L 221.665082 172.955986 
L 221.528888 174.776466 
L 221.612085 176.592525 
L 221.910712 178.377642 
L 222.417565 180.106488 
L 223.122496 181.755295 
L 224.012734 183.30215 
L 225.073225 184.727243 
L 226.286971 186.013039 
L 227.753205 187.231313 
L 229.352143 188.252478 
L 231.057205 189.064114 
L 232.841005 189.657311 
L 234.675785 190.026627 
L 236.533827 190.17 
L 238.387834 190.088619 
L 240.211278 189.786758 
L 241.97871 189.271577 
L 243.666036 188.552897 
L 245.250747 187.642966 
L 246.712108 186.5562 
L 248.031316 185.308934 
L 249.191607 183.919167 
L 250.178343 182.406326 
L 250.979068 180.791036 
L 251.58354 179.094918 
L 251.983762 177.340393 
L 252.173996 175.550522 
L 252.150786 173.748843 
L 251.912989 171.959237 
L 251.461819 170.205787 
L 250.800905 168.512635 
L 249.93638 166.903835 
L 248.876971 165.403167 
L 247.634115 164.033928 
L 246.222077 162.818664 
L 244.658057 161.778844 
L 242.962273 160.934467 
L 241.300054 160.344168 
L 239.565922 159.948153 
L 237.782521 159.756556 
L 235.974369 159.77688 
L 234.167563 160.013566 
L 232.38937 160.467595 
L 230.667689 161.136144 
L 229.030425 162.012357 
L 227.504768 163.08523 
L 226.116434 164.339682 
L 224.888915 165.756787 
L 223.842775 167.314195 
L 222.995063 168.986698 
L 222.358867 170.746928 
L 221.943042 172.566114 
L 221.752117 174.414869 
L 221.786375 176.263937 
L 222.042071 178.084881 
L 222.511772 179.85066 
L 223.184761 181.536103 
L 224.047497 183.118265 
L 225.084072 184.576674 
L 226.27667 185.893478 
L 227.605988 187.053528 
L 229.176698 188.118987 
L 230.857024 188.97364 
L 232.619515 189.608786 
L 234.436568 190.019173 
L 236.280782 190.202834 
L 238.125269 190.160917 
L 239.943934 189.897506 
L 241.711718 189.419431 
L 243.404819 188.736078 
L 245.000891 187.859193 
L 246.479223 186.802677 
L 247.820891 185.582378 
L 249.008896 184.215879 
L 250.02828 182.722286 
L 250.866219 181.122005 
L 251.512101 179.436535 
L 251.95758 177.688257 
L 252.19662 175.900227 
L 252.225531 174.095982 
L 252.042982 172.299357 
L 251.650032 170.534294 
L 251.050139 168.824678 
L 250.249194 167.194149 
L 249.255546 165.665931 
L 248.080041 164.262631 
L 246.736068 163.006029 
L 245.239605 161.916826 
L 243.609261 161.014364 
L 241.866297 160.316287 
L 240.034614 159.838149 
L 238.287941 159.603306 
L 236.510868 159.574938 
L 234.727642 159.758419 
L 232.963839 160.156172 
L 231.246005 160.767304 
L 229.601188 161.587277 
L 228.056366 162.607657 
L 226.637772 163.815968 
L 225.370155 165.195703 
L 224.276013 166.726501 
L 223.374848 168.384518 
L 222.682503 170.142981 
L 222.210636 171.972898 
L 221.966372 173.843885 
L 221.952167 175.725044 
L 222.165874 177.585829 
L 222.601002 179.396853 
L 223.247131 181.13057 
L 224.090431 182.761826 
L 225.114243 184.268244 
L 226.299675 185.630472 
L 227.626176 186.832288 
L 229.072061 187.86061 
L 230.614978 188.705411 
L 232.36973 189.405341 
L 234.183139 189.876199 
L 236.027011 190.116097 
L 237.873941 190.126378 
L 239.697563 189.911335 
L 241.472742 189.477965 
L 243.175736 188.835727 
L 244.784325 187.996329 
L 246.277935 186.973529 
L 247.63774 185.782951 
L 248.846771 184.441904 
L 249.890009 182.969207 
L 250.754486 181.385012 
L 251.429367 179.710622 
L 251.906042 177.968304 
L 252.178197 176.181094 
L 252.241877 174.372596 
L 252.09554 172.566769 
L 251.740095 170.787719 
L 251.17893 169.059478 
L 250.417923 167.40578 
L 249.465445 165.84984 
L 248.33235 164.414124 
L 247.031958 163.120112 
L 245.580028 161.988057 
L 243.994714 161.036722 
L 242.29652 160.283112 
L 240.508217 159.742165 
L 238.654747 159.426433 
L 236.763071 159.345718 
L 235.007861 159.485636 
L 233.268409 159.834113 
L 231.569384 160.390886 
L 229.935996 161.152578 
L 228.393592 162.112459 
L 226.96717 163.260252 
L 225.680814 164.582031 
L 224.557062 166.060217 
L 223.616238 167.673723 
L 222.875777 169.398247 
L 222.349593 171.206741 
L 222.047553 173.070037 
L 221.97508 174.9576 
L 222.132949 176.838377 
L 222.517283 178.68167 
L 223.11975 180.457986 
L 223.927953 182.139797 
L 224.925952 183.702161 
L 226.094889 185.123194 
L 227.413657 186.384364 
L 228.859555 187.470628 
L 230.408915 188.370434 
L 232.037644 189.075601 
L 233.863782 189.614167 
L 235.72485 189.916026 
L 237.591857 189.982374 
L 239.437143 189.81767 
L 241.234598 189.429263 
L 242.959809 188.827046 
L 244.59016 188.023157 
L 246.104892 187.031714 
L 247.485149 185.868598 
L 248.714017 184.551255 
L 249.776564 183.098532 
L 250.65989 181.530521 
L 251.353182 179.868411 
L 251.847786 178.134347 
L 252.137277 176.351268 
L 252.217542 174.542747 
L 252.086862 172.732801 
L 251.745981 170.945689 
L 251.198176 169.205691 
L 250.449299 167.536858 
L 249.507807 165.962756 
L 248.384763 164.506182 
L 247.093803 163.18888 
L 245.651082 162.031241 
L 244.075179 161.052002 
L 242.386972 160.267944 
L 240.609483 159.693591 
L 238.767679 159.340913 
L 236.888241 159.219028 
L 234.999297 159.333922 
L 233.272502 159.652422 
L 231.586113 160.174159 
L 229.963983 160.895557 
L 228.429896 161.810072 
L 227.007201 162.90809 
L 225.718386 164.176858 
L 224.584622 165.60049 
L 223.625269 167.16004 
L 222.857355 168.833679 
L 222.295066 170.59697 
L 221.949259 172.423277 
L 221.827039 174.284276 
L 221.931435 176.150582 
L 222.261207 177.992461 
L 222.810803 179.780577 
L 223.570491 181.486759 
L 224.526652 183.084707 
L 225.66222 184.550626 
L 226.957237 185.863716 
L 228.389485 187.006536 
L 229.935138 187.965195 
L 231.569408 188.729407 
L 233.267139 189.292415 
L 235.00333 189.650813 
L 236.899313 189.807895 
L 238.782017 189.727849 
L 240.623321 189.417395 
L 242.397027 188.886206 
L 244.079016 188.146482 
L 245.64733 187.21257 
L 247.082201 186.100643 
L 248.366051 184.828421 
L 249.483475 183.41495 
L 250.421224 181.880414 
L 251.168201 180.245982 
L 251.715468 178.533672 
L 252.056274 176.766233 
L 252.186102 174.967016 
L 252.102738 173.159844 
L 251.806348 171.36886 
L 251.299568 169.618348 
L 250.58759 167.932531 
L 249.678244 166.335318 
L 248.582053 164.850033 
L 247.312263 163.499096 
L 245.884826 162.303683 
L 244.318343 161.283358 
L 242.633937 160.455699 
L 240.85507 159.835918 
L 239.007295 159.436496 
L 237.117944 159.266844 
L 235.215757 159.333 
L 233.330459 159.63737 
L 231.63132 160.128595 
L 229.996139 160.817509 
L 228.448366 161.697066 
L 227.010722 162.757288 
L 225.704825 163.98531 
L 224.550796 165.36547 
L 223.566878 166.879462 
L 222.769057 168.506541 
L 222.170696 170.223785 
L 221.782203 172.006431 
L 221.610732 173.828266 
L 221.659934 175.662084 
L 221.929789 177.480205 
L 222.41652 179.255024 
L 223.112602 180.959602 
L 224.006891 182.568247 
L 225.084859 184.057084 
L 226.328939 185.40456 
L 227.718965 186.591884 
L 229.232682 187.603358 
L 230.846301 188.426605 
L 232.535068 189.052666 
L 234.273819 189.475996 
L 236.184822 189.703301 
L 238.093992 189.691347 
L 239.971561 189.445277 
L 241.789529 188.973692 
L 243.521976 188.288184 
L 245.14527 187.402887 
L 246.638176 186.334048 
L 247.981902 185.099653 
L 249.160087 183.719099 
L 250.158766 182.212924 
L 250.966324 180.602579 
L 251.57344 178.910253 
L 251.97306 177.158726 
L 252.160372 175.371245 
L 252.132818 173.571413 
L 251.890122 171.783083 
L 251.434354 170.030233 
L 250.769999 168.336824 
L 249.904054 166.726629 
L 248.846123 165.223013 
L 247.608501 163.848676 
L 246.206244 162.625335 
L 244.657192 161.573361 
L 242.981937 160.711374 
L 241.203724 160.055799 
L 239.348249 159.620402 
L 237.443378 159.415841 
L 235.518748 159.449234 
L 233.751349 159.694105 
L 232.018314 160.143869 
L 230.344582 160.79471 
L 228.754712 161.639592 
L 227.272407 162.668281 
L 225.920048 163.867462 
L 224.718254 165.220922 
L 223.685467 166.709808 
L 222.837597 168.312949 
L 222.187712 170.00722 
L 221.745794 171.76795 
L 221.518557 173.569363 
L 221.50933 175.385023 
L 221.718006 177.188304 
L 222.141052 178.952852 
L 222.771587 180.653042 
L 223.599523 182.264424 
L 224.611767 183.764138 
L 225.792484 185.131304 
L 227.123413 186.347363 
L 228.584235 187.396369 
L 230.15298 188.265217 
L 231.806459 188.943796 
L 233.52071 189.425081 
L 235.418228 189.719334 
L 237.327848 189.776457 
L 239.219577 189.599402 
L 241.064672 189.194795 
L 242.836069 188.572587 
L 244.508725 187.745653 
L 246.05987 186.729384 
L 247.469165 185.541275 
L 248.718798 184.200538 
L 249.793505 182.727749 
L 250.680564 181.14454 
L 251.369739 179.473324 
L 251.853232 177.737084 
L 252.125616 175.95918 
L 252.183784 174.163206 
L 252.026919 172.37286 
L 251.656478 170.611832 
L 251.076205 168.903696 
L 250.292175 167.271789 
L 249.31285 165.739071 
L 248.149161 164.327954 
L 246.814596 163.060083 
L 245.325276 161.956071 
L 243.700023 161.035168 
L 241.96037 160.314871 
L 240.130516 159.810479 
L 238.23719 159.534597 
L 236.458219 159.49094 
L 234.674127 159.654615 
L 232.910217 160.027175 
L 231.192401 160.606873 
L 229.546692 161.388467 
L 227.998644 162.36312 
L 226.572752 163.518421 
L 225.291847 164.838524 
L 224.176533 166.30442 
L 223.244668 167.894316 
L 222.510944 169.584116 
L 221.986571 171.347967 
L 221.679073 173.158844 
L 221.592205 174.989145 
L 221.725975 176.811274 
L 222.076764 178.59818 
L 222.637527 180.323854 
L 223.398048 181.963751 
L 224.34525 183.495163 
L 225.463529 184.897518 
L 226.735107 186.152623 
L 228.140397 187.244847 
L 229.658372 188.16125 
L 231.26693 188.891674 
L 233.085277 189.46464 
L 234.953667 189.805138 
L 236.842615 189.911342 
L 238.723106 189.785088 
L 240.567028 189.431689 
L 242.347568 188.859695 
L 244.039555 188.080616 
L 245.619753 187.108606 
L 247.067089 185.960135 
L 248.36283 184.653638 
L 249.490699 183.209183 
L 250.436946 181.648134 
L 251.190364 179.992847 
L 251.742288 178.266389 
L 252.086546 176.492283 
L 252.219416 174.694297 
L 252.139565 172.896248 
L 251.847994 171.121844 
L 251.347993 169.39454 
L 250.645116 167.737411 
L 249.747167 166.173025 
L 248.664216 164.723309 
L 247.408625 163.409402 
L 245.995098 162.251477 
L 244.440727 161.26852 
L 242.765041 160.478065 
L 240.990032 159.895868 
L 239.140134 159.535521 
L 237.24214 159.408006 
L 235.472482 159.503827 
L 233.710735 159.808253 
L 231.982198 160.321765 
L 230.312851 161.041535 
L 228.728864 161.961156 
L 227.256009 163.070466 
L 225.919006 164.35549 
L 224.740828 165.798533 
L 223.742003 167.378431 
L 222.939971 169.070971 
L 222.348542 170.849457 
L 221.977482 172.685396 
L 221.83227 174.549247 
L 221.914031 176.411209 
L 222.219633 178.241967 
L 222.741937 180.013383 
L 223.470162 181.699082 
L 224.390329 183.274922 
L 225.485755 184.719354 
L 226.737556 186.01365 
L 228.125143 187.142045 
L 229.626686 188.091787 
L 231.219542 188.853119 
L 232.880639 189.419212 
L 234.730307 189.807576 
L 236.60372 189.960617 
L 238.472393 189.880294 
L 240.308847 189.571824 
L 242.086906 189.043435 
L 243.78195 188.306113 
L 245.371135 187.373342 
L 246.833582 186.260838 
L 248.150537 184.986279 
L 249.305502 183.569033 
L 250.284333 182.029883 
L 251.075314 180.390752 
L 251.669202 178.674441 
L 252.059241 176.904368 
L 252.241157 175.104321 
L 252.213136 173.298232 
L 251.975782 171.509962 
L 251.532069 169.763102 
L 250.887287 168.0808 
L 250.048995 166.485588 
L 249.026971 164.999229 
L 247.833175 163.642558 
L 246.481725 162.43533 
L 244.988879 161.396041 
L 243.373018 160.541739 
L 241.654637 159.887801 
L 239.856322 159.447669 
L 238.002702 159.232543 
L 236.120354 159.251027 
L 234.237654 159.508729 
L 232.525325 159.96087 
L 230.862634 160.617508 
L 229.274573 161.474294 
L 227.786247 162.52349 
L 226.422355 163.753758 
L 225.206582 165.150054 
L 224.160921 166.693648 
L 223.304959 168.362298 
L 222.655182 170.130608 
L 222.224335 171.970561 
L 222.020909 173.852214 
L 222.048799 175.744516 
L 222.307157 177.616192 
L 222.79047 179.436637 
L 223.488826 181.176751 
L 224.388363 182.809661 
L 225.471843 184.311294 
L 226.719286 185.660789 
L 228.108647 186.84074 
L 229.616454 187.837286 
L 231.218405 188.640084 
L 232.889891 189.242176 
L 234.60644 189.639799 
L 236.489094 189.838955 
L 238.367074 189.799798 
L 240.212356 189.528227 
L 241.998571 189.033126 
L 243.701187 188.326023 
L 245.297642 187.420775 
L 246.767447 186.333281 
L 248.092265 185.081225 
L 249.255975 183.683829 
L 250.244725 182.161626 
L 251.046982 180.536242 
L 251.65357 178.830174 
L 252.057703 177.066585 
L 252.255005 175.269085 
L 252.243523 173.46152 
L 252.023724 171.667755 
L 251.598479 169.911467 
L 250.973038 168.215929 
L 250.154987 166.603805 
L 249.154196 165.09695 
L 247.982757 163.716212 
L 246.654919 162.481235 
L 245.187008 161.410269 
L 243.597352 160.519977 
L 241.906194 159.825228 
L 240.135601 159.338888 
L 238.309352 159.071592 
L 236.452822 159.031491 
L 234.592811 159.223978 
L 232.757354 159.651392 
L 231.109944 160.253611 
L 229.531442 161.051565 
L 228.045298 162.038755 
L 226.674756 163.205596 
L 225.442424 164.539266 
L 224.369763 166.023618 
L 223.476518 167.639203 
L 222.780097 169.363395 
L 222.294946 171.170677 
L 222.031947 173.033081 
L 221.997896 174.920787 
L 222.195111 176.802861 
L 222.62121 178.648106 
L 223.269096 180.42595 
L 224.127154 182.10733 
L 225.179653 183.665495 
L 226.407311 185.076683 
L 227.787981 186.32062 
L 229.297396 187.38084 
L 230.909919 188.244816 
L 232.599247 188.90393 
L 234.339039 189.353306 
L 236.103445 189.591555 
L 237.867529 189.620453 
L 239.750802 189.420902 
L 241.577719 188.990179 
L 243.322329 188.34028 
L 244.961046 187.485648 
L 246.472709 186.442778 
L 247.838594 185.229871 
L 249.042401 183.866538 
L 250.070236 182.37355 
L 250.91058 180.772625 
L 251.554275 179.086229 
L 251.994508 177.337407 
L 252.226811 175.54961 
L 252.249067 173.746529 
L 252.061512 171.95192 
L 251.666752 170.189426 
L 251.069757 168.482381 
L 250.277865 166.853605 
L 249.300753 165.325193 
L 248.150409 163.918283 
L 246.841071 162.652832 
L 245.389149 161.547371 
L 243.813122 160.618776 
L 242.133415 159.882023 
L 240.372246 159.349958 
L 238.553455 159.033069 
L 236.7023 158.939254 
L 234.845238 159.073605 
L 233.009661 159.438194 
L 231.22361 160.031857 
L 229.515439 160.850005 
L 228.032257 161.797432 
L 226.661415 162.919889 
L 225.424081 164.205267 
L 224.340337 165.638606 
L 223.428763 167.202112 
L 222.705976 168.875236 
L 222.186157 170.634849 
L 221.880563 172.455513 
L 221.797065 174.30987 
L 221.939738 176.169152 
L 222.308541 178.003792 
L 222.899118 179.784145 
L 223.70276 181.481249 
L 224.706538 183.067616 
L 225.893614 184.517981 
L 227.243719 185.809962 
L 228.733761 186.924598 
L 230.338525 187.846716 
L 232.031414 188.565133 
L 233.785174 189.072683 
L 235.572573 189.366091 
L 237.366991 189.445731 
L 239.142903 189.315298 
L 240.876259 188.981421 
L 242.680207 188.400827 
L 244.382241 187.606739 
L 245.959316 186.61604 
L 247.391205 185.44753 
L 248.660475 184.121509 
L 249.752419 182.659424 
L 250.654965 181.083583 
L 251.358594 179.416917 
L 251.856252 177.682791 
L 252.143281 175.904838 
L 252.217375 174.10682 
L 252.078546 172.312489 
L 251.729112 170.545452 
L 251.173698 168.829026 
L 250.419243 167.186076 
L 249.475009 165.638832 
L 248.352579 164.208684 
L 247.06585 162.915957 
L 245.630989 161.779655 
L 244.066368 160.817195 
L 242.392462 160.044129 
L 240.631697 159.473849 
L 238.808257 159.117312 
L 236.947851 158.982759 
L 235.077417 159.075465 
L 233.224798 159.397517 
L 231.418367 159.947616 
L 229.68662 160.720938 
L 228.057733 161.709025 
L 226.669145 162.801292 
L 225.412133 164.053933 
L 224.306007 165.452011 
L 223.368445 166.978066 
L 222.61514 168.612253 
L 222.059438 170.332545 
L 221.711991 172.114984 
L 221.580427 173.934008 
L 221.669056 175.762846 
L 221.978623 177.573972 
L 222.506136 179.33964 
L 223.244779 181.032451 
L 224.183937 182.625974 
L 225.309334 184.095359 
L 226.603306 185.417937 
L 228.045192 186.573766 
L 229.611829 187.546085 
L 231.278137 188.321661 
L 233.017751 188.891 
L 234.803673 189.248424 
L 236.608899 189.392009 
L 238.406999 189.32341 
L 240.172612 189.047585 
L 242.021052 188.524174 
L 243.775411 187.780358 
L 245.410513 186.832554 
L 246.904153 185.699563 
L 248.237166 184.402036 
L 249.393415 182.962005 
L 250.359708 181.402478 
L 251.125694 179.747109 
L 251.683729 178.019925 
L 252.028759 176.245117 
L 252.158202 174.446862 
L 252.071858 172.649188 
L 251.771837 170.875849 
L 251.262519 169.150212 
L 250.55053 167.495139 
L 249.644737 165.932852 
L 248.556256 164.484784 
L 247.298466 163.171394 
L 245.887005 162.011952 
L 244.339761 161.024293 
L 242.676826 160.224533 
L 240.920403 159.626761 
L 239.094666 159.242712 
L 237.225552 159.081424 
L 235.340481 159.148914 
L 233.468005 159.447873 
L 231.637382 159.977399 
L 229.878092 160.732802 
L 228.21929 161.705477 
L 226.80174 162.785389 
L 225.51502 164.026971 
L 224.378757 165.414705 
L 223.410711 166.930534 
L 222.626412 168.554099 
L 222.038826 170.263026 
L 221.658071 172.03326 
L 221.491173 173.839449 
L 221.541882 175.655359 
L 221.810536 177.454323 
L 222.294006 179.209708 
L 222.985689 180.895396 
L 223.875588 182.486272 
L 224.950462 183.958698 
L 226.194049 185.290974 
L 227.58737 186.463759 
L 229.109099 187.460446 
L 230.735994 188.267466 
L 232.443381 188.874517 
L 234.205666 189.27471 
L 235.996859 189.464607 
L 237.791092 189.44418 
L 239.563103 189.216667 
L 241.429652 188.743872 
L 243.212836 188.047128 
L 244.886175 187.141431 
L 246.425929 186.044591 
L 247.811305 184.7767 
L 249.024573 183.359624 
L 250.051084 181.816524 
L 250.879217 180.17144 
L 251.500283 178.448927 
L 251.908404 176.673754 
L 252.100369 174.870659 
L 252.075502 173.064151 
L 251.83554 171.278356 
L 251.38453 169.536885 
L 250.728753 167.862723 
L 249.876667 166.278123 
L 248.838882 164.804496 
L 247.628147 163.462275 
L 246.259352 162.270772 
L 244.749536 161.247981 
L 243.117883 160.410357 
L 241.385693 159.77255 
L 239.576323 159.347093 
L 237.715069 159.144057 
L 235.828971 159.170687 
L 233.946543 159.431021 
L 232.097396 159.92553 
L 230.311769 160.650792 
L 228.746081 161.518609 
L 227.283726 162.567462 
L 225.947186 163.785031 
L 224.757532 165.155941 
L 223.733935 166.66193 
L 222.893195 168.282117 
L 222.249328 169.993362 
L 221.813215 171.770696 
L 221.592337 173.587813 
L 221.590605 175.4176 
L 221.80828 177.232679 
L 222.241995 179.005947 
L 222.884859 180.711097 
L 223.726636 182.323096 
L 224.753992 183.818625 
L 225.950804 185.176463 
L 227.298494 186.377807 
L 228.776418 187.406547 
L 230.362258 188.249466 
L 232.032446 188.896384 
L 233.762585 189.340244 
L 235.52787 189.577136 
L 237.303504 189.606257 
L 239.210508 189.405982 
L 241.071067 188.971123 
L 242.856768 188.311959 
L 244.541194 187.44208 
L 246.100282 186.377989 
L 247.512595 185.138669 
L 248.759523 183.745138 
L 249.825399 182.220002 
L 250.697537 180.587034 
L 251.366225 178.870775 
L 251.824652 177.096183 
L 252.068815 175.28832 
L 252.097389 173.472087 
L 251.911601 171.672004 
L 251.515094 169.912027 
L 250.913813 168.215398 
L 250.115891 166.604517 
L 249.131575 165.100831 
L 247.973154 163.724723 
L 246.654921 162.495395 
L 245.193147 161.43074 
L 243.606063 160.547182 
L 241.913851 159.859484 
L 240.138614 159.380515 
L 238.304328 159.120978 
L 236.436744 159.089085 
L 234.563238 159.290204 
L 232.712559 159.726473 
L 231.050251 160.336681 
L 229.456649 161.141867 
L 227.955667 162.134758 
L 226.570789 163.304831 
L 225.324552 164.638242 
L 224.237969 166.11787 
L 223.329954 167.723479 
L 222.616746 169.432018 
L 222.111397 171.218039 
L 221.823346 173.054246 
L 221.75811 174.912119 
L 221.917115 176.762601 
L 222.297672 178.576798 
L 222.8931 180.326654 
L 223.692969 181.985573 
L 224.683455 183.528961 
L 225.847765 184.934664 
L 227.166609 186.183303 
L 228.618693 187.258516 
L 230.181217 188.147087 
L 231.830345 188.839013 
L 233.541654 189.327483 
L 235.290546 189.608818 
L 237.052622 189.682347 
L 238.948754 189.530114 
L 240.803136 189.142965 
L 242.588076 188.530653 
L 244.277747 187.706022 
L 245.848475 186.68467 
L 247.278967 185.484593 
L 248.550495 184.125832 
L 249.647029 182.630099 
L 250.555322 181.020425 
L 251.264953 179.320805 
L 251.768329 177.555857 
L 252.060641 175.750512 
L 252.139806 173.929716 
L 252.006365 172.118173 
L 251.663379 170.340103 
L 251.116306 168.619046 
L 250.372883 166.977681 
L 249.443003 165.437671 
L 248.338612 164.019533 
L 247.073607 162.742507 
L 245.663753 161.624442 
L 244.126618 160.681666 
L 242.481512 159.928853 
L 240.749436 159.378857 
L 238.953026 159.042533 
L 237.116487 158.928506 
L 235.265495 159.042915 
L 233.427058 159.389113 
L 231.629315 159.967333 
L 229.90124 160.77434 
L 228.39337 161.716298 
L 226.993034 162.838551 
L 225.722859 164.129239 
L 224.604492 165.573216 
L 223.658028 167.152049 
L 222.9014 168.844131 
L 222.349753 170.62495 
L 222.014858 172.467509 
L 221.904598 174.342896 
L 222.022583 176.220986 
L 222.367928 178.071232 
L 222.935218 179.863501 
L 223.714665 181.568892 
L 224.692444 183.160494 
L 225.851175 184.614015 
L 227.170512 185.908289 
L 228.627788 187.025606 
L 230.198671 187.9519 
L 231.857806 188.676798 
L 233.57939 189.193545 
L 235.337685 189.498849 
L 237.107454 189.592661 
L 238.864322 189.477915 
L 240.726124 189.124862 
L 242.517829 188.544084 
L 244.213861 187.748894 
L 245.79097 186.755149 
L 247.228366 185.580888 
L 248.50781 184.245986 
L 249.613684 182.771831 
L 250.533028 181.18102 
L 251.255561 179.497072 
L 251.773684 177.744148 
L 252.08246 175.946784 
L 252.179585 174.129635 
L 252.065335 172.317228 
L 251.742501 170.53373 
L 251.216303 168.802721 
L 250.494298 167.146991 
L 249.586274 165.588342 
L 248.504132 164.147417 
L 247.261772 162.843529 
L 245.874971 161.694516 
L 244.361267 160.716594 
L 242.739844 159.92422 
L 241.03142 159.329954 
L 239.258135 158.944312 
L 237.443444 158.775609 
L 235.611988 158.829783 
L 233.789463 159.110196 
L 232.002445 159.617417 
L 230.278184 160.348972 
L 228.644329 161.29909 
L 227.24036 162.362101 
L 225.95854 163.593207 
L 224.819732 164.979278 
L 223.843725 166.504184 
L 223.048732 168.148773 
L 222.450841 169.890958 
L 222.063439 171.705913 
L 221.896625 173.56643 
L 221.956686 175.443419 
L 222.24565 177.306564 
L 222.760997 179.125095 
L 223.495538 180.868655 
L 224.437518 182.508186 
L 225.570917 184.016778 
L 226.875953 185.370421 
L 228.329734 186.548604 
L 229.907009 187.534729 
L 231.580959 188.316332 
L 233.323964 188.885119 
L 235.10832 189.236838 
L 236.906844 189.371029 
L 238.693383 189.290694 
L 240.443202 189.00191 
L 242.133267 188.513435 
L 243.872268 187.771766 
L 245.492144 186.825306 
L 246.971518 185.692779 
L 248.291875 184.394632 
L 249.437531 182.952657 
L 250.395586 181.389666 
L 251.155862 179.729217 
L 251.710839 177.995365 
L 252.055594 176.212441 
L 252.187747 174.404853 
L 252.107406 172.596887 
L 251.817112 170.812519 
L 251.321789 169.075225 
L 250.628679 167.407789 
L 249.747277 165.832112 
L 248.689249 164.369018 
L 247.468336 163.038066 
L 246.10025 161.857355 
L 244.602544 160.843348 
L 242.994479 160.010688 
L 241.296873 159.372034 
L 239.531938 158.937895 
L 237.723102 158.716478 
L 235.894832 158.713537 
L 234.07243 158.932227 
L 232.281821 159.372955 
L 230.549322 160.033239 
L 228.901379 160.907559 
L 227.364271 161.987211 
L 225.963769 163.260176 
L 224.813771 164.593489 
L 223.819907 166.063571 
L 222.999367 167.65303 
L 222.367594 169.341938 
L 221.937851 171.107924 
L 221.720757 172.92637 
L 221.723826 174.770706 
L 221.951015 176.612827 
L 222.402344 178.423635 
L 223.073606 180.173696 
L 223.956212 181.833992 
L 225.037217 183.376735 
L 226.299528 184.776177 
L 227.722312 186.00938 
L 229.281572 187.056869 
L 230.95087 187.903128 
L 232.702125 188.536913 
L 234.506436 188.95136 
L 236.334875 189.143904 
L 238.159195 189.116042 
L 239.95243 188.872965 
L 241.689358 188.423122 
L 243.34684 187.777736 
L 244.90403 186.950327 
L 246.456487 185.866409 
L 247.849429 184.608312 
L 249.065947 183.198861 
L 250.092326 181.661857 
L 250.300994 181.291619 
L 250.300994 181.291619 
" clip-path="url(#p1588478a86)" style="fill: none; stroke: #ff0000; stroke-width: 1.5; stroke-linecap: square"/>
   </g>
   <g id="patch_4">
    <path d="M 57.6 234.048 
L 57.6 115.008 
" style="fill: none; stroke: #000000; stroke-width: 0.8; stroke-linejoin: miter; stroke-linecap: square"/>
   </g>
   <g id="patch_5">
    <path d="M 414.72 234.048 
L 414.72 115.008 
" style="fill: none; stroke: #000000; stroke-width: 0.8; stroke-linejoin: miter; stroke-linecap: square"/>
   </g>
   <g id="patch_6">
    <path d="M 57.6 234.048 
L 414.72 234.048 
" style="fill: none; stroke: #000000; stroke-width: 0.8; stroke-linejoin: miter; stroke-linecap: square"/>
   </g>
   <g id="patch_7">
    <path d="M 57.6 115.008 
L 414.72 115.008 
" style="fill: none; stroke: #000000; stroke-width: 0.8; stroke-linejoin: miter; stroke-linecap: square"/>
   </g>
   <g id="PathCollection_1">
    <defs>
     <path id="m9bdee4ff0e" d="M 0 3 
C 0.795609 3 1.55874 2.683901 2.12132 2.12132 
C 2.683901 1.55874 3 0.795609 3 0 
C 3 -0.795609 2.683901 -1.55874 2.12132 -2.12132 
C 1.55874 -2.683901 0.795609 -3 0 -3 
C -0.795609 -3 -1.55874 -2.683901 -2.12132 -2.12132 
C -2.683901 -1.55874 -3 -0.795609 -3 0 
C -3 0.795609 -2.683901 1.55874 -2.12132 2.12132 
C -1.55874 2.683901 -0.795609 3 0 3 
z
" style="stroke: #e9afaf; stroke-width: 3"/>
    </defs>
    <g clip-path="url(#p1588478a86)">
     <use xlink:href="#m9bdee4ff0e" x="339.911537" y="200.518802" style="fill: #e9afaf; stroke: #e9afaf; stroke-width: 3"/>
    </g>
   </g>
   <g id="PathCollection_2">
    <defs>
     <path id="mdcf247cec9" d="M 0 3 
C 0.795609 3 1.55874 2.683901 2.12132 2.12132 
C 2.683901 1.55874 3 0.795609 3 0 
C 3 -0.795609 2.683901 -1.55874 2.12132 -2.12132 
C 1.55874 -2.683901 0.795609 -3 0 -3 
C -0.795609 -3 -1.55874 -2.683901 -2.12132 -2.12132 
C -2.683901 -1.55874 -3 -0.795609 -3 0 
C -3 0.795609 -2.683901 1.55874 -2.12132 2.12132 
C -1.55874 2.683901 -0.795609 3 0 3 
z
" style="stroke: #afe9af; stroke-width: 3"/>
    </defs>
    <g clip-path="url(#p1588478a86)">
     <use xlink:href="#mdcf247cec9" x="134.886778" y="143.409264" style="fill: #afe9af; stroke: #afe9af; stroke-width: 3"/>
    </g>
   </g>
   <g id="legend_1">
    <g id="patch_8">
     <path d="M 288.791875 211.07675 
L 407.72 211.07675 
Q 409.72 211.07675 409.72 209.07675 
L 409.72 122.008 
Q 409.72 120.008 407.72 120.008 
L 288.791875 120.008 
Q 286.791875 120.008 286.791875 122.008 
L 286.791875 209.07675 
Q 286.791875 211.07675 288.791875 211.07675 
z
" style="fill: #ffffff; opacity: 0.8; stroke: #cccccc; stroke-linejoin: miter"/>
    </g>
    <g id="line2d_16">
     <path d="M 290.791875 128.106437 
L 300.791875 128.106437 
L 310.791875 128.106437 
" style="fill: none; stroke: #5599ff; stroke-width: 5; stroke-linecap: square"/>
    </g>
    <g id="text_15">
     <!-- Period of Capture -->
     <g transform="translate(318.791875 131.606437) scale(0.1 -0.1)">
      <defs>
       <path id="DejaVuSans-50" d="M 1259 4147 
L 1259 2394 
L 2053 2394 
Q 2494 2394 2734 2622 
Q 2975 2850 2975 3272 
Q 2975 3691 2734 3919 
Q 2494 4147 2053 4147 
L 1259 4147 
z
M 628 4666 
L 2053 4666 
Q 2838 4666 3239 4311 
Q 3641 3956 3641 3272 
Q 3641 2581 3239 2228 
Q 2838 1875 2053 1875 
L 1259 1875 
L 1259 0 
L 628 0 
L 628 4666 
z
" transform="scale(0.015625)"/>
       <path id="DejaVuSans-65" d="M 3597 1894 
L 3597 1613 
L 953 1613 
Q 991 1019 1311 708 
Q 1631 397 2203 397 
Q 2534 397 2845 478 
Q 3156 559 3463 722 
L 3463 178 
Q 3153 47 2828 -22 
Q 2503 -91 2169 -91 
Q 1331 -91 842 396 
Q 353 884 353 1716 
Q 353 2575 817 3079 
Q 1281 3584 2069 3584 
Q 2775 3584 3186 3129 
Q 3597 2675 3597 1894 
z
M 3022 2063 
Q 3016 2534 2758 2815 
Q 2500 3097 2075 3097 
Q 1594 3097 1305 2825 
Q 1016 2553 972 2059 
L 3022 2063 
z
" transform="scale(0.015625)"/>
       <path id="DejaVuSans-72" d="M 2631 2963 
Q 2534 3019 2420 3045 
Q 2306 3072 2169 3072 
Q 1681 3072 1420 2755 
Q 1159 2438 1159 1844 
L 1159 0 
L 581 0 
L 581 3500 
L 1159 3500 
L 1159 2956 
Q 1341 3275 1631 3429 
Q 1922 3584 2338 3584 
Q 2397 3584 2469 3576 
Q 2541 3569 2628 3553 
L 2631 2963 
z
" transform="scale(0.015625)"/>
       <path id="DejaVuSans-66" d="M 2375 4863 
L 2375 4384 
L 1825 4384 
Q 1516 4384 1395 4259 
Q 1275 4134 1275 3809 
L 1275 3500 
L 2222 3500 
L 2222 3053 
L 1275 3053 
L 1275 0 
L 697 0 
L 697 3053 
L 147 3053 
L 147 3500 
L 697 3500 
L 697 3744 
Q 697 4328 969 4595 
Q 1241 4863 1831 4863 
L 2375 4863 
z
" transform="scale(0.015625)"/>
       <path id="DejaVuSans-43" d="M 4122 4306 
L 4122 3641 
Q 3803 3938 3442 4084 
Q 3081 4231 2675 4231 
Q 1875 4231 1450 3742 
Q 1025 3253 1025 2328 
Q 1025 1406 1450 917 
Q 1875 428 2675 428 
Q 3081 428 3442 575 
Q 3803 722 4122 1019 
L 4122 359 
Q 3791 134 3420 21 
Q 3050 -91 2638 -91 
Q 1578 -91 968 557 
Q 359 1206 359 2328 
Q 359 3453 968 4101 
Q 1578 4750 2638 4750 
Q 3056 4750 3426 4639 
Q 3797 4528 4122 4306 
z
" transform="scale(0.015625)"/>
       <path id="DejaVuSans-61" d="M 2194 1759 
Q 1497 1759 1228 1600 
Q 959 1441 959 1056 
Q 959 750 1161 570 
Q 1363 391 1709 391 
Q 2188 391 2477 730 
Q 2766 1069 2766 1631 
L 2766 1759 
L 2194 1759 
z
M 3341 1997 
L 3341 0 
L 2766 0 
L 2766 531 
Q 2569 213 2275 61 
Q 1981 -91 1556 -91 
Q 1019 -91 701 211 
Q 384 513 384 1019 
Q 384 1609 779 1909 
Q 1175 2209 1959 2209 
L 2766 2209 
L 2766 2266 
Q 2766 2663 2505 2880 
Q 2244 3097 1772 3097 
Q 1472 3097 1187 3025 
Q 903 2953 641 2809 
L 641 3341 
Q 956 3463 1253 3523 
Q 1550 3584 1831 3584 
Q 2591 3584 2966 3190 
Q 3341 2797 3341 1997 
z
" transform="scale(0.015625)"/>
       <path id="DejaVuSans-70" d="M 1159 525 
L 1159 -1331 
L 581 -1331 
L 581 3500 
L 1159 3500 
L 1159 2969 
Q 1341 3281 1617 3432 
Q 1894 3584 2278 3584 
Q 2916 3584 3314 3078 
Q 3713 2572 3713 1747 
Q 3713 922 3314 415 
Q 2916 -91 2278 -91 
Q 1894 -91 1617 61 
Q 1341 213 1159 525 
z
M 3116 1747 
Q 3116 2381 2855 2742 
Q 2594 3103 2138 3103 
Q 1681 3103 1420 2742 
Q 1159 2381 1159 1747 
Q 1159 1113 1420 752 
Q 1681 391 2138 391 
Q 2594 391 2855 752 
Q 3116 1113 3116 1747 
z
" transform="scale(0.015625)"/>
       <path id="DejaVuSans-74" d="M 1172 4494 
L 1172 3500 
L 2356 3500 
L 2356 3053 
L 1172 3053 
L 1172 1153 
Q 1172 725 1289 603 
Q 1406 481 1766 481 
L 2356 481 
L 2356 0 
L 1766 0 
Q 1100 0 847 248 
Q 594 497 594 1153 
L 594 3053 
L 172 3053 
L 172 3500 
L 594 3500 
L 594 4494 
L 1172 4494 
z
" transform="scale(0.015625)"/>
       <path id="DejaVuSans-75" d="M 544 1381 
L 544 3500 
L 1119 3500 
L 1119 1403 
Q 1119 906 1312 657 
Q 1506 409 1894 409 
Q 2359 409 2629 706 
Q 2900 1003 2900 1516 
L 2900 3500 
L 3475 3500 
L 3475 0 
L 2900 0 
L 2900 538 
Q 2691 219 2414 64 
Q 2138 -91 1772 -91 
Q 1169 -91 856 284 
Q 544 659 544 1381 
z
M 1991 3584 
L 1991 3584 
z
" transform="scale(0.015625)"/>
      </defs>
      <use xlink:href="#DejaVuSans-50"/>
      <use xlink:href="#DejaVuSans-65" x="56.677734"/>
      <use xlink:href="#DejaVuSans-72" x="118.201172"/>
      <use xlink:href="#DejaVuSans-69" x="159.314453"/>
      <use xlink:href="#DejaVuSans-6f" x="187.097656"/>
      <use xlink:href="#DejaVuSans-64" x="248.279297"/>
      <use xlink:href="#DejaVuSans-20" x="311.755859"/>
      <use xlink:href="#DejaVuSans-6f" x="343.542969"/>
      <use xlink:href="#DejaVuSans-66" x="404.724609"/>
      <use xlink:href="#DejaVuSans-20" x="439.929688"/>
      <use xlink:href="#DejaVuSans-43" x="471.716797"/>
      <use xlink:href="#DejaVuSans-61" x="541.541016"/>
      <use xlink:href="#DejaVuSans-70" x="602.820312"/>
      <use xlink:href="#DejaVuSans-74" x="666.296875"/>
      <use xlink:href="#DejaVuSans-75" x="705.505859"/>
      <use xlink:href="#DejaVuSans-72" x="768.884766"/>
      <use xlink:href="#DejaVuSans-65" x="807.748047"/>
     </g>
    </g>
    <g id="line2d_17">
     <path d="M 290.791875 142.784562 
L 300.791875 142.784562 
L 310.791875 142.784562 
" style="fill: none; stroke: #808080; stroke-width: 2; stroke-linecap: square"/>
    </g>
    <g id="text_16">
     <!-- TCO Trajectory -->
     <g transform="translate(318.791875 146.284562) scale(0.1 -0.1)">
      <defs>
       <path id="DejaVuSans-54" d="M -19 4666 
L 3928 4666 
L 3928 4134 
L 2272 4134 
L 2272 0 
L 1638 0 
L 1638 4134 
L -19 4134 
L -19 4666 
z
" transform="scale(0.015625)"/>
       <path id="DejaVuSans-4f" d="M 2522 4238 
Q 1834 4238 1429 3725 
Q 1025 3213 1025 2328 
Q 1025 1447 1429 934 
Q 1834 422 2522 422 
Q 3209 422 3611 934 
Q 4013 1447 4013 2328 
Q 4013 3213 3611 3725 
Q 3209 4238 2522 4238 
z
M 2522 4750 
Q 3503 4750 4090 4092 
Q 4678 3434 4678 2328 
Q 4678 1225 4090 567 
Q 3503 -91 2522 -91 
Q 1538 -91 948 565 
Q 359 1222 359 2328 
Q 359 3434 948 4092 
Q 1538 4750 2522 4750 
z
" transform="scale(0.015625)"/>
       <path id="DejaVuSans-6a" d="M 603 3500 
L 1178 3500 
L 1178 -63 
Q 1178 -731 923 -1031 
Q 669 -1331 103 -1331 
L -116 -1331 
L -116 -844 
L 38 -844 
Q 366 -844 484 -692 
Q 603 -541 603 -63 
L 603 3500 
z
M 603 4863 
L 1178 4863 
L 1178 4134 
L 603 4134 
L 603 4863 
z
" transform="scale(0.015625)"/>
      </defs>
      <use xlink:href="#DejaVuSans-54"/>
      <use xlink:href="#DejaVuSans-43" x="55.208984"/>
      <use xlink:href="#DejaVuSans-4f" x="125.033203"/>
      <use xlink:href="#DejaVuSans-20" x="203.744141"/>
      <use xlink:href="#DejaVuSans-54" x="235.53125"/>
      <use xlink:href="#DejaVuSans-72" x="281.865234"/>
      <use xlink:href="#DejaVuSans-61" x="322.978516"/>
      <use xlink:href="#DejaVuSans-6a" x="384.257812"/>
      <use xlink:href="#DejaVuSans-65" x="412.041016"/>
      <use xlink:href="#DejaVuSans-63" x="473.564453"/>
      <use xlink:href="#DejaVuSans-74" x="528.544922"/>
      <use xlink:href="#DejaVuSans-6f" x="567.753906"/>
      <use xlink:href="#DejaVuSans-72" x="628.935547"/>
      <use xlink:href="#DejaVuSans-79" x="670.048828"/>
     </g>
    </g>
    <g id="PathCollection_3">
     <g>
      <use xlink:href="#m9bdee4ff0e" x="300.791875" y="158.337687" style="fill: #e9afaf; stroke: #e9afaf; stroke-width: 3"/>
     </g>
    </g>
    <g id="text_17">
     <!-- Start -->
     <g transform="translate(318.791875 160.962687) scale(0.1 -0.1)">
      <use xlink:href="#DejaVuSans-53"/>
      <use xlink:href="#DejaVuSans-74" x="63.476562"/>
      <use xlink:href="#DejaVuSans-61" x="102.685547"/>
      <use xlink:href="#DejaVuSans-72" x="163.964844"/>
      <use xlink:href="#DejaVuSans-74" x="205.078125"/>
     </g>
    </g>
    <g id="PathCollection_4">
     <g>
      <use xlink:href="#mdcf247cec9" x="300.791875" y="173.015812" style="fill: #afe9af; stroke: #afe9af; stroke-width: 3"/>
     </g>
    </g>
    <g id="text_18">
     <!-- End -->
     <g transform="translate(318.791875 175.640812) scale(0.1 -0.1)">
      <defs>
       <path id="DejaVuSans-45" d="M 628 4666 
L 3578 4666 
L 3578 4134 
L 1259 4134 
L 1259 2753 
L 3481 2753 
L 3481 2222 
L 1259 2222 
L 1259 531 
L 3634 531 
L 3634 0 
L 628 0 
L 628 4666 
z
" transform="scale(0.015625)"/>
      </defs>
      <use xlink:href="#DejaVuSans-45"/>
      <use xlink:href="#DejaVuSans-6e" x="63.183594"/>
      <use xlink:href="#DejaVuSans-64" x="126.5625"/>
     </g>
    </g>
    <g id="line2d_18">
     <path d="M 290.791875 186.818937 
L 300.791875 186.818937 
L 310.791875 186.818937 
" style="fill: none; stroke: #ff0000; stroke-width: 1.5; stroke-linecap: square"/>
    </g>
    <g id="text_19">
     <!-- Moon Orbit -->
     <g transform="translate(318.791875 190.318937) scale(0.1 -0.1)">
      <defs>
       <path id="DejaVuSans-4d" d="M 628 4666 
L 1569 4666 
L 2759 1491 
L 3956 4666 
L 4897 4666 
L 4897 0 
L 4281 0 
L 4281 4097 
L 3078 897 
L 2444 897 
L 1241 4097 
L 1241 0 
L 628 0 
L 628 4666 
z
" transform="scale(0.015625)"/>
       <path id="DejaVuSans-62" d="M 3116 1747 
Q 3116 2381 2855 2742 
Q 2594 3103 2138 3103 
Q 1681 3103 1420 2742 
Q 1159 2381 1159 1747 
Q 1159 1113 1420 752 
Q 1681 391 2138 391 
Q 2594 391 2855 752 
Q 3116 1113 3116 1747 
z
M 1159 2969 
Q 1341 3281 1617 3432 
Q 1894 3584 2278 3584 
Q 2916 3584 3314 3078 
Q 3713 2572 3713 1747 
Q 3713 922 3314 415 
Q 2916 -91 2278 -91 
Q 1894 -91 1617 61 
Q 1341 213 1159 525 
L 1159 0 
L 581 0 
L 581 4863 
L 1159 4863 
L 1159 2969 
z
" transform="scale(0.015625)"/>
      </defs>
      <use xlink:href="#DejaVuSans-4d"/>
      <use xlink:href="#DejaVuSans-6f" x="86.279297"/>
      <use xlink:href="#DejaVuSans-6f" x="147.460938"/>
      <use xlink:href="#DejaVuSans-6e" x="208.642578"/>
      <use xlink:href="#DejaVuSans-20" x="272.021484"/>
      <use xlink:href="#DejaVuSans-4f" x="303.808594"/>
      <use xlink:href="#DejaVuSans-72" x="382.519531"/>
      <use xlink:href="#DejaVuSans-62" x="423.632812"/>
      <use xlink:href="#DejaVuSans-69" x="487.109375"/>
      <use xlink:href="#DejaVuSans-74" x="514.892578"/>
     </g>
    </g>
    <g id="patch_9">
     <path d="M 290.791875 204.997062 
L 310.791875 204.997062 
L 310.791875 197.997062 
L 290.791875 197.997062 
z
" style="fill: #1f77b4; opacity: 0.1"/>
    </g>
    <g id="text_20">
     <!-- Earth Hill Sphere -->
     <g transform="translate(318.791875 204.997062) scale(0.1 -0.1)">
      <defs>
       <path id="DejaVuSans-68" d="M 3513 2113 
L 3513 0 
L 2938 0 
L 2938 2094 
Q 2938 2591 2744 2837 
Q 2550 3084 2163 3084 
Q 1697 3084 1428 2787 
Q 1159 2491 1159 1978 
L 1159 0 
L 581 0 
L 581 4863 
L 1159 4863 
L 1159 2956 
Q 1366 3272 1645 3428 
Q 1925 3584 2291 3584 
Q 2894 3584 3203 3211 
Q 3513 2838 3513 2113 
z
" transform="scale(0.015625)"/>
       <path id="DejaVuSans-48" d="M 628 4666 
L 1259 4666 
L 1259 2753 
L 3553 2753 
L 3553 4666 
L 4184 4666 
L 4184 0 
L 3553 0 
L 3553 2222 
L 1259 2222 
L 1259 0 
L 628 0 
L 628 4666 
z
" transform="scale(0.015625)"/>
       <path id="DejaVuSans-6c" d="M 603 4863 
L 1178 4863 
L 1178 0 
L 603 0 
L 603 4863 
z
" transform="scale(0.015625)"/>
      </defs>
      <use xlink:href="#DejaVuSans-45"/>
      <use xlink:href="#DejaVuSans-61" x="63.183594"/>
      <use xlink:href="#DejaVuSans-72" x="124.462891"/>
      <use xlink:href="#DejaVuSans-74" x="165.576172"/>
      <use xlink:href="#DejaVuSans-68" x="204.785156"/>
      <use xlink:href="#DejaVuSans-20" x="268.164062"/>
      <use xlink:href="#DejaVuSans-48" x="299.951172"/>
      <use xlink:href="#DejaVuSans-69" x="375.146484"/>
      <use xlink:href="#DejaVuSans-6c" x="402.929688"/>
      <use xlink:href="#DejaVuSans-6c" x="430.712891"/>
      <use xlink:href="#DejaVuSans-20" x="458.496094"/>
      <use xlink:href="#DejaVuSans-53" x="490.283203"/>
      <use xlink:href="#DejaVuSans-70" x="553.759766"/>
      <use xlink:href="#DejaVuSans-68" x="617.236328"/>
      <use xlink:href="#DejaVuSans-65" x="680.615234"/>
      <use xlink:href="#DejaVuSans-72" x="742.138672"/>
      <use xlink:href="#DejaVuSans-65" x="781.001953"/>
     </g>
    </g>
   </g>
  </g>
 </g>
 <defs>
  <clipPath id="p1588478a86">
   <rect x="57.6" y="115.008" width="357.12" height="119.04"/>
  </clipPath>
 </defs>
</svg>
