<?xml version="1.0" encoding="utf-8" standalone="no"?>
<!DOCTYPE svg PUBLIC "-//W3C//DTD SVG 1.1//EN"
  "http://www.w3.org/Graphics/SVG/1.1/DTD/svg11.dtd">
<svg xmlns:xlink="http://www.w3.org/1999/xlink" width="460.8pt" height="345.6pt" viewBox="0 0 460.8 345.6" xmlns="http://www.w3.org/2000/svg" version="1.1">
 <metadata>
  <rdf:RDF xmlns:dc="http://purl.org/dc/elements/1.1/" xmlns:cc="http://creativecommons.org/ns#" xmlns:rdf="http://www.w3.org/1999/02/22-rdf-syntax-ns#">
   <cc:Work>
    <dc:type rdf:resource="http://purl.org/dc/dcmitype/StillImage"/>
    <dc:date>2023-06-27T14:50:44.831366</dc:date>
    <dc:format>image/svg+xml</dc:format>
    <dc:creator>
     <cc:Agent>
      <dc:title>Matplotlib v3.6.3, https://matplotlib.org/</dc:title>
     </cc:Agent>
    </dc:creator>
   </cc:Work>
  </rdf:RDF>
 </metadata>
 <defs>
  <style type="text/css">*{stroke-linejoin: round; stroke-linecap: butt}</style>
 </defs>
 <g id="figure_1">
  <g id="patch_1">
   <path d="M 0 345.6 
L 460.8 345.6 
L 460.8 0 
L 0 0 
z
" style="fill: #ffffff"/>
  </g>
  <g id="axes_1">
   <g id="patch_2">
    <path d="M 57.6 234.048 
L 414.72 234.048 
L 414.72 115.008 
L 57.6 115.008 
z
" style="fill: #ffffff"/>
   </g>
   <g id="patch_3">
    <path d="M 236.16 234.048 
C 251.944889 234.048 267.085394 227.776597 278.246996 216.614996 
C 289.408597 205.453394 295.68 190.312889 295.68 174.528 
C 295.68 158.743111 289.408597 143.602606 278.246996 132.441004 
C 267.085394 121.279403 251.944889 115.008 236.16 115.008 
C 220.375111 115.008 205.234606 121.279403 194.073004 132.441004 
C 182.911403 143.602606 176.64 158.743111 176.64 174.528 
C 176.64 190.312889 182.911403 205.453394 194.073004 216.614996 
C 205.234606 227.776597 220.375111 234.048 236.16 234.048 
z
" clip-path="url(#pb47ed618ad)" style="fill: #1f77b4; opacity: 0.1"/>
   </g>
   <g id="matplotlib.axis_1">
    <g id="xtick_1">
     <g id="line2d_1">
      <defs>
       <path id="m433bf389a1" d="M 0 0 
L 0 3.5 
" style="stroke: #000000; stroke-width: 0.8"/>
      </defs>
      <g>
       <use xlink:href="#m433bf389a1" x="57.6" y="234.048" style="stroke: #000000; stroke-width: 0.8"/>
      </g>
     </g>
     <g id="text_1">
      <!-- −0.03 -->
      <g transform="translate(42.277344 248.646437) scale(0.1 -0.1)">
       <defs>
        <path id="DejaVuSans-2212" d="M 678 2272 
L 4684 2272 
L 4684 1741 
L 678 1741 
L 678 2272 
z
" transform="scale(0.015625)"/>
        <path id="DejaVuSans-30" d="M 2034 4250 
Q 1547 4250 1301 3770 
Q 1056 3291 1056 2328 
Q 1056 1369 1301 889 
Q 1547 409 2034 409 
Q 2525 409 2770 889 
Q 3016 1369 3016 2328 
Q 3016 3291 2770 3770 
Q 2525 4250 2034 4250 
z
M 2034 4750 
Q 2819 4750 3233 4129 
Q 3647 3509 3647 2328 
Q 3647 1150 3233 529 
Q 2819 -91 2034 -91 
Q 1250 -91 836 529 
Q 422 1150 422 2328 
Q 422 3509 836 4129 
Q 1250 4750 2034 4750 
z
" transform="scale(0.015625)"/>
        <path id="DejaVuSans-2e" d="M 684 794 
L 1344 794 
L 1344 0 
L 684 0 
L 684 794 
z
" transform="scale(0.015625)"/>
        <path id="DejaVuSans-33" d="M 2597 2516 
Q 3050 2419 3304 2112 
Q 3559 1806 3559 1356 
Q 3559 666 3084 287 
Q 2609 -91 1734 -91 
Q 1441 -91 1130 -33 
Q 819 25 488 141 
L 488 750 
Q 750 597 1062 519 
Q 1375 441 1716 441 
Q 2309 441 2620 675 
Q 2931 909 2931 1356 
Q 2931 1769 2642 2001 
Q 2353 2234 1838 2234 
L 1294 2234 
L 1294 2753 
L 1863 2753 
Q 2328 2753 2575 2939 
Q 2822 3125 2822 3475 
Q 2822 3834 2567 4026 
Q 2313 4219 1838 4219 
Q 1578 4219 1281 4162 
Q 984 4106 628 3988 
L 628 4550 
Q 988 4650 1302 4700 
Q 1616 4750 1894 4750 
Q 2613 4750 3031 4423 
Q 3450 4097 3450 3541 
Q 3450 3153 3228 2886 
Q 3006 2619 2597 2516 
z
" transform="scale(0.015625)"/>
       </defs>
       <use xlink:href="#DejaVuSans-2212"/>
       <use xlink:href="#DejaVuSans-30" x="83.789062"/>
       <use xlink:href="#DejaVuSans-2e" x="147.412109"/>
       <use xlink:href="#DejaVuSans-30" x="179.199219"/>
       <use xlink:href="#DejaVuSans-33" x="242.822266"/>
      </g>
     </g>
    </g>
    <g id="xtick_2">
     <g id="line2d_2">
      <g>
       <use xlink:href="#m433bf389a1" x="117.12" y="234.048" style="stroke: #000000; stroke-width: 0.8"/>
      </g>
     </g>
     <g id="text_2">
      <!-- −0.02 -->
      <g transform="translate(101.797344 248.646437) scale(0.1 -0.1)">
       <defs>
        <path id="DejaVuSans-32" d="M 1228 531 
L 3431 531 
L 3431 0 
L 469 0 
L 469 531 
Q 828 903 1448 1529 
Q 2069 2156 2228 2338 
Q 2531 2678 2651 2914 
Q 2772 3150 2772 3378 
Q 2772 3750 2511 3984 
Q 2250 4219 1831 4219 
Q 1534 4219 1204 4116 
Q 875 4013 500 3803 
L 500 4441 
Q 881 4594 1212 4672 
Q 1544 4750 1819 4750 
Q 2544 4750 2975 4387 
Q 3406 4025 3406 3419 
Q 3406 3131 3298 2873 
Q 3191 2616 2906 2266 
Q 2828 2175 2409 1742 
Q 1991 1309 1228 531 
z
" transform="scale(0.015625)"/>
       </defs>
       <use xlink:href="#DejaVuSans-2212"/>
       <use xlink:href="#DejaVuSans-30" x="83.789062"/>
       <use xlink:href="#DejaVuSans-2e" x="147.412109"/>
       <use xlink:href="#DejaVuSans-30" x="179.199219"/>
       <use xlink:href="#DejaVuSans-32" x="242.822266"/>
      </g>
     </g>
    </g>
    <g id="xtick_3">
     <g id="line2d_3">
      <g>
       <use xlink:href="#m433bf389a1" x="176.64" y="234.048" style="stroke: #000000; stroke-width: 0.8"/>
      </g>
     </g>
     <g id="text_3">
      <!-- −0.01 -->
      <g transform="translate(161.317344 248.646437) scale(0.1 -0.1)">
       <defs>
        <path id="DejaVuSans-31" d="M 794 531 
L 1825 531 
L 1825 4091 
L 703 3866 
L 703 4441 
L 1819 4666 
L 2450 4666 
L 2450 531 
L 3481 531 
L 3481 0 
L 794 0 
L 794 531 
z
" transform="scale(0.015625)"/>
       </defs>
       <use xlink:href="#DejaVuSans-2212"/>
       <use xlink:href="#DejaVuSans-30" x="83.789062"/>
       <use xlink:href="#DejaVuSans-2e" x="147.412109"/>
       <use xlink:href="#DejaVuSans-30" x="179.199219"/>
       <use xlink:href="#DejaVuSans-31" x="242.822266"/>
      </g>
     </g>
    </g>
    <g id="xtick_4">
     <g id="line2d_4">
      <g>
       <use xlink:href="#m433bf389a1" x="236.16" y="234.048" style="stroke: #000000; stroke-width: 0.8"/>
      </g>
     </g>
     <g id="text_4">
      <!-- 0.00 -->
      <g transform="translate(225.027187 248.646437) scale(0.1 -0.1)">
       <use xlink:href="#DejaVuSans-30"/>
       <use xlink:href="#DejaVuSans-2e" x="63.623047"/>
       <use xlink:href="#DejaVuSans-30" x="95.410156"/>
       <use xlink:href="#DejaVuSans-30" x="159.033203"/>
      </g>
     </g>
    </g>
    <g id="xtick_5">
     <g id="line2d_5">
      <g>
       <use xlink:href="#m433bf389a1" x="295.68" y="234.048" style="stroke: #000000; stroke-width: 0.8"/>
      </g>
     </g>
     <g id="text_5">
      <!-- 0.01 -->
      <g transform="translate(284.547188 248.646437) scale(0.1 -0.1)">
       <use xlink:href="#DejaVuSans-30"/>
       <use xlink:href="#DejaVuSans-2e" x="63.623047"/>
       <use xlink:href="#DejaVuSans-30" x="95.410156"/>
       <use xlink:href="#DejaVuSans-31" x="159.033203"/>
      </g>
     </g>
    </g>
    <g id="xtick_6">
     <g id="line2d_6">
      <g>
       <use xlink:href="#m433bf389a1" x="355.2" y="234.048" style="stroke: #000000; stroke-width: 0.8"/>
      </g>
     </g>
     <g id="text_6">
      <!-- 0.02 -->
      <g transform="translate(344.067188 248.646437) scale(0.1 -0.1)">
       <use xlink:href="#DejaVuSans-30"/>
       <use xlink:href="#DejaVuSans-2e" x="63.623047"/>
       <use xlink:href="#DejaVuSans-30" x="95.410156"/>
       <use xlink:href="#DejaVuSans-32" x="159.033203"/>
      </g>
     </g>
    </g>
    <g id="xtick_7">
     <g id="line2d_7">
      <g>
       <use xlink:href="#m433bf389a1" x="414.72" y="234.048" style="stroke: #000000; stroke-width: 0.8"/>
      </g>
     </g>
     <g id="text_7">
      <!-- 0.03 -->
      <g transform="translate(403.587188 248.646437) scale(0.1 -0.1)">
       <use xlink:href="#DejaVuSans-30"/>
       <use xlink:href="#DejaVuSans-2e" x="63.623047"/>
       <use xlink:href="#DejaVuSans-30" x="95.410156"/>
       <use xlink:href="#DejaVuSans-33" x="159.033203"/>
      </g>
     </g>
    </g>
    <g id="text_8">
     <!-- Synodic x (AU) -->
     <g transform="translate(199.367031 262.324563) scale(0.1 -0.1)">
      <defs>
       <path id="DejaVuSans-53" d="M 3425 4513 
L 3425 3897 
Q 3066 4069 2747 4153 
Q 2428 4238 2131 4238 
Q 1616 4238 1336 4038 
Q 1056 3838 1056 3469 
Q 1056 3159 1242 3001 
Q 1428 2844 1947 2747 
L 2328 2669 
Q 3034 2534 3370 2195 
Q 3706 1856 3706 1288 
Q 3706 609 3251 259 
Q 2797 -91 1919 -91 
Q 1588 -91 1214 -16 
Q 841 59 441 206 
L 441 856 
Q 825 641 1194 531 
Q 1563 422 1919 422 
Q 2459 422 2753 634 
Q 3047 847 3047 1241 
Q 3047 1584 2836 1778 
Q 2625 1972 2144 2069 
L 1759 2144 
Q 1053 2284 737 2584 
Q 422 2884 422 3419 
Q 422 4038 858 4394 
Q 1294 4750 2059 4750 
Q 2388 4750 2728 4690 
Q 3069 4631 3425 4513 
z
" transform="scale(0.015625)"/>
       <path id="DejaVuSans-79" d="M 2059 -325 
Q 1816 -950 1584 -1140 
Q 1353 -1331 966 -1331 
L 506 -1331 
L 506 -850 
L 844 -850 
Q 1081 -850 1212 -737 
Q 1344 -625 1503 -206 
L 1606 56 
L 191 3500 
L 800 3500 
L 1894 763 
L 2988 3500 
L 3597 3500 
L 2059 -325 
z
" transform="scale(0.015625)"/>
       <path id="DejaVuSans-6e" d="M 3513 2113 
L 3513 0 
L 2938 0 
L 2938 2094 
Q 2938 2591 2744 2837 
Q 2550 3084 2163 3084 
Q 1697 3084 1428 2787 
Q 1159 2491 1159 1978 
L 1159 0 
L 581 0 
L 581 3500 
L 1159 3500 
L 1159 2956 
Q 1366 3272 1645 3428 
Q 1925 3584 2291 3584 
Q 2894 3584 3203 3211 
Q 3513 2838 3513 2113 
z
" transform="scale(0.015625)"/>
       <path id="DejaVuSans-6f" d="M 1959 3097 
Q 1497 3097 1228 2736 
Q 959 2375 959 1747 
Q 959 1119 1226 758 
Q 1494 397 1959 397 
Q 2419 397 2687 759 
Q 2956 1122 2956 1747 
Q 2956 2369 2687 2733 
Q 2419 3097 1959 3097 
z
M 1959 3584 
Q 2709 3584 3137 3096 
Q 3566 2609 3566 1747 
Q 3566 888 3137 398 
Q 2709 -91 1959 -91 
Q 1206 -91 779 398 
Q 353 888 353 1747 
Q 353 2609 779 3096 
Q 1206 3584 1959 3584 
z
" transform="scale(0.015625)"/>
       <path id="DejaVuSans-64" d="M 2906 2969 
L 2906 4863 
L 3481 4863 
L 3481 0 
L 2906 0 
L 2906 525 
Q 2725 213 2448 61 
Q 2172 -91 1784 -91 
Q 1150 -91 751 415 
Q 353 922 353 1747 
Q 353 2572 751 3078 
Q 1150 3584 1784 3584 
Q 2172 3584 2448 3432 
Q 2725 3281 2906 2969 
z
M 947 1747 
Q 947 1113 1208 752 
Q 1469 391 1925 391 
Q 2381 391 2643 752 
Q 2906 1113 2906 1747 
Q 2906 2381 2643 2742 
Q 2381 3103 1925 3103 
Q 1469 3103 1208 2742 
Q 947 2381 947 1747 
z
" transform="scale(0.015625)"/>
       <path id="DejaVuSans-69" d="M 603 3500 
L 1178 3500 
L 1178 0 
L 603 0 
L 603 3500 
z
M 603 4863 
L 1178 4863 
L 1178 4134 
L 603 4134 
L 603 4863 
z
" transform="scale(0.015625)"/>
       <path id="DejaVuSans-63" d="M 3122 3366 
L 3122 2828 
Q 2878 2963 2633 3030 
Q 2388 3097 2138 3097 
Q 1578 3097 1268 2742 
Q 959 2388 959 1747 
Q 959 1106 1268 751 
Q 1578 397 2138 397 
Q 2388 397 2633 464 
Q 2878 531 3122 666 
L 3122 134 
Q 2881 22 2623 -34 
Q 2366 -91 2075 -91 
Q 1284 -91 818 406 
Q 353 903 353 1747 
Q 353 2603 823 3093 
Q 1294 3584 2113 3584 
Q 2378 3584 2631 3529 
Q 2884 3475 3122 3366 
z
" transform="scale(0.015625)"/>
       <path id="DejaVuSans-20" transform="scale(0.015625)"/>
       <path id="DejaVuSans-78" d="M 3513 3500 
L 2247 1797 
L 3578 0 
L 2900 0 
L 1881 1375 
L 863 0 
L 184 0 
L 1544 1831 
L 300 3500 
L 978 3500 
L 1906 2253 
L 2834 3500 
L 3513 3500 
z
" transform="scale(0.015625)"/>
       <path id="DejaVuSans-28" d="M 1984 4856 
Q 1566 4138 1362 3434 
Q 1159 2731 1159 2009 
Q 1159 1288 1364 580 
Q 1569 -128 1984 -844 
L 1484 -844 
Q 1016 -109 783 600 
Q 550 1309 550 2009 
Q 550 2706 781 3412 
Q 1013 4119 1484 4856 
L 1984 4856 
z
" transform="scale(0.015625)"/>
       <path id="DejaVuSans-41" d="M 2188 4044 
L 1331 1722 
L 3047 1722 
L 2188 4044 
z
M 1831 4666 
L 2547 4666 
L 4325 0 
L 3669 0 
L 3244 1197 
L 1141 1197 
L 716 0 
L 50 0 
L 1831 4666 
z
" transform="scale(0.015625)"/>
       <path id="DejaVuSans-55" d="M 556 4666 
L 1191 4666 
L 1191 1831 
Q 1191 1081 1462 751 
Q 1734 422 2344 422 
Q 2950 422 3222 751 
Q 3494 1081 3494 1831 
L 3494 4666 
L 4128 4666 
L 4128 1753 
Q 4128 841 3676 375 
Q 3225 -91 2344 -91 
Q 1459 -91 1007 375 
Q 556 841 556 1753 
L 556 4666 
z
" transform="scale(0.015625)"/>
       <path id="DejaVuSans-29" d="M 513 4856 
L 1013 4856 
Q 1481 4119 1714 3412 
Q 1947 2706 1947 2009 
Q 1947 1309 1714 600 
Q 1481 -109 1013 -844 
L 513 -844 
Q 928 -128 1133 580 
Q 1338 1288 1338 2009 
Q 1338 2731 1133 3434 
Q 928 4138 513 4856 
z
" transform="scale(0.015625)"/>
      </defs>
      <use xlink:href="#DejaVuSans-53"/>
      <use xlink:href="#DejaVuSans-79" x="63.476562"/>
      <use xlink:href="#DejaVuSans-6e" x="122.65625"/>
      <use xlink:href="#DejaVuSans-6f" x="186.035156"/>
      <use xlink:href="#DejaVuSans-64" x="247.216797"/>
      <use xlink:href="#DejaVuSans-69" x="310.693359"/>
      <use xlink:href="#DejaVuSans-63" x="338.476562"/>
      <use xlink:href="#DejaVuSans-20" x="393.457031"/>
      <use xlink:href="#DejaVuSans-78" x="425.244141"/>
      <use xlink:href="#DejaVuSans-20" x="484.423828"/>
      <use xlink:href="#DejaVuSans-28" x="516.210938"/>
      <use xlink:href="#DejaVuSans-41" x="555.224609"/>
      <use xlink:href="#DejaVuSans-55" x="623.632812"/>
      <use xlink:href="#DejaVuSans-29" x="696.826172"/>
     </g>
    </g>
   </g>
   <g id="matplotlib.axis_2">
    <g id="ytick_1">
     <g id="line2d_8">
      <defs>
       <path id="me9ddb9d295" d="M 0 0 
L -3.5 0 
" style="stroke: #000000; stroke-width: 0.8"/>
      </defs>
      <g>
       <use xlink:href="#me9ddb9d295" x="57.6" y="234.048" style="stroke: #000000; stroke-width: 0.8"/>
      </g>
     </g>
     <g id="text_9">
      <!-- −0.010 -->
      <g transform="translate(13.592188 237.847219) scale(0.1 -0.1)">
       <use xlink:href="#DejaVuSans-2212"/>
       <use xlink:href="#DejaVuSans-30" x="83.789062"/>
       <use xlink:href="#DejaVuSans-2e" x="147.412109"/>
       <use xlink:href="#DejaVuSans-30" x="179.199219"/>
       <use xlink:href="#DejaVuSans-31" x="242.822266"/>
       <use xlink:href="#DejaVuSans-30" x="306.445312"/>
      </g>
     </g>
    </g>
    <g id="ytick_2">
     <g id="line2d_9">
      <g>
       <use xlink:href="#me9ddb9d295" x="57.6" y="204.288" style="stroke: #000000; stroke-width: 0.8"/>
      </g>
     </g>
     <g id="text_10">
      <!-- −0.005 -->
      <g transform="translate(13.592188 208.087219) scale(0.1 -0.1)">
       <defs>
        <path id="DejaVuSans-35" d="M 691 4666 
L 3169 4666 
L 3169 4134 
L 1269 4134 
L 1269 2991 
Q 1406 3038 1543 3061 
Q 1681 3084 1819 3084 
Q 2600 3084 3056 2656 
Q 3513 2228 3513 1497 
Q 3513 744 3044 326 
Q 2575 -91 1722 -91 
Q 1428 -91 1123 -41 
Q 819 9 494 109 
L 494 744 
Q 775 591 1075 516 
Q 1375 441 1709 441 
Q 2250 441 2565 725 
Q 2881 1009 2881 1497 
Q 2881 1984 2565 2268 
Q 2250 2553 1709 2553 
Q 1456 2553 1204 2497 
Q 953 2441 691 2322 
L 691 4666 
z
" transform="scale(0.015625)"/>
       </defs>
       <use xlink:href="#DejaVuSans-2212"/>
       <use xlink:href="#DejaVuSans-30" x="83.789062"/>
       <use xlink:href="#DejaVuSans-2e" x="147.412109"/>
       <use xlink:href="#DejaVuSans-30" x="179.199219"/>
       <use xlink:href="#DejaVuSans-30" x="242.822266"/>
       <use xlink:href="#DejaVuSans-35" x="306.445312"/>
      </g>
     </g>
    </g>
    <g id="ytick_3">
     <g id="line2d_10">
      <g>
       <use xlink:href="#me9ddb9d295" x="57.6" y="174.528" style="stroke: #000000; stroke-width: 0.8"/>
      </g>
     </g>
     <g id="text_11">
      <!-- 0.000 -->
      <g transform="translate(21.971875 178.327219) scale(0.1 -0.1)">
       <use xlink:href="#DejaVuSans-30"/>
       <use xlink:href="#DejaVuSans-2e" x="63.623047"/>
       <use xlink:href="#DejaVuSans-30" x="95.410156"/>
       <use xlink:href="#DejaVuSans-30" x="159.033203"/>
       <use xlink:href="#DejaVuSans-30" x="222.65625"/>
      </g>
     </g>
    </g>
    <g id="ytick_4">
     <g id="line2d_11">
      <g>
       <use xlink:href="#me9ddb9d295" x="57.6" y="144.768" style="stroke: #000000; stroke-width: 0.8"/>
      </g>
     </g>
     <g id="text_12">
      <!-- 0.005 -->
      <g transform="translate(21.971875 148.567219) scale(0.1 -0.1)">
       <use xlink:href="#DejaVuSans-30"/>
       <use xlink:href="#DejaVuSans-2e" x="63.623047"/>
       <use xlink:href="#DejaVuSans-30" x="95.410156"/>
       <use xlink:href="#DejaVuSans-30" x="159.033203"/>
       <use xlink:href="#DejaVuSans-35" x="222.65625"/>
      </g>
     </g>
    </g>
    <g id="ytick_5">
     <g id="line2d_12">
      <g>
       <use xlink:href="#me9ddb9d295" x="57.6" y="115.008" style="stroke: #000000; stroke-width: 0.8"/>
      </g>
     </g>
     <g id="text_13">
      <!-- 0.010 -->
      <g transform="translate(21.971875 118.807219) scale(0.1 -0.1)">
       <use xlink:href="#DejaVuSans-30"/>
       <use xlink:href="#DejaVuSans-2e" x="63.623047"/>
       <use xlink:href="#DejaVuSans-30" x="95.410156"/>
       <use xlink:href="#DejaVuSans-31" x="159.033203"/>
       <use xlink:href="#DejaVuSans-30" x="222.65625"/>
      </g>
     </g>
    </g>
    <g id="text_14">
     <!-- Synodic z (AU) -->
     <g transform="translate(7.5125 210.985813) rotate(-90) scale(0.1 -0.1)">
      <defs>
       <path id="DejaVuSans-7a" d="M 353 3500 
L 3084 3500 
L 3084 2975 
L 922 459 
L 3084 459 
L 3084 0 
L 275 0 
L 275 525 
L 2438 3041 
L 353 3041 
L 353 3500 
z
" transform="scale(0.015625)"/>
      </defs>
      <use xlink:href="#DejaVuSans-53"/>
      <use xlink:href="#DejaVuSans-79" x="63.476562"/>
      <use xlink:href="#DejaVuSans-6e" x="122.65625"/>
      <use xlink:href="#DejaVuSans-6f" x="186.035156"/>
      <use xlink:href="#DejaVuSans-64" x="247.216797"/>
      <use xlink:href="#DejaVuSans-69" x="310.693359"/>
      <use xlink:href="#DejaVuSans-63" x="338.476562"/>
      <use xlink:href="#DejaVuSans-20" x="393.457031"/>
      <use xlink:href="#DejaVuSans-7a" x="425.244141"/>
      <use xlink:href="#DejaVuSans-20" x="477.734375"/>
      <use xlink:href="#DejaVuSans-28" x="509.521484"/>
      <use xlink:href="#DejaVuSans-41" x="548.535156"/>
      <use xlink:href="#DejaVuSans-55" x="616.943359"/>
      <use xlink:href="#DejaVuSans-29" x="690.136719"/>
     </g>
    </g>
   </g>
   <g id="line2d_13">
    <path d="M 339.911537 175.696776 
L 309.34497 181.545672 
L 295.011649 184.048237 
L 281.449056 186.190582 
L 268.245819 188.054168 
L 258.895315 189.170038 
L 252.675219 189.701201 
L 248.083255 189.880172 
L 244.677645 189.800377 
L 242.146514 189.529427 
L 240.275992 189.119383 
L 238.844798 188.585559 
L 237.793225 187.968455 
L 236.963011 187.223537 
L 236.331247 186.3475 
L 235.87475 185.34041 
L 235.53632 184.033001 
L 235.346145 182.36084 
L 235.329914 180.096669 
L 235.532809 177.216591 
L 236.022625 173.489758 
L 236.840317 169.050455 
L 238.603033 159.981175 
L 238.699737 158.052735 
L 238.557862 156.549091 
L 238.231154 155.373664 
L 237.722293 154.371479 
L 237.03273 153.513347 
L 236.131587 152.758168 
L 234.967219 152.086391 
L 233.508537 151.507422 
L 231.636571 151.01058 
L 229.245656 150.617093 
L 226.274199 150.361965 
L 222.619061 150.278758 
L 218.321194 150.406797 
L 213.479381 150.774137 
L 208.150233 151.405788 
L 202.356681 152.320714 
L 195.878405 153.5741 
L 188.783486 155.175922 
L 181.34567 157.083693 
L 174.353339 159.101647 
L 168.241647 161.0912 
L 163.017825 163.020355 
L 158.305647 164.994095 
L 153.812295 167.115603 
L 149.447282 169.42044 
L 145.142709 171.944818 
L 141.02235 174.616545 
L 137.467583 177.178212 
L 134.886778 179.273741 
L 134.886778 179.273741 
" clip-path="url(#pb47ed618ad)" style="fill: none; stroke: #5599ff; stroke-width: 5; stroke-linecap: square"/>
   </g>
   <g id="line2d_14">
    <path d="M 194.8085 180.70153 
L 179.207978 185.29493 
L 145.837894 195.284494 
L 141.070952 197.02266 
L 137.851483 198.387454 
L 137.545029 198.697757 
L 137.673174 198.825427 
L 138.198037 198.947579 
L 139.601523 199.017516 
L 142.229464 198.910982 
L 146.200465 198.5133 
L 155.558239 197.27374 
L 174.906434 194.556973 
L 192.673968 191.77176 
L 218.724062 187.769906 
L 245.284451 183.610377 
L 280.782578 178.014841 
L 325.605596 171.024116 
L 357.812785 166.000354 
L 398.899431 159.616291 
L 426.925771 155.285204 
L 461.8 149.956227 
M 461.8 150.522301 
L 452.693405 152.423143 
L 425.365844 158.051854 
L 359.908678 171.724172 
L 338.486888 175.974446 
L 308.712644 181.660847 
L 294.468017 184.138437 
L 280.927647 186.268442 
L 267.775813 188.11569 
L 258.611293 189.199154 
L 252.479115 189.713459 
L 247.963037 189.881168 
L 244.622583 189.796854 
L 242.096346 189.52131 
L 240.23047 189.106046 
L 238.80383 188.565988 
L 237.756561 187.941614 
L 236.963011 187.223537 
L 236.331247 186.3475 
L 235.87475 185.34041 
L 235.53632 184.033001 
L 235.346145 182.36084 
L 235.329914 180.096669 
L 235.532809 177.216591 
L 236.022625 173.489758 
L 236.840317 169.050455 
L 238.603033 159.981175 
L 238.699737 158.052735 
L 238.557862 156.549091 
L 238.231154 155.373664 
L 237.722293 154.371479 
L 237.03273 153.513347 
L 236.131587 152.758168 
L 234.967219 152.086391 
L 233.508537 151.507422 
L 231.636571 151.01058 
L 229.245656 150.617093 
L 226.274199 150.361965 
L 222.619061 150.278758 
L 218.321194 150.406797 
L 213.479381 150.774137 
L 208.150233 151.405788 
L 202.356681 152.320714 
L 195.878405 153.5741 
L 188.783486 155.175922 
L 181.34567 157.083693 
L 174.353339 159.101647 
L 168.241647 161.0912 
L 163.017825 163.020355 
L 158.305647 164.994095 
L 153.812295 167.115603 
L 149.447282 169.42044 
L 145.142709 171.944818 
L 141.02235 174.616545 
L 137.467583 177.178212 
L 134.702454 179.43446 
L 132.529184 181.487347 
L 130.708018 183.512943 
L 129.090413 185.649327 
L 127.565456 188.040265 
L 125.927201 191.047404 
L 124.307051 194.465497 
L 123.550844 196.544296 
L 123.183787 198.1926 
L 123.069083 199.733415 
L 123.177387 201.297016 
L 123.532151 203.077775 
L 124.282684 205.615271 
L 124.768297 206.56191 
L 125.340051 207.192852 
L 126.084054 207.678057 
L 127.023843 208.022077 
L 128.12057 208.185745 
L 129.188174 208.126615 
L 130.103345 207.856998 
L 131.119667 207.306424 
L 132.527152 206.272006 
L 133.962305 204.952778 
L 135.034276 203.678415 
L 135.776236 202.45595 
L 136.371334 201.025792 
L 137.091176 198.623662 
L 138.3175 193.723345 
L 138.676583 191.426093 
L 138.748019 189.553609 
L 138.593975 187.54123 
L 138.131008 184.719209 
L 136.941478 179.111678 
L 136.061215 175.816462 
L 135.249186 173.623772 
L 134.246866 171.56867 
L 132.834504 169.206691 
L 130.658407 166.035848 
L 127.501748 161.838817 
L 125.207616 159.118437 
L 123.256549 157.149358 
L 121.146971 155.342681 
L 118.508901 153.389195 
L 115.125943 151.17276 
L 111.06406 148.781399 
L 107.34025 146.833859 
L 104.177628 145.425513 
L 100.944386 144.232798 
L 97.240249 143.111104 
L 92.987383 142.058975 
L 88.3687 141.14571 
L 83.900305 140.483236 
L 79.713332 140.08407 
L 75.387401 139.898686 
L 70.56835 139.919174 
L 65.364871 140.164116 
L 60.237078 140.625561 
L 55.517497 141.270929 
L 51.012745 142.113146 
L 45.998417 143.284708 
L 39.947802 144.934157 
L 33.882917 146.81126 
L 28.689714 148.643884 
L 24.31802 150.418875 
L 20.036588 152.402472 
L 14.579143 155.194439 
L 7.330009 159.157177 
L 1.86741 162.374904 
L -1 164.219123 
L -1 164.219123 
" clip-path="url(#pb47ed618ad)" style="fill: none; stroke: #808080; stroke-width: 2; stroke-linecap: square"/>
   </g>
   <g id="line2d_15">
    <path d="M 247.51738 174.760702 
L 251.003588 175.323071 
L 251.835801 175.629835 
L 251.759982 175.731095 
L 251.236052 175.835666 
L 249.510555 175.913251 
L 245.566895 175.845246 
L 238.980245 175.499064 
L 231.136886 174.867298 
L 224.933645 174.165247 
L 221.901402 173.631716 
L 221.315056 173.362241 
L 221.41994 173.273729 
L 222.004115 173.169744 
L 223.881173 173.099208 
L 228.100813 173.190025 
L 234.893201 173.569144 
L 242.758757 174.228057 
L 248.791947 174.940169 
L 251.48331 175.446998 
L 251.925409 175.691279 
L 251.784273 175.779774 
L 251.08591 175.884179 
L 248.933214 175.941652 
L 244.34026 175.816222 
L 237.272618 175.392609 
L 229.507546 174.70886 
L 224.031498 174.025366 
L 221.810717 173.566578 
L 221.519925 173.36497 
L 221.524161 173.357135 
L 221.714249 173.266474 
L 222.583967 173.16218 
L 225.035586 173.12441 
L 230.053865 173.290743 
L 237.363322 173.759591 
L 244.909442 174.455854 
L 249.906919 175.113202 
L 251.757608 175.53927 
L 251.912152 175.685449 
L 251.88941 175.713803 
L 251.589057 175.8108 
L 250.392917 175.907546 
L 247.272661 175.902932 
L 241.526624 175.658037 
L 233.792807 175.106614 
L 226.718747 174.395143 
L 222.728095 173.803647 
L 221.619888 173.464354 
L 221.619701 173.377107 
L 221.665035 173.348965 
L 222.160525 173.247113 
L 223.891688 173.171487 
L 227.939989 173.248485 
L 234.710251 173.612827 
L 242.712817 174.264033 
L 248.816469 174.963651 
L 251.474081 175.454432 
L 251.84013 175.665476 
L 251.831943 175.67916 
L 251.602698 175.768899 
L 250.56635 175.863887 
L 247.715805 175.869639 
L 242.034619 175.638872 
L 234.106946 175.0903 
L 226.679356 174.366332 
L 222.530479 173.768478 
L 221.525394 173.456073 
L 221.554251 173.377579 
L 221.593589 173.358643 
L 222.148463 173.264465 
L 224.027338 173.209612 
L 228.449644 173.327545 
L 235.797249 173.759233 
L 243.967047 174.455755 
L 249.668816 175.141291 
L 251.664627 175.560527 
L 251.789148 175.674856 
L 251.748782 175.711375 
L 251.339952 175.798278 
L 249.712628 175.860984 
L 245.629892 175.763889 
L 238.51573 175.360085 
L 229.987257 174.655783 
L 223.799017 173.944352 
L 221.511359 173.502099 
L 221.345315 173.376293 
L 221.388861 173.339732 
L 221.833652 173.256143 
L 223.562912 173.207423 
L 227.951174 173.338174 
L 235.423913 173.794703 
L 243.939171 174.529111 
L 249.81951 175.2327 
L 251.745044 175.63835 
L 251.826392 175.723559 
L 251.765184 175.767529 
L 251.237539 175.84691 
L 249.21562 175.874215 
L 244.39976 175.691948 
L 236.444529 175.160683 
L 227.926375 174.379286 
L 222.656408 173.702976 
L 221.259543 173.355005 
L 221.253716 173.298303 
L 221.315649 173.265916 
L 221.893711 173.190382 
L 224.010223 173.177464 
L 229.153224 173.395841 
L 237.386354 173.976509 
L 245.83098 174.782088 
L 250.802779 175.448782 
L 251.944273 175.766754 
L 251.886518 175.832107 
L 251.858408 175.841488 
L 251.199377 175.914522 
L 248.857107 175.908921 
L 243.383184 175.648548 
L 234.875563 175.013413 
L 226.595329 174.184623 
L 222.161062 173.549432 
L 221.337726 173.272971 
L 221.458335 173.208936 
L 222.214123 173.140245 
L 224.798164 173.164689 
L 230.620163 173.465313 
L 239.350324 174.145799 
L 247.426273 174.984838 
L 251.426763 175.58759 
L 252.077685 175.828978 
L 252.072669 175.840128 
L 251.89251 175.905973 
L 250.885272 175.968207 
L 247.701565 175.900597 
L 241.138336 175.517108 
L 232.192806 174.768844 
L 224.934701 173.958982 
L 221.907956 173.441931 
L 221.588694 173.276821 
L 221.61971 173.247975 
L 222.003724 173.175001 
L 223.661217 173.142027 
L 228.062826 173.31025 
L 235.865276 173.845646 
L 244.660764 174.663373 
L 250.449311 175.39626 
L 252.10902 175.777811 
L 252.136226 175.842583 
L 252.073552 175.877181 
L 251.511721 175.948307 
L 249.361017 175.951228 
L 244.235065 175.713803 
L 235.90074 175.100202 
L 227.42757 174.267464 
L 222.746427 173.619364 
L 221.808048 173.328339 
L 221.928719 173.264455 
L 222.71239 173.198608 
L 225.390451 173.233209 
L 231.463234 173.55824 
L 240.298696 174.255547 
L 248.250392 175.089306 
L 251.750777 175.638823 
L 252.130504 175.807953 
L 252.097762 175.837423 
L 251.693819 175.905169 
L 249.929909 175.925167 
L 245.21147 175.727077 
L 236.915133 175.145322 
L 227.905313 174.30105 
L 222.795916 173.633023 
L 221.848803 173.360619 
L 221.852775 173.349599 
L 222.031042 173.290927 
L 223.089841 173.242844 
L 226.595544 173.344901 
L 233.846117 173.795764 
L 243.309922 174.601897 
L 250.166825 175.383275 
L 252.062435 175.766787 
L 252.077465 175.811348 
L 251.989487 175.847452 
L 251.252325 175.900274 
L 248.468773 175.841304 
L 241.902927 175.460148 
L 232.188871 174.672851 
L 224.255715 173.82757 
L 221.760284 173.390191 
L 221.711386 173.336506 
L 221.817308 173.295734 
L 222.688168 173.25252 
L 225.98114 173.356011 
L 233.434821 173.834012 
L 243.54409 174.702708 
L 250.496582 175.492966 
L 252.052483 175.828439 
L 252.051717 175.832657 
L 251.90589 175.880335 
L 250.861197 175.909266 
L 247.099649 175.757916 
L 238.88319 175.188498 
L 228.564295 174.258369 
L 222.418412 173.5168 
L 221.519244 173.288896 
L 221.561274 173.261547 
L 222.086273 173.219275 
L 224.625294 173.286386 
L 231.304887 173.708073 
L 241.757437 174.591159 
L 249.955761 175.480705 
L 252.064322 175.875369 
L 251.988574 175.916293 
L 251.973847 175.918971 
L 251.138164 175.947664 
L 247.723924 175.806232 
L 239.678399 175.233886 
L 228.886888 174.248107 
L 222.375975 173.465789 
L 221.43558 173.235469 
L 221.47876 173.209904 
L 222.043822 173.172925 
L 224.791262 173.266382 
L 231.959897 173.755027 
L 242.782343 174.714486 
L 250.563196 175.599724 
L 252.120087 175.921965 
L 252.113629 175.932954 
L 251.883436 175.974117 
L 250.378174 175.96276 
L 245.307449 175.671039 
L 235.499549 174.875237 
L 225.522725 173.85908 
L 221.665082 173.291097 
L 221.527584 173.220188 
L 221.666773 173.178189 
L 222.805466 173.167095 
L 227.058425 173.387474 
L 236.247561 174.10297 
L 246.818859 175.137954 
L 251.824843 175.808211 
L 252.18993 175.934827 
L 252.067681 175.973445 
L 251.026284 175.988506 
L 247.002456 175.786771 
L 238.082157 175.102331 
L 227.383488 174.069034 
L 222.158467 173.384452 
L 221.739152 173.247783 
L 221.847297 173.211581 
L 222.823641 173.193671 
L 226.705573 173.382878 
L 235.569983 174.054448 
L 246.479223 175.095511 
L 251.842262 175.787834 
L 252.239142 175.915752 
L 252.121657 175.952396 
L 251.050139 175.963653 
L 246.845084 175.746266 
L 237.401724 175.018182 
L 226.637772 173.979801 
L 222.080952 173.36332 
L 221.930163 173.295959 
L 222.091365 173.255916 
L 223.374407 173.261026 
L 228.215392 173.534736 
L 238.43873 174.34721 
L 248.933084 175.385129 
L 252.238546 175.879867 
L 252.241877 175.899254 
L 252.131715 175.924656 
L 251.020786 175.923853 
L 246.379623 175.662026 
L 235.885008 174.832169 
L 224.912271 173.759842 
L 221.971126 173.317111 
L 221.97508 173.310907 
L 222.208053 173.282264 
L 224.081583 173.337954 
L 230.8096 173.790594 
L 243.088864 174.841694 
L 251.526873 175.74934 
L 252.21885 175.896602 
L 251.980507 175.925206 
L 249.965632 175.850039 
L 242.52031 175.321119 
L 229.312726 174.16108 
L 221.991509 173.34141 
L 221.827072 173.288383 
L 222.157866 173.265913 
L 224.886172 173.404543 
L 234.276827 174.129775 
L 247.891164 175.390654 
L 252.187177 175.932797 
L 252.151133 175.944387 
L 251.345918 175.933041 
L 246.339761 175.595384 
L 233.330459 174.483724 
L 222.256091 173.349969 
L 221.602537 173.228364 
L 222.106585 173.220753 
L 226.110884 173.483716 
L 238.531133 174.540533 
L 251.072975 175.800377 
L 252.175268 175.976897 
L 251.634633 175.981494 
L 247.403071 175.691689 
L 234.485023 174.570365 
L 222.281814 173.322959 
L 221.486609 173.185539 
L 222.055909 173.184383 
L 226.551865 173.500739 
L 240.078636 174.691609 
L 251.692012 175.899741 
L 252.189453 175.995512 
L 251.580738 175.995188 
L 246.922971 175.662849 
L 233.201705 174.449474 
L 221.952586 173.271947 
L 221.590993 173.195804 
L 222.197617 173.196965 
L 226.847389 173.527935 
L 240.845733 174.761048 
L 251.979005 175.921725 
L 252.220979 175.977397 
L 251.604361 175.973119 
L 246.666088 175.616605 
L 231.840464 174.310505 
L 221.847264 173.257006 
L 221.830168 173.246716 
L 222.122573 173.240051 
L 225.485755 173.463874 
L 238.757693 174.591704 
L 252.100848 175.909068 
L 252.255244 175.943932 
L 251.489526 175.920904 
L 244.868701 175.410249 
L 226.530673 173.773463 
L 222.004359 173.289154 
L 223.55632 173.376071 
L 235.039793 174.326932 
L 252.275678 175.931536 
L 252.211224 175.933229 
L 249.560019 175.737214 
L 230.442515 174.077315 
L 221.483378 173.172487 
L 252.265402 175.952391 
L 248.068132 175.553307 
L 224.943635 173.493355 
L 221.753382 173.253557 
L 226.711102 173.750945 
L 247.687936 175.600153 
L 252.141509 175.92227 
L 250.036694 175.682125 
L 236.404829 174.427484 
L 221.997011 173.277754 
L 221.904598 173.284785 
L 222.624342 173.389241 
L 229.400596 174.061925 
L 246.693275 175.562208 
L 252.179637 175.918126 
L 251.941993 175.866586 
L 248.854847 175.5173 
L 236.457744 174.358484 
L 223.048732 173.294474 
L 221.890216 173.268301 
L 222.433173 173.369099 
L 226.761185 173.847275 
L 240.01048 175.072681 
L 251.437873 175.944113 
L 252.189094 175.943618 
L 251.720778 175.845655 
L 248.051118 175.418155 
L 236.317153 174.293875 
L 223.670673 173.276853 
L 221.694436 173.217128 
L 221.923494 173.278987 
L 224.208463 173.576418 
L 233.149364 174.486166 
L 247.120304 175.695974 
L 250.300994 175.919239 
L 250.300994 175.919239 
" clip-path="url(#pb47ed618ad)" style="fill: none; stroke: #ff0000; stroke-width: 1.5; stroke-linecap: square"/>
   </g>
   <g id="patch_4">
    <path d="M 57.6 234.048 
L 57.6 115.008 
" style="fill: none; stroke: #000000; stroke-width: 0.8; stroke-linejoin: miter; stroke-linecap: square"/>
   </g>
   <g id="patch_5">
    <path d="M 414.72 234.048 
L 414.72 115.008 
" style="fill: none; stroke: #000000; stroke-width: 0.8; stroke-linejoin: miter; stroke-linecap: square"/>
   </g>
   <g id="patch_6">
    <path d="M 57.6 234.048 
L 414.72 234.048 
" style="fill: none; stroke: #000000; stroke-width: 0.8; stroke-linejoin: miter; stroke-linecap: square"/>
   </g>
   <g id="patch_7">
    <path d="M 57.6 115.008 
L 414.72 115.008 
" style="fill: none; stroke: #000000; stroke-width: 0.8; stroke-linejoin: miter; stroke-linecap: square"/>
   </g>
   <g id="PathCollection_1">
    <defs>
     <path id="m8c4a2df983" d="M 0 3 
C 0.795609 3 1.55874 2.683901 2.12132 2.12132 
C 2.683901 1.55874 3 0.795609 3 0 
C 3 -0.795609 2.683901 -1.55874 2.12132 -2.12132 
C 1.55874 -2.683901 0.795609 -3 0 -3 
C -0.795609 -3 -1.55874 -2.683901 -2.12132 -2.12132 
C -2.683901 -1.55874 -3 -0.795609 -3 0 
C -3 0.795609 -2.683901 1.55874 -2.12132 2.12132 
C -1.55874 2.683901 -0.795609 3 0 3 
z
" style="stroke: #e9afaf; stroke-width: 3"/>
    </defs>
    <g clip-path="url(#pb47ed618ad)">
     <use xlink:href="#m8c4a2df983" x="339.911537" y="175.696776" style="fill: #e9afaf; stroke: #e9afaf; stroke-width: 3"/>
    </g>
   </g>
   <g id="PathCollection_2">
    <defs>
     <path id="mfcc999937b" d="M 0 3 
C 0.795609 3 1.55874 2.683901 2.12132 2.12132 
C 2.683901 1.55874 3 0.795609 3 0 
C 3 -0.795609 2.683901 -1.55874 2.12132 -2.12132 
C 1.55874 -2.683901 0.795609 -3 0 -3 
C -0.795609 -3 -1.55874 -2.683901 -2.12132 -2.12132 
C -2.683901 -1.55874 -3 -0.795609 -3 0 
C -3 0.795609 -2.683901 1.55874 -2.12132 2.12132 
C -1.55874 2.683901 -0.795609 3 0 3 
z
" style="stroke: #afe9af; stroke-width: 3"/>
    </defs>
    <g clip-path="url(#pb47ed618ad)">
     <use xlink:href="#mfcc999937b" x="134.886778" y="179.273741" style="fill: #afe9af; stroke: #afe9af; stroke-width: 3"/>
    </g>
   </g>
   <g id="legend_1">
    <g id="patch_8">
     <path d="M 288.791875 211.07675 
L 407.72 211.07675 
Q 409.72 211.07675 409.72 209.07675 
L 409.72 122.008 
Q 409.72 120.008 407.72 120.008 
L 288.791875 120.008 
Q 286.791875 120.008 286.791875 122.008 
L 286.791875 209.07675 
Q 286.791875 211.07675 288.791875 211.07675 
z
" style="fill: #ffffff; opacity: 0.8; stroke: #cccccc; stroke-linejoin: miter"/>
    </g>
    <g id="line2d_16">
     <path d="M 290.791875 128.106437 
L 300.791875 128.106437 
L 310.791875 128.106437 
" style="fill: none; stroke: #5599ff; stroke-width: 5; stroke-linecap: square"/>
    </g>
    <g id="text_15">
     <!-- Period of Capture -->
     <g transform="translate(318.791875 131.606437) scale(0.1 -0.1)">
      <defs>
       <path id="DejaVuSans-50" d="M 1259 4147 
L 1259 2394 
L 2053 2394 
Q 2494 2394 2734 2622 
Q 2975 2850 2975 3272 
Q 2975 3691 2734 3919 
Q 2494 4147 2053 4147 
L 1259 4147 
z
M 628 4666 
L 2053 4666 
Q 2838 4666 3239 4311 
Q 3641 3956 3641 3272 
Q 3641 2581 3239 2228 
Q 2838 1875 2053 1875 
L 1259 1875 
L 1259 0 
L 628 0 
L 628 4666 
z
" transform="scale(0.015625)"/>
       <path id="DejaVuSans-65" d="M 3597 1894 
L 3597 1613 
L 953 1613 
Q 991 1019 1311 708 
Q 1631 397 2203 397 
Q 2534 397 2845 478 
Q 3156 559 3463 722 
L 3463 178 
Q 3153 47 2828 -22 
Q 2503 -91 2169 -91 
Q 1331 -91 842 396 
Q 353 884 353 1716 
Q 353 2575 817 3079 
Q 1281 3584 2069 3584 
Q 2775 3584 3186 3129 
Q 3597 2675 3597 1894 
z
M 3022 2063 
Q 3016 2534 2758 2815 
Q 2500 3097 2075 3097 
Q 1594 3097 1305 2825 
Q 1016 2553 972 2059 
L 3022 2063 
z
" transform="scale(0.015625)"/>
       <path id="DejaVuSans-72" d="M 2631 2963 
Q 2534 3019 2420 3045 
Q 2306 3072 2169 3072 
Q 1681 3072 1420 2755 
Q 1159 2438 1159 1844 
L 1159 0 
L 581 0 
L 581 3500 
L 1159 3500 
L 1159 2956 
Q 1341 3275 1631 3429 
Q 1922 3584 2338 3584 
Q 2397 3584 2469 3576 
Q 2541 3569 2628 3553 
L 2631 2963 
z
" transform="scale(0.015625)"/>
       <path id="DejaVuSans-66" d="M 2375 4863 
L 2375 4384 
L 1825 4384 
Q 1516 4384 1395 4259 
Q 1275 4134 1275 3809 
L 1275 3500 
L 2222 3500 
L 2222 3053 
L 1275 3053 
L 1275 0 
L 697 0 
L 697 3053 
L 147 3053 
L 147 3500 
L 697 3500 
L 697 3744 
Q 697 4328 969 4595 
Q 1241 4863 1831 4863 
L 2375 4863 
z
" transform="scale(0.015625)"/>
       <path id="DejaVuSans-43" d="M 4122 4306 
L 4122 3641 
Q 3803 3938 3442 4084 
Q 3081 4231 2675 4231 
Q 1875 4231 1450 3742 
Q 1025 3253 1025 2328 
Q 1025 1406 1450 917 
Q 1875 428 2675 428 
Q 3081 428 3442 575 
Q 3803 722 4122 1019 
L 4122 359 
Q 3791 134 3420 21 
Q 3050 -91 2638 -91 
Q 1578 -91 968 557 
Q 359 1206 359 2328 
Q 359 3453 968 4101 
Q 1578 4750 2638 4750 
Q 3056 4750 3426 4639 
Q 3797 4528 4122 4306 
z
" transform="scale(0.015625)"/>
       <path id="DejaVuSans-61" d="M 2194 1759 
Q 1497 1759 1228 1600 
Q 959 1441 959 1056 
Q 959 750 1161 570 
Q 1363 391 1709 391 
Q 2188 391 2477 730 
Q 2766 1069 2766 1631 
L 2766 1759 
L 2194 1759 
z
M 3341 1997 
L 3341 0 
L 2766 0 
L 2766 531 
Q 2569 213 2275 61 
Q 1981 -91 1556 -91 
Q 1019 -91 701 211 
Q 384 513 384 1019 
Q 384 1609 779 1909 
Q 1175 2209 1959 2209 
L 2766 2209 
L 2766 2266 
Q 2766 2663 2505 2880 
Q 2244 3097 1772 3097 
Q 1472 3097 1187 3025 
Q 903 2953 641 2809 
L 641 3341 
Q 956 3463 1253 3523 
Q 1550 3584 1831 3584 
Q 2591 3584 2966 3190 
Q 3341 2797 3341 1997 
z
" transform="scale(0.015625)"/>
       <path id="DejaVuSans-70" d="M 1159 525 
L 1159 -1331 
L 581 -1331 
L 581 3500 
L 1159 3500 
L 1159 2969 
Q 1341 3281 1617 3432 
Q 1894 3584 2278 3584 
Q 2916 3584 3314 3078 
Q 3713 2572 3713 1747 
Q 3713 922 3314 415 
Q 2916 -91 2278 -91 
Q 1894 -91 1617 61 
Q 1341 213 1159 525 
z
M 3116 1747 
Q 3116 2381 2855 2742 
Q 2594 3103 2138 3103 
Q 1681 3103 1420 2742 
Q 1159 2381 1159 1747 
Q 1159 1113 1420 752 
Q 1681 391 2138 391 
Q 2594 391 2855 752 
Q 3116 1113 3116 1747 
z
" transform="scale(0.015625)"/>
       <path id="DejaVuSans-74" d="M 1172 4494 
L 1172 3500 
L 2356 3500 
L 2356 3053 
L 1172 3053 
L 1172 1153 
Q 1172 725 1289 603 
Q 1406 481 1766 481 
L 2356 481 
L 2356 0 
L 1766 0 
Q 1100 0 847 248 
Q 594 497 594 1153 
L 594 3053 
L 172 3053 
L 172 3500 
L 594 3500 
L 594 4494 
L 1172 4494 
z
" transform="scale(0.015625)"/>
       <path id="DejaVuSans-75" d="M 544 1381 
L 544 3500 
L 1119 3500 
L 1119 1403 
Q 1119 906 1312 657 
Q 1506 409 1894 409 
Q 2359 409 2629 706 
Q 2900 1003 2900 1516 
L 2900 3500 
L 3475 3500 
L 3475 0 
L 2900 0 
L 2900 538 
Q 2691 219 2414 64 
Q 2138 -91 1772 -91 
Q 1169 -91 856 284 
Q 544 659 544 1381 
z
M 1991 3584 
L 1991 3584 
z
" transform="scale(0.015625)"/>
      </defs>
      <use xlink:href="#DejaVuSans-50"/>
      <use xlink:href="#DejaVuSans-65" x="56.677734"/>
      <use xlink:href="#DejaVuSans-72" x="118.201172"/>
      <use xlink:href="#DejaVuSans-69" x="159.314453"/>
      <use xlink:href="#DejaVuSans-6f" x="187.097656"/>
      <use xlink:href="#DejaVuSans-64" x="248.279297"/>
      <use xlink:href="#DejaVuSans-20" x="311.755859"/>
      <use xlink:href="#DejaVuSans-6f" x="343.542969"/>
      <use xlink:href="#DejaVuSans-66" x="404.724609"/>
      <use xlink:href="#DejaVuSans-20" x="439.929688"/>
      <use xlink:href="#DejaVuSans-43" x="471.716797"/>
      <use xlink:href="#DejaVuSans-61" x="541.541016"/>
      <use xlink:href="#DejaVuSans-70" x="602.820312"/>
      <use xlink:href="#DejaVuSans-74" x="666.296875"/>
      <use xlink:href="#DejaVuSans-75" x="705.505859"/>
      <use xlink:href="#DejaVuSans-72" x="768.884766"/>
      <use xlink:href="#DejaVuSans-65" x="807.748047"/>
     </g>
    </g>
    <g id="line2d_17">
     <path d="M 290.791875 142.784562 
L 300.791875 142.784562 
L 310.791875 142.784562 
" style="fill: none; stroke: #808080; stroke-width: 2; stroke-linecap: square"/>
    </g>
    <g id="text_16">
     <!-- TCO Trajectory -->
     <g transform="translate(318.791875 146.284562) scale(0.1 -0.1)">
      <defs>
       <path id="DejaVuSans-54" d="M -19 4666 
L 3928 4666 
L 3928 4134 
L 2272 4134 
L 2272 0 
L 1638 0 
L 1638 4134 
L -19 4134 
L -19 4666 
z
" transform="scale(0.015625)"/>
       <path id="DejaVuSans-4f" d="M 2522 4238 
Q 1834 4238 1429 3725 
Q 1025 3213 1025 2328 
Q 1025 1447 1429 934 
Q 1834 422 2522 422 
Q 3209 422 3611 934 
Q 4013 1447 4013 2328 
Q 4013 3213 3611 3725 
Q 3209 4238 2522 4238 
z
M 2522 4750 
Q 3503 4750 4090 4092 
Q 4678 3434 4678 2328 
Q 4678 1225 4090 567 
Q 3503 -91 2522 -91 
Q 1538 -91 948 565 
Q 359 1222 359 2328 
Q 359 3434 948 4092 
Q 1538 4750 2522 4750 
z
" transform="scale(0.015625)"/>
       <path id="DejaVuSans-6a" d="M 603 3500 
L 1178 3500 
L 1178 -63 
Q 1178 -731 923 -1031 
Q 669 -1331 103 -1331 
L -116 -1331 
L -116 -844 
L 38 -844 
Q 366 -844 484 -692 
Q 603 -541 603 -63 
L 603 3500 
z
M 603 4863 
L 1178 4863 
L 1178 4134 
L 603 4134 
L 603 4863 
z
" transform="scale(0.015625)"/>
      </defs>
      <use xlink:href="#DejaVuSans-54"/>
      <use xlink:href="#DejaVuSans-43" x="55.208984"/>
      <use xlink:href="#DejaVuSans-4f" x="125.033203"/>
      <use xlink:href="#DejaVuSans-20" x="203.744141"/>
      <use xlink:href="#DejaVuSans-54" x="235.53125"/>
      <use xlink:href="#DejaVuSans-72" x="281.865234"/>
      <use xlink:href="#DejaVuSans-61" x="322.978516"/>
      <use xlink:href="#DejaVuSans-6a" x="384.257812"/>
      <use xlink:href="#DejaVuSans-65" x="412.041016"/>
      <use xlink:href="#DejaVuSans-63" x="473.564453"/>
      <use xlink:href="#DejaVuSans-74" x="528.544922"/>
      <use xlink:href="#DejaVuSans-6f" x="567.753906"/>
      <use xlink:href="#DejaVuSans-72" x="628.935547"/>
      <use xlink:href="#DejaVuSans-79" x="670.048828"/>
     </g>
    </g>
    <g id="PathCollection_3">
     <g>
      <use xlink:href="#m8c4a2df983" x="300.791875" y="158.337687" style="fill: #e9afaf; stroke: #e9afaf; stroke-width: 3"/>
     </g>
    </g>
    <g id="text_17">
     <!-- Start -->
     <g transform="translate(318.791875 160.962687) scale(0.1 -0.1)">
      <use xlink:href="#DejaVuSans-53"/>
      <use xlink:href="#DejaVuSans-74" x="63.476562"/>
      <use xlink:href="#DejaVuSans-61" x="102.685547"/>
      <use xlink:href="#DejaVuSans-72" x="163.964844"/>
      <use xlink:href="#DejaVuSans-74" x="205.078125"/>
     </g>
    </g>
    <g id="PathCollection_4">
     <g>
      <use xlink:href="#mfcc999937b" x="300.791875" y="173.015812" style="fill: #afe9af; stroke: #afe9af; stroke-width: 3"/>
     </g>
    </g>
    <g id="text_18">
     <!-- End -->
     <g transform="translate(318.791875 175.640812) scale(0.1 -0.1)">
      <defs>
       <path id="DejaVuSans-45" d="M 628 4666 
L 3578 4666 
L 3578 4134 
L 1259 4134 
L 1259 2753 
L 3481 2753 
L 3481 2222 
L 1259 2222 
L 1259 531 
L 3634 531 
L 3634 0 
L 628 0 
L 628 4666 
z
" transform="scale(0.015625)"/>
      </defs>
      <use xlink:href="#DejaVuSans-45"/>
      <use xlink:href="#DejaVuSans-6e" x="63.183594"/>
      <use xlink:href="#DejaVuSans-64" x="126.5625"/>
     </g>
    </g>
    <g id="line2d_18">
     <path d="M 290.791875 186.818937 
L 300.791875 186.818937 
L 310.791875 186.818937 
" style="fill: none; stroke: #ff0000; stroke-width: 1.5; stroke-linecap: square"/>
    </g>
    <g id="text_19">
     <!-- Moon Orbit -->
     <g transform="translate(318.791875 190.318937) scale(0.1 -0.1)">
      <defs>
       <path id="DejaVuSans-4d" d="M 628 4666 
L 1569 4666 
L 2759 1491 
L 3956 4666 
L 4897 4666 
L 4897 0 
L 4281 0 
L 4281 4097 
L 3078 897 
L 2444 897 
L 1241 4097 
L 1241 0 
L 628 0 
L 628 4666 
z
" transform="scale(0.015625)"/>
       <path id="DejaVuSans-62" d="M 3116 1747 
Q 3116 2381 2855 2742 
Q 2594 3103 2138 3103 
Q 1681 3103 1420 2742 
Q 1159 2381 1159 1747 
Q 1159 1113 1420 752 
Q 1681 391 2138 391 
Q 2594 391 2855 752 
Q 3116 1113 3116 1747 
z
M 1159 2969 
Q 1341 3281 1617 3432 
Q 1894 3584 2278 3584 
Q 2916 3584 3314 3078 
Q 3713 2572 3713 1747 
Q 3713 922 3314 415 
Q 2916 -91 2278 -91 
Q 1894 -91 1617 61 
Q 1341 213 1159 525 
L 1159 0 
L 581 0 
L 581 4863 
L 1159 4863 
L 1159 2969 
z
" transform="scale(0.015625)"/>
      </defs>
      <use xlink:href="#DejaVuSans-4d"/>
      <use xlink:href="#DejaVuSans-6f" x="86.279297"/>
      <use xlink:href="#DejaVuSans-6f" x="147.460938"/>
      <use xlink:href="#DejaVuSans-6e" x="208.642578"/>
      <use xlink:href="#DejaVuSans-20" x="272.021484"/>
      <use xlink:href="#DejaVuSans-4f" x="303.808594"/>
      <use xlink:href="#DejaVuSans-72" x="382.519531"/>
      <use xlink:href="#DejaVuSans-62" x="423.632812"/>
      <use xlink:href="#DejaVuSans-69" x="487.109375"/>
      <use xlink:href="#DejaVuSans-74" x="514.892578"/>
     </g>
    </g>
    <g id="patch_9">
     <path d="M 290.791875 204.997062 
L 310.791875 204.997062 
L 310.791875 197.997062 
L 290.791875 197.997062 
z
" style="fill: #1f77b4; opacity: 0.1"/>
    </g>
    <g id="text_20">
     <!-- Earth Hill Sphere -->
     <g transform="translate(318.791875 204.997062) scale(0.1 -0.1)">
      <defs>
       <path id="DejaVuSans-68" d="M 3513 2113 
L 3513 0 
L 2938 0 
L 2938 2094 
Q 2938 2591 2744 2837 
Q 2550 3084 2163 3084 
Q 1697 3084 1428 2787 
Q 1159 2491 1159 1978 
L 1159 0 
L 581 0 
L 581 4863 
L 1159 4863 
L 1159 2956 
Q 1366 3272 1645 3428 
Q 1925 3584 2291 3584 
Q 2894 3584 3203 3211 
Q 3513 2838 3513 2113 
z
" transform="scale(0.015625)"/>
       <path id="DejaVuSans-48" d="M 628 4666 
L 1259 4666 
L 1259 2753 
L 3553 2753 
L 3553 4666 
L 4184 4666 
L 4184 0 
L 3553 0 
L 3553 2222 
L 1259 2222 
L 1259 0 
L 628 0 
L 628 4666 
z
" transform="scale(0.015625)"/>
       <path id="DejaVuSans-6c" d="M 603 4863 
L 1178 4863 
L 1178 0 
L 603 0 
L 603 4863 
z
" transform="scale(0.015625)"/>
      </defs>
      <use xlink:href="#DejaVuSans-45"/>
      <use xlink:href="#DejaVuSans-61" x="63.183594"/>
      <use xlink:href="#DejaVuSans-72" x="124.462891"/>
      <use xlink:href="#DejaVuSans-74" x="165.576172"/>
      <use xlink:href="#DejaVuSans-68" x="204.785156"/>
      <use xlink:href="#DejaVuSans-20" x="268.164062"/>
      <use xlink:href="#DejaVuSans-48" x="299.951172"/>
      <use xlink:href="#DejaVuSans-69" x="375.146484"/>
      <use xlink:href="#DejaVuSans-6c" x="402.929688"/>
      <use xlink:href="#DejaVuSans-6c" x="430.712891"/>
      <use xlink:href="#DejaVuSans-20" x="458.496094"/>
      <use xlink:href="#DejaVuSans-53" x="490.283203"/>
      <use xlink:href="#DejaVuSans-70" x="553.759766"/>
      <use xlink:href="#DejaVuSans-68" x="617.236328"/>
      <use xlink:href="#DejaVuSans-65" x="680.615234"/>
      <use xlink:href="#DejaVuSans-72" x="742.138672"/>
      <use xlink:href="#DejaVuSans-65" x="781.001953"/>
     </g>
    </g>
   </g>
  </g>
 </g>
 <defs>
  <clipPath id="pb47ed618ad">
   <rect x="57.6" y="115.008" width="357.12" height="119.04"/>
  </clipPath>
 </defs>
</svg>
