<?xml version="1.0" encoding="utf-8" standalone="no"?>
<!DOCTYPE svg PUBLIC "-//W3C//DTD SVG 1.1//EN"
  "http://www.w3.org/Graphics/SVG/1.1/DTD/svg11.dtd">
<svg xmlns:xlink="http://www.w3.org/1999/xlink" width="460.8pt" height="345.6pt" viewBox="0 0 460.8 345.6" xmlns="http://www.w3.org/2000/svg" version="1.1">
 <metadata>
  <rdf:RDF xmlns:dc="http://purl.org/dc/elements/1.1/" xmlns:cc="http://creativecommons.org/ns#" xmlns:rdf="http://www.w3.org/1999/02/22-rdf-syntax-ns#">
   <cc:Work>
    <dc:type rdf:resource="http://purl.org/dc/dcmitype/StillImage"/>
    <dc:date>2023-06-27T15:06:33.460582</dc:date>
    <dc:format>image/svg+xml</dc:format>
    <dc:creator>
     <cc:Agent>
      <dc:title>Matplotlib v3.6.3, https://matplotlib.org/</dc:title>
     </cc:Agent>
    </dc:creator>
   </cc:Work>
  </rdf:RDF>
 </metadata>
 <defs>
  <style type="text/css">*{stroke-linejoin: round; stroke-linecap: butt}</style>
 </defs>
 <g id="figure_1">
  <g id="patch_1">
   <path d="M 0 345.6 
L 460.8 345.6 
L 460.8 0 
L 0 0 
z
" style="fill: #ffffff"/>
  </g>
  <g id="axes_1">
   <g id="patch_2">
    <path d="M 156.3264 307.584 
L 315.9936 307.584 
L 315.9936 41.472 
L 156.3264 41.472 
z
" style="fill: #ffffff"/>
   </g>
   <g id="patch_3">
    <path d="M 236.16 201.1392 
C 243.217373 201.1392 249.986644 198.335276 254.97696 193.34496 
C 259.967276 188.354644 262.7712 181.585373 262.7712 174.528 
C 262.7712 167.470627 259.967276 160.701356 254.97696 155.71104 
C 249.986644 150.720724 243.217373 147.9168 236.16 147.9168 
C 229.102627 147.9168 222.333356 150.720724 217.34304 155.71104 
C 212.352724 160.701356 209.5488 167.470627 209.5488 174.528 
C 209.5488 181.585373 212.352724 188.354644 217.34304 193.34496 
C 222.333356 198.335276 229.102627 201.1392 236.16 201.1392 
z
" clip-path="url(#p5e1c2cd1a5)" style="fill: #1f77b4; opacity: 0.1"/>
   </g>
   <g id="patch_4">
    <path d="M 236.16 174.647859 
C 236.191787 174.647859 236.222276 174.63523 236.244753 174.612753 
C 236.26723 174.590276 236.279859 174.559787 236.279859 174.528 
C 236.279859 174.496213 236.26723 174.465724 236.244753 174.443247 
C 236.222276 174.42077 236.191787 174.408141 236.16 174.408141 
C 236.128213 174.408141 236.097724 174.42077 236.075247 174.443247 
C 236.05277 174.465724 236.040141 174.496213 236.040141 174.528 
C 236.040141 174.559787 236.05277 174.590276 236.075247 174.612753 
C 236.097724 174.63523 236.128213 174.647859 236.16 174.647859 
z
" clip-path="url(#p5e1c2cd1a5)" style="fill: #0000ff; stroke: #0000ff; stroke-linejoin: miter"/>
   </g>
   <g id="matplotlib.axis_1">
    <g id="xtick_1">
     <g id="line2d_1">
      <defs>
       <path id="m9fc59e39ad" d="M 0 0 
L 0 3.5 
" style="stroke: #000000; stroke-width: 0.8"/>
      </defs>
      <g>
       <use xlink:href="#m9fc59e39ad" x="182.9376" y="307.584" style="stroke: #000000; stroke-width: 0.8"/>
      </g>
     </g>
     <g id="text_1">
      <!-- −0.02 -->
      <g transform="translate(167.614944 322.182437) scale(0.1 -0.1)">
       <defs>
        <path id="DejaVuSans-2212" d="M 678 2272 
L 4684 2272 
L 4684 1741 
L 678 1741 
L 678 2272 
z
" transform="scale(0.015625)"/>
        <path id="DejaVuSans-30" d="M 2034 4250 
Q 1547 4250 1301 3770 
Q 1056 3291 1056 2328 
Q 1056 1369 1301 889 
Q 1547 409 2034 409 
Q 2525 409 2770 889 
Q 3016 1369 3016 2328 
Q 3016 3291 2770 3770 
Q 2525 4250 2034 4250 
z
M 2034 4750 
Q 2819 4750 3233 4129 
Q 3647 3509 3647 2328 
Q 3647 1150 3233 529 
Q 2819 -91 2034 -91 
Q 1250 -91 836 529 
Q 422 1150 422 2328 
Q 422 3509 836 4129 
Q 1250 4750 2034 4750 
z
" transform="scale(0.015625)"/>
        <path id="DejaVuSans-2e" d="M 684 794 
L 1344 794 
L 1344 0 
L 684 0 
L 684 794 
z
" transform="scale(0.015625)"/>
        <path id="DejaVuSans-32" d="M 1228 531 
L 3431 531 
L 3431 0 
L 469 0 
L 469 531 
Q 828 903 1448 1529 
Q 2069 2156 2228 2338 
Q 2531 2678 2651 2914 
Q 2772 3150 2772 3378 
Q 2772 3750 2511 3984 
Q 2250 4219 1831 4219 
Q 1534 4219 1204 4116 
Q 875 4013 500 3803 
L 500 4441 
Q 881 4594 1212 4672 
Q 1544 4750 1819 4750 
Q 2544 4750 2975 4387 
Q 3406 4025 3406 3419 
Q 3406 3131 3298 2873 
Q 3191 2616 2906 2266 
Q 2828 2175 2409 1742 
Q 1991 1309 1228 531 
z
" transform="scale(0.015625)"/>
       </defs>
       <use xlink:href="#DejaVuSans-2212"/>
       <use xlink:href="#DejaVuSans-30" x="83.789062"/>
       <use xlink:href="#DejaVuSans-2e" x="147.412109"/>
       <use xlink:href="#DejaVuSans-30" x="179.199219"/>
       <use xlink:href="#DejaVuSans-32" x="242.822266"/>
      </g>
     </g>
    </g>
    <g id="xtick_2">
     <g id="line2d_2">
      <g>
       <use xlink:href="#m9fc59e39ad" x="236.16" y="307.584" style="stroke: #000000; stroke-width: 0.8"/>
      </g>
     </g>
     <g id="text_2">
      <!-- 0.00 -->
      <g transform="translate(225.027188 322.182437) scale(0.1 -0.1)">
       <use xlink:href="#DejaVuSans-30"/>
       <use xlink:href="#DejaVuSans-2e" x="63.623047"/>
       <use xlink:href="#DejaVuSans-30" x="95.410156"/>
       <use xlink:href="#DejaVuSans-30" x="159.033203"/>
      </g>
     </g>
    </g>
    <g id="xtick_3">
     <g id="line2d_3">
      <g>
       <use xlink:href="#m9fc59e39ad" x="289.3824" y="307.584" style="stroke: #000000; stroke-width: 0.8"/>
      </g>
     </g>
     <g id="text_3">
      <!-- 0.02 -->
      <g transform="translate(278.249588 322.182437) scale(0.1 -0.1)">
       <use xlink:href="#DejaVuSans-30"/>
       <use xlink:href="#DejaVuSans-2e" x="63.623047"/>
       <use xlink:href="#DejaVuSans-30" x="95.410156"/>
       <use xlink:href="#DejaVuSans-32" x="159.033203"/>
      </g>
     </g>
    </g>
    <g id="text_4">
     <!-- Synodic x (AU) -->
     <g transform="translate(199.367031 335.860562) scale(0.1 -0.1)">
      <defs>
       <path id="DejaVuSans-53" d="M 3425 4513 
L 3425 3897 
Q 3066 4069 2747 4153 
Q 2428 4238 2131 4238 
Q 1616 4238 1336 4038 
Q 1056 3838 1056 3469 
Q 1056 3159 1242 3001 
Q 1428 2844 1947 2747 
L 2328 2669 
Q 3034 2534 3370 2195 
Q 3706 1856 3706 1288 
Q 3706 609 3251 259 
Q 2797 -91 1919 -91 
Q 1588 -91 1214 -16 
Q 841 59 441 206 
L 441 856 
Q 825 641 1194 531 
Q 1563 422 1919 422 
Q 2459 422 2753 634 
Q 3047 847 3047 1241 
Q 3047 1584 2836 1778 
Q 2625 1972 2144 2069 
L 1759 2144 
Q 1053 2284 737 2584 
Q 422 2884 422 3419 
Q 422 4038 858 4394 
Q 1294 4750 2059 4750 
Q 2388 4750 2728 4690 
Q 3069 4631 3425 4513 
z
" transform="scale(0.015625)"/>
       <path id="DejaVuSans-79" d="M 2059 -325 
Q 1816 -950 1584 -1140 
Q 1353 -1331 966 -1331 
L 506 -1331 
L 506 -850 
L 844 -850 
Q 1081 -850 1212 -737 
Q 1344 -625 1503 -206 
L 1606 56 
L 191 3500 
L 800 3500 
L 1894 763 
L 2988 3500 
L 3597 3500 
L 2059 -325 
z
" transform="scale(0.015625)"/>
       <path id="DejaVuSans-6e" d="M 3513 2113 
L 3513 0 
L 2938 0 
L 2938 2094 
Q 2938 2591 2744 2837 
Q 2550 3084 2163 3084 
Q 1697 3084 1428 2787 
Q 1159 2491 1159 1978 
L 1159 0 
L 581 0 
L 581 3500 
L 1159 3500 
L 1159 2956 
Q 1366 3272 1645 3428 
Q 1925 3584 2291 3584 
Q 2894 3584 3203 3211 
Q 3513 2838 3513 2113 
z
" transform="scale(0.015625)"/>
       <path id="DejaVuSans-6f" d="M 1959 3097 
Q 1497 3097 1228 2736 
Q 959 2375 959 1747 
Q 959 1119 1226 758 
Q 1494 397 1959 397 
Q 2419 397 2687 759 
Q 2956 1122 2956 1747 
Q 2956 2369 2687 2733 
Q 2419 3097 1959 3097 
z
M 1959 3584 
Q 2709 3584 3137 3096 
Q 3566 2609 3566 1747 
Q 3566 888 3137 398 
Q 2709 -91 1959 -91 
Q 1206 -91 779 398 
Q 353 888 353 1747 
Q 353 2609 779 3096 
Q 1206 3584 1959 3584 
z
" transform="scale(0.015625)"/>
       <path id="DejaVuSans-64" d="M 2906 2969 
L 2906 4863 
L 3481 4863 
L 3481 0 
L 2906 0 
L 2906 525 
Q 2725 213 2448 61 
Q 2172 -91 1784 -91 
Q 1150 -91 751 415 
Q 353 922 353 1747 
Q 353 2572 751 3078 
Q 1150 3584 1784 3584 
Q 2172 3584 2448 3432 
Q 2725 3281 2906 2969 
z
M 947 1747 
Q 947 1113 1208 752 
Q 1469 391 1925 391 
Q 2381 391 2643 752 
Q 2906 1113 2906 1747 
Q 2906 2381 2643 2742 
Q 2381 3103 1925 3103 
Q 1469 3103 1208 2742 
Q 947 2381 947 1747 
z
" transform="scale(0.015625)"/>
       <path id="DejaVuSans-69" d="M 603 3500 
L 1178 3500 
L 1178 0 
L 603 0 
L 603 3500 
z
M 603 4863 
L 1178 4863 
L 1178 4134 
L 603 4134 
L 603 4863 
z
" transform="scale(0.015625)"/>
       <path id="DejaVuSans-63" d="M 3122 3366 
L 3122 2828 
Q 2878 2963 2633 3030 
Q 2388 3097 2138 3097 
Q 1578 3097 1268 2742 
Q 959 2388 959 1747 
Q 959 1106 1268 751 
Q 1578 397 2138 397 
Q 2388 397 2633 464 
Q 2878 531 3122 666 
L 3122 134 
Q 2881 22 2623 -34 
Q 2366 -91 2075 -91 
Q 1284 -91 818 406 
Q 353 903 353 1747 
Q 353 2603 823 3093 
Q 1294 3584 2113 3584 
Q 2378 3584 2631 3529 
Q 2884 3475 3122 3366 
z
" transform="scale(0.015625)"/>
       <path id="DejaVuSans-20" transform="scale(0.015625)"/>
       <path id="DejaVuSans-78" d="M 3513 3500 
L 2247 1797 
L 3578 0 
L 2900 0 
L 1881 1375 
L 863 0 
L 184 0 
L 1544 1831 
L 300 3500 
L 978 3500 
L 1906 2253 
L 2834 3500 
L 3513 3500 
z
" transform="scale(0.015625)"/>
       <path id="DejaVuSans-28" d="M 1984 4856 
Q 1566 4138 1362 3434 
Q 1159 2731 1159 2009 
Q 1159 1288 1364 580 
Q 1569 -128 1984 -844 
L 1484 -844 
Q 1016 -109 783 600 
Q 550 1309 550 2009 
Q 550 2706 781 3412 
Q 1013 4119 1484 4856 
L 1984 4856 
z
" transform="scale(0.015625)"/>
       <path id="DejaVuSans-41" d="M 2188 4044 
L 1331 1722 
L 3047 1722 
L 2188 4044 
z
M 1831 4666 
L 2547 4666 
L 4325 0 
L 3669 0 
L 3244 1197 
L 1141 1197 
L 716 0 
L 50 0 
L 1831 4666 
z
" transform="scale(0.015625)"/>
       <path id="DejaVuSans-55" d="M 556 4666 
L 1191 4666 
L 1191 1831 
Q 1191 1081 1462 751 
Q 1734 422 2344 422 
Q 2950 422 3222 751 
Q 3494 1081 3494 1831 
L 3494 4666 
L 4128 4666 
L 4128 1753 
Q 4128 841 3676 375 
Q 3225 -91 2344 -91 
Q 1459 -91 1007 375 
Q 556 841 556 1753 
L 556 4666 
z
" transform="scale(0.015625)"/>
       <path id="DejaVuSans-29" d="M 513 4856 
L 1013 4856 
Q 1481 4119 1714 3412 
Q 1947 2706 1947 2009 
Q 1947 1309 1714 600 
Q 1481 -109 1013 -844 
L 513 -844 
Q 928 -128 1133 580 
Q 1338 1288 1338 2009 
Q 1338 2731 1133 3434 
Q 928 4138 513 4856 
z
" transform="scale(0.015625)"/>
      </defs>
      <use xlink:href="#DejaVuSans-53"/>
      <use xlink:href="#DejaVuSans-79" x="63.476562"/>
      <use xlink:href="#DejaVuSans-6e" x="122.65625"/>
      <use xlink:href="#DejaVuSans-6f" x="186.035156"/>
      <use xlink:href="#DejaVuSans-64" x="247.216797"/>
      <use xlink:href="#DejaVuSans-69" x="310.693359"/>
      <use xlink:href="#DejaVuSans-63" x="338.476562"/>
      <use xlink:href="#DejaVuSans-20" x="393.457031"/>
      <use xlink:href="#DejaVuSans-78" x="425.244141"/>
      <use xlink:href="#DejaVuSans-20" x="484.423828"/>
      <use xlink:href="#DejaVuSans-28" x="516.210938"/>
      <use xlink:href="#DejaVuSans-41" x="555.224609"/>
      <use xlink:href="#DejaVuSans-55" x="623.632812"/>
      <use xlink:href="#DejaVuSans-29" x="696.826172"/>
     </g>
    </g>
   </g>
   <g id="matplotlib.axis_2">
    <g id="ytick_1">
     <g id="line2d_4">
      <defs>
       <path id="m218d08eb9d" d="M 0 0 
L -3.5 0 
" style="stroke: #000000; stroke-width: 0.8"/>
      </defs>
      <g>
       <use xlink:href="#m218d08eb9d" x="156.3264" y="280.9728" style="stroke: #000000; stroke-width: 0.8"/>
      </g>
     </g>
     <g id="text_5">
      <!-- −0.04 -->
      <g transform="translate(118.681088 284.772019) scale(0.1 -0.1)">
       <defs>
        <path id="DejaVuSans-34" d="M 2419 4116 
L 825 1625 
L 2419 1625 
L 2419 4116 
z
M 2253 4666 
L 3047 4666 
L 3047 1625 
L 3713 1625 
L 3713 1100 
L 3047 1100 
L 3047 0 
L 2419 0 
L 2419 1100 
L 313 1100 
L 313 1709 
L 2253 4666 
z
" transform="scale(0.015625)"/>
       </defs>
       <use xlink:href="#DejaVuSans-2212"/>
       <use xlink:href="#DejaVuSans-30" x="83.789062"/>
       <use xlink:href="#DejaVuSans-2e" x="147.412109"/>
       <use xlink:href="#DejaVuSans-30" x="179.199219"/>
       <use xlink:href="#DejaVuSans-34" x="242.822266"/>
      </g>
     </g>
    </g>
    <g id="ytick_2">
     <g id="line2d_5">
      <g>
       <use xlink:href="#m218d08eb9d" x="156.3264" y="227.7504" style="stroke: #000000; stroke-width: 0.8"/>
      </g>
     </g>
     <g id="text_6">
      <!-- −0.02 -->
      <g transform="translate(118.681088 231.549619) scale(0.1 -0.1)">
       <use xlink:href="#DejaVuSans-2212"/>
       <use xlink:href="#DejaVuSans-30" x="83.789062"/>
       <use xlink:href="#DejaVuSans-2e" x="147.412109"/>
       <use xlink:href="#DejaVuSans-30" x="179.199219"/>
       <use xlink:href="#DejaVuSans-32" x="242.822266"/>
      </g>
     </g>
    </g>
    <g id="ytick_3">
     <g id="line2d_6">
      <g>
       <use xlink:href="#m218d08eb9d" x="156.3264" y="174.528" style="stroke: #000000; stroke-width: 0.8"/>
      </g>
     </g>
     <g id="text_7">
      <!-- 0.00 -->
      <g transform="translate(127.060775 178.327219) scale(0.1 -0.1)">
       <use xlink:href="#DejaVuSans-30"/>
       <use xlink:href="#DejaVuSans-2e" x="63.623047"/>
       <use xlink:href="#DejaVuSans-30" x="95.410156"/>
       <use xlink:href="#DejaVuSans-30" x="159.033203"/>
      </g>
     </g>
    </g>
    <g id="ytick_4">
     <g id="line2d_7">
      <g>
       <use xlink:href="#m218d08eb9d" x="156.3264" y="121.3056" style="stroke: #000000; stroke-width: 0.8"/>
      </g>
     </g>
     <g id="text_8">
      <!-- 0.02 -->
      <g transform="translate(127.060775 125.104819) scale(0.1 -0.1)">
       <use xlink:href="#DejaVuSans-30"/>
       <use xlink:href="#DejaVuSans-2e" x="63.623047"/>
       <use xlink:href="#DejaVuSans-30" x="95.410156"/>
       <use xlink:href="#DejaVuSans-32" x="159.033203"/>
      </g>
     </g>
    </g>
    <g id="ytick_5">
     <g id="line2d_8">
      <g>
       <use xlink:href="#m218d08eb9d" x="156.3264" y="68.0832" style="stroke: #000000; stroke-width: 0.8"/>
      </g>
     </g>
     <g id="text_9">
      <!-- 0.04 -->
      <g transform="translate(127.060775 71.882419) scale(0.1 -0.1)">
       <use xlink:href="#DejaVuSans-30"/>
       <use xlink:href="#DejaVuSans-2e" x="63.623047"/>
       <use xlink:href="#DejaVuSans-30" x="95.410156"/>
       <use xlink:href="#DejaVuSans-34" x="159.033203"/>
      </g>
     </g>
    </g>
    <g id="text_10">
     <!-- Synodic y (AU) -->
     <g transform="translate(112.6014 211.320969) rotate(-90) scale(0.1 -0.1)">
      <use xlink:href="#DejaVuSans-53"/>
      <use xlink:href="#DejaVuSans-79" x="63.476562"/>
      <use xlink:href="#DejaVuSans-6e" x="122.65625"/>
      <use xlink:href="#DejaVuSans-6f" x="186.035156"/>
      <use xlink:href="#DejaVuSans-64" x="247.216797"/>
      <use xlink:href="#DejaVuSans-69" x="310.693359"/>
      <use xlink:href="#DejaVuSans-63" x="338.476562"/>
      <use xlink:href="#DejaVuSans-20" x="393.457031"/>
      <use xlink:href="#DejaVuSans-79" x="425.244141"/>
      <use xlink:href="#DejaVuSans-20" x="484.423828"/>
      <use xlink:href="#DejaVuSans-28" x="516.210938"/>
      <use xlink:href="#DejaVuSans-41" x="555.224609"/>
      <use xlink:href="#DejaVuSans-55" x="623.632812"/>
      <use xlink:href="#DejaVuSans-29" x="696.826172"/>
     </g>
    </g>
   </g>
   <g id="line2d_9">
    <path d="M 278.348263 198.456748 
L 275.943924 201.604226 
L 273.528395 204.405494 
L 271.023035 206.975497 
L 268.39075 209.357799 
L 265.643336 211.541627 
L 262.845251 213.481202 
L 260.015937 215.171807 
L 257.223569 216.583885 
L 254.485401 217.721563 
L 251.862449 218.574039 
L 249.359911 219.158332 
L 246.929994 219.499048 
L 244.570801 219.607316 
L 242.233604 219.494426 
L 239.873284 219.158209 
L 237.495865 218.595394 
L 235.112141 217.804066 
L 232.737429 216.781866 
L 230.432608 215.549892 
L 228.21432 214.114386 
L 226.100022 212.479578 
L 224.143135 210.68285 
L 222.352116 208.733718 
L 220.730645 206.64002 
L 219.249701 204.364595 
L 217.888579 201.860534 
L 216.660485 199.126648 
L 215.600816 196.224935 
L 214.722306 193.175578 
L 214.054051 190.06292 
L 213.606108 186.917806 
L 213.391238 183.834023 
L 213.40445 180.843014 
L 213.636832 177.972523 
L 214.075135 175.246084 
L 214.719477 172.620563 
L 215.562541 170.11462 
L 216.590881 167.744559 
L 217.81823 165.468328 
L 219.234842 163.306194 
L 220.826541 161.279013 
L 222.575822 159.407461 
L 224.462992 157.710856 
L 226.467246 156.206149 
L 228.56765 154.907313 
L 230.743952 153.825126 
L 232.977149 152.967249 
L 235.192617 152.351395 
L 237.43082 151.955489 
L 239.678299 151.779461 
L 241.98036 151.824684 
L 244.268227 152.093104 
L 246.58875 152.591495 
L 248.930836 153.324604 
L 251.281921 154.292926 
L 253.679146 155.522754 
L 256.047747 156.987753 
L 258.366348 158.681393 
L 260.613735 160.597864 
L 262.770377 162.732039 
L 264.779788 165.030672 
L 266.673751 167.53166 
L 268.441841 170.230951 
L 270.107212 173.181164 
L 271.657637 176.384878 
L 273.109249 179.903996 
L 274.471968 183.80378 
L 275.749472 188.144293 
L 276.915547 192.904068 
L 277.879869 197.779987 
L 278.606369 202.605972 
L 279.096792 207.365144 
L 279.360665 212.117377 
L 279.402072 216.860673 
L 279.221081 221.794602 
L 278.801082 227.04658 
L 278.121073 232.723269 
L 277.192471 238.622193 
L 276.12188 244.024872 
L 274.939701 248.862447 
L 273.636083 253.276791 
L 272.170122 257.457846 
L 270.527359 261.469741 
L 268.646049 265.46995 
L 266.511331 269.485388 
L 264.146555 273.461245 
L 261.800846 276.977476 
L 259.577548 279.918338 
L 257.394525 282.440558 
L 255.224028 284.610894 
L 253.003675 286.515468 
L 250.701092 288.195092 
L 248.287361 289.681072 
L 245.741149 290.990022 
L 243.123741 292.087599 
L 240.610117 292.906583 
L 238.214866 293.456321 
L 235.939197 293.751964 
L 233.742392 293.816265 
L 231.546643 293.658768 
L 229.310697 293.272152 
L 227.030121 292.651323 
L 224.629601 291.766972 
L 222.079606 290.586073 
L 219.513483 289.149272 
L 217.068603 287.526497 
L 214.762811 285.729716 
L 212.568502 283.735031 
L 210.453201 281.50753 
L 208.383738 279.003236 
L 206.298677 276.125517 
L 204.170777 272.80257 
L 201.948877 268.911508 
L 199.712386 264.540488 
L 197.685545 260.092629 
L 195.937371 255.727358 
L 194.401978 251.295963 
L 193.059722 246.744741 
L 191.859796 241.879346 
L 190.81084 236.690392 
L 189.883548 230.964088 
L 189.088272 224.633257 
L 188.510731 218.262875 
L 188.200837 212.441888 
L 188.129923 206.980696 
L 188.283604 201.74208 
L 188.653163 196.658263 
L 189.244583 191.58775 
L 190.056166 186.542968 
L 191.096672 181.469837 
L 192.361813 176.402207 
L 193.803922 171.532251 
L 195.341538 167.108353 
L 196.953255 163.137704 
L 198.645959 159.54746 
L 200.4654 156.210045 
L 202.366533 153.179719 
L 204.40548 150.343831 
L 206.573183 147.708366 
L 208.856764 145.278363 
L 211.283843 143.020581 
L 213.793061 140.988197 
L 216.361732 139.192225 
L 218.875978 137.69948 
L 221.320539 136.49959 
L 223.735777 135.560997 
L 226.118644 134.876146 
L 228.466105 134.433009 
L 230.822476 134.214648 
L 233.183325 134.218001 
L 235.590958 134.444942 
L 238.037059 134.902103 
L 240.509761 135.594444 
L 242.946342 136.506398 
L 245.374339 137.653922 
L 247.681985 138.988743 
L 249.85424 140.498149 
L 251.881094 142.172997 
L 253.795776 144.043707 
L 255.591583 146.109976 
L 257.295274 148.414012 
L 258.893132 150.957488 
L 260.34331 153.682813 
L 261.661022 156.628726 
L 262.827042 159.780401 
L 263.802865 163.054199 
L 264.57438 166.417223 
L 265.117807 169.772201 
L 265.430816 173.087152 
L 265.514822 176.337297 
L 265.377151 179.504602 
L 265.013682 182.700083 
L 264.433494 185.844883 
L 263.615393 189.042222 
L 262.574692 192.206534 
L 261.320723 195.311921 
L 259.865409 198.330127 
L 258.222144 201.23004 
L 256.435874 203.93177 
L 254.590484 206.328484 
L 252.669322 208.463289 
L 250.719682 210.304285 
L 248.674264 211.930823 
L 246.536976 213.344243 
L 244.315226 214.548617 
L 241.975203 215.565457 
L 239.527217 216.385851 
L 237.031092 216.989807 
L 234.503741 217.376674 
L 231.962265 217.543776 
L 229.470073 217.488897 
L 227.039876 217.216641 
L 224.678577 216.731071 
L 222.341905 216.022716 
L 220.029362 215.089783 
L 217.650741 213.885987 
L 215.254155 212.422714 
L 212.802647 210.665803 
L 210.310211 208.604732 
L 207.838474 206.272303 
L 205.40918 203.672117 
L 203.085362 200.855921 
L 200.923819 197.886953 
L 198.9367 194.781274 
L 197.098155 191.491724 
L 195.382227 187.95885 
L 193.739352 184.0534 
L 192.181776 179.768811 
L 190.702208 175.042628 
L 189.32552 169.888759 
L 188.113457 164.478998 
L 187.113267 158.99879 
L 186.34625 153.558347 
L 185.829933 148.32691 
L 185.536121 143.086213 
L 185.453946 137.608703 
L 185.590987 131.603134 
L 185.9661 125.102301 
L 186.577611 118.39089 
L 187.391098 111.902746 
L 188.346449 106.029481 
L 189.423526 100.762857 
L 190.634011 95.938851 
L 192.068158 91.150301 
L 193.78065 86.22365 
L 195.740676 81.262708 
L 197.859705 76.493741 
L 200.042406 72.120443 
L 202.167571 68.348556 
L 204.223492 65.140486 
L 206.263227 62.363944 
L 208.376678 59.865183 
L 210.622875 57.554774 
L 213.055524 55.373353 
L 215.5874 53.401163 
L 218.124971 51.702373 
L 220.612407 50.300757 
L 223.001595 49.207595 
L 225.253507 48.417079 
L 227.443474 47.881886 
L 229.615135 47.580144 
L 231.849055 47.496266 
L 234.185331 47.631101 
L 236.654362 47.995975 
L 239.20144 48.598334 
L 241.729628 49.425306 
L 244.181887 50.460658 
L 246.543132 51.700417 
L 248.770624 53.120703 
L 250.934542 54.766418 
L 253.073351 56.674883 
L 255.290644 58.957754 
L 257.617408 61.678708 
L 260.007274 64.816013 
L 262.33879 68.239878 
L 264.522136 71.839705 
L 266.481168 75.494308 
L 268.231453 79.23181 
L 269.772111 83.045205 
L 271.192337 87.157831 
L 272.54327 91.761731 
L 273.824951 96.929571 
L 274.965482 102.45496 
L 275.866589 107.901479 
L 276.513135 113.151104 
L 276.903192 118.104802 
L 277.055398 122.814752 
L 276.984859 127.481889 
L 276.686853 132.31203 
L 276.149097 137.365542 
L 275.381153 142.479117 
L 274.418717 147.409988 
L 273.302062 151.991344 
L 272.047461 156.205046 
L 270.693773 159.984352 
L 269.240182 163.398704 
L 267.675723 166.517645 
L 265.980459 169.407774 
L 264.126345 172.128198 
L 262.159788 174.625496 
L 260.052534 176.944627 
L 257.859341 179.026515 
L 255.648566 180.82232 
L 253.388958 182.37086 
L 251.156491 183.634103 
L 248.914843 184.647991 
L 246.683369 185.411297 
L 244.484115 185.926394 
L 242.341663 186.200304 
L 240.282327 186.245669 
L 238.257221 186.070523 
L 236.367488 185.692284 
L 234.494264 185.086585 
L 232.744837 184.286328 
L 231.075739 183.274832 
L 229.520302 182.063561 
L 228.109153 180.674699 
L 226.865375 179.139709 
L 225.76118 177.42474 
L 224.821883 175.559137 
L 224.038477 173.502182 
L 223.439967 171.286796 
L 223.045848 168.948039 
L 222.868445 166.519707 
L 222.915682 164.032976 
L 223.182915 161.581321 
L 223.67293 159.119888 
L 224.388474 156.671564 
L 225.30788 154.311435 
L 226.449301 151.997511 
L 227.783167 149.796127 
L 229.299655 147.715551 
L 231.025479 145.724997 
L 232.916217 143.882069 
L 234.957386 142.200404 
L 237.091154 140.725852 
L 239.302229 139.468248 
L 241.535587 138.456029 
L 243.783394 137.6823 
L 246.08844 137.126888 
L 248.448513 136.789651 
L 250.860835 136.668454 
L 253.373644 136.763766 
L 255.985086 137.083664 
L 258.744563 137.647585 
L 261.592728 138.456348 
L 264.572282 139.536463 
L 267.558779 140.855116 
L 270.533462 142.410245 
L 273.426822 144.170816 
L 276.020946 145.974554 
L 276.020946 145.974554 
" clip-path="url(#p5e1c2cd1a5)" style="fill: none; stroke: #5599ff; stroke-width: 5; stroke-linecap: square"/>
   </g>
   <g id="line2d_10">
    <path d="M 299.895197 -1 
L 297.280285 5.966926 
L 294.740856 12.112861 
L 292.26794 17.521406 
L 289.761348 22.468978 
L 287.153377 27.12266 
L 284.415129 31.55684 
L 281.481324 35.883209 
L 278.410246 40.018443 
L 275.229762 43.933714 
L 272.090443 47.452085 
L 269.204149 50.364126 
L 266.478516 52.804595 
L 263.820875 54.887411 
L 261.185106 56.674164 
L 258.489312 58.235293 
L 255.697929 59.593455 
L 252.865194 60.726829 
L 249.968891 61.648317 
L 247.116701 62.326957 
L 244.410862 62.747803 
L 241.932438 62.914485 
L 239.589917 62.852175 
L 237.294246 62.568419 
L 235.000263 62.061353 
L 232.633639 61.30864 
L 230.199772 60.299705 
L 227.677486 59.009831 
L 225.159414 57.471468 
L 222.741306 55.736027 
L 220.541562 53.888606 
L 218.533079 51.910251 
L 216.648474 49.738671 
L 214.773355 47.232912 
L 212.862657 44.299384 
L 210.908809 40.881135 
L 208.983515 37.061733 
L 207.207074 33.046017 
L 205.740441 29.187199 
L 204.581095 25.509842 
L 203.628605 21.733739 
L 202.812594 17.561243 
L 202.13057 12.891276 
L 201.606166 7.753153 
L 201.296012 2.572542 
L 201.226972 -1 
M 282.476715 -1 
L 285.248101 5.277908 
L 287.931623 11.90538 
L 290.38232 18.547702 
L 292.497276 24.914701 
L 294.304226 31.050018 
L 295.931689 37.362496 
L 297.484847 44.297663 
L 298.950529 51.874388 
L 300.309191 60.085036 
L 301.47908 68.523375 
L 302.38675 76.660369 
L 303.01591 84.257373 
L 303.384549 91.387705 
L 303.518912 98.339314 
L 303.432665 105.497892 
L 303.118597 113.045758 
L 302.564995 120.954182 
L 301.786319 128.892579 
L 300.816061 136.527859 
L 299.702643 143.550095 
L 298.479667 149.868921 
L 297.130834 155.680589 
L 295.606238 161.260448 
L 293.864747 166.778479 
L 291.912953 172.221487 
L 289.760781 177.564031 
L 287.452447 182.698745 
L 285.074842 187.455555 
L 282.648744 191.820455 
L 280.22599 195.724976 
L 277.858848 199.128427 
L 275.476759 202.172894 
L 273.043152 204.92844 
L 270.521081 207.453494 
L 267.874479 209.790608 
L 265.115967 211.928357 
L 262.310465 213.821148 
L 259.477411 215.463813 
L 256.684826 216.827206 
L 253.949382 217.915043 
L 251.331019 218.717293 
L 248.833749 219.251441 
L 246.409051 219.542036 
L 244.054739 219.601284 
L 241.722406 219.440495 
L 239.367677 219.057318 
L 236.997483 218.448881 
L 234.62351 217.613222 
L 232.261732 216.547691 
L 229.973159 215.273813 
L 227.774616 213.797437 
L 225.721322 212.155146 
L 223.788374 210.32243 
L 222.023366 208.337485 
L 220.429039 206.208165 
L 218.97616 203.897279 
L 217.644388 201.358349 
L 216.447346 198.591442 
L 215.420714 195.660213 
L 214.578271 192.585546 
L 213.949309 189.452652 
L 213.55014 186.355211 
L 213.376511 183.263021 
L 213.433163 180.268668 
L 213.710611 177.399777 
L 214.194864 174.6796 
L 214.886246 172.064901 
L 215.77625 169.5742 
L 216.849951 167.223516 
L 218.120908 164.971164 
L 219.578288 162.837565 
L 221.207065 160.843627 
L 222.989144 159.009825 
L 224.90449 157.355018 
L 226.932191 155.895527 
L 229.0514 154.644611 
L 231.242108 153.612333 
L 233.429051 152.82306 
L 235.650341 152.252221 
L 237.891504 151.901499 
L 240.139338 151.770349 
L 242.439392 151.860732 
L 244.723246 152.172912 
L 247.037877 152.714184 
L 249.37215 153.48859 
L 251.766978 154.521829 
L 254.149575 155.793493 
L 256.500146 157.29725 
L 258.797406 159.026872 
L 261.020565 160.97686 
L 263.150674 163.142329 
L 265.171308 165.518736 
L 267.069049 168.10164 
L 268.83407 170.88645 
L 270.46059 173.868298 
L 271.998827 177.161702 
L 273.433265 180.773028 
L 274.77477 184.76559 
L 276.026788 189.195394 
L 277.145977 193.969921 
L 278.049949 198.784755 
L 278.720983 203.544708 
L 279.166722 208.30287 
L 279.386187 213.05339 
L 279.383295 217.861628 
L 279.15387 222.859879 
L 278.683559 228.173306 
L 277.944064 233.966761 
L 276.97268 239.83226 
L 275.886328 245.068778 
L 274.680225 249.806666 
L 273.338407 254.18327 
L 271.834247 258.327662 
L 270.155056 262.304427 
L 268.215322 266.318762 
L 266.025545 270.338996 
L 263.66717 274.214092 
L 261.362448 277.587634 
L 259.153438 280.436189 
L 256.985823 282.874098 
L 254.799675 284.998447 
L 252.597243 286.83254 
L 250.280384 288.473002 
L 247.81845 289.940943 
L 245.226837 291.225091 
L 242.60608 292.275491 
L 240.093377 293.044948 
L 237.73704 293.537241 
L 235.462909 293.784609 
L 233.266713 293.801001 
L 231.070592 293.595405 
L 228.833287 293.160697 
L 226.513817 292.480475 
L 224.074839 291.530796 
L 221.526981 290.298096 
L 219.005374 288.833599 
L 216.573395 287.164007 
L 214.283554 285.319358 
L 212.106245 283.275164 
L 210.007774 280.996774 
L 207.923898 278.400032 
L 205.825781 275.421115 
L 203.685708 271.989846 
L 201.454494 267.986444 
L 199.26962 263.613708 
L 197.299152 259.177136 
L 195.586219 254.771657 
L 194.088744 250.300187 
L 192.768063 245.643769 
L 191.609369 240.735177 
L 190.588388 235.434397 
L 189.692585 229.595246 
L 188.941835 223.232797 
L 188.424358 216.996414 
L 188.166141 211.245525 
L 188.144003 205.858034 
L 188.341684 200.694769 
L 188.756755 195.612914 
L 189.393843 190.546506 
L 190.249982 185.509107 
L 191.333306 180.44864 
L 192.638933 175.402242 
L 194.097227 170.63325 
L 195.645325 166.31247 
L 197.262092 162.442381 
L 198.985012 158.888267 
L 200.800527 155.644935 
L 202.727214 152.649446 
L 204.790359 149.849593 
L 206.980197 147.251123 
L 209.283176 144.859005 
L 211.72654 142.640873 
L 214.24804 140.649747 
L 216.825037 138.897568 
L 219.344518 137.45018 
L 221.792813 136.296679 
L 224.163651 135.420421 
L 226.501146 134.788376 
L 228.850312 134.382063 
L 231.20775 134.200159 
L 233.56882 134.239294 
L 235.97555 134.501779 
L 238.419203 134.993971 
L 240.887379 135.720664 
L 243.316908 136.665672 
L 245.734687 137.845881 
L 248.02915 139.212361 
L 250.185706 140.753059 
L 252.195186 142.459107 
L 254.091238 144.361238 
L 255.867521 146.458468 
L 257.550414 148.792859 
L 259.126039 151.365344 
L 260.578731 154.171681 
L 261.868031 157.144214 
L 263.003243 160.318412 
L 263.946048 163.609422 
L 264.682014 166.984022 
L 265.18796 170.345038 
L 265.461936 173.661373 
L 265.506178 176.909274 
L 265.32922 180.071517 
L 264.926708 183.259172 
L 264.295418 186.454218 
L 263.437861 189.635904 
L 262.360626 192.780583 
L 261.073402 195.862154 
L 259.560324 198.904031 
L 257.888012 201.767624 
L 256.076045 204.428292 
L 254.207787 206.781357 
L 252.264992 208.870522 
L 250.294897 210.666263 
L 248.229616 212.247474 
L 246.073713 213.616293 
L 243.835398 214.777024 
L 241.481251 215.750159 
L 239.022106 216.526428 
L 236.518238 217.086274 
L 233.986624 217.428667 
L 231.444341 217.550444 
L 228.954402 217.449642 
L 226.528557 217.130488 
L 224.172493 216.597274 
L 221.841123 215.840451 
L 219.488617 214.837901 
L 217.115714 213.581078 
L 214.681703 212.036067 
L 212.196192 210.190191 
L 209.717255 208.072207 
L 207.263308 205.685628 
L 204.856742 203.033851 
L 202.560603 200.169019 
L 200.431061 197.154171 
L 198.479062 194.004064 
L 196.67705 190.670261 
L 194.99727 187.093697 
L 193.390006 183.146054 
L 191.845185 178.755607 
L 190.383963 173.924873 
L 189.049599 168.74278 
L 187.881964 163.314386 
L 186.928407 157.824288 
L 186.218796 152.453735 
L 185.749382 147.220688 
L 185.501801 141.977238 
L 185.46346 136.42258 
L 185.646252 130.343892 
L 186.068794 123.780326 
L 186.722055 117.093632 
L 187.566501 110.712215 
L 188.549088 104.947314 
L 189.650559 99.78463 
L 190.898659 94.993503 
L 192.368263 90.235695 
L 194.133761 85.283892 
L 196.144838 80.309777 
L 198.287717 75.594992 
L 200.465134 71.33257 
L 202.582302 67.666971 
L 204.629255 64.556979 
L 206.659181 61.86843 
L 208.792449 59.413045 
L 211.089599 57.112427 
L 213.536804 54.976224 
L 216.07835 53.051245 
L 218.621326 51.401762 
L 221.075533 50.069081 
L 223.430066 49.038844 
L 225.68334 48.293659 
L 227.876112 47.803747 
L 230.052338 47.546227 
L 232.291914 47.505127 
L 234.670426 47.685368 
L 237.17922 48.10148 
L 239.724208 48.750281 
L 242.245851 49.623433 
L 244.687757 50.705114 
L 247.000757 51.971167 
L 249.215229 53.43644 
L 251.366739 55.12895 
L 253.527272 57.117071 
L 255.766457 59.487464 
L 258.113415 62.300977 
L 260.517582 65.532876 
L 262.825794 69.006498 
L 264.952562 72.603685 
L 266.878717 76.298104 
L 268.570402 80.022452 
L 270.097208 83.929835 
L 271.500736 88.143401 
L 272.848442 92.91327 
L 274.104404 98.18644 
L 275.198938 103.743654 
L 276.048809 109.209417 
L 276.632866 114.40372 
L 276.96258 119.296997 
L 277.058368 124.012322 
L 276.93131 128.68663 
L 276.571885 133.590978 
L 275.977863 138.64617 
L 275.154537 143.751441 
L 274.151413 148.597262 
L 272.998482 153.08769 
L 271.732715 157.145465 
L 270.354449 160.83401 
L 268.852852 164.218481 
L 267.23812 167.306924 
L 265.490729 170.166142 
L 263.622495 172.802436 
L 261.606967 175.266899 
L 259.497072 177.502065 
L 257.308869 179.500881 
L 255.05716 181.254766 
L 252.814577 182.720625 
L 250.607743 183.905519 
L 248.399758 184.845789 
L 246.210318 185.54195 
L 244.061566 185.998347 
L 241.904763 186.228077 
L 239.834985 186.226276 
L 237.804021 185.999629 
L 235.915032 185.568077 
L 234.124783 184.937524 
L 232.38938 184.092791 
L 230.741225 183.038383 
L 229.213508 181.787931 
L 227.835646 180.365789 
L 226.62869 178.804878 
L 225.564132 177.071154 
L 224.634634 175.1211 
L 223.89966 173.058835 
L 223.347817 170.845433 
L 222.997443 168.514619 
L 222.860436 166.098789 
L 222.944765 163.62797 
L 223.255974 161.130093 
L 223.781317 158.691744 
L 224.529254 156.26785 
L 225.502496 153.878722 
L 226.674728 151.594031 
L 228.036364 149.422037 
L 229.612732 147.328338 
L 231.363641 145.37217 
L 233.275923 143.564425 
L 235.335159 141.919448 
L 237.483781 140.483159 
L 239.662506 139.287871 
L 241.85975 138.329663 
L 244.11603 137.587682 
L 246.429249 137.064151 
L 248.797131 136.758593 
L 251.216798 136.668628 
L 253.736498 136.795157 
L 256.406939 137.155276 
L 259.172459 137.754742 
L 262.079049 138.616527 
L 265.061004 139.736044 
L 268.04684 141.093379 
L 271.017909 142.687422 
L 273.905658 144.487239 
L 276.756241 146.526631 
L 279.619816 148.854982 
L 282.496322 151.486175 
L 285.437155 154.483388 
L 288.441354 157.865507 
L 291.556437 161.709784 
L 294.776294 166.037469 
L 298.087658 170.862825 
L 301.372137 176.045598 
L 304.466381 181.342021 
L 307.357511 186.728785 
L 310.127687 192.366858 
L 312.817756 198.355803 
L 315.468635 204.804288 
L 318.153375 211.928902 
L 320.864932 219.761952 
L 323.626787 228.427294 
L 326.2834 237.489271 
L 328.65344 246.34796 
L 330.726912 254.956319 
L 331.62869 259.041147 
L 331.62869 259.041147 
" clip-path="url(#p5e1c2cd1a5)" style="fill: none; stroke: #808080; stroke-width: 2; stroke-linecap: square"/>
   </g>
   <g id="line2d_11">
    <path d="M 240.973046 179.350404 
L 241.719414 178.344704 
L 242.276035 177.207491 
L 242.605239 176.042058 
L 242.725738 174.827715 
L 242.6292 173.60412 
L 242.315466 172.412678 
L 241.79297 171.294526 
L 241.078527 170.288437 
L 240.196529 169.428892 
L 239.177649 168.744486 
L 238.057243 168.256806 
L 236.873604 167.979802 
L 235.66625 167.9196 
L 234.474329 168.074711 
L 233.335209 168.436519 
L 232.228027 169.025973 
L 231.253584 169.804588 
L 230.441618 170.742443 
L 229.815277 171.80542 
L 229.390746 172.956637 
L 229.177158 174.15785 
L 229.176787 175.370769 
L 229.402087 176.619347 
L 229.847173 177.798932 
L 230.494009 178.872276 
L 231.31928 179.806374 
L 232.295305 180.572914 
L 233.390843 181.14855 
L 234.57177 181.515075 
L 235.801618 181.659582 
L 237.042041 181.574687 
L 238.194003 181.280105 
L 239.284688 180.781081 
L 240.27896 180.087284 
L 241.142236 179.21459 
L 241.841569 178.185594 
L 242.347112 177.029929 
L 242.624617 175.851346 
L 242.690284 174.628279 
L 242.53581 173.401139 
L 242.161384 172.212675 
L 241.57647 171.105775 
L 240.799852 170.120972 
L 239.858826 169.293998 
L 238.787629 168.65372 
L 237.625339 168.220723 
L 236.413555 168.00667 
L 235.194168 168.014369 
L 234.007438 168.238419 
L 232.890489 168.666219 
L 231.82349 169.318183 
L 230.903641 170.148733 
L 230.157135 171.125809 
L 229.603385 172.214347 
L 229.255043 173.377534 
L 229.118173 174.577944 
L 229.202231 175.841061 
L 229.513012 177.06281 
L 230.036632 178.204204 
L 230.753348 179.229739 
L 231.638342 180.108081 
L 232.662544 180.812606 
L 233.793432 181.321784 
L 234.995784 181.619454 
L 236.232364 181.695018 
L 237.464547 181.543632 
L 238.652904 181.166414 
L 239.705147 180.605519 
L 240.648486 179.859267 
L 241.450435 178.945251 
L 242.080515 177.887157 
L 242.511454 176.715006 
L 242.715521 175.532219 
L 242.706801 174.315474 
L 242.478286 173.10452 
L 242.031135 171.941626 
L 241.375722 170.869562 
L 240.532009 169.9291 
L 239.529036 169.156322 
L 238.40346 168.580155 
L 237.197289 168.220516 
L 235.955164 168.087371 
L 234.72162 168.180761 
L 233.53869 168.491655 
L 232.444098 169.003363 
L 231.470099 169.693191 
L 230.601684 170.584649 
L 229.920133 171.609184 
L 229.441365 172.729655 
L 229.174296 173.908299 
L 229.121369 175.107749 
L 229.293094 176.353073 
L 229.687681 177.541445 
L 230.288658 178.635905 
L 231.074233 179.603114 
L 232.017942 180.413917 
L 233.089334 181.04385 
L 234.254673 181.473571 
L 235.477674 181.689226 
L 236.720256 181.682738 
L 237.943293 181.452034 
L 239.107379 181.001226 
L 240.173604 180.340772 
L 241.061619 179.534525 
L 241.797021 178.574424 
L 242.352142 177.486069 
L 242.703025 176.300574 
L 242.830663 175.054404 
L 242.734128 173.855266 
L 242.421677 172.677181 
L 241.896741 171.56058 
L 241.1713 170.546191 
L 240.266367 169.672859 
L 239.211738 168.975052 
L 238.044852 168.480388 
L 236.808764 168.207568 
L 235.549464 168.165103 
L 234.31294 168.351054 
L 233.142449 168.753765 
L 232.076338 169.353371 
L 231.146629 170.12373 
L 230.378351 171.034429 
L 229.762286 172.111653 
L 229.35913 173.268907 
L 229.174437 174.466806 
L 229.207113 175.667357 
L 229.468673 176.894551 
L 229.949278 178.046222 
L 230.6294 179.087287 
L 231.484769 179.986688 
L 232.486963 180.717757 
L 233.603983 181.258597 
L 234.80084 181.592479 
L 236.040207 181.708238 
L 237.283154 181.600646 
L 238.489965 181.270726 
L 239.621044 180.725978 
L 240.637891 179.980508 
L 241.464929 179.105197 
L 242.127526 178.090615 
L 242.600718 176.965104 
L 242.864048 175.761824 
L 242.902603 174.51827 
L 242.724214 173.340254 
L 242.336003 172.200136 
L 241.744426 171.136076 
L 240.963635 170.185806 
L 240.01578 169.384855 
L 238.930795 168.764514 
L 237.745517 168.349738 
L 236.502066 168.157257 
L 235.245584 168.194226 
L 234.021557 168.457685 
L 232.873116 168.934935 
L 231.838682 169.604773 
L 230.950256 170.439325 
L 230.232467 171.406146 
L 229.678626 172.531527 
L 229.345074 173.723342 
L 229.234949 174.940471 
L 229.34436 176.143898 
L 229.663481 177.297498 
L 230.209633 178.421987 
L 230.949509 179.421013 
L 231.856602 180.265193 
L 232.900746 180.929882 
L 234.048642 181.39538 
L 235.264355 181.647216 
L 236.509854 181.676513 
L 237.745657 181.480396 
L 238.931624 181.062397 
L 240.027922 180.432789 
L 240.951349 179.654259 
L 241.72848 178.720797 
L 242.331861 177.658429 
L 242.738337 176.498246 
L 242.930096 175.275794 
L 242.895651 174.030245 
L 242.630712 172.803335 
L 242.170312 171.697176 
L 241.516367 170.682772 
L 240.68602 169.795013 
L 239.70337 169.065775 
L 238.59903 168.522336 
L 237.40925 168.185804 
L 236.174544 168.069702 
L 234.937868 168.178908 
L 233.74245 168.509144 
L 232.629495 169.047136 
L 231.636047 169.771487 
L 230.793238 170.654137 
L 230.125146 171.662221 
L 229.627623 172.822926 
L 229.353528 174.040492 
L 229.304766 175.272616 
L 229.475801 176.479305 
L 229.854855 177.62387 
L 230.425064 178.673487 
L 231.208702 179.644284 
L 232.152502 180.449685 
L 233.224803 181.066441 
L 234.391251 181.476524 
L 235.615271 181.667249 
L 236.858522 181.631521 
L 238.081408 181.368196 
L 239.243764 180.882521 
L 240.255631 180.2261 
L 241.14394 179.396212 
L 241.878017 178.415168 
L 242.430692 177.311095 
L 242.779596 176.117491 
L 242.908429 174.872419 
L 242.808069 173.617363 
L 242.477442 172.39576 
L 241.958494 171.308934 
L 241.25311 170.32728 
L 240.381657 169.484026 
L 239.370778 168.808327 
L 238.252567 168.323986 
L 237.063467 168.048327 
L 235.8429 167.991308 
L 234.63168 168.154935 
L 233.470276 168.533063 
L 232.397025 169.11163 
L 231.446443 169.869357 
L 230.647768 170.778867 
L 229.994701 171.86815 
L 229.554777 173.049648 
L 229.337637 174.280626 
L 229.344509 175.518794 
L 229.569054 176.723933 
L 229.998461 177.859082 
L 230.651798 178.942214 
L 231.48585 179.878224 
L 232.470489 180.639622 
L 233.572584 181.204538 
L 234.756714 181.556662 
L 235.985717 181.685218 
L 237.221134 181.585057 
L 238.423644 181.256889 
L 239.499447 180.740179 
L 240.476135 180.035424 
L 241.321208 179.159943 
L 242.004342 178.1371 
L 242.498686 176.99634 
L 242.782324 175.772867 
L 242.839814 174.506863 
L 242.678723 173.307987 
L 242.308815 172.149206 
L 241.738787 171.069317 
L 240.985019 170.105217 
L 240.071078 169.29016 
L 239.026766 168.652196 
L 237.886822 168.212918 
L 236.689388 167.986601 
L 235.474369 167.97973 
L 234.281786 168.190926 
L 233.150214 168.611215 
L 232.11535 169.224602 
L 231.208777 170.00891 
L 230.420158 170.99198 
L 229.827873 172.098216 
L 229.448023 173.287675 
L 229.288657 174.519024 
L 229.350017 175.75121 
L 229.625117 176.944921 
L 230.100598 178.063784 
L 230.796911 179.12495 
L 231.667401 180.034455 
L 232.680952 180.765374 
L 233.803462 181.296674 
L 234.998751 181.613181 
L 236.229257 181.705488 
L 237.456586 181.569907 
L 238.64198 181.20852 
L 239.746787 180.629368 
L 240.68712 179.890436 
L 241.489134 178.985706 
L 242.123591 177.938788 
L 242.56447 176.779231 
L 242.790401 175.542433 
L 242.792403 174.336332 
L 242.581625 173.135566 
L 242.159363 171.980322 
L 241.535243 170.911021 
L 240.727427 169.9662 
L 239.762132 169.180301 
L 238.67245 168.58167 
L 237.496603 168.191009 
L 236.275858 168.020456 
L 235.052365 168.073333 
L 233.867157 168.344488 
L 232.758446 168.821097 
L 231.760311 169.483743 
L 230.901753 170.307652 
L 230.172608 171.32034 
L 229.645089 172.443143 
L 229.331814 173.63667 
L 229.237977 174.860916 
L 229.361689 176.076548 
L 229.69451 177.246039 
L 230.254937 178.389086 
L 231.008372 179.406307 
L 231.92689 180.266608 
L 232.978539 180.944539 
L 234.128413 181.420565 
L 235.339622 181.681149 
L 236.57414 181.718712 
L 237.793501 181.531554 
L 238.959405 181.123782 
L 240.03425 180.505312 
L 240.93789 179.736957 
L 241.696973 178.811367 
L 242.284177 177.752388 
L 242.675318 176.589205 
L 242.850521 175.356361 
L 242.79565 174.093478 
L 242.52521 172.909139 
L 242.043823 171.777075 
L 241.361478 170.737825 
L 240.49704 169.830517 
L 239.478103 169.090423 
L 238.339976 168.54652 
L 237.123818 168.219432 
L 235.874165 168.120122 
L 234.636193 168.249491 
L 233.453145 168.598886 
L 232.364204 169.151314 
L 231.403009 169.883075 
L 230.596797 170.765525 
L 229.936493 171.825199 
L 229.487751 172.977575 
L 229.258841 174.182401 
L 229.250812 175.400075 
L 229.458169 176.592645 
L 229.896578 177.781879 
L 230.541635 178.866304 
L 231.368515 179.812716 
L 232.347853 180.592953 
L 233.446658 181.184327 
L 234.629224 181.569933 
L 235.858037 181.738832 
L 237.09464 181.686124 
L 238.300447 181.412923 
L 239.43749 180.926277 
L 240.469115 180.239064 
L 241.360652 179.369909 
L 242.048678 178.397766 
L 242.556829 177.308894 
L 242.864125 176.133437 
L 242.954064 174.905996 
L 242.815749 173.665326 
L 242.470445 172.516036 
L 241.920068 171.430788 
L 241.175721 170.448207 
L 240.256873 169.605743 
L 239.191504 168.937436 
L 238.015473 168.471459 
L 236.770967 168.227807 
L 235.504112 168.216553 
L 234.26204 168.437026 
L 233.089866 168.878078 
L 232.028058 169.519344 
L 231.110518 170.333186 
L 230.36353 171.28694 
L 229.805476 172.345089 
L 229.433215 173.534954 
L 229.287796 174.758167 
L 229.366106 175.974372 
L 229.658642 177.146076 
L 230.150525 178.239215 
L 230.862287 179.271787 
L 231.746306 180.153323 
L 232.771678 180.858549 
L 233.904449 181.367615 
L 235.108347 181.666317 
L 236.345529 181.746295 
L 237.577355 181.605182 
L 238.765212 181.246687 
L 239.871351 180.680602 
L 240.859744 179.922701 
L 241.696934 178.994565 
L 242.352888 177.923324 
L 242.78466 176.802507 
L 243.011817 175.613489 
L 243.021563 174.391596 
L 242.806899 173.175184 
L 242.367528 172.004913 
L 241.750555 170.976812 
L 240.951693 170.063365 
L 239.991546 169.298618 
L 238.898188 168.713291 
L 237.706751 168.332748 
L 236.458291 168.174944 
L 235.197888 168.248652 
L 233.972088 168.552344 
L 232.825984 169.074007 
L 231.800392 169.791986 
L 230.929548 170.676735 
L 230.239616 171.69313 
L 229.748119 172.802935 
L 229.464149 173.967063 
L 229.391025 175.212716 
L 229.544421 176.434418 
L 229.911411 177.594029 
L 230.473759 178.657863 
L 231.252096 179.642389 
L 232.192113 180.460462 
L 233.260828 181.089558 
L 234.422947 181.51281 
L 235.641472 181.719012 
L 236.87829 181.702709 
L 238.094794 181.464331 
L 239.252595 181.010343 
L 240.314341 180.353346 
L 241.24465 179.512086 
L 242.011119 178.511309 
L 242.585382 177.381438 
L 242.93164 176.220839 
L 243.068533 175.010031 
L 242.986931 173.786137 
L 242.684099 172.588328 
L 242.164289 171.456808 
L 241.439228 170.431631 
L 240.580602 169.593438 
L 239.578384 168.915443 
L 238.461907 168.423876 
L 237.266136 168.139523 
L 236.030657 168.076231 
L 234.798158 168.239582 
L 233.612405 168.625979 
L 232.515885 169.222352 
L 231.547357 170.006649 
L 230.739638 170.949118 
L 230.117956 172.014231 
L 229.699038 173.162973 
L 229.490998 174.355138 
L 229.500126 175.617194 
L 229.735777 176.840508 
L 230.182384 177.98618 
L 230.818845 179.020467 
L 231.619963 179.915058 
L 232.610185 180.680697 
L 233.716465 181.245701 
L 234.901946 181.595669 
L 236.128747 181.722076 
L 237.35847 181.62217 
L 238.552691 181.298982 
L 239.673515 180.761439 
L 240.684277 180.024518 
L 241.550412 179.109361 
L 242.240521 178.043258 
L 242.708399 176.920819 
L 242.974512 175.725031 
L 243.025995 174.492531 
L 242.856471 173.262675 
L 242.466761 172.076334 
L 241.865347 170.974495 
L 241.068536 169.99672 
L 240.155073 169.218009 
L 239.114073 168.610734 
L 237.977062 168.197226 
L 236.779832 167.993788 
L 235.561289 168.00973 
L 234.362028 168.246627 
L 233.222672 168.697891 
L 232.182063 169.348747 
L 231.275401 170.176709 
L 230.532529 171.152571 
L 229.976529 172.241868 
L 229.622804 173.406688 
L 229.478727 174.607633 
L 229.553495 175.871423 
L 229.852234 177.088677 
L 230.358427 178.220186 
L 231.049653 179.231942 
L 231.899114 180.095657 
L 232.876994 180.788882 
L 234.010171 181.31605 
L 235.212187 181.622681 
L 236.444234 181.701919 
L 237.667547 181.552844 
L 238.843865 181.180292 
L 239.935873 180.594826 
L 240.907744 179.812817 
L 241.725844 178.85659 
L 242.332781 177.812582 
L 242.750809 176.666253 
L 242.96195 175.451551 
L 242.953983 174.206441 
L 242.721577 172.971923 
L 242.26725 171.790658 
L 241.601985 170.705235 
L 240.794815 169.802147 
L 239.839333 169.052674 
L 238.764928 168.483243 
L 237.605831 168.114287 
L 236.39977 167.95928 
L 235.186457 168.024117 
L 234.005985 168.306851 
L 232.897229 168.797786 
L 231.896315 169.479909 
L 231.035228 170.329629 
L 230.340608 171.317804 
L 229.83281 172.411006 
L 229.514221 173.638771 
L 229.425807 174.89891 
L 229.565919 176.147561 
L 229.924756 177.343025 
L 230.485372 178.447271 
L 231.224932 179.427064 
L 232.116068 180.254662 
L 233.18421 180.937387 
L 234.348333 181.408664 
L 235.569134 181.656829 
L 236.807053 181.67676 
L 238.023003 181.469471 
L 239.178909 181.041793 
L 240.238173 180.406167 
L 241.166126 179.580575 
L 241.896721 178.641708 
L 242.454875 177.577567 
L 242.819143 176.417729 
L 242.972495 175.196282 
L 242.903491 173.951419 
L 242.607535 172.724649 
L 242.088082 171.559503 
L 241.400955 170.552197 
L 240.542652 169.675071 
L 239.538852 168.960198 
L 238.421773 168.434282 
L 237.228802 168.11707 
L 236.000695 168.020212 
L 234.779551 168.146718 
L 233.606776 168.490993 
L 232.521224 169.039405 
L 231.557651 169.771254 
L 230.745533 170.659992 
L 230.10825 171.674585 
L 229.662612 172.780899 
L 229.411138 174.008534 
L 229.388099 175.255707 
L 229.589368 176.480724 
L 230.003561 177.644255 
L 230.612894 178.710499 
L 231.394179 179.6481 
L 232.372083 180.467294 
L 233.474188 181.090895 
L 234.662133 181.501833 
L 235.896288 181.689922 
L 237.13682 181.651599 
L 238.344562 181.389576 
L 239.481704 180.912461 
L 240.512349 180.234437 
L 241.403009 179.375025 
L 242.12312 178.358948 
L 242.624591 177.275708 
L 242.92816 176.107858 
L 243.018615 174.889303 
L 242.886093 173.657702 
L 242.527255 172.453868 
L 241.982439 171.377894 
L 241.249466 170.40232 
L 240.347101 169.562874 
L 239.301883 168.892061 
L 238.147524 168.417038 
L 236.92358 168.157618 
L 235.673441 168.124737 
L 234.441888 168.319641 
L 233.272531 168.733917 
L 232.205471 169.35031 
L 231.275448 170.144149 
L 230.510604 171.0851 
L 229.931844 172.139012 
L 229.55271 173.269647 
L 229.376084 174.50566 
L 229.428551 175.743712 
L 229.702287 176.94352 
L 230.182984 178.067971 
L 230.850782 179.083899 
L 231.728903 180.004657 
L 232.75428 180.74605 
L 233.890671 181.287074 
L 235.099652 181.613341 
L 236.341703 181.717085 
L 237.577209 181.597028 
L 238.767354 181.258123 
L 239.874913 180.711233 
L 240.86492 179.972782 
L 241.705273 179.064415 
L 242.367292 178.012695 
L 242.826315 176.848851 
L 243.056118 175.671767 
L 243.072146 174.459669 
L 242.867184 173.249639 
L 242.440254 172.081264 
L 241.797653 170.995764 
L 241.003032 170.081488 
L 240.047738 169.312929 
L 238.959172 168.721063 
L 237.771886 168.3317 
L 236.526465 168.163372 
L 235.267627 168.225536 
L 234.041668 168.517448 
L 232.893596 169.027973 
L 231.864368 169.736396 
L 230.988651 170.614076 
L 230.293338 171.626623 
L 229.79691 172.736221 
L 229.509515 173.903787 
L 229.435487 175.156523 
L 229.59158 176.387862 
L 229.965215 177.55832 
L 230.537921 178.632746 
L 231.286497 179.580776 
L 232.234853 180.414375 
L 233.31352 181.056512 
L 234.485339 181.490184 
L 235.711648 181.704772 
L 236.953159 181.696001 
L 238.170802 181.465829 
L 239.326552 181.022282 
L 240.384214 180.379208 
L 241.310179 179.555966 
L 242.074129 178.577059 
L 242.649709 177.471724 
L 243.015183 176.273492 
L 243.152723 175.083108 
L 243.076647 173.87736 
L 242.783352 172.69322 
L 242.275421 171.569212 
L 241.562352 170.544544 
L 240.712997 169.700539 
L 239.716129 169.011678 
L 238.599785 168.505992 
L 237.398468 168.206538 
L 236.152257 168.129497 
L 234.905226 168.282435 
L 233.703161 168.663027 
L 232.590812 169.258582 
L 231.60902 170.046564 
L 230.792195 170.996084 
L 230.166493 172.070142 
L 229.748931 173.2282 
L 229.547383 174.428703 
L 229.561295 175.63122 
L 229.800972 176.86112 
L 230.255534 178.011536 
L 230.902867 179.048138 
L 231.716611 179.942306 
L 232.667378 180.671123 
L 233.781618 181.240652 
L 234.974601 181.593931 
L 236.20732 181.723458 
L 237.440683 181.627889 
L 238.636192 181.311889 
L 239.756627 180.785991 
L 240.766771 180.066438 
L 241.634178 179.174949 
L 242.329962 178.138394 
L 242.829598 176.988361 
L 243.113702 175.760591 
L 243.168773 174.494295 
L 243.00257 173.293744 
L 242.623475 172.133563 
L 242.037949 171.051678 
L 241.259214 170.085584 
L 240.307569 169.271174 
L 239.271378 168.669402 
L 238.133957 168.257475 
L 236.92993 168.054408 
L 235.698408 168.072597 
L 234.481645 168.31645 
L 233.323152 168.781319 
L 232.265366 169.453 
L 231.347115 170.308019 
L 230.601192 171.314778 
L 230.052435 172.435485 
L 229.716566 173.628591 
L 229.599933 174.851358 
L 229.700047 176.062211 
L 230.029505 177.284875 
L 230.569534 178.411244 
L 231.294808 179.407441 
L 232.175956 180.246114 
L 233.181028 180.906325 
L 234.276621 181.373207 
L 235.490271 181.645771 
L 236.726857 181.689577 
L 237.94731 181.506322 
L 239.113686 181.103526 
L 240.189702 180.494357 
L 241.141331 179.697491 
L 241.937501 178.736969 
L 242.550907 177.641957 
L 242.958897 176.446371 
L 243.144401 175.188286 
L 243.104836 173.972919 
L 242.851888 172.775976 
L 242.38902 171.6358 
L 241.726482 170.590496 
L 240.881474 169.676684 
L 239.878076 168.928173 
L 238.809094 168.398434 
L 237.656472 168.06422 
L 236.455396 167.940469 
L 235.244227 168.035484 
L 234.063227 168.350051 
L 232.952976 168.876806 
L 231.952517 169.599993 
L 231.09736 170.495742 
L 230.417516 171.532958 
L 229.93581 172.674812 
L 229.666705 173.880723 
L 229.615794 175.108601 
L 229.780001 176.317081 
L 230.174552 177.528963 
L 230.775852 178.635727 
L 231.556972 179.603323 
L 232.486689 180.404626 
L 233.531179 181.019449 
L 234.65538 181.434199 
L 235.886081 181.646462 
L 237.125476 181.626651 
L 238.334273 181.378846 
L 239.474899 180.912869 
L 240.511906 180.243972 
L 241.412413 179.39265 
L 242.146669 178.384522 
L 242.688766 177.250195 
L 243.017525 176.025001 
L 243.118108 174.812922 
L 243.004622 173.591418 
L 242.675872 172.399317 
L 242.137677 171.276247 
L 241.403273 170.26122 
L 240.493397 169.391062 
L 239.435971 168.698755 
L 238.329181 168.23198 
L 237.154474 167.967352 
L 235.948765 167.916166 
L 234.750908 168.082587 
L 233.600259 168.463248 
L 232.535159 169.04714 
L 231.591371 169.815835 
L 230.80056 170.744066 
L 230.188882 171.800659 
L 229.775811 172.949819 
L 229.573287 174.152714 
L 229.585304 175.369239 
L 229.807976 176.559833 
L 230.259051 177.747257 
L 230.91138 178.824835 
L 231.737746 179.759071 
L 232.706351 180.523192 
L 233.78252 181.097412 
L 234.930194 181.468783 
L 236.175694 181.633457 
L 237.418907 181.565546 
L 238.62016 181.270854 
L 239.742032 180.760976 
L 240.749735 180.052798 
L 241.611463 179.16816 
L 242.298793 178.133656 
L 242.787221 176.980502 
L 243.048853 175.807557 
L 243.100655 174.59379 
L 242.935681 173.376248 
L 242.55334 172.194203 
L 241.960266 171.088044 
L 241.170991 170.097787 
L 240.208232 169.261235 
L 239.163799 168.640977 
L 238.023031 168.212212 
L 236.82239 167.991884 
L 235.601373 167.98947 
L 234.400761 168.206392 
L 233.260795 168.635906 
L 232.219431 169.263461 
L 231.310776 170.067445 
L 230.563807 171.020236 
L 230.001384 172.089452 
L 229.639577 173.239337 
L 229.487298 174.432202 
L 229.555634 175.695788 
L 229.852787 176.920975 
L 230.364286 178.066814 
L 231.068629 179.096614 
L 231.938535 179.979086 
L 232.942347 180.689116 
L 234.045482 181.208171 
L 235.274263 181.535236 
L 236.530592 181.631324 
L 237.7729 181.497477 
L 238.961513 181.141318 
L 240.059361 180.576347 
L 241.032469 179.821295 
L 241.850318 178.899614 
L 242.48618 177.839111 
L 242.917504 176.671686 
L 243.121503 175.496164 
L 243.11401 174.290193 
L 242.889434 173.090218 
L 242.448222 171.934822 
L 241.797807 170.863844 
L 240.953462 169.917055 
L 239.996048 169.169048 
L 238.91298 168.595469 
L 237.737796 168.220119 
L 236.509243 168.059922 
L 235.26955 168.123491 
L 234.062242 168.410287 
L 232.929774 168.910497 
L 231.911272 169.605662 
L 231.04064 170.469913 
L 230.345207 171.471612 
L 229.844931 172.575159 
L 229.552133 173.742773 
L 229.471642 174.936108 
L 229.614446 176.182224 
L 229.980899 177.373545 
L 230.553656 178.472075 
L 231.30946 179.444446 
L 232.220265 180.262626 
L 233.254386 180.904402 
L 234.438569 181.371751 
L 235.680044 181.614415 
L 236.937004 181.628383 
L 238.168513 181.416678 
L 239.335533 180.988827 
L 240.401742 180.360229 
L 241.33418 179.551503 
L 242.103718 178.587874 
L 242.685454 177.498629 
L 243.059053 176.316673 
L 243.209158 175.078155 
L 243.135686 173.884711 
L 242.848229 172.711017 
L 242.349144 171.594229 
L 241.647242 170.572395 
L 240.758594 169.683408 
L 239.76611 168.996638 
L 238.654754 168.489528 
L 237.458242 168.185238 
L 236.215919 168.100285 
L 234.9712 168.242781 
L 233.769327 168.611148 
L 232.654671 169.193642 
L 231.667954 169.968836 
L 230.843804 170.907032 
L 230.208991 171.972349 
L 229.781511 173.125132 
L 229.57047 174.324303 
L 229.576622 175.529414 
L 229.811281 176.765727 
L 230.265047 177.925223 
L 230.916222 178.972127 
L 231.738216 179.876299 
L 232.7008 180.613475 
L 233.771197 181.165338 
L 234.976624 181.532482 
L 236.222533 181.673033 
L 237.468174 181.586301 
L 238.673902 181.27815 
L 239.802057 180.760599 
L 240.817756 180.051334 
L 241.689596 179.173154 
L 242.390246 178.153369 
L 242.89695 177.023193 
L 243.191958 175.817131 
L 243.262913 174.572406 
L 243.103261 173.32839 
L 242.737651 172.1845 
L 242.169037 171.114033 
L 241.40889 170.152887 
L 240.475251 169.336122 
L 239.393193 168.696751 
L 238.26044 168.28135 
L 237.056966 168.071966 
L 235.821425 168.082791 
L 234.596426 168.320116 
L 233.426599 168.780899 
L 232.356066 169.45197 
L 231.425566 170.310138 
L 230.669688 171.323353 
L 230.114662 172.452796 
L 229.777046 173.655573 
L 229.663449 174.887532 
L 229.771148 176.10581 
L 230.089342 177.270813 
L 230.634349 178.404135 
L 231.368237 179.404395 
L 232.260455 180.243733 
L 233.277753 180.901083 
L 234.385401 181.361846 
L 235.610185 181.625179 
L 236.855116 181.658096 
L 238.080311 181.463887 
L 239.24757 181.05191 
L 240.321016 180.437205 
L 241.267735 179.6401 
L 242.058413 178.68578 
L 242.667965 177.603786 
L 243.076135 176.427432 
L 243.268041 175.193141 
L 243.234659 173.939714 
L 242.973249 172.707535 
L 242.517177 171.594092 
L 241.867956 170.572038 
L 241.040666 169.675522 
L 240.056475 168.936821 
L 238.942748 168.38525 
L 237.798443 168.058104 
L 236.601215 167.938016 
L 235.388477 168.035628 
L 234.200731 168.354332 
L 233.080036 168.889109 
L 232.067952 169.625745 
L 231.203094 170.540701 
L 230.518558 171.601842 
L 230.039618 172.770083 
L 229.782084 174.001793 
L 229.751597 175.251606 
L 229.943913 176.475207 
L 230.346037 177.631694 
L 230.937883 178.685273 
L 231.740394 179.653008 
L 232.692121 180.445851 
L 233.756808 181.044393 
L 234.897391 181.43646 
L 236.077097 181.616423 
L 237.321909 181.577027 
L 238.530729 181.309401 
L 239.666205 180.82583 
L 240.693824 180.143886 
L 241.582345 179.286031 
L 242.304278 178.279253 
L 242.836445 177.154684 
L 243.160593 175.947123 
L 243.264033 174.694437 
L 243.140263 173.436791 
L 242.789506 172.215713 
L 242.25267 171.127646 
L 241.530078 170.145398 
L 240.640312 169.302253 
L 239.60793 168.628616 
L 238.463187 168.150876 
L 237.241566 167.890236 
L 236.049526 167.857089 
L 234.861283 168.038494 
L 233.715545 168.43385 
L 232.651445 169.034913 
L 231.706888 169.825386 
L 230.916641 170.780937 
L 230.310322 171.869803 
L 229.910497 173.054036 
L 229.731173 174.291399 
L 229.776933 175.5377 
L 230.042862 176.749314 
L 230.51528 177.885533 
L 231.173114 178.910469 
L 232.039062 179.838794 
L 233.045841 180.583067 
L 234.155018 181.124729 
L 235.32751 181.453101 
L 236.524952 181.564598 
L 237.710629 181.461847 
L 238.908143 181.131108 
L 240.017372 180.586832 
L 241.004732 179.848996 
L 241.840393 178.942098 
L 242.498583 177.894772 
L 242.957989 176.739444 
L 243.202283 175.511974 
L 243.220761 174.25117 
L 243.009046 172.998112 
L 242.597018 171.85352 
L 241.988166 170.790729 
L 241.197554 169.845258 
L 240.246759 169.050339 
L 239.163621 168.43557 
L 237.981683 168.025553 
L 236.739309 167.838627 
L 235.544612 167.877365 
L 234.370928 168.128749 
L 233.256338 168.588187 
L 232.238042 169.24377 
L 231.35087 170.076347 
L 230.625763 171.059932 
L 230.088297 172.162481 
L 229.757345 173.347065 
L 229.644033 174.573415 
L 229.751104 175.799762 
L 230.072802 176.984834 
L 230.595335 178.089819 
L 231.29785 179.080093 
L 232.20528 179.968857 
L 233.247598 180.670867 
L 234.385832 181.167807 
L 235.580025 181.449422 
L 236.790805 181.5129 
L 237.980564 181.362022 
L 239.171734 180.982109 
L 240.263542 180.392035 
L 241.2228 179.613633 
L 242.020594 178.673039 
L 242.632453 177.600175 
L 243.038594 176.428352 
L 243.224289 175.193938 
L 243.18039 173.935979 
L 242.923301 172.756613 
L 242.459674 171.629652 
L 241.79912 170.591841 
L 240.957977 169.679045 
L 239.959514 168.924845 
L 238.833783 168.35893 
L 237.616996 168.005434 
L 236.417605 167.881987 
L 235.211484 167.97201 
L 234.037934 168.275552 
L 232.935935 168.784939 
L 231.942483 169.484912 
L 231.091016 170.353162 
L 230.410015 171.361212 
L 229.921853 172.475574 
L 229.641931 173.65912 
L 229.578143 174.872595 
L 229.730666 176.076201 
L 230.092112 177.231184 
L 230.648028 178.301336 
L 231.42284 179.303255 
L 232.360652 180.142676 
L 233.426169 180.794724 
L 234.581125 181.242157 
L 235.785999 181.475404 
L 237.001545 181.492204 
L 238.190054 181.296964 
L 239.373226 180.873738 
L 240.450115 180.244955 
L 241.387757 179.433715 
L 242.157841 178.467385 
L 242.736871 177.376893 
L 243.106319 176.1962 
L 243.252845 174.961882 
L 243.168648 173.712758 
L 242.87328 172.549364 
L 242.37214 171.445117 
L 241.675357 170.436162 
L 240.799659 169.55795 
L 239.768783 168.843919 
L 238.613557 168.323844 
L 237.438355 168.032109 
L 236.221782 167.950752 
L 235.003704 168.086968 
L 233.82551 168.439726 
L 232.728077 168.999386 
L 231.749677 169.747927 
L 230.924034 170.659794 
L 230.278738 171.70324 
L 229.834142 172.841984 
L 229.602765 174.037017 
L 229.589179 175.248367 
L 229.790279 176.436733 
L 230.195866 177.5649 
L 230.827506 178.652997 
L 231.642689 179.601462 
L 232.610271 180.381662 
L 233.695249 180.971723 
L 234.860195 181.356831 
L 236.066647 181.529241 
L 237.27639 181.488027 
L 238.512892 181.219904 
L 239.672059 180.734296 
L 240.717458 180.050455 
L 241.617055 179.192766 
L 242.343643 178.189847 
L 242.875085 177.073736 
L 243.19449 175.879221 
L 243.290363 174.643276 
L 243.156822 173.404592 
L 242.793931 172.203103 
L 242.242571 171.133152 
L 241.50141 170.168272 
L 240.588046 169.342447 
L 239.526724 168.687693 
L 238.348569 168.232576 
L 237.158872 168.006766 
L 235.935355 167.994935 
L 234.718771 168.203545 
L 233.551759 168.630464 
L 232.47661 169.264286 
L 231.532799 170.084408 
L 230.754585 171.061947 
L 230.169046 172.161394 
L 229.794769 173.342771 
L 229.641323 174.563971 
L 229.709434 175.782981 
L 229.991715 176.95978 
L 230.473751 178.057797 
L 231.176869 179.095963 
L 232.050774 179.979107 
L 233.06218 180.682472 
L 234.175148 181.188221 
L 235.352348 181.485358 
L 236.556176 181.569492 
L 237.811612 181.430077 
L 239.014624 181.065886 
L 240.127064 180.492485 
L 241.114525 179.731125 
L 241.946987 178.807931 
L 242.599309 177.753071 
L 243.051569 176.599952 
L 243.289306 175.384469 
L 243.303695 174.144316 
L 243.091712 172.918369 
L 242.656338 171.746085 
L 242.044173 170.718033 
L 241.252175 169.807174 
L 240.299541 169.045343 
L 239.211492 168.462094 
L 238.019465 168.083455 
L 236.828235 167.932552 
L 235.613924 167.996306 
L 234.416675 168.279865 
L 233.278693 168.780036 
L 232.242156 169.484355 
L 231.34669 170.370859 
L 230.626719 171.408747 
L 230.109097 172.559994 
L 229.811411 173.781708 
L 229.741218 175.028885 
L 229.896233 176.257128 
L 230.265317 177.424967 
L 230.829967 178.495577 
L 231.566015 179.437838 
L 232.497721 180.265763 
L 233.552815 180.90123 
L 234.693578 181.32997 
L 235.882 181.544705 
L 237.080756 181.544592 
L 238.314374 181.317958 
L 239.480411 180.871069 
L 240.542803 180.221963 
L 241.469339 179.393851 
L 242.232205 178.414445 
L 242.808451 177.315252 
L 243.180397 176.130848 
L 243.335962 174.898128 
L 243.268911 173.655539 
L 242.979051 172.442318 
L 242.472375 171.297722 
L 241.761182 170.260248 
L 240.913104 169.407505 
L 239.918835 168.714301 
L 238.805285 168.207251 
L 237.604713 167.909016 
L 236.354503 167.837056 
L 235.162295 167.987511 
L 234.001837 168.353283 
L 232.913406 168.929094 
L 231.937134 169.701046 
L 231.110784 170.646248 
L 230.467255 171.733197 
L 230.032164 172.923068 
L 229.821896 174.171858 
L 229.842495 175.433157 
L 230.089588 176.661101 
L 230.549289 177.813059 
L 231.199829 178.851716 
L 232.013563 179.746366 
L 233.01471 180.508585 
L 234.123111 181.065097 
L 235.298665 181.40505 
L 236.50204 181.524992 
L 237.695636 181.427965 
L 238.902813 181.101052 
L 240.022464 180.559382 
L 241.02076 179.824161 
L 241.868096 178.921152 
L 242.539433 177.880079 
L 243.014668 176.734043 
L 243.279019 175.518913 
L 243.323403 174.272646 
L 243.144773 173.034524 
L 242.746394 171.844296 
L 242.138018 170.741255 
L 241.335951 169.763236 
L 240.415275 168.982139 
L 239.365165 168.373096 
L 238.215365 167.959588 
L 237.000158 167.760321 
L 235.757833 167.788211 
L 234.593481 168.029761 
L 233.47915 168.479309 
L 232.45255 169.12834 
L 231.550515 169.960645 
L 230.807207 170.952115 
L 230.252093 172.071063 
L 229.907883 173.279228 
L 229.788747 174.533509 
L 229.899094 175.788326 
L 230.233208 176.998338 
L 230.775805 178.121136 
L 231.503428 179.119527 
L 232.386393 179.963125 
L 233.390952 180.629167 
L 234.543711 181.123067 
L 235.74975 181.3935 
L 236.96807 181.43954 
L 238.160179 181.26711 
L 239.290777 180.887857 
L 240.379605 180.28328 
L 241.332645 179.491555 
L 242.122118 178.540557 
L 242.72511 177.461597 
L 243.123763 176.288909 
L 243.305554 175.059152 
L 243.263652 173.810864 
L 242.99732 172.583787 
L 242.512299 171.418039 
L 241.821105 170.353103 
L 240.991122 169.46914 
L 240.014927 168.739921 
L 238.920192 168.191597 
L 237.739401 167.84568 
L 236.50915 167.718033 
L 235.26923 167.81795 
L 234.061499 168.14736 
L 232.985638 168.665727 
L 232.012505 169.372561 
L 231.175733 170.24885 
L 230.505548 171.268858 
L 230.027243 172.400641 
L 229.75969 173.607 
L 229.714029 174.846887 
L 229.892717 176.077257 
L 230.289123 177.255232 
L 230.887799 178.340364 
L 231.665434 179.296737 
L 232.592395 180.094645 
L 233.634625 180.71166 
L 234.819485 181.150549 
L 236.048583 181.363294 
L 237.279652 181.350128 
L 238.473156 181.11861 
L 239.593206 180.682359 
L 240.60806 180.059871 
L 241.532613 179.228042 
L 242.283534 178.244383 
L 242.839391 177.141617 
L 243.184059 175.954892 
L 243.306814 174.721326 
L 243.202563 173.479576 
L 242.872191 172.269311 
L 242.322998 171.130536 
L 241.611384 170.150834 
L 240.733107 169.303572 
L 239.712182 168.618515 
L 238.578332 168.121599 
L 237.366448 167.833609 
L 236.115689 167.768916 
L 234.868209 167.934404 
L 233.728911 168.302354 
L 232.668497 168.867364 
L 231.722094 169.614114 
L 230.921723 170.52065 
L 230.294974 171.559006 
L 229.863809 172.696117 
L 229.643557 173.894978 
L 229.642156 175.116023 
L 229.859681 176.318689 
L 230.288244 177.463092 
L 230.912289 178.511739 
L 231.709318 179.43114 
L 232.651019 180.193197 
L 233.765819 180.803047 
L 234.963646 181.196507 
L 236.201528 181.365426 
L 237.437199 181.310071 
L 238.63072 181.038259 
L 239.745658 180.564227 
L 240.749836 179.907431 
L 241.657013 179.044543 
L 242.384592 178.036393 
L 242.911956 176.91692 
L 243.224163 175.722101 
L 243.311862 174.489401 
L 243.171323 173.257327 
L 242.804615 172.06501 
L 242.219931 170.951692 
L 241.47593 170.00243 
L 240.566938 169.191193 
L 239.517375 168.547497 
L 238.357632 168.097247 
L 237.123741 167.86125 
L 235.85656 167.853651 
L 234.665519 168.062717 
L 233.52345 168.479803 
L 232.468996 169.094602 
L 231.538528 169.889051 
L 230.764352 170.837929 
L 230.173155 171.909942 
L 229.784811 173.069152 
L 229.611622 174.276619 
L 229.657992 175.492107 
L 229.920497 176.675737 
L 230.388293 177.789518 
L 231.043795 178.798686 
L 231.863585 179.67285 
L 232.875949 180.421456 
L 234.002503 180.969376 
L 235.203067 181.302122 
L 236.43638 181.413184 
L 237.661697 181.303769 
L 238.84021 180.982211 
L 239.936213 180.463133 
L 240.965943 179.725311 
L 241.837567 178.819031 
L 242.525469 177.776511 
L 243.010087 176.632752 
L 243.277845 175.424603 
L 243.321021 174.190016 
L 243.137635 172.967475 
L 242.731443 171.795518 
L 242.11205 170.712272 
L 241.34039 169.799222 
L 240.409313 169.030225 
L 239.343221 168.433504 
L 238.172223 168.033974 
L 236.93206 167.851858 
L 235.730356 167.892587 
L 234.541366 168.146265 
L 233.405158 168.610562 
L 232.361912 169.274747 
L 231.449764 170.119459 
L 230.702526 171.117194 
L 230.147623 172.233538 
L 229.804501 173.429021 
L 229.683723 174.661336 
L 229.786789 175.887629 
L 230.106601 177.066599 
L 230.628419 178.160235 
L 231.331084 179.135111 
L 232.188371 179.963252 
L 233.227895 180.653967 
L 234.368139 181.138255 
L 235.569394 181.40528 
L 236.791763 181.45158 
L 237.99636 181.280649 
L 239.146368 180.902373 
L 240.260768 180.2974 
L 241.242176 179.504069 
L 242.060817 178.551413 
L 242.692656 177.472321 
L 243.119661 176.302471 
L 243.329875 175.079336 
L 243.31737 173.841315 
L 243.082135 172.62699 
L 242.629959 171.474497 
L 241.972378 170.42096 
L 241.126696 169.501925 
L 240.170123 168.783804 
L 239.089614 168.243188 
L 237.915143 167.902755 
L 236.681693 167.780734 
L 235.428958 167.889542 
L 234.263891 168.210231 
L 233.159968 168.739619 
L 232.156982 169.466409 
L 231.293138 170.37051 
L 230.602627 171.423168 
L 230.113177 172.587969 
L 229.843975 173.822721 
L 229.804326 175.081994 
L 229.993261 176.319952 
L 230.400109 177.493045 
L 231.005813 178.562214 
L 231.78471 179.494418 
L 232.706427 180.26346 
L 233.797493 180.877215 
L 234.969847 181.273832 
L 236.182675 181.447176 
L 237.396353 181.398352 
L 238.573382 181.134914 
L 239.679105 180.670086 
L 240.731688 179.983232 
L 241.638831 179.119558 
L 242.373886 178.109515 
L 242.915758 176.986936 
L 243.249177 175.788144 
L 243.364854 174.551073 
L 243.259546 173.314409 
L 242.936022 172.116768 
L 242.402973 170.995928 
L 241.674882 169.988106 
L 240.771886 169.127256 
L 239.775353 168.473834 
L 238.670637 168.004463 
L 237.488581 167.738777 
L 236.264144 167.691759 
L 235.036037 167.872693 
L 233.907044 168.256635 
L 232.849502 168.842667 
L 231.901 169.6186 
L 231.097758 170.564121 
L 230.472491 171.650656 
L 230.052061 172.841971 
L 229.855223 174.095639 
L 229.890893 175.365365 
L 230.157277 176.603866 
L 230.642081 177.765922 
L 231.323736 178.811073 
L 232.17336 179.705627 
L 233.157067 180.423789 
L 234.238236 180.947967 
L 235.443902 181.280181 
L 236.673514 181.38264 
L 237.88644 181.260133 
L 239.045329 180.923868 
L 240.116648 180.390358 
L 241.11748 179.63867 
L 241.959574 178.72016 
L 242.619196 177.666902 
L 243.078167 176.513718 
L 243.324014 175.297454 
L 243.350106 174.056268 
L 243.155771 172.828882 
L 242.746367 171.653789 
L 242.133264 170.568426 
L 241.333758 169.608316 
L 240.370871 168.8062 
L 239.273068 168.191162 
L 238.135684 167.802567 
L 236.939382 167.62149 
L 235.720061 167.659235 
L 234.51631 167.921118 
L 233.368616 168.405628 
L 232.370476 169.061787 
L 231.494375 169.894848 
L 230.773049 170.882917 
L 230.235613 171.996917 
L 229.905641 173.201073 
L 229.799248 174.454062 
L 229.92345 175.710887 
L 230.275136 176.925369 
L 230.840929 178.052974 
L 231.598029 179.053572 
L 232.51593 179.89371 
L 233.558708 180.548096 
L 234.687478 181.000192 
L 235.862673 181.242007 
L 237.111127 181.268981 
L 238.326452 181.069227 
L 239.470746 180.657215 
L 240.510863 180.05269 
L 241.418604 179.279432 
L 242.205609 178.312729 
L 242.798868 177.222858 
L 243.182857 176.045907 
L 243.347808 174.81939 
L 243.289726 173.581675 
L 243.010466 172.371373 
L 242.517842 171.226667 
L 241.825703 170.18452 
L 240.953934 169.279776 
L 239.928308 168.544164 
L 238.780168 168.00524 
L 237.609041 167.695827 
L 236.39494 167.597984 
L 235.175407 167.719709 
L 233.989825 168.062447 
L 232.87834 168.620516 
L 231.880615 169.380668 
L 231.074572 170.268233 
L 230.433695 171.293971 
L 229.982916 172.427522 
L 229.741481 173.633177 
L 229.721553 174.870955 
L 229.927015 176.098163 
L 230.352685 177.2714 
L 230.984137 178.348854 
L 231.798255 179.292663 
L 232.764537 180.071025 
L 233.846993 180.659771 
L 235.006376 181.043225 
L 236.202439 181.214299 
L 237.46141 181.165629 
L 238.67452 180.891034 
L 239.803297 180.407207 
L 240.81458 179.736334 
L 241.68079 178.904626 
L 242.411713 177.887336 
L 242.938191 176.760139 
L 243.247123 175.560596 
L 243.331365 174.327064 
L 243.189583 173.098176 
L 242.826213 171.912347 
L 242.25153 170.807224 
L 241.481762 169.819006 
L 240.539166 168.981597 
L 239.451997 168.325568 
L 238.316175 167.894137 
L 237.114011 167.667476 
L 235.882532 167.657398 
L 234.661325 167.869118 
L 233.491308 168.300546 
L 232.413295 168.941826 
L 231.466411 169.775193 
L 230.72281 170.71889 
L 230.155401 171.784596 
L 229.785317 172.939682 
L 229.627407 174.147456 
L 229.689327 175.368412 
L 229.970889 176.56172 
L 230.463747 177.686924 
L 231.1515 178.705762 
L 232.010281 179.583968 
L 233.009837 180.292917 
L 234.115038 180.810915 
L 235.287692 181.124021 
L 236.488466 181.226295 
L 237.743785 181.107593 
L 238.944717 180.766509 
L 240.052915 180.220793 
L 241.035354 179.493922 
L 241.864808 178.613579 
L 242.519931 177.610316 
L 243.0041 176.456998 
L 243.266097 175.242087 
L 243.300433 174.004722 
L 243.107559 172.78381 
L 242.693661 171.617564 
L 242.070611 170.543042 
L 241.25602 169.595609 
L 240.273348 168.808222 
L 239.210806 168.235473 
L 238.053076 167.855581 
L 236.834632 167.685458 
L 235.593759 167.73613 
L 234.371556 168.01163 
L 233.210538 168.508061 
L 232.152892 169.213013 
L 231.282454 170.054247 
L 230.570976 171.039143 
L 230.043849 172.137198 
L 229.720257 173.313206 
L 229.612235 174.52866 
L 229.724099 175.743332 
L 230.052244 176.916921 
L 230.585323 178.010693 
L 231.304766 178.989016 
L 232.185616 179.820742 
L 233.197629 180.480355 
L 234.306605 180.948849 
L 235.541826 181.222928 
L 236.799946 181.265491 
L 238.037479 181.079924 
L 238.037479 181.079924 
" clip-path="url(#p5e1c2cd1a5)" style="fill: none; stroke: #ff0000; stroke-width: 1.5; stroke-linecap: square"/>
   </g>
   <g id="patch_5">
    <path d="M 156.3264 307.584 
L 156.3264 41.472 
" style="fill: none; stroke: #000000; stroke-width: 0.8; stroke-linejoin: miter; stroke-linecap: square"/>
   </g>
   <g id="patch_6">
    <path d="M 315.9936 307.584 
L 315.9936 41.472 
" style="fill: none; stroke: #000000; stroke-width: 0.8; stroke-linejoin: miter; stroke-linecap: square"/>
   </g>
   <g id="patch_7">
    <path d="M 156.3264 307.584 
L 315.9936 307.584 
" style="fill: none; stroke: #000000; stroke-width: 0.8; stroke-linejoin: miter; stroke-linecap: square"/>
   </g>
   <g id="patch_8">
    <path d="M 156.3264 41.472 
L 315.9936 41.472 
" style="fill: none; stroke: #000000; stroke-width: 0.8; stroke-linejoin: miter; stroke-linecap: square"/>
   </g>
   <g id="PathCollection_1">
    <defs>
     <path id="m56d400157f" d="M 0 3 
C 0.795609 3 1.55874 2.683901 2.12132 2.12132 
C 2.683901 1.55874 3 0.795609 3 0 
C 3 -0.795609 2.683901 -1.55874 2.12132 -2.12132 
C 1.55874 -2.683901 0.795609 -3 0 -3 
C -0.795609 -3 -1.55874 -2.683901 -2.12132 -2.12132 
C -2.683901 -1.55874 -3 -0.795609 -3 0 
C -3 0.795609 -2.683901 1.55874 -2.12132 2.12132 
C -1.55874 2.683901 -0.795609 3 0 3 
z
" style="stroke: #e9afaf; stroke-width: 3"/>
    </defs>
    <g clip-path="url(#p5e1c2cd1a5)">
     <use xlink:href="#m56d400157f" x="278.348263" y="198.456748" style="fill: #e9afaf; stroke: #e9afaf; stroke-width: 3"/>
    </g>
   </g>
   <g id="PathCollection_2">
    <defs>
     <path id="md878be7ca8" d="M 0 3 
C 0.795609 3 1.55874 2.683901 2.12132 2.12132 
C 2.683901 1.55874 3 0.795609 3 0 
C 3 -0.795609 2.683901 -1.55874 2.12132 -2.12132 
C 1.55874 -2.683901 0.795609 -3 0 -3 
C -0.795609 -3 -1.55874 -2.683901 -2.12132 -2.12132 
C -2.683901 -1.55874 -3 -0.795609 -3 0 
C -3 0.795609 -2.683901 1.55874 -2.12132 2.12132 
C -1.55874 2.683901 -0.795609 3 0 3 
z
" style="stroke: #afe9af; stroke-width: 3"/>
    </defs>
    <g clip-path="url(#p5e1c2cd1a5)">
     <use xlink:href="#md878be7ca8" x="276.020946" y="145.974554" style="fill: #afe9af; stroke: #afe9af; stroke-width: 3"/>
    </g>
   </g>
   <g id="legend_1">
    <g id="patch_9">
     <path d="M 163.3264 302.584 
L 282.254525 302.584 
Q 284.254525 302.584 284.254525 300.584 
L 284.254525 198.837125 
Q 284.254525 196.837125 282.254525 196.837125 
L 163.3264 196.837125 
Q 161.3264 196.837125 161.3264 198.837125 
L 161.3264 300.584 
Q 161.3264 302.584 163.3264 302.584 
z
" style="fill: #ffffff; opacity: 0.8; stroke: #cccccc; stroke-linejoin: miter"/>
    </g>
    <g id="line2d_12">
     <path d="M 165.3264 204.935563 
L 175.3264 204.935563 
L 185.3264 204.935563 
" style="fill: none; stroke: #5599ff; stroke-width: 5; stroke-linecap: square"/>
    </g>
    <g id="text_11">
     <!-- Period of Capture -->
     <g transform="translate(193.3264 208.435563) scale(0.1 -0.1)">
      <defs>
       <path id="DejaVuSans-50" d="M 1259 4147 
L 1259 2394 
L 2053 2394 
Q 2494 2394 2734 2622 
Q 2975 2850 2975 3272 
Q 2975 3691 2734 3919 
Q 2494 4147 2053 4147 
L 1259 4147 
z
M 628 4666 
L 2053 4666 
Q 2838 4666 3239 4311 
Q 3641 3956 3641 3272 
Q 3641 2581 3239 2228 
Q 2838 1875 2053 1875 
L 1259 1875 
L 1259 0 
L 628 0 
L 628 4666 
z
" transform="scale(0.015625)"/>
       <path id="DejaVuSans-65" d="M 3597 1894 
L 3597 1613 
L 953 1613 
Q 991 1019 1311 708 
Q 1631 397 2203 397 
Q 2534 397 2845 478 
Q 3156 559 3463 722 
L 3463 178 
Q 3153 47 2828 -22 
Q 2503 -91 2169 -91 
Q 1331 -91 842 396 
Q 353 884 353 1716 
Q 353 2575 817 3079 
Q 1281 3584 2069 3584 
Q 2775 3584 3186 3129 
Q 3597 2675 3597 1894 
z
M 3022 2063 
Q 3016 2534 2758 2815 
Q 2500 3097 2075 3097 
Q 1594 3097 1305 2825 
Q 1016 2553 972 2059 
L 3022 2063 
z
" transform="scale(0.015625)"/>
       <path id="DejaVuSans-72" d="M 2631 2963 
Q 2534 3019 2420 3045 
Q 2306 3072 2169 3072 
Q 1681 3072 1420 2755 
Q 1159 2438 1159 1844 
L 1159 0 
L 581 0 
L 581 3500 
L 1159 3500 
L 1159 2956 
Q 1341 3275 1631 3429 
Q 1922 3584 2338 3584 
Q 2397 3584 2469 3576 
Q 2541 3569 2628 3553 
L 2631 2963 
z
" transform="scale(0.015625)"/>
       <path id="DejaVuSans-66" d="M 2375 4863 
L 2375 4384 
L 1825 4384 
Q 1516 4384 1395 4259 
Q 1275 4134 1275 3809 
L 1275 3500 
L 2222 3500 
L 2222 3053 
L 1275 3053 
L 1275 0 
L 697 0 
L 697 3053 
L 147 3053 
L 147 3500 
L 697 3500 
L 697 3744 
Q 697 4328 969 4595 
Q 1241 4863 1831 4863 
L 2375 4863 
z
" transform="scale(0.015625)"/>
       <path id="DejaVuSans-43" d="M 4122 4306 
L 4122 3641 
Q 3803 3938 3442 4084 
Q 3081 4231 2675 4231 
Q 1875 4231 1450 3742 
Q 1025 3253 1025 2328 
Q 1025 1406 1450 917 
Q 1875 428 2675 428 
Q 3081 428 3442 575 
Q 3803 722 4122 1019 
L 4122 359 
Q 3791 134 3420 21 
Q 3050 -91 2638 -91 
Q 1578 -91 968 557 
Q 359 1206 359 2328 
Q 359 3453 968 4101 
Q 1578 4750 2638 4750 
Q 3056 4750 3426 4639 
Q 3797 4528 4122 4306 
z
" transform="scale(0.015625)"/>
       <path id="DejaVuSans-61" d="M 2194 1759 
Q 1497 1759 1228 1600 
Q 959 1441 959 1056 
Q 959 750 1161 570 
Q 1363 391 1709 391 
Q 2188 391 2477 730 
Q 2766 1069 2766 1631 
L 2766 1759 
L 2194 1759 
z
M 3341 1997 
L 3341 0 
L 2766 0 
L 2766 531 
Q 2569 213 2275 61 
Q 1981 -91 1556 -91 
Q 1019 -91 701 211 
Q 384 513 384 1019 
Q 384 1609 779 1909 
Q 1175 2209 1959 2209 
L 2766 2209 
L 2766 2266 
Q 2766 2663 2505 2880 
Q 2244 3097 1772 3097 
Q 1472 3097 1187 3025 
Q 903 2953 641 2809 
L 641 3341 
Q 956 3463 1253 3523 
Q 1550 3584 1831 3584 
Q 2591 3584 2966 3190 
Q 3341 2797 3341 1997 
z
" transform="scale(0.015625)"/>
       <path id="DejaVuSans-70" d="M 1159 525 
L 1159 -1331 
L 581 -1331 
L 581 3500 
L 1159 3500 
L 1159 2969 
Q 1341 3281 1617 3432 
Q 1894 3584 2278 3584 
Q 2916 3584 3314 3078 
Q 3713 2572 3713 1747 
Q 3713 922 3314 415 
Q 2916 -91 2278 -91 
Q 1894 -91 1617 61 
Q 1341 213 1159 525 
z
M 3116 1747 
Q 3116 2381 2855 2742 
Q 2594 3103 2138 3103 
Q 1681 3103 1420 2742 
Q 1159 2381 1159 1747 
Q 1159 1113 1420 752 
Q 1681 391 2138 391 
Q 2594 391 2855 752 
Q 3116 1113 3116 1747 
z
" transform="scale(0.015625)"/>
       <path id="DejaVuSans-74" d="M 1172 4494 
L 1172 3500 
L 2356 3500 
L 2356 3053 
L 1172 3053 
L 1172 1153 
Q 1172 725 1289 603 
Q 1406 481 1766 481 
L 2356 481 
L 2356 0 
L 1766 0 
Q 1100 0 847 248 
Q 594 497 594 1153 
L 594 3053 
L 172 3053 
L 172 3500 
L 594 3500 
L 594 4494 
L 1172 4494 
z
" transform="scale(0.015625)"/>
       <path id="DejaVuSans-75" d="M 544 1381 
L 544 3500 
L 1119 3500 
L 1119 1403 
Q 1119 906 1312 657 
Q 1506 409 1894 409 
Q 2359 409 2629 706 
Q 2900 1003 2900 1516 
L 2900 3500 
L 3475 3500 
L 3475 0 
L 2900 0 
L 2900 538 
Q 2691 219 2414 64 
Q 2138 -91 1772 -91 
Q 1169 -91 856 284 
Q 544 659 544 1381 
z
M 1991 3584 
L 1991 3584 
z
" transform="scale(0.015625)"/>
      </defs>
      <use xlink:href="#DejaVuSans-50"/>
      <use xlink:href="#DejaVuSans-65" x="56.677734"/>
      <use xlink:href="#DejaVuSans-72" x="118.201172"/>
      <use xlink:href="#DejaVuSans-69" x="159.314453"/>
      <use xlink:href="#DejaVuSans-6f" x="187.097656"/>
      <use xlink:href="#DejaVuSans-64" x="248.279297"/>
      <use xlink:href="#DejaVuSans-20" x="311.755859"/>
      <use xlink:href="#DejaVuSans-6f" x="343.542969"/>
      <use xlink:href="#DejaVuSans-66" x="404.724609"/>
      <use xlink:href="#DejaVuSans-20" x="439.929688"/>
      <use xlink:href="#DejaVuSans-43" x="471.716797"/>
      <use xlink:href="#DejaVuSans-61" x="541.541016"/>
      <use xlink:href="#DejaVuSans-70" x="602.820312"/>
      <use xlink:href="#DejaVuSans-74" x="666.296875"/>
      <use xlink:href="#DejaVuSans-75" x="705.505859"/>
      <use xlink:href="#DejaVuSans-72" x="768.884766"/>
      <use xlink:href="#DejaVuSans-65" x="807.748047"/>
     </g>
    </g>
    <g id="line2d_13">
     <path d="M 165.3264 219.613688 
L 175.3264 219.613688 
L 185.3264 219.613688 
" style="fill: none; stroke: #808080; stroke-width: 2; stroke-linecap: square"/>
    </g>
    <g id="text_12">
     <!-- TCO Trajectory -->
     <g transform="translate(193.3264 223.113688) scale(0.1 -0.1)">
      <defs>
       <path id="DejaVuSans-54" d="M -19 4666 
L 3928 4666 
L 3928 4134 
L 2272 4134 
L 2272 0 
L 1638 0 
L 1638 4134 
L -19 4134 
L -19 4666 
z
" transform="scale(0.015625)"/>
       <path id="DejaVuSans-4f" d="M 2522 4238 
Q 1834 4238 1429 3725 
Q 1025 3213 1025 2328 
Q 1025 1447 1429 934 
Q 1834 422 2522 422 
Q 3209 422 3611 934 
Q 4013 1447 4013 2328 
Q 4013 3213 3611 3725 
Q 3209 4238 2522 4238 
z
M 2522 4750 
Q 3503 4750 4090 4092 
Q 4678 3434 4678 2328 
Q 4678 1225 4090 567 
Q 3503 -91 2522 -91 
Q 1538 -91 948 565 
Q 359 1222 359 2328 
Q 359 3434 948 4092 
Q 1538 4750 2522 4750 
z
" transform="scale(0.015625)"/>
       <path id="DejaVuSans-6a" d="M 603 3500 
L 1178 3500 
L 1178 -63 
Q 1178 -731 923 -1031 
Q 669 -1331 103 -1331 
L -116 -1331 
L -116 -844 
L 38 -844 
Q 366 -844 484 -692 
Q 603 -541 603 -63 
L 603 3500 
z
M 603 4863 
L 1178 4863 
L 1178 4134 
L 603 4134 
L 603 4863 
z
" transform="scale(0.015625)"/>
      </defs>
      <use xlink:href="#DejaVuSans-54"/>
      <use xlink:href="#DejaVuSans-43" x="55.208984"/>
      <use xlink:href="#DejaVuSans-4f" x="125.033203"/>
      <use xlink:href="#DejaVuSans-20" x="203.744141"/>
      <use xlink:href="#DejaVuSans-54" x="235.53125"/>
      <use xlink:href="#DejaVuSans-72" x="281.865234"/>
      <use xlink:href="#DejaVuSans-61" x="322.978516"/>
      <use xlink:href="#DejaVuSans-6a" x="384.257812"/>
      <use xlink:href="#DejaVuSans-65" x="412.041016"/>
      <use xlink:href="#DejaVuSans-63" x="473.564453"/>
      <use xlink:href="#DejaVuSans-74" x="528.544922"/>
      <use xlink:href="#DejaVuSans-6f" x="567.753906"/>
      <use xlink:href="#DejaVuSans-72" x="628.935547"/>
      <use xlink:href="#DejaVuSans-79" x="670.048828"/>
     </g>
    </g>
    <g id="PathCollection_3">
     <g>
      <use xlink:href="#m56d400157f" x="175.3264" y="235.166812" style="fill: #e9afaf; stroke: #e9afaf; stroke-width: 3"/>
     </g>
    </g>
    <g id="text_13">
     <!-- Start -->
     <g transform="translate(193.3264 237.791812) scale(0.1 -0.1)">
      <use xlink:href="#DejaVuSans-53"/>
      <use xlink:href="#DejaVuSans-74" x="63.476562"/>
      <use xlink:href="#DejaVuSans-61" x="102.685547"/>
      <use xlink:href="#DejaVuSans-72" x="163.964844"/>
      <use xlink:href="#DejaVuSans-74" x="205.078125"/>
     </g>
    </g>
    <g id="PathCollection_4">
     <g>
      <use xlink:href="#md878be7ca8" x="175.3264" y="249.844938" style="fill: #afe9af; stroke: #afe9af; stroke-width: 3"/>
     </g>
    </g>
    <g id="text_14">
     <!-- End -->
     <g transform="translate(193.3264 252.469938) scale(0.1 -0.1)">
      <defs>
       <path id="DejaVuSans-45" d="M 628 4666 
L 3578 4666 
L 3578 4134 
L 1259 4134 
L 1259 2753 
L 3481 2753 
L 3481 2222 
L 1259 2222 
L 1259 531 
L 3634 531 
L 3634 0 
L 628 0 
L 628 4666 
z
" transform="scale(0.015625)"/>
      </defs>
      <use xlink:href="#DejaVuSans-45"/>
      <use xlink:href="#DejaVuSans-6e" x="63.183594"/>
      <use xlink:href="#DejaVuSans-64" x="126.5625"/>
     </g>
    </g>
    <g id="line2d_14">
     <path d="M 165.3264 263.648063 
L 175.3264 263.648063 
L 185.3264 263.648063 
" style="fill: none; stroke: #ff0000; stroke-width: 1.5; stroke-linecap: square"/>
    </g>
    <g id="text_15">
     <!-- Moon Orbit -->
     <g transform="translate(193.3264 267.148063) scale(0.1 -0.1)">
      <defs>
       <path id="DejaVuSans-4d" d="M 628 4666 
L 1569 4666 
L 2759 1491 
L 3956 4666 
L 4897 4666 
L 4897 0 
L 4281 0 
L 4281 4097 
L 3078 897 
L 2444 897 
L 1241 4097 
L 1241 0 
L 628 0 
L 628 4666 
z
" transform="scale(0.015625)"/>
       <path id="DejaVuSans-62" d="M 3116 1747 
Q 3116 2381 2855 2742 
Q 2594 3103 2138 3103 
Q 1681 3103 1420 2742 
Q 1159 2381 1159 1747 
Q 1159 1113 1420 752 
Q 1681 391 2138 391 
Q 2594 391 2855 752 
Q 3116 1113 3116 1747 
z
M 1159 2969 
Q 1341 3281 1617 3432 
Q 1894 3584 2278 3584 
Q 2916 3584 3314 3078 
Q 3713 2572 3713 1747 
Q 3713 922 3314 415 
Q 2916 -91 2278 -91 
Q 1894 -91 1617 61 
Q 1341 213 1159 525 
L 1159 0 
L 581 0 
L 581 4863 
L 1159 4863 
L 1159 2969 
z
" transform="scale(0.015625)"/>
      </defs>
      <use xlink:href="#DejaVuSans-4d"/>
      <use xlink:href="#DejaVuSans-6f" x="86.279297"/>
      <use xlink:href="#DejaVuSans-6f" x="147.460938"/>
      <use xlink:href="#DejaVuSans-6e" x="208.642578"/>
      <use xlink:href="#DejaVuSans-20" x="272.021484"/>
      <use xlink:href="#DejaVuSans-4f" x="303.808594"/>
      <use xlink:href="#DejaVuSans-72" x="382.519531"/>
      <use xlink:href="#DejaVuSans-62" x="423.632812"/>
      <use xlink:href="#DejaVuSans-69" x="487.109375"/>
      <use xlink:href="#DejaVuSans-74" x="514.892578"/>
     </g>
    </g>
    <g id="patch_10">
     <path d="M 165.3264 281.826188 
L 185.3264 281.826188 
L 185.3264 274.826188 
L 165.3264 274.826188 
z
" style="fill: #1f77b4; opacity: 0.1"/>
    </g>
    <g id="text_16">
     <!-- Earth Hill Sphere -->
     <g transform="translate(193.3264 281.826188) scale(0.1 -0.1)">
      <defs>
       <path id="DejaVuSans-68" d="M 3513 2113 
L 3513 0 
L 2938 0 
L 2938 2094 
Q 2938 2591 2744 2837 
Q 2550 3084 2163 3084 
Q 1697 3084 1428 2787 
Q 1159 2491 1159 1978 
L 1159 0 
L 581 0 
L 581 4863 
L 1159 4863 
L 1159 2956 
Q 1366 3272 1645 3428 
Q 1925 3584 2291 3584 
Q 2894 3584 3203 3211 
Q 3513 2838 3513 2113 
z
" transform="scale(0.015625)"/>
       <path id="DejaVuSans-48" d="M 628 4666 
L 1259 4666 
L 1259 2753 
L 3553 2753 
L 3553 4666 
L 4184 4666 
L 4184 0 
L 3553 0 
L 3553 2222 
L 1259 2222 
L 1259 0 
L 628 0 
L 628 4666 
z
" transform="scale(0.015625)"/>
       <path id="DejaVuSans-6c" d="M 603 4863 
L 1178 4863 
L 1178 0 
L 603 0 
L 603 4863 
z
" transform="scale(0.015625)"/>
      </defs>
      <use xlink:href="#DejaVuSans-45"/>
      <use xlink:href="#DejaVuSans-61" x="63.183594"/>
      <use xlink:href="#DejaVuSans-72" x="124.462891"/>
      <use xlink:href="#DejaVuSans-74" x="165.576172"/>
      <use xlink:href="#DejaVuSans-68" x="204.785156"/>
      <use xlink:href="#DejaVuSans-20" x="268.164062"/>
      <use xlink:href="#DejaVuSans-48" x="299.951172"/>
      <use xlink:href="#DejaVuSans-69" x="375.146484"/>
      <use xlink:href="#DejaVuSans-6c" x="402.929688"/>
      <use xlink:href="#DejaVuSans-6c" x="430.712891"/>
      <use xlink:href="#DejaVuSans-20" x="458.496094"/>
      <use xlink:href="#DejaVuSans-53" x="490.283203"/>
      <use xlink:href="#DejaVuSans-70" x="553.759766"/>
      <use xlink:href="#DejaVuSans-68" x="617.236328"/>
      <use xlink:href="#DejaVuSans-65" x="680.615234"/>
      <use xlink:href="#DejaVuSans-72" x="742.138672"/>
      <use xlink:href="#DejaVuSans-65" x="781.001953"/>
     </g>
    </g>
    <g id="patch_11">
     <path d="M 165.3264 296.504312 
L 185.3264 296.504312 
L 185.3264 289.504312 
L 165.3264 289.504312 
z
" style="fill: #0000ff; stroke: #0000ff; stroke-linejoin: miter"/>
    </g>
    <g id="text_17">
     <!-- Earth -->
     <g transform="translate(193.3264 296.504312) scale(0.1 -0.1)">
      <use xlink:href="#DejaVuSans-45"/>
      <use xlink:href="#DejaVuSans-61" x="63.183594"/>
      <use xlink:href="#DejaVuSans-72" x="124.462891"/>
      <use xlink:href="#DejaVuSans-74" x="165.576172"/>
      <use xlink:href="#DejaVuSans-68" x="204.785156"/>
     </g>
    </g>
   </g>
  </g>
 </g>
 <defs>
  <clipPath id="p5e1c2cd1a5">
   <rect x="156.3264" y="41.472" width="159.6672" height="266.112"/>
  </clipPath>
 </defs>
</svg>
