<?xml version="1.0" encoding="utf-8" standalone="no"?>
<!DOCTYPE svg PUBLIC "-//W3C//DTD SVG 1.1//EN"
  "http://www.w3.org/Graphics/SVG/1.1/DTD/svg11.dtd">
<svg xmlns:xlink="http://www.w3.org/1999/xlink" width="460.8pt" height="345.6pt" viewBox="0 0 460.8 345.6" xmlns="http://www.w3.org/2000/svg" version="1.1">
 <metadata>
  <rdf:RDF xmlns:dc="http://purl.org/dc/elements/1.1/" xmlns:cc="http://creativecommons.org/ns#" xmlns:rdf="http://www.w3.org/1999/02/22-rdf-syntax-ns#">
   <cc:Work>
    <dc:type rdf:resource="http://purl.org/dc/dcmitype/StillImage"/>
    <dc:date>2023-06-27T13:51:11.954195</dc:date>
    <dc:format>image/svg+xml</dc:format>
    <dc:creator>
     <cc:Agent>
      <dc:title>Matplotlib v3.6.3, https://matplotlib.org/</dc:title>
     </cc:Agent>
    </dc:creator>
   </cc:Work>
  </rdf:RDF>
 </metadata>
 <defs>
  <style type="text/css">*{stroke-linejoin: round; stroke-linecap: butt}</style>
 </defs>
 <g id="figure_1">
  <g id="patch_1">
   <path d="M 0 345.6 
L 460.8 345.6 
L 460.8 0 
L 0 0 
z
" style="fill: #ffffff"/>
  </g>
  <g id="axes_1">
   <g id="patch_2">
    <path d="M 57.6 307.584 
L 414.72 307.584 
L 414.72 41.472 
L 57.6 41.472 
z
" style="fill: #ffffff"/>
   </g>
   <g id="matplotlib.axis_1">
    <g id="xtick_1">
     <g id="line2d_1">
      <defs>
       <path id="m646221a063" d="M 0 0 
L 0 3.5 
" style="stroke: #000000; stroke-width: 0.8"/>
      </defs>
      <g>
       <use xlink:href="#m646221a063" x="57.6" y="307.584" style="stroke: #000000; stroke-width: 0.8"/>
      </g>
     </g>
     <g id="text_1">
      <!-- 0 -->
      <g transform="translate(54.41875 322.182437) scale(0.1 -0.1)">
       <defs>
        <path id="DejaVuSans-30" d="M 2034 4250 
Q 1547 4250 1301 3770 
Q 1056 3291 1056 2328 
Q 1056 1369 1301 889 
Q 1547 409 2034 409 
Q 2525 409 2770 889 
Q 3016 1369 3016 2328 
Q 3016 3291 2770 3770 
Q 2525 4250 2034 4250 
z
M 2034 4750 
Q 2819 4750 3233 4129 
Q 3647 3509 3647 2328 
Q 3647 1150 3233 529 
Q 2819 -91 2034 -91 
Q 1250 -91 836 529 
Q 422 1150 422 2328 
Q 422 3509 836 4129 
Q 1250 4750 2034 4750 
z
" transform="scale(0.015625)"/>
       </defs>
       <use xlink:href="#DejaVuSans-30"/>
      </g>
     </g>
    </g>
    <g id="xtick_2">
     <g id="line2d_2">
      <g>
       <use xlink:href="#m646221a063" x="105.216" y="307.584" style="stroke: #000000; stroke-width: 0.8"/>
      </g>
     </g>
     <g id="text_2">
      <!-- 200 -->
      <g transform="translate(95.67225 322.182437) scale(0.1 -0.1)">
       <defs>
        <path id="DejaVuSans-32" d="M 1228 531 
L 3431 531 
L 3431 0 
L 469 0 
L 469 531 
Q 828 903 1448 1529 
Q 2069 2156 2228 2338 
Q 2531 2678 2651 2914 
Q 2772 3150 2772 3378 
Q 2772 3750 2511 3984 
Q 2250 4219 1831 4219 
Q 1534 4219 1204 4116 
Q 875 4013 500 3803 
L 500 4441 
Q 881 4594 1212 4672 
Q 1544 4750 1819 4750 
Q 2544 4750 2975 4387 
Q 3406 4025 3406 3419 
Q 3406 3131 3298 2873 
Q 3191 2616 2906 2266 
Q 2828 2175 2409 1742 
Q 1991 1309 1228 531 
z
" transform="scale(0.015625)"/>
       </defs>
       <use xlink:href="#DejaVuSans-32"/>
       <use xlink:href="#DejaVuSans-30" x="63.623047"/>
       <use xlink:href="#DejaVuSans-30" x="127.246094"/>
      </g>
     </g>
    </g>
    <g id="xtick_3">
     <g id="line2d_3">
      <g>
       <use xlink:href="#m646221a063" x="152.832" y="307.584" style="stroke: #000000; stroke-width: 0.8"/>
      </g>
     </g>
     <g id="text_3">
      <!-- 400 -->
      <g transform="translate(143.28825 322.182437) scale(0.1 -0.1)">
       <defs>
        <path id="DejaVuSans-34" d="M 2419 4116 
L 825 1625 
L 2419 1625 
L 2419 4116 
z
M 2253 4666 
L 3047 4666 
L 3047 1625 
L 3713 1625 
L 3713 1100 
L 3047 1100 
L 3047 0 
L 2419 0 
L 2419 1100 
L 313 1100 
L 313 1709 
L 2253 4666 
z
" transform="scale(0.015625)"/>
       </defs>
       <use xlink:href="#DejaVuSans-34"/>
       <use xlink:href="#DejaVuSans-30" x="63.623047"/>
       <use xlink:href="#DejaVuSans-30" x="127.246094"/>
      </g>
     </g>
    </g>
    <g id="xtick_4">
     <g id="line2d_4">
      <g>
       <use xlink:href="#m646221a063" x="200.448" y="307.584" style="stroke: #000000; stroke-width: 0.8"/>
      </g>
     </g>
     <g id="text_4">
      <!-- 600 -->
      <g transform="translate(190.90425 322.182437) scale(0.1 -0.1)">
       <defs>
        <path id="DejaVuSans-36" d="M 2113 2584 
Q 1688 2584 1439 2293 
Q 1191 2003 1191 1497 
Q 1191 994 1439 701 
Q 1688 409 2113 409 
Q 2538 409 2786 701 
Q 3034 994 3034 1497 
Q 3034 2003 2786 2293 
Q 2538 2584 2113 2584 
z
M 3366 4563 
L 3366 3988 
Q 3128 4100 2886 4159 
Q 2644 4219 2406 4219 
Q 1781 4219 1451 3797 
Q 1122 3375 1075 2522 
Q 1259 2794 1537 2939 
Q 1816 3084 2150 3084 
Q 2853 3084 3261 2657 
Q 3669 2231 3669 1497 
Q 3669 778 3244 343 
Q 2819 -91 2113 -91 
Q 1303 -91 875 529 
Q 447 1150 447 2328 
Q 447 3434 972 4092 
Q 1497 4750 2381 4750 
Q 2619 4750 2861 4703 
Q 3103 4656 3366 4563 
z
" transform="scale(0.015625)"/>
       </defs>
       <use xlink:href="#DejaVuSans-36"/>
       <use xlink:href="#DejaVuSans-30" x="63.623047"/>
       <use xlink:href="#DejaVuSans-30" x="127.246094"/>
      </g>
     </g>
    </g>
    <g id="xtick_5">
     <g id="line2d_5">
      <g>
       <use xlink:href="#m646221a063" x="248.064" y="307.584" style="stroke: #000000; stroke-width: 0.8"/>
      </g>
     </g>
     <g id="text_5">
      <!-- 800 -->
      <g transform="translate(238.52025 322.182437) scale(0.1 -0.1)">
       <defs>
        <path id="DejaVuSans-38" d="M 2034 2216 
Q 1584 2216 1326 1975 
Q 1069 1734 1069 1313 
Q 1069 891 1326 650 
Q 1584 409 2034 409 
Q 2484 409 2743 651 
Q 3003 894 3003 1313 
Q 3003 1734 2745 1975 
Q 2488 2216 2034 2216 
z
M 1403 2484 
Q 997 2584 770 2862 
Q 544 3141 544 3541 
Q 544 4100 942 4425 
Q 1341 4750 2034 4750 
Q 2731 4750 3128 4425 
Q 3525 4100 3525 3541 
Q 3525 3141 3298 2862 
Q 3072 2584 2669 2484 
Q 3125 2378 3379 2068 
Q 3634 1759 3634 1313 
Q 3634 634 3220 271 
Q 2806 -91 2034 -91 
Q 1263 -91 848 271 
Q 434 634 434 1313 
Q 434 1759 690 2068 
Q 947 2378 1403 2484 
z
M 1172 3481 
Q 1172 3119 1398 2916 
Q 1625 2713 2034 2713 
Q 2441 2713 2670 2916 
Q 2900 3119 2900 3481 
Q 2900 3844 2670 4047 
Q 2441 4250 2034 4250 
Q 1625 4250 1398 4047 
Q 1172 3844 1172 3481 
z
" transform="scale(0.015625)"/>
       </defs>
       <use xlink:href="#DejaVuSans-38"/>
       <use xlink:href="#DejaVuSans-30" x="63.623047"/>
       <use xlink:href="#DejaVuSans-30" x="127.246094"/>
      </g>
     </g>
    </g>
    <g id="xtick_6">
     <g id="line2d_6">
      <g>
       <use xlink:href="#m646221a063" x="295.68" y="307.584" style="stroke: #000000; stroke-width: 0.8"/>
      </g>
     </g>
     <g id="text_6">
      <!-- 1000 -->
      <g transform="translate(282.955 322.182437) scale(0.1 -0.1)">
       <defs>
        <path id="DejaVuSans-31" d="M 794 531 
L 1825 531 
L 1825 4091 
L 703 3866 
L 703 4441 
L 1819 4666 
L 2450 4666 
L 2450 531 
L 3481 531 
L 3481 0 
L 794 0 
L 794 531 
z
" transform="scale(0.015625)"/>
       </defs>
       <use xlink:href="#DejaVuSans-31"/>
       <use xlink:href="#DejaVuSans-30" x="63.623047"/>
       <use xlink:href="#DejaVuSans-30" x="127.246094"/>
       <use xlink:href="#DejaVuSans-30" x="190.869141"/>
      </g>
     </g>
    </g>
    <g id="xtick_7">
     <g id="line2d_7">
      <g>
       <use xlink:href="#m646221a063" x="343.296" y="307.584" style="stroke: #000000; stroke-width: 0.8"/>
      </g>
     </g>
     <g id="text_7">
      <!-- 1200 -->
      <g transform="translate(330.571 322.182437) scale(0.1 -0.1)">
       <use xlink:href="#DejaVuSans-31"/>
       <use xlink:href="#DejaVuSans-32" x="63.623047"/>
       <use xlink:href="#DejaVuSans-30" x="127.246094"/>
       <use xlink:href="#DejaVuSans-30" x="190.869141"/>
      </g>
     </g>
    </g>
    <g id="xtick_8">
     <g id="line2d_8">
      <g>
       <use xlink:href="#m646221a063" x="390.912" y="307.584" style="stroke: #000000; stroke-width: 0.8"/>
      </g>
     </g>
     <g id="text_8">
      <!-- 1400 -->
      <g transform="translate(378.187 322.182437) scale(0.1 -0.1)">
       <use xlink:href="#DejaVuSans-31"/>
       <use xlink:href="#DejaVuSans-34" x="63.623047"/>
       <use xlink:href="#DejaVuSans-30" x="127.246094"/>
       <use xlink:href="#DejaVuSans-30" x="190.869141"/>
      </g>
     </g>
    </g>
    <g id="text_9">
     <!-- Time (Days) -->
     <g transform="translate(205.957656 335.860562) scale(0.1 -0.1)">
      <defs>
       <path id="DejaVuSans-54" d="M -19 4666 
L 3928 4666 
L 3928 4134 
L 2272 4134 
L 2272 0 
L 1638 0 
L 1638 4134 
L -19 4134 
L -19 4666 
z
" transform="scale(0.015625)"/>
       <path id="DejaVuSans-69" d="M 603 3500 
L 1178 3500 
L 1178 0 
L 603 0 
L 603 3500 
z
M 603 4863 
L 1178 4863 
L 1178 4134 
L 603 4134 
L 603 4863 
z
" transform="scale(0.015625)"/>
       <path id="DejaVuSans-6d" d="M 3328 2828 
Q 3544 3216 3844 3400 
Q 4144 3584 4550 3584 
Q 5097 3584 5394 3201 
Q 5691 2819 5691 2113 
L 5691 0 
L 5113 0 
L 5113 2094 
Q 5113 2597 4934 2840 
Q 4756 3084 4391 3084 
Q 3944 3084 3684 2787 
Q 3425 2491 3425 1978 
L 3425 0 
L 2847 0 
L 2847 2094 
Q 2847 2600 2669 2842 
Q 2491 3084 2119 3084 
Q 1678 3084 1418 2786 
Q 1159 2488 1159 1978 
L 1159 0 
L 581 0 
L 581 3500 
L 1159 3500 
L 1159 2956 
Q 1356 3278 1631 3431 
Q 1906 3584 2284 3584 
Q 2666 3584 2933 3390 
Q 3200 3197 3328 2828 
z
" transform="scale(0.015625)"/>
       <path id="DejaVuSans-65" d="M 3597 1894 
L 3597 1613 
L 953 1613 
Q 991 1019 1311 708 
Q 1631 397 2203 397 
Q 2534 397 2845 478 
Q 3156 559 3463 722 
L 3463 178 
Q 3153 47 2828 -22 
Q 2503 -91 2169 -91 
Q 1331 -91 842 396 
Q 353 884 353 1716 
Q 353 2575 817 3079 
Q 1281 3584 2069 3584 
Q 2775 3584 3186 3129 
Q 3597 2675 3597 1894 
z
M 3022 2063 
Q 3016 2534 2758 2815 
Q 2500 3097 2075 3097 
Q 1594 3097 1305 2825 
Q 1016 2553 972 2059 
L 3022 2063 
z
" transform="scale(0.015625)"/>
       <path id="DejaVuSans-20" transform="scale(0.015625)"/>
       <path id="DejaVuSans-28" d="M 1984 4856 
Q 1566 4138 1362 3434 
Q 1159 2731 1159 2009 
Q 1159 1288 1364 580 
Q 1569 -128 1984 -844 
L 1484 -844 
Q 1016 -109 783 600 
Q 550 1309 550 2009 
Q 550 2706 781 3412 
Q 1013 4119 1484 4856 
L 1984 4856 
z
" transform="scale(0.015625)"/>
       <path id="DejaVuSans-44" d="M 1259 4147 
L 1259 519 
L 2022 519 
Q 2988 519 3436 956 
Q 3884 1394 3884 2338 
Q 3884 3275 3436 3711 
Q 2988 4147 2022 4147 
L 1259 4147 
z
M 628 4666 
L 1925 4666 
Q 3281 4666 3915 4102 
Q 4550 3538 4550 2338 
Q 4550 1131 3912 565 
Q 3275 0 1925 0 
L 628 0 
L 628 4666 
z
" transform="scale(0.015625)"/>
       <path id="DejaVuSans-61" d="M 2194 1759 
Q 1497 1759 1228 1600 
Q 959 1441 959 1056 
Q 959 750 1161 570 
Q 1363 391 1709 391 
Q 2188 391 2477 730 
Q 2766 1069 2766 1631 
L 2766 1759 
L 2194 1759 
z
M 3341 1997 
L 3341 0 
L 2766 0 
L 2766 531 
Q 2569 213 2275 61 
Q 1981 -91 1556 -91 
Q 1019 -91 701 211 
Q 384 513 384 1019 
Q 384 1609 779 1909 
Q 1175 2209 1959 2209 
L 2766 2209 
L 2766 2266 
Q 2766 2663 2505 2880 
Q 2244 3097 1772 3097 
Q 1472 3097 1187 3025 
Q 903 2953 641 2809 
L 641 3341 
Q 956 3463 1253 3523 
Q 1550 3584 1831 3584 
Q 2591 3584 2966 3190 
Q 3341 2797 3341 1997 
z
" transform="scale(0.015625)"/>
       <path id="DejaVuSans-79" d="M 2059 -325 
Q 1816 -950 1584 -1140 
Q 1353 -1331 966 -1331 
L 506 -1331 
L 506 -850 
L 844 -850 
Q 1081 -850 1212 -737 
Q 1344 -625 1503 -206 
L 1606 56 
L 191 3500 
L 800 3500 
L 1894 763 
L 2988 3500 
L 3597 3500 
L 2059 -325 
z
" transform="scale(0.015625)"/>
       <path id="DejaVuSans-73" d="M 2834 3397 
L 2834 2853 
Q 2591 2978 2328 3040 
Q 2066 3103 1784 3103 
Q 1356 3103 1142 2972 
Q 928 2841 928 2578 
Q 928 2378 1081 2264 
Q 1234 2150 1697 2047 
L 1894 2003 
Q 2506 1872 2764 1633 
Q 3022 1394 3022 966 
Q 3022 478 2636 193 
Q 2250 -91 1575 -91 
Q 1294 -91 989 -36 
Q 684 19 347 128 
L 347 722 
Q 666 556 975 473 
Q 1284 391 1588 391 
Q 1994 391 2212 530 
Q 2431 669 2431 922 
Q 2431 1156 2273 1281 
Q 2116 1406 1581 1522 
L 1381 1569 
Q 847 1681 609 1914 
Q 372 2147 372 2553 
Q 372 3047 722 3315 
Q 1072 3584 1716 3584 
Q 2034 3584 2315 3537 
Q 2597 3491 2834 3397 
z
" transform="scale(0.015625)"/>
       <path id="DejaVuSans-29" d="M 513 4856 
L 1013 4856 
Q 1481 4119 1714 3412 
Q 1947 2706 1947 2009 
Q 1947 1309 1714 600 
Q 1481 -109 1013 -844 
L 513 -844 
Q 928 -128 1133 580 
Q 1338 1288 1338 2009 
Q 1338 2731 1133 3434 
Q 928 4138 513 4856 
z
" transform="scale(0.015625)"/>
      </defs>
      <use xlink:href="#DejaVuSans-54"/>
      <use xlink:href="#DejaVuSans-69" x="57.958984"/>
      <use xlink:href="#DejaVuSans-6d" x="85.742188"/>
      <use xlink:href="#DejaVuSans-65" x="183.154297"/>
      <use xlink:href="#DejaVuSans-20" x="244.677734"/>
      <use xlink:href="#DejaVuSans-28" x="276.464844"/>
      <use xlink:href="#DejaVuSans-44" x="315.478516"/>
      <use xlink:href="#DejaVuSans-61" x="392.480469"/>
      <use xlink:href="#DejaVuSans-79" x="453.759766"/>
      <use xlink:href="#DejaVuSans-73" x="512.939453"/>
      <use xlink:href="#DejaVuSans-29" x="565.039062"/>
     </g>
    </g>
   </g>
   <g id="matplotlib.axis_2">
    <g id="ytick_1">
     <g id="line2d_9">
      <defs>
       <path id="mc9a3a69302" d="M 0 0 
L -3.5 0 
" style="stroke: #000000; stroke-width: 0.8"/>
      </defs>
      <g>
       <use xlink:href="#mc9a3a69302" x="57.6" y="291.930353" style="stroke: #000000; stroke-width: 0.8"/>
      </g>
     </g>
     <g id="text_10">
      <!-- −0.1 -->
      <g transform="translate(26.317187 295.729572) scale(0.1 -0.1)">
       <defs>
        <path id="DejaVuSans-2212" d="M 678 2272 
L 4684 2272 
L 4684 1741 
L 678 1741 
L 678 2272 
z
" transform="scale(0.015625)"/>
        <path id="DejaVuSans-2e" d="M 684 794 
L 1344 794 
L 1344 0 
L 684 0 
L 684 794 
z
" transform="scale(0.015625)"/>
       </defs>
       <use xlink:href="#DejaVuSans-2212"/>
       <use xlink:href="#DejaVuSans-30" x="83.789062"/>
       <use xlink:href="#DejaVuSans-2e" x="147.412109"/>
       <use xlink:href="#DejaVuSans-31" x="179.199219"/>
      </g>
     </g>
    </g>
    <g id="ytick_2">
     <g id="line2d_10">
      <g>
       <use xlink:href="#mc9a3a69302" x="57.6" y="260.623059" style="stroke: #000000; stroke-width: 0.8"/>
      </g>
     </g>
     <g id="text_11">
      <!-- 0.0 -->
      <g transform="translate(34.696875 264.422278) scale(0.1 -0.1)">
       <use xlink:href="#DejaVuSans-30"/>
       <use xlink:href="#DejaVuSans-2e" x="63.623047"/>
       <use xlink:href="#DejaVuSans-30" x="95.410156"/>
      </g>
     </g>
    </g>
    <g id="ytick_3">
     <g id="line2d_11">
      <g>
       <use xlink:href="#mc9a3a69302" x="57.6" y="229.315765" style="stroke: #000000; stroke-width: 0.8"/>
      </g>
     </g>
     <g id="text_12">
      <!-- 0.1 -->
      <g transform="translate(34.696875 233.114983) scale(0.1 -0.1)">
       <use xlink:href="#DejaVuSans-30"/>
       <use xlink:href="#DejaVuSans-2e" x="63.623047"/>
       <use xlink:href="#DejaVuSans-31" x="95.410156"/>
      </g>
     </g>
    </g>
    <g id="ytick_4">
     <g id="line2d_12">
      <g>
       <use xlink:href="#mc9a3a69302" x="57.6" y="198.008471" style="stroke: #000000; stroke-width: 0.8"/>
      </g>
     </g>
     <g id="text_13">
      <!-- 0.2 -->
      <g transform="translate(34.696875 201.807689) scale(0.1 -0.1)">
       <use xlink:href="#DejaVuSans-30"/>
       <use xlink:href="#DejaVuSans-2e" x="63.623047"/>
       <use xlink:href="#DejaVuSans-32" x="95.410156"/>
      </g>
     </g>
    </g>
    <g id="ytick_5">
     <g id="line2d_13">
      <g>
       <use xlink:href="#mc9a3a69302" x="57.6" y="166.701176" style="stroke: #000000; stroke-width: 0.8"/>
      </g>
     </g>
     <g id="text_14">
      <!-- 0.3 -->
      <g transform="translate(34.696875 170.500395) scale(0.1 -0.1)">
       <defs>
        <path id="DejaVuSans-33" d="M 2597 2516 
Q 3050 2419 3304 2112 
Q 3559 1806 3559 1356 
Q 3559 666 3084 287 
Q 2609 -91 1734 -91 
Q 1441 -91 1130 -33 
Q 819 25 488 141 
L 488 750 
Q 750 597 1062 519 
Q 1375 441 1716 441 
Q 2309 441 2620 675 
Q 2931 909 2931 1356 
Q 2931 1769 2642 2001 
Q 2353 2234 1838 2234 
L 1294 2234 
L 1294 2753 
L 1863 2753 
Q 2328 2753 2575 2939 
Q 2822 3125 2822 3475 
Q 2822 3834 2567 4026 
Q 2313 4219 1838 4219 
Q 1578 4219 1281 4162 
Q 984 4106 628 3988 
L 628 4550 
Q 988 4650 1302 4700 
Q 1616 4750 1894 4750 
Q 2613 4750 3031 4423 
Q 3450 4097 3450 3541 
Q 3450 3153 3228 2886 
Q 3006 2619 2597 2516 
z
" transform="scale(0.015625)"/>
       </defs>
       <use xlink:href="#DejaVuSans-30"/>
       <use xlink:href="#DejaVuSans-2e" x="63.623047"/>
       <use xlink:href="#DejaVuSans-33" x="95.410156"/>
      </g>
     </g>
    </g>
    <g id="ytick_6">
     <g id="line2d_14">
      <g>
       <use xlink:href="#mc9a3a69302" x="57.6" y="135.393882" style="stroke: #000000; stroke-width: 0.8"/>
      </g>
     </g>
     <g id="text_15">
      <!-- 0.4 -->
      <g transform="translate(34.696875 139.193101) scale(0.1 -0.1)">
       <use xlink:href="#DejaVuSans-30"/>
       <use xlink:href="#DejaVuSans-2e" x="63.623047"/>
       <use xlink:href="#DejaVuSans-34" x="95.410156"/>
      </g>
     </g>
    </g>
    <g id="ytick_7">
     <g id="line2d_15">
      <g>
       <use xlink:href="#mc9a3a69302" x="57.6" y="104.086588" style="stroke: #000000; stroke-width: 0.8"/>
      </g>
     </g>
     <g id="text_16">
      <!-- 0.5 -->
      <g transform="translate(34.696875 107.885807) scale(0.1 -0.1)">
       <defs>
        <path id="DejaVuSans-35" d="M 691 4666 
L 3169 4666 
L 3169 4134 
L 1269 4134 
L 1269 2991 
Q 1406 3038 1543 3061 
Q 1681 3084 1819 3084 
Q 2600 3084 3056 2656 
Q 3513 2228 3513 1497 
Q 3513 744 3044 326 
Q 2575 -91 1722 -91 
Q 1428 -91 1123 -41 
Q 819 9 494 109 
L 494 744 
Q 775 591 1075 516 
Q 1375 441 1709 441 
Q 2250 441 2565 725 
Q 2881 1009 2881 1497 
Q 2881 1984 2565 2268 
Q 2250 2553 1709 2553 
Q 1456 2553 1204 2497 
Q 953 2441 691 2322 
L 691 4666 
z
" transform="scale(0.015625)"/>
       </defs>
       <use xlink:href="#DejaVuSans-30"/>
       <use xlink:href="#DejaVuSans-2e" x="63.623047"/>
       <use xlink:href="#DejaVuSans-35" x="95.410156"/>
      </g>
     </g>
    </g>
    <g id="ytick_8">
     <g id="line2d_16">
      <g>
       <use xlink:href="#mc9a3a69302" x="57.6" y="72.779294" style="stroke: #000000; stroke-width: 0.8"/>
      </g>
     </g>
     <g id="text_17">
      <!-- 0.6 -->
      <g transform="translate(34.696875 76.578513) scale(0.1 -0.1)">
       <use xlink:href="#DejaVuSans-30"/>
       <use xlink:href="#DejaVuSans-2e" x="63.623047"/>
       <use xlink:href="#DejaVuSans-36" x="95.410156"/>
      </g>
     </g>
    </g>
    <g id="ytick_9">
     <g id="line2d_17">
      <g>
       <use xlink:href="#mc9a3a69302" x="57.6" y="41.472" style="stroke: #000000; stroke-width: 0.8"/>
      </g>
     </g>
     <g id="text_18">
      <!-- 0.7 -->
      <g transform="translate(34.696875 45.271219) scale(0.1 -0.1)">
       <defs>
        <path id="DejaVuSans-37" d="M 525 4666 
L 3525 4666 
L 3525 4397 
L 1831 0 
L 1172 0 
L 2766 4134 
L 525 4134 
L 525 4666 
z
" transform="scale(0.015625)"/>
       </defs>
       <use xlink:href="#DejaVuSans-30"/>
       <use xlink:href="#DejaVuSans-2e" x="63.623047"/>
       <use xlink:href="#DejaVuSans-37" x="95.410156"/>
      </g>
     </g>
    </g>
    <g id="text_19">
     <!-- Specific Energy $(km^2/s^2)$ -->
     <g transform="translate(20.217187 235.928) rotate(-90) scale(0.1 -0.1)">
      <defs>
       <path id="DejaVuSans-53" d="M 3425 4513 
L 3425 3897 
Q 3066 4069 2747 4153 
Q 2428 4238 2131 4238 
Q 1616 4238 1336 4038 
Q 1056 3838 1056 3469 
Q 1056 3159 1242 3001 
Q 1428 2844 1947 2747 
L 2328 2669 
Q 3034 2534 3370 2195 
Q 3706 1856 3706 1288 
Q 3706 609 3251 259 
Q 2797 -91 1919 -91 
Q 1588 -91 1214 -16 
Q 841 59 441 206 
L 441 856 
Q 825 641 1194 531 
Q 1563 422 1919 422 
Q 2459 422 2753 634 
Q 3047 847 3047 1241 
Q 3047 1584 2836 1778 
Q 2625 1972 2144 2069 
L 1759 2144 
Q 1053 2284 737 2584 
Q 422 2884 422 3419 
Q 422 4038 858 4394 
Q 1294 4750 2059 4750 
Q 2388 4750 2728 4690 
Q 3069 4631 3425 4513 
z
" transform="scale(0.015625)"/>
       <path id="DejaVuSans-70" d="M 1159 525 
L 1159 -1331 
L 581 -1331 
L 581 3500 
L 1159 3500 
L 1159 2969 
Q 1341 3281 1617 3432 
Q 1894 3584 2278 3584 
Q 2916 3584 3314 3078 
Q 3713 2572 3713 1747 
Q 3713 922 3314 415 
Q 2916 -91 2278 -91 
Q 1894 -91 1617 61 
Q 1341 213 1159 525 
z
M 3116 1747 
Q 3116 2381 2855 2742 
Q 2594 3103 2138 3103 
Q 1681 3103 1420 2742 
Q 1159 2381 1159 1747 
Q 1159 1113 1420 752 
Q 1681 391 2138 391 
Q 2594 391 2855 752 
Q 3116 1113 3116 1747 
z
" transform="scale(0.015625)"/>
       <path id="DejaVuSans-63" d="M 3122 3366 
L 3122 2828 
Q 2878 2963 2633 3030 
Q 2388 3097 2138 3097 
Q 1578 3097 1268 2742 
Q 959 2388 959 1747 
Q 959 1106 1268 751 
Q 1578 397 2138 397 
Q 2388 397 2633 464 
Q 2878 531 3122 666 
L 3122 134 
Q 2881 22 2623 -34 
Q 2366 -91 2075 -91 
Q 1284 -91 818 406 
Q 353 903 353 1747 
Q 353 2603 823 3093 
Q 1294 3584 2113 3584 
Q 2378 3584 2631 3529 
Q 2884 3475 3122 3366 
z
" transform="scale(0.015625)"/>
       <path id="DejaVuSans-66" d="M 2375 4863 
L 2375 4384 
L 1825 4384 
Q 1516 4384 1395 4259 
Q 1275 4134 1275 3809 
L 1275 3500 
L 2222 3500 
L 2222 3053 
L 1275 3053 
L 1275 0 
L 697 0 
L 697 3053 
L 147 3053 
L 147 3500 
L 697 3500 
L 697 3744 
Q 697 4328 969 4595 
Q 1241 4863 1831 4863 
L 2375 4863 
z
" transform="scale(0.015625)"/>
       <path id="DejaVuSans-45" d="M 628 4666 
L 3578 4666 
L 3578 4134 
L 1259 4134 
L 1259 2753 
L 3481 2753 
L 3481 2222 
L 1259 2222 
L 1259 531 
L 3634 531 
L 3634 0 
L 628 0 
L 628 4666 
z
" transform="scale(0.015625)"/>
       <path id="DejaVuSans-6e" d="M 3513 2113 
L 3513 0 
L 2938 0 
L 2938 2094 
Q 2938 2591 2744 2837 
Q 2550 3084 2163 3084 
Q 1697 3084 1428 2787 
Q 1159 2491 1159 1978 
L 1159 0 
L 581 0 
L 581 3500 
L 1159 3500 
L 1159 2956 
Q 1366 3272 1645 3428 
Q 1925 3584 2291 3584 
Q 2894 3584 3203 3211 
Q 3513 2838 3513 2113 
z
" transform="scale(0.015625)"/>
       <path id="DejaVuSans-72" d="M 2631 2963 
Q 2534 3019 2420 3045 
Q 2306 3072 2169 3072 
Q 1681 3072 1420 2755 
Q 1159 2438 1159 1844 
L 1159 0 
L 581 0 
L 581 3500 
L 1159 3500 
L 1159 2956 
Q 1341 3275 1631 3429 
Q 1922 3584 2338 3584 
Q 2397 3584 2469 3576 
Q 2541 3569 2628 3553 
L 2631 2963 
z
" transform="scale(0.015625)"/>
       <path id="DejaVuSans-67" d="M 2906 1791 
Q 2906 2416 2648 2759 
Q 2391 3103 1925 3103 
Q 1463 3103 1205 2759 
Q 947 2416 947 1791 
Q 947 1169 1205 825 
Q 1463 481 1925 481 
Q 2391 481 2648 825 
Q 2906 1169 2906 1791 
z
M 3481 434 
Q 3481 -459 3084 -895 
Q 2688 -1331 1869 -1331 
Q 1566 -1331 1297 -1286 
Q 1028 -1241 775 -1147 
L 775 -588 
Q 1028 -725 1275 -790 
Q 1522 -856 1778 -856 
Q 2344 -856 2625 -561 
Q 2906 -266 2906 331 
L 2906 616 
Q 2728 306 2450 153 
Q 2172 0 1784 0 
Q 1141 0 747 490 
Q 353 981 353 1791 
Q 353 2603 747 3093 
Q 1141 3584 1784 3584 
Q 2172 3584 2450 3431 
Q 2728 3278 2906 2969 
L 2906 3500 
L 3481 3500 
L 3481 434 
z
" transform="scale(0.015625)"/>
       <path id="DejaVuSans-Oblique-6b" d="M 1172 4863 
L 1747 4863 
L 1197 2028 
L 3169 3500 
L 3916 3500 
L 1716 1825 
L 3322 0 
L 2625 0 
L 1131 1709 
L 800 0 
L 225 0 
L 1172 4863 
z
" transform="scale(0.015625)"/>
       <path id="DejaVuSans-Oblique-6d" d="M 5747 2113 
L 5338 0 
L 4763 0 
L 5166 2094 
Q 5191 2228 5203 2325 
Q 5216 2422 5216 2491 
Q 5216 2772 5059 2928 
Q 4903 3084 4622 3084 
Q 4203 3084 3875 2770 
Q 3547 2456 3450 1953 
L 3066 0 
L 2491 0 
L 2900 2094 
Q 2925 2209 2937 2307 
Q 2950 2406 2950 2484 
Q 2950 2769 2794 2926 
Q 2638 3084 2363 3084 
Q 1938 3084 1609 2770 
Q 1281 2456 1184 1953 
L 800 0 
L 225 0 
L 909 3500 
L 1484 3500 
L 1375 2956 
Q 1609 3263 1923 3423 
Q 2238 3584 2597 3584 
Q 2978 3584 3223 3384 
Q 3469 3184 3519 2828 
Q 3781 3197 4126 3390 
Q 4472 3584 4856 3584 
Q 5306 3584 5551 3325 
Q 5797 3066 5797 2591 
Q 5797 2488 5784 2364 
Q 5772 2241 5747 2113 
z
" transform="scale(0.015625)"/>
       <path id="DejaVuSans-2f" d="M 1625 4666 
L 2156 4666 
L 531 -594 
L 0 -594 
L 1625 4666 
z
" transform="scale(0.015625)"/>
       <path id="DejaVuSans-Oblique-73" d="M 3200 3397 
L 3091 2853 
Q 2863 2978 2609 3040 
Q 2356 3103 2088 3103 
Q 1634 3103 1373 2948 
Q 1113 2794 1113 2528 
Q 1113 2219 1719 2053 
Q 1766 2041 1788 2034 
L 1972 1978 
Q 2547 1819 2739 1644 
Q 2931 1469 2931 1166 
Q 2931 609 2489 259 
Q 2047 -91 1331 -91 
Q 1053 -91 747 -37 
Q 441 16 72 128 
L 184 722 
Q 500 559 806 475 
Q 1113 391 1394 391 
Q 1816 391 2080 572 
Q 2344 753 2344 1031 
Q 2344 1331 1650 1516 
L 1591 1531 
L 1394 1581 
Q 956 1697 753 1886 
Q 550 2075 550 2369 
Q 550 2928 970 3256 
Q 1391 3584 2113 3584 
Q 2397 3584 2667 3537 
Q 2938 3491 3200 3397 
z
" transform="scale(0.015625)"/>
      </defs>
      <use xlink:href="#DejaVuSans-53" transform="translate(0 0.765625)"/>
      <use xlink:href="#DejaVuSans-70" transform="translate(63.476562 0.765625)"/>
      <use xlink:href="#DejaVuSans-65" transform="translate(126.953125 0.765625)"/>
      <use xlink:href="#DejaVuSans-63" transform="translate(188.476562 0.765625)"/>
      <use xlink:href="#DejaVuSans-69" transform="translate(243.457031 0.765625)"/>
      <use xlink:href="#DejaVuSans-66" transform="translate(271.240234 0.765625)"/>
      <use xlink:href="#DejaVuSans-69" transform="translate(306.445312 0.765625)"/>
      <use xlink:href="#DejaVuSans-63" transform="translate(334.228516 0.765625)"/>
      <use xlink:href="#DejaVuSans-20" transform="translate(389.208984 0.765625)"/>
      <use xlink:href="#DejaVuSans-45" transform="translate(420.996094 0.765625)"/>
      <use xlink:href="#DejaVuSans-6e" transform="translate(484.179688 0.765625)"/>
      <use xlink:href="#DejaVuSans-65" transform="translate(547.558594 0.765625)"/>
      <use xlink:href="#DejaVuSans-72" transform="translate(609.082031 0.765625)"/>
      <use xlink:href="#DejaVuSans-67" transform="translate(650.195312 0.765625)"/>
      <use xlink:href="#DejaVuSans-79" transform="translate(713.671875 0.765625)"/>
      <use xlink:href="#DejaVuSans-20" transform="translate(772.851562 0.765625)"/>
      <use xlink:href="#DejaVuSans-28" transform="translate(804.638672 0.765625)"/>
      <use xlink:href="#DejaVuSans-Oblique-6b" transform="translate(843.652344 0.765625)"/>
      <use xlink:href="#DejaVuSans-Oblique-6d" transform="translate(901.5625 0.765625)"/>
      <use xlink:href="#DejaVuSans-32" transform="translate(1003.624505 39.046875) scale(0.7)"/>
      <use xlink:href="#DejaVuSans-2f" transform="translate(1050.895013 0.765625)"/>
      <use xlink:href="#DejaVuSans-Oblique-73" transform="translate(1084.586419 0.765625)"/>
      <use xlink:href="#DejaVuSans-32" transform="translate(1141.335924 39.046875) scale(0.7)"/>
      <use xlink:href="#DejaVuSans-29" transform="translate(1188.606432 0.765625)"/>
     </g>
    </g>
   </g>
   <g id="line2d_18">
    <path d="M 74.654408 -1 
L 75.54528 20.723225 
L 78.40224 80.623826 
L 79.53312 100.508299 
L 80.32672 110.907215 
L 80.94176 116.352648 
L 81.42784 118.929941 
L 81.83456 120.0312 
L 82.19168 120.427888 
L 82.76704 120.649721 
L 83.16384 120.950878 
L 83.57056 121.579429 
L 84.09632 122.85746 
L 84.98912 125.72839 
L 86.10016 129.115606 
L 86.58624 129.963398 
L 86.90368 130.141061 
L 87.14176 130.034665 
L 87.4096 129.640153 
L 87.74688 128.700042 
L 88.18336 126.742718 
L 88.78848 122.871919 
L 90.31616 112.701275 
L 90.9312 110.244373 
L 91.49664 108.82617 
L 92.04224 108.020373 
L 92.68704 107.480673 
L 93.3616 106.872693 
L 93.77824 106.147628 
L 94.19488 104.936451 
L 94.67104 102.805379 
L 95.26624 99.015861 
L 97.528 83.376118 
L 98.08352 81.497414 
L 98.55968 80.586817 
L 98.94656 80.263215 
L 99.29376 80.24001 
L 99.7104 80.453781 
L 100.62304 80.979207 
L 100.91072 80.860628 
L 101.20832 80.46965 
L 101.56544 79.590545 
L 102.03168 77.786483 
L 102.76576 73.904091 
L 103.9264 67.925067 
L 104.49184 66.101961 
L 104.92832 65.344563 
L 105.25568 65.155239 
L 105.53344 65.247328 
L 105.84096 65.614961 
L 106.23776 66.48108 
L 106.79328 68.30264 
L 108.02336 72.475669 
L 108.41024 73.023145 
L 108.688 73.091812 
L 108.95584 72.921279 
L 109.32288 72.378849 
L 109.93792 70.991356 
L 110.89024 68.928312 
L 111.33664 68.439861 
L 111.664 68.374898 
L 111.95168 68.54918 
L 112.27904 69.032617 
L 112.67584 70.055844 
L 113.152 71.954452 
L 113.75712 75.373284 
L 115.44352 85.49826 
L 115.9792 87.16036 
L 116.46528 88.010126 
L 116.9712 88.468009 
L 118.35008 89.477401 
L 118.8064 90.274642 
L 119.28256 91.58342 
L 119.7984 93.706764 
L 120.36384 97.052639 
L 121.09792 102.910424 
L 122.51648 114.364228 
L 123.25056 118.366084 
L 123.99456 121.230168 
L 124.94688 123.952965 
L 126.00832 127.093977 
L 126.6432 129.740424 
L 127.24832 133.273762 
L 127.9328 138.717977 
L 130.28384 158.767581 
L 131.17664 163.850604 
L 132.12896 168.003566 
L 133.82528 175.090913 
L 134.48992 179.206302 
L 135.25376 185.485339 
L 137.93216 208.790642 
L 139.01344 215.760067 
L 141.41408 230.25526 
L 142.24736 237.805352 
L 145.55072 269.673057 
L 146.55264 276.331992 
L 149.77664 294.890487 
L 150.51072 297.909393 
L 151.08608 299.423974 
L 151.5424 300.065694 
L 151.89952 300.231912 
L 152.22688 300.145081 
L 152.61376 299.791008 
L 153.19904 298.904544 
L 155.67904 294.404929 
L 156.29408 292.588606 
L 156.95872 289.880138 
L 157.792 285.467074 
L 160.10336 272.611007 
L 160.55968 271.492403 
L 160.9168 271.120107 
L 161.23424 271.085451 
L 161.6112 271.291187 
L 162.34528 272.01714 
L 163.33728 272.888267 
L 164.61696 273.94832 
L 165.15264 274.744579 
L 165.64864 275.904382 
L 166.15456 277.700467 
L 166.72 280.602757 
L 168.77344 292.165483 
L 169.19008 293.039535 
L 169.50752 293.270721 
L 169.76544 293.201542 
L 170.07296 292.850157 
L 170.4896 291.984882 
L 171.11456 290.101779 
L 174.59648 277.930851 
L 175.31072 273.464328 
L 177.86016 256.49112 
L 178.48512 254.144938 
L 178.98112 253.05004 
L 179.38784 252.6238 
L 179.7648 252.532963 
L 180.3104 252.675165 
L 180.84608 252.730048 
L 181.22304 252.531296 
L 181.66944 252.008888 
L 182.42336 250.706139 
L 183.4848 248.977805 
L 184.04032 248.463821 
L 184.45696 248.352366 
L 184.824 248.486667 
L 185.21088 248.887111 
L 185.6672 249.70979 
L 186.25248 251.272434 
L 187.4528 255.337075 
L 188.20672 257.392082 
L 188.81184 258.433468 
L 189.42688 259.061662 
L 190.16096 259.485389 
L 192.0656 260.430824 
L 192.6608 261.115583 
L 193.33536 262.256992 
L 195.6864 266.595421 
L 196.25184 267.018608 
L 196.76768 267.144436 
L 197.2736 267.040134 
L 197.80928 266.690259 
L 198.42432 266.002833 
L 199.37664 264.541587 
L 200.46784 262.985914 
L 201.17216 262.35638 
L 201.936 261.979051 
L 203.50336 261.281134 
L 204.168 260.687257 
L 204.7632 259.849724 
L 205.34848 258.617807 
L 206.02304 256.625423 
L 208.12608 249.960214 
L 208.70144 249.016594 
L 209.19744 248.597124 
L 209.65376 248.490084 
L 210.13984 248.61125 
L 210.7648 249.017532 
L 212.06432 249.916853 
L 212.46112 249.883952 
L 212.85792 249.612139 
L 213.55232 248.792689 
L 214.12768 248.273462 
L 214.47488 248.225038 
L 214.7824 248.408912 
L 215.1296 248.903445 
L 215.55616 249.948275 
L 216.08192 251.889245 
L 216.75648 255.317564 
L 217.72864 261.567447 
L 219.46464 272.785875 
L 220.41696 277.158237 
L 221.64704 282.930691 
L 222.97632 290.499769 
L 224.46432 298.641473 
L 225.1984 301.506793 
L 225.744 302.840318 
L 226.18048 303.385443 
L 226.56736 303.53992 
L 227.01376 303.462387 
L 227.728 303.073575 
L 228.56128 302.383964 
L 229.216 301.54892 
L 229.8112 300.416325 
L 230.4064 298.780697 
L 231.03136 296.371758 
L 231.73568 292.699486 
L 232.67808 286.44788 
L 234.01728 277.752378 
L 234.80096 274.165803 
L 235.63424 271.368748 
L 236.67584 268.682167 
L 238.94752 263.579333 
L 239.37408 263.13419 
L 239.65184 263.117652 
L 239.90976 263.343476 
L 240.21728 263.949716 
L 240.61408 265.280293 
L 241.15968 267.976774 
L 242.09216 273.916921 
L 243.81824 284.825014 
L 244.68128 288.826383 
L 245.69312 292.392261 
L 248.71872 302.021595 
L 249.17504 302.56785 
L 249.52224 302.681279 
L 249.83968 302.550978 
L 250.1968 302.140439 
L 250.65312 301.234787 
L 251.288 299.407549 
L 254.6608 288.073612 
L 255.4544 284.139344 
L 256.41664 278.136646 
L 258.79744 262.699434 
L 259.3728 260.717073 
L 259.9184 259.587552 
L 260.58304 258.739919 
L 261.952 257.100945 
L 262.83488 255.57454 
L 264.83872 251.948849 
L 265.21568 251.747828 
L 265.50336 251.832208 
L 265.8208 252.181997 
L 266.24736 253.034372 
L 266.92192 254.972073 
L 268.896 260.874429 
L 269.6896 262.474248 
L 270.39392 263.424116 
L 271.06848 263.974819 
L 272.54656 265.008823 
L 273.12192 265.883337 
L 274.0048 267.706282 
L 275.7408 271.282147 
L 276.584 272.513675 
L 277.23872 273.108052 
L 277.76448 273.30801 
L 278.23072 273.252277 
L 278.7168 272.958049 
L 279.37152 272.266552 
L 281.63328 269.685701 
L 282.71456 268.843564 
L 283.78592 268.303285 
L 284.768 267.757498 
L 285.30368 267.179733 
L 285.81952 266.273225 
L 286.44448 264.671549 
L 287.61504 260.883372 
L 288.79552 257.387614 
L 289.48992 255.951329 
L 290.00576 255.340813 
L 290.41248 255.172298 
L 290.79936 255.256532 
L 291.27552 255.615391 
L 292.64448 256.78568 
L 293.0512 256.781067 
L 293.50752 256.536187 
L 295.11456 255.460598 
L 295.49152 255.57283 
L 295.85856 255.933831 
L 296.25536 256.664362 
L 296.71168 258.018862 
L 297.24736 260.372815 
L 297.98144 264.741816 
L 299.81664 276.050409 
L 300.69952 279.822453 
L 304.05248 292.944693 
L 304.9056 296.177186 
L 305.39168 297.248679 
L 305.73888 297.564483 
L 306.01664 297.548425 
L 306.31424 297.287432 
L 306.71104 296.604268 
L 307.29632 295.087605 
L 308.58592 290.923765 
L 309.88544 287.099209 
L 311.056 283.673394 
L 311.66112 281.020451 
L 312.53408 275.999891 
L 313.65504 269.853305 
L 314.2304 267.815279 
L 314.65696 267.006322 
L 314.96448 266.816497 
L 315.2224 266.908164 
L 315.52 267.285064 
L 315.9168 268.19955 
L 316.4624 270.085169 
L 318.62496 278.254644 
L 319.8848 281.752568 
L 320.6288 284.705014 
L 321.61088 289.617056 
L 323.43616 298.841548 
L 324.06112 300.858226 
L 324.51744 301.680594 
L 324.88448 301.944482 
L 325.23168 301.930443 
L 325.688 301.659833 
L 326.4816 300.883016 
L 327.3744 299.720626 
L 328.0688 298.447821 
L 328.69376 296.822445 
L 329.3088 294.569926 
L 329.9536 291.309563 
L 330.68768 286.360355 
L 331.86816 276.544653 
L 333.03872 267.607985 
L 334.15968 260.833403 
L 337.0464 244.27837 
L 339.02048 231.397402 
L 339.63552 229.014537 
L 340.18112 227.717686 
L 340.68704 227.039002 
L 341.18304 226.720832 
L 341.7584 226.621434 
L 342.82976 226.486876 
L 343.25632 226.150135 
L 343.70272 225.486021 
L 344.24832 224.231193 
L 345.24032 221.243372 
L 346.0736 219.064655 
L 346.6192 218.196517 
L 347.07552 217.849372 
L 347.48224 217.803683 
L 347.9088 217.987231 
L 348.42464 218.475923 
L 349.1488 219.513824 
L 350.1408 220.882815 
L 350.54752 221.086919 
L 350.87488 221.009019 
L 351.232 220.670212 
L 351.69824 219.880458 
L 352.45216 218.082908 
L 353.75168 215.026665 
L 354.4064 214.039107 
L 354.92224 213.619432 
L 355.3488 213.533985 
L 355.75552 213.68492 
L 356.22176 214.122236 
L 357.7296 215.758436 
L 358.05696 215.687223 
L 358.40416 215.359425 
L 358.85056 214.59144 
L 359.47552 213.016678 
L 362.15392 205.683414 
L 362.63008 205.157295 
L 362.9872 205.060311 
L 363.31456 205.204042 
L 363.74112 205.66533 
L 364.86208 206.981715 
L 365.22912 207.04083 
L 365.57632 206.861727 
L 365.99296 206.364088 
L 366.53856 205.319773 
L 367.34208 203.232788 
L 368.95904 198.968808 
L 369.46496 198.231147 
L 369.81216 198.061033 
L 370.08992 198.161187 
L 370.40736 198.540675 
L 370.85376 199.479435 
L 372.57984 203.503004 
L 373.09568 204.026814 
L 373.552 204.19432 
L 374.00832 204.122251 
L 374.57376 203.786349 
L 375.89312 202.919981 
L 376.25024 202.989489 
L 376.56768 203.291876 
L 376.9248 203.979464 
L 377.35136 205.347309 
L 377.92672 208.041604 
L 380.496 221.123376 
L 381.2896 223.658492 
L 382.1824 225.740456 
L 382.976 227.721489 
L 383.49184 229.673187 
L 384.0176 232.594384 
L 384.67232 237.639119 
L 386.3984 251.648276 
L 386.78528 253.056165 
L 387.0432 253.344546 
L 387.2912 253.297388 
L 387.4896 253.041137 
L 387.69792 252.33024 
L 388.01536 250.245146 
L 388.67008 245.993897 
L 388.9776 245.239958 
L 389.18592 245.173577 
L 389.3744 245.376482 
L 389.65216 246.055378 
L 390.07872 247.76651 
L 390.87232 252.067773 
L 392.12224 258.549713 
L 395.20736 273.2895 
L 397.79648 287.310803 
L 398.51072 289.635606 
L 399.18528 291.118519 
L 399.8896 292.14762 
L 400.6336 292.850659 
L 401.41728 293.292891 
L 402.08192 293.4381 
L 402.53824 293.328587 
L 402.92512 293.001088 
L 403.32192 292.349485 
L 403.77824 291.126001 
L 404.33376 288.925868 
L 405.048 285.092197 
L 406.10944 278.019708 
L 409.37312 253.976782 
L 410.23616 246.173479 
L 411.15872 235.574166 
L 412.74592 214.205725 
L 414.69024 188.943218 
L 414.72992 188.476084 
L 414.72992 188.476084 
" clip-path="url(#pa9dce7f61d)" style="fill: none; stroke: #0000ff; stroke-width: 1.5; stroke-linecap: square"/>
   </g>
   <g id="line2d_19">
    <path d="M 57.6 260.623059 
L 414.72992 260.623059 
L 414.72992 260.623059 
" clip-path="url(#pa9dce7f61d)" style="fill: none; stroke-dasharray: 5.55,2.4; stroke-dashoffset: 0; stroke: #008000; stroke-width: 1.5"/>
   </g>
   <g id="patch_3">
    <path d="M 57.6 307.584 
L 57.6 41.472 
" style="fill: none; stroke: #000000; stroke-width: 0.8; stroke-linejoin: miter; stroke-linecap: square"/>
   </g>
   <g id="patch_4">
    <path d="M 414.72 307.584 
L 414.72 41.472 
" style="fill: none; stroke: #000000; stroke-width: 0.8; stroke-linejoin: miter; stroke-linecap: square"/>
   </g>
   <g id="patch_5">
    <path d="M 57.6 307.584 
L 414.72 307.584 
" style="fill: none; stroke: #000000; stroke-width: 0.8; stroke-linejoin: miter; stroke-linecap: square"/>
   </g>
   <g id="patch_6">
    <path d="M 57.6 41.472 
L 414.72 41.472 
" style="fill: none; stroke: #000000; stroke-width: 0.8; stroke-linejoin: miter; stroke-linecap: square"/>
   </g>
  </g>
 </g>
 <defs>
  <clipPath id="pa9dce7f61d">
   <rect x="57.6" y="41.472" width="357.12" height="266.112"/>
  </clipPath>
 </defs>
</svg>
